G04 #@! TF.GenerationSoftware,KiCad,Pcbnew,(5.1.8-0-10_14)*
G04 #@! TF.CreationDate,2021-09-22T21:25:59-04:00*
G04 #@! TF.ProjectId,WiiComp_Sub,57696943-6f6d-4705-9f53-75622e6b6963,1*
G04 #@! TF.SameCoordinates,Original*
G04 #@! TF.FileFunction,Legend,Top*
G04 #@! TF.FilePolarity,Positive*
%FSLAX46Y46*%
G04 Gerber Fmt 4.6, Leading zero omitted, Abs format (unit mm)*
G04 Created by KiCad (PCBNEW (5.1.8-0-10_14)) date 2021-09-22 21:25:59*
%MOMM*%
%LPD*%
G01*
G04 APERTURE LIST*
%ADD10C,0.150000*%
%ADD11C,0.501600*%
G04 APERTURE END LIST*
D10*
X132147142Y-106337380D02*
X132718571Y-106337380D01*
X132432857Y-107337380D02*
X132432857Y-106337380D01*
X133051904Y-107337380D02*
X133051904Y-106337380D01*
X133480476Y-107337380D02*
X133480476Y-106813571D01*
X133432857Y-106718333D01*
X133337619Y-106670714D01*
X133194761Y-106670714D01*
X133099523Y-106718333D01*
X133051904Y-106765952D01*
X133956666Y-107337380D02*
X133956666Y-106670714D01*
X133956666Y-106337380D02*
X133909047Y-106385000D01*
X133956666Y-106432619D01*
X134004285Y-106385000D01*
X133956666Y-106337380D01*
X133956666Y-106432619D01*
X134385238Y-107289761D02*
X134480476Y-107337380D01*
X134670952Y-107337380D01*
X134766190Y-107289761D01*
X134813809Y-107194523D01*
X134813809Y-107146904D01*
X134766190Y-107051666D01*
X134670952Y-107004047D01*
X134528095Y-107004047D01*
X134432857Y-106956428D01*
X134385238Y-106861190D01*
X134385238Y-106813571D01*
X134432857Y-106718333D01*
X134528095Y-106670714D01*
X134670952Y-106670714D01*
X134766190Y-106718333D01*
X135956666Y-107289761D02*
X136051904Y-107337380D01*
X136242380Y-107337380D01*
X136337619Y-107289761D01*
X136385238Y-107194523D01*
X136385238Y-107146904D01*
X136337619Y-107051666D01*
X136242380Y-107004047D01*
X136099523Y-107004047D01*
X136004285Y-106956428D01*
X135956666Y-106861190D01*
X135956666Y-106813571D01*
X136004285Y-106718333D01*
X136099523Y-106670714D01*
X136242380Y-106670714D01*
X136337619Y-106718333D01*
X136813809Y-107337380D02*
X136813809Y-106670714D01*
X136813809Y-106337380D02*
X136766190Y-106385000D01*
X136813809Y-106432619D01*
X136861428Y-106385000D01*
X136813809Y-106337380D01*
X136813809Y-106432619D01*
X137718571Y-107337380D02*
X137718571Y-106337380D01*
X137718571Y-107289761D02*
X137623333Y-107337380D01*
X137432857Y-107337380D01*
X137337619Y-107289761D01*
X137290000Y-107242142D01*
X137242380Y-107146904D01*
X137242380Y-106861190D01*
X137290000Y-106765952D01*
X137337619Y-106718333D01*
X137432857Y-106670714D01*
X137623333Y-106670714D01*
X137718571Y-106718333D01*
X138575714Y-107289761D02*
X138480476Y-107337380D01*
X138290000Y-107337380D01*
X138194761Y-107289761D01*
X138147142Y-107194523D01*
X138147142Y-106813571D01*
X138194761Y-106718333D01*
X138290000Y-106670714D01*
X138480476Y-106670714D01*
X138575714Y-106718333D01*
X138623333Y-106813571D01*
X138623333Y-106908809D01*
X138147142Y-107004047D01*
X139766190Y-107289761D02*
X139861428Y-107337380D01*
X140051904Y-107337380D01*
X140147142Y-107289761D01*
X140194761Y-107194523D01*
X140194761Y-107146904D01*
X140147142Y-107051666D01*
X140051904Y-107004047D01*
X139909047Y-107004047D01*
X139813809Y-106956428D01*
X139766190Y-106861190D01*
X139766190Y-106813571D01*
X139813809Y-106718333D01*
X139909047Y-106670714D01*
X140051904Y-106670714D01*
X140147142Y-106718333D01*
X140623333Y-107337380D02*
X140623333Y-106337380D01*
X141051904Y-107337380D02*
X141051904Y-106813571D01*
X141004285Y-106718333D01*
X140909047Y-106670714D01*
X140766190Y-106670714D01*
X140670952Y-106718333D01*
X140623333Y-106765952D01*
X141670952Y-107337380D02*
X141575714Y-107289761D01*
X141528095Y-107242142D01*
X141480476Y-107146904D01*
X141480476Y-106861190D01*
X141528095Y-106765952D01*
X141575714Y-106718333D01*
X141670952Y-106670714D01*
X141813809Y-106670714D01*
X141909047Y-106718333D01*
X141956666Y-106765952D01*
X142004285Y-106861190D01*
X142004285Y-107146904D01*
X141956666Y-107242142D01*
X141909047Y-107289761D01*
X141813809Y-107337380D01*
X141670952Y-107337380D01*
X142861428Y-106670714D02*
X142861428Y-107337380D01*
X142432857Y-106670714D02*
X142432857Y-107194523D01*
X142480476Y-107289761D01*
X142575714Y-107337380D01*
X142718571Y-107337380D01*
X142813809Y-107289761D01*
X142861428Y-107242142D01*
X143480476Y-107337380D02*
X143385238Y-107289761D01*
X143337619Y-107194523D01*
X143337619Y-106337380D01*
X144290000Y-107337380D02*
X144290000Y-106337380D01*
X144290000Y-107289761D02*
X144194761Y-107337380D01*
X144004285Y-107337380D01*
X143909047Y-107289761D01*
X143861428Y-107242142D01*
X143813809Y-107146904D01*
X143813809Y-106861190D01*
X143861428Y-106765952D01*
X143909047Y-106718333D01*
X144004285Y-106670714D01*
X144194761Y-106670714D01*
X144290000Y-106718333D01*
X133051904Y-108987380D02*
X133051904Y-107987380D01*
X133623333Y-108987380D01*
X133623333Y-107987380D01*
X134290000Y-107987380D02*
X134480476Y-107987380D01*
X134575714Y-108035000D01*
X134670952Y-108130238D01*
X134718571Y-108320714D01*
X134718571Y-108654047D01*
X134670952Y-108844523D01*
X134575714Y-108939761D01*
X134480476Y-108987380D01*
X134290000Y-108987380D01*
X134194761Y-108939761D01*
X134099523Y-108844523D01*
X134051904Y-108654047D01*
X134051904Y-108320714D01*
X134099523Y-108130238D01*
X134194761Y-108035000D01*
X134290000Y-107987380D01*
X135004285Y-107987380D02*
X135575714Y-107987380D01*
X135290000Y-108987380D02*
X135290000Y-107987380D01*
X136670952Y-108987380D02*
X136670952Y-107987380D01*
X136670952Y-108368333D02*
X136766190Y-108320714D01*
X136956666Y-108320714D01*
X137051904Y-108368333D01*
X137099523Y-108415952D01*
X137147142Y-108511190D01*
X137147142Y-108796904D01*
X137099523Y-108892142D01*
X137051904Y-108939761D01*
X136956666Y-108987380D01*
X136766190Y-108987380D01*
X136670952Y-108939761D01*
X137956666Y-108939761D02*
X137861428Y-108987380D01*
X137670952Y-108987380D01*
X137575714Y-108939761D01*
X137528095Y-108844523D01*
X137528095Y-108463571D01*
X137575714Y-108368333D01*
X137670952Y-108320714D01*
X137861428Y-108320714D01*
X137956666Y-108368333D01*
X138004285Y-108463571D01*
X138004285Y-108558809D01*
X137528095Y-108654047D01*
X139099523Y-108320714D02*
X139337619Y-108987380D01*
X139575714Y-108320714D01*
X139956666Y-108987380D02*
X139956666Y-108320714D01*
X139956666Y-107987380D02*
X139909047Y-108035000D01*
X139956666Y-108082619D01*
X140004285Y-108035000D01*
X139956666Y-107987380D01*
X139956666Y-108082619D01*
X140385238Y-108939761D02*
X140480476Y-108987380D01*
X140670952Y-108987380D01*
X140766190Y-108939761D01*
X140813809Y-108844523D01*
X140813809Y-108796904D01*
X140766190Y-108701666D01*
X140670952Y-108654047D01*
X140528095Y-108654047D01*
X140432857Y-108606428D01*
X140385238Y-108511190D01*
X140385238Y-108463571D01*
X140432857Y-108368333D01*
X140528095Y-108320714D01*
X140670952Y-108320714D01*
X140766190Y-108368333D01*
X141242380Y-108987380D02*
X141242380Y-108320714D01*
X141242380Y-107987380D02*
X141194761Y-108035000D01*
X141242380Y-108082619D01*
X141290000Y-108035000D01*
X141242380Y-107987380D01*
X141242380Y-108082619D01*
X141718571Y-108987380D02*
X141718571Y-107987380D01*
X141718571Y-108368333D02*
X141813809Y-108320714D01*
X142004285Y-108320714D01*
X142099523Y-108368333D01*
X142147142Y-108415952D01*
X142194761Y-108511190D01*
X142194761Y-108796904D01*
X142147142Y-108892142D01*
X142099523Y-108939761D01*
X142004285Y-108987380D01*
X141813809Y-108987380D01*
X141718571Y-108939761D01*
X142766190Y-108987380D02*
X142670952Y-108939761D01*
X142623333Y-108844523D01*
X142623333Y-107987380D01*
X143528095Y-108939761D02*
X143432857Y-108987380D01*
X143242380Y-108987380D01*
X143147142Y-108939761D01*
X143099523Y-108844523D01*
X143099523Y-108463571D01*
X143147142Y-108368333D01*
X143242380Y-108320714D01*
X143432857Y-108320714D01*
X143528095Y-108368333D01*
X143575714Y-108463571D01*
X143575714Y-108558809D01*
X143099523Y-108654047D01*
%LPC*%
D11*
X145440000Y-111170000D03*
X143180000Y-111170000D03*
X140920000Y-111170000D03*
X136130000Y-111170000D03*
X133885000Y-111160000D03*
G36*
G01*
X144639200Y-112500400D02*
X144639200Y-111199600D01*
G75*
G02*
X145039600Y-110799200I400400J0D01*
G01*
X145840400Y-110799200D01*
G75*
G02*
X146240800Y-111199600I0J-400400D01*
G01*
X146240800Y-112500400D01*
G75*
G02*
X145840400Y-112900800I-400400J0D01*
G01*
X145039600Y-112900800D01*
G75*
G02*
X144639200Y-112500400I0J400400D01*
G01*
G37*
G36*
G01*
X142379200Y-112500400D02*
X142379200Y-111199600D01*
G75*
G02*
X142779600Y-110799200I400400J0D01*
G01*
X143580400Y-110799200D01*
G75*
G02*
X143980800Y-111199600I0J-400400D01*
G01*
X143980800Y-112500400D01*
G75*
G02*
X143580400Y-112900800I-400400J0D01*
G01*
X142779600Y-112900800D01*
G75*
G02*
X142379200Y-112500400I0J400400D01*
G01*
G37*
G36*
G01*
X140119200Y-112500400D02*
X140119200Y-111199600D01*
G75*
G02*
X140519600Y-110799200I400400J0D01*
G01*
X141320400Y-110799200D01*
G75*
G02*
X141720800Y-111199600I0J-400400D01*
G01*
X141720800Y-112500400D01*
G75*
G02*
X141320400Y-112900800I-400400J0D01*
G01*
X140519600Y-112900800D01*
G75*
G02*
X140119200Y-112500400I0J400400D01*
G01*
G37*
G36*
G01*
X135329200Y-112510400D02*
X135329200Y-111209600D01*
G75*
G02*
X135729600Y-110809200I400400J0D01*
G01*
X136530400Y-110809200D01*
G75*
G02*
X136930800Y-111209600I0J-400400D01*
G01*
X136930800Y-112510400D01*
G75*
G02*
X136530400Y-112910800I-400400J0D01*
G01*
X135729600Y-112910800D01*
G75*
G02*
X135329200Y-112510400I0J400400D01*
G01*
G37*
G36*
G01*
X133084200Y-112500400D02*
X133084200Y-111199600D01*
G75*
G02*
X133484600Y-110799200I400400J0D01*
G01*
X134285400Y-110799200D01*
G75*
G02*
X134685800Y-111199600I0J-400400D01*
G01*
X134685800Y-112500400D01*
G75*
G02*
X134285400Y-112900800I-400400J0D01*
G01*
X133484600Y-112900800D01*
G75*
G02*
X133084200Y-112500400I0J400400D01*
G01*
G37*
X131640000Y-111160000D03*
G36*
G01*
X130839200Y-112500400D02*
X130839200Y-111199600D01*
G75*
G02*
X131239600Y-110799200I400400J0D01*
G01*
X132040400Y-110799200D01*
G75*
G02*
X132440800Y-111199600I0J-400400D01*
G01*
X132440800Y-112500400D01*
G75*
G02*
X132040400Y-112900800I-400400J0D01*
G01*
X131239600Y-112900800D01*
G75*
G02*
X130839200Y-112500400I0J400400D01*
G01*
G37*
M02*
