G04 #@! TF.GenerationSoftware,KiCad,Pcbnew,(5.1.10-1-10_14)*
G04 #@! TF.CreationDate,2021-10-23T21:57:51-04:00*
G04 #@! TF.ProjectId,WiiComp_Sub,57696943-6f6d-4705-9f53-75622e6b6963,1*
G04 #@! TF.SameCoordinates,Original*
G04 #@! TF.FileFunction,Copper,L2,Bot*
G04 #@! TF.FilePolarity,Positive*
%FSLAX46Y46*%
G04 Gerber Fmt 4.6, Leading zero omitted, Abs format (unit mm)*
G04 Created by KiCad (PCBNEW (5.1.10-1-10_14)) date 2021-10-23 21:57:51*
%MOMM*%
%LPD*%
G01*
G04 APERTURE LIST*
G04 #@! TA.AperFunction,ComponentPad*
%ADD10C,0.400000*%
G04 #@! TD*
G04 #@! TA.AperFunction,ViaPad*
%ADD11C,0.700000*%
G04 #@! TD*
G04 #@! TA.AperFunction,Conductor*
%ADD12C,0.250000*%
G04 #@! TD*
G04 #@! TA.AperFunction,Conductor*
%ADD13C,0.160000*%
G04 #@! TD*
G04 #@! TA.AperFunction,Conductor*
%ADD14C,0.152400*%
G04 #@! TD*
G04 APERTURE END LIST*
D10*
X145440000Y-111170000D03*
X143180000Y-111170000D03*
X140920000Y-111170000D03*
X136130000Y-111170000D03*
X133885000Y-111160000D03*
G04 #@! TA.AperFunction,ComponentPad*
G36*
G01*
X144690000Y-112475000D02*
X144690000Y-111225000D01*
G75*
G02*
X145065000Y-110850000I375000J0D01*
G01*
X145815000Y-110850000D01*
G75*
G02*
X146190000Y-111225000I0J-375000D01*
G01*
X146190000Y-112475000D01*
G75*
G02*
X145815000Y-112850000I-375000J0D01*
G01*
X145065000Y-112850000D01*
G75*
G02*
X144690000Y-112475000I0J375000D01*
G01*
G37*
G04 #@! TD.AperFunction*
G04 #@! TA.AperFunction,ComponentPad*
G36*
G01*
X142430000Y-112475000D02*
X142430000Y-111225000D01*
G75*
G02*
X142805000Y-110850000I375000J0D01*
G01*
X143555000Y-110850000D01*
G75*
G02*
X143930000Y-111225000I0J-375000D01*
G01*
X143930000Y-112475000D01*
G75*
G02*
X143555000Y-112850000I-375000J0D01*
G01*
X142805000Y-112850000D01*
G75*
G02*
X142430000Y-112475000I0J375000D01*
G01*
G37*
G04 #@! TD.AperFunction*
G04 #@! TA.AperFunction,ComponentPad*
G36*
G01*
X140170000Y-112475000D02*
X140170000Y-111225000D01*
G75*
G02*
X140545000Y-110850000I375000J0D01*
G01*
X141295000Y-110850000D01*
G75*
G02*
X141670000Y-111225000I0J-375000D01*
G01*
X141670000Y-112475000D01*
G75*
G02*
X141295000Y-112850000I-375000J0D01*
G01*
X140545000Y-112850000D01*
G75*
G02*
X140170000Y-112475000I0J375000D01*
G01*
G37*
G04 #@! TD.AperFunction*
G04 #@! TA.AperFunction,ComponentPad*
G36*
G01*
X135380000Y-112485000D02*
X135380000Y-111235000D01*
G75*
G02*
X135755000Y-110860000I375000J0D01*
G01*
X136505000Y-110860000D01*
G75*
G02*
X136880000Y-111235000I0J-375000D01*
G01*
X136880000Y-112485000D01*
G75*
G02*
X136505000Y-112860000I-375000J0D01*
G01*
X135755000Y-112860000D01*
G75*
G02*
X135380000Y-112485000I0J375000D01*
G01*
G37*
G04 #@! TD.AperFunction*
G04 #@! TA.AperFunction,ComponentPad*
G36*
G01*
X133135000Y-112475000D02*
X133135000Y-111225000D01*
G75*
G02*
X133510000Y-110850000I375000J0D01*
G01*
X134260000Y-110850000D01*
G75*
G02*
X134635000Y-111225000I0J-375000D01*
G01*
X134635000Y-112475000D01*
G75*
G02*
X134260000Y-112850000I-375000J0D01*
G01*
X133510000Y-112850000D01*
G75*
G02*
X133135000Y-112475000I0J375000D01*
G01*
G37*
G04 #@! TD.AperFunction*
G04 #@! TA.AperFunction,ConnectorPad*
G36*
G01*
X143640000Y-108315000D02*
X143640000Y-106065000D01*
G75*
G02*
X144115000Y-105590000I475000J0D01*
G01*
X145065000Y-105590000D01*
G75*
G02*
X145540000Y-106065000I0J-475000D01*
G01*
X145540000Y-108315000D01*
G75*
G02*
X145065000Y-108790000I-475000J0D01*
G01*
X144115000Y-108790000D01*
G75*
G02*
X143640000Y-108315000I0J475000D01*
G01*
G37*
G04 #@! TD.AperFunction*
G04 #@! TA.AperFunction,ConnectorPad*
G36*
G01*
X141220000Y-108315000D02*
X141220000Y-106065000D01*
G75*
G02*
X141695000Y-105590000I475000J0D01*
G01*
X142645000Y-105590000D01*
G75*
G02*
X143120000Y-106065000I0J-475000D01*
G01*
X143120000Y-108315000D01*
G75*
G02*
X142645000Y-108790000I-475000J0D01*
G01*
X141695000Y-108790000D01*
G75*
G02*
X141220000Y-108315000I0J475000D01*
G01*
G37*
G04 #@! TD.AperFunction*
G04 #@! TA.AperFunction,ConnectorPad*
G36*
G01*
X138800000Y-108315000D02*
X138800000Y-106065000D01*
G75*
G02*
X139275000Y-105590000I475000J0D01*
G01*
X140225000Y-105590000D01*
G75*
G02*
X140700000Y-106065000I0J-475000D01*
G01*
X140700000Y-108315000D01*
G75*
G02*
X140225000Y-108790000I-475000J0D01*
G01*
X139275000Y-108790000D01*
G75*
G02*
X138800000Y-108315000I0J475000D01*
G01*
G37*
G04 #@! TD.AperFunction*
G04 #@! TA.AperFunction,ConnectorPad*
G36*
G01*
X136380000Y-108315000D02*
X136380000Y-106065000D01*
G75*
G02*
X136855000Y-105590000I475000J0D01*
G01*
X137805000Y-105590000D01*
G75*
G02*
X138280000Y-106065000I0J-475000D01*
G01*
X138280000Y-108315000D01*
G75*
G02*
X137805000Y-108790000I-475000J0D01*
G01*
X136855000Y-108790000D01*
G75*
G02*
X136380000Y-108315000I0J475000D01*
G01*
G37*
G04 #@! TD.AperFunction*
G04 #@! TA.AperFunction,ConnectorPad*
G36*
G01*
X133960000Y-108315000D02*
X133960000Y-106065000D01*
G75*
G02*
X134435000Y-105590000I475000J0D01*
G01*
X135385000Y-105590000D01*
G75*
G02*
X135860000Y-106065000I0J-475000D01*
G01*
X135860000Y-108315000D01*
G75*
G02*
X135385000Y-108790000I-475000J0D01*
G01*
X134435000Y-108790000D01*
G75*
G02*
X133960000Y-108315000I0J475000D01*
G01*
G37*
G04 #@! TD.AperFunction*
X131640000Y-111160000D03*
G04 #@! TA.AperFunction,ComponentPad*
G36*
G01*
X130890000Y-112475000D02*
X130890000Y-111225000D01*
G75*
G02*
X131265000Y-110850000I375000J0D01*
G01*
X132015000Y-110850000D01*
G75*
G02*
X132390000Y-111225000I0J-375000D01*
G01*
X132390000Y-112475000D01*
G75*
G02*
X132015000Y-112850000I-375000J0D01*
G01*
X131265000Y-112850000D01*
G75*
G02*
X130890000Y-112475000I0J375000D01*
G01*
G37*
G04 #@! TD.AperFunction*
G04 #@! TA.AperFunction,ConnectorPad*
G36*
G01*
X131540000Y-108315000D02*
X131540000Y-106065000D01*
G75*
G02*
X132015000Y-105590000I475000J0D01*
G01*
X132965000Y-105590000D01*
G75*
G02*
X133440000Y-106065000I0J-475000D01*
G01*
X133440000Y-108315000D01*
G75*
G02*
X132965000Y-108790000I-475000J0D01*
G01*
X132015000Y-108790000D01*
G75*
G02*
X131540000Y-108315000I0J475000D01*
G01*
G37*
G04 #@! TD.AperFunction*
D11*
X140930000Y-110010000D03*
X144340000Y-110010000D03*
X135010000Y-110010000D03*
X132770000Y-110010000D03*
X146090000Y-109080000D03*
X131000000Y-108960000D03*
D12*
X131630000Y-109590000D02*
X131630000Y-111180000D01*
X132490000Y-107190000D02*
X132490000Y-108730000D01*
X132490000Y-108730000D02*
X131630000Y-109590000D01*
X133860000Y-109610000D02*
X133860000Y-111160000D01*
X134910000Y-107190000D02*
X134910000Y-108560000D01*
X134910000Y-108560000D02*
X133860000Y-109610000D01*
X136130000Y-109710000D02*
X136130000Y-111170000D01*
X137330000Y-107190000D02*
X137330000Y-108510000D01*
X137330000Y-108510000D02*
X136130000Y-109710000D01*
X143160000Y-109740000D02*
X143160000Y-111170000D01*
X142170000Y-108750000D02*
X143160000Y-109740000D01*
X142170000Y-107190000D02*
X142170000Y-108750000D01*
X145440000Y-109760000D02*
X145440000Y-111170000D01*
X144590000Y-107190000D02*
X144590000Y-108910000D01*
X144590000Y-108910000D02*
X145440000Y-109760000D01*
D13*
X140992600Y-105925284D02*
X140978839Y-106065000D01*
X140978839Y-108315000D01*
X140992600Y-108454716D01*
X141033354Y-108589063D01*
X141099534Y-108712878D01*
X141188598Y-108821402D01*
X141297122Y-108910466D01*
X141420937Y-108976646D01*
X141555284Y-109017400D01*
X141695000Y-109031161D01*
X141934974Y-109031161D01*
X142795000Y-109891188D01*
X142795001Y-110609824D01*
X142684793Y-110620678D01*
X142569205Y-110655741D01*
X142462679Y-110712681D01*
X142369308Y-110789308D01*
X142292681Y-110882679D01*
X142235741Y-110989205D01*
X142200678Y-111104793D01*
X142188839Y-111225000D01*
X142188839Y-111860000D01*
X139860000Y-111860000D01*
X139860000Y-110585755D01*
X139859901Y-110584749D01*
X139859892Y-110583462D01*
X139858515Y-110570358D01*
X139858515Y-110557180D01*
X139858092Y-110553153D01*
X139835467Y-110351446D01*
X139830006Y-110325755D01*
X139824897Y-110299953D01*
X139823699Y-110296085D01*
X139762326Y-110102613D01*
X139751980Y-110078474D01*
X139741956Y-110054152D01*
X139740034Y-110050600D01*
X139740030Y-110050591D01*
X139740025Y-110050584D01*
X139642247Y-109872725D01*
X139627397Y-109851036D01*
X139612852Y-109829145D01*
X139610271Y-109826025D01*
X139479803Y-109670540D01*
X139461028Y-109652154D01*
X139442503Y-109633499D01*
X139439365Y-109630940D01*
X139281181Y-109503757D01*
X139259206Y-109489377D01*
X139237396Y-109474666D01*
X139233826Y-109472769D01*
X139233822Y-109472766D01*
X139233818Y-109472764D01*
X139053946Y-109378730D01*
X139029606Y-109368896D01*
X139005347Y-109358698D01*
X139001470Y-109357528D01*
X138806757Y-109300220D01*
X138780973Y-109295302D01*
X138755190Y-109290009D01*
X138751160Y-109289614D01*
X138549022Y-109271219D01*
X138522810Y-109271402D01*
X138496455Y-109271218D01*
X138492425Y-109271614D01*
X138290565Y-109292831D01*
X138264857Y-109298108D01*
X138239000Y-109303041D01*
X138235124Y-109304211D01*
X138041229Y-109364231D01*
X138017019Y-109374408D01*
X137992628Y-109384263D01*
X137989053Y-109386164D01*
X137810508Y-109482703D01*
X137788715Y-109497402D01*
X137766724Y-109511793D01*
X137763586Y-109514352D01*
X137607194Y-109643731D01*
X137588689Y-109662365D01*
X137569892Y-109680772D01*
X137567317Y-109683886D01*
X137567312Y-109683891D01*
X137567308Y-109683896D01*
X137439027Y-109841185D01*
X137424488Y-109863069D01*
X137409633Y-109884764D01*
X137407708Y-109888326D01*
X137312417Y-110067540D01*
X137302400Y-110091844D01*
X137292046Y-110116000D01*
X137290849Y-110119868D01*
X137232184Y-110314177D01*
X137227079Y-110339958D01*
X137221614Y-110365669D01*
X137221191Y-110369696D01*
X137201475Y-110570772D01*
X137200098Y-110583885D01*
X137191866Y-111860000D01*
X137121161Y-111860000D01*
X137121161Y-111235000D01*
X137109322Y-111114793D01*
X137074259Y-110999205D01*
X137017319Y-110892679D01*
X136940692Y-110799308D01*
X136847321Y-110722681D01*
X136740795Y-110665741D01*
X136625207Y-110630678D01*
X136505000Y-110618839D01*
X136495000Y-110618839D01*
X136495000Y-109861187D01*
X137325027Y-109031161D01*
X137805000Y-109031161D01*
X137944716Y-109017400D01*
X138079063Y-108976646D01*
X138202878Y-108910466D01*
X138311402Y-108821402D01*
X138400466Y-108712878D01*
X138466646Y-108589063D01*
X138507400Y-108454716D01*
X138521161Y-108315000D01*
X138521161Y-106065000D01*
X138507400Y-105925284D01*
X138493663Y-105880000D01*
X141006337Y-105880000D01*
X140992600Y-105925284D01*
G04 #@! TA.AperFunction,Conductor*
D14*
G36*
X140992600Y-105925284D02*
G01*
X140978839Y-106065000D01*
X140978839Y-108315000D01*
X140992600Y-108454716D01*
X141033354Y-108589063D01*
X141099534Y-108712878D01*
X141188598Y-108821402D01*
X141297122Y-108910466D01*
X141420937Y-108976646D01*
X141555284Y-109017400D01*
X141695000Y-109031161D01*
X141934974Y-109031161D01*
X142795000Y-109891188D01*
X142795001Y-110609824D01*
X142684793Y-110620678D01*
X142569205Y-110655741D01*
X142462679Y-110712681D01*
X142369308Y-110789308D01*
X142292681Y-110882679D01*
X142235741Y-110989205D01*
X142200678Y-111104793D01*
X142188839Y-111225000D01*
X142188839Y-111860000D01*
X139860000Y-111860000D01*
X139860000Y-110585755D01*
X139859901Y-110584749D01*
X139859892Y-110583462D01*
X139858515Y-110570358D01*
X139858515Y-110557180D01*
X139858092Y-110553153D01*
X139835467Y-110351446D01*
X139830006Y-110325755D01*
X139824897Y-110299953D01*
X139823699Y-110296085D01*
X139762326Y-110102613D01*
X139751980Y-110078474D01*
X139741956Y-110054152D01*
X139740034Y-110050600D01*
X139740030Y-110050591D01*
X139740025Y-110050584D01*
X139642247Y-109872725D01*
X139627397Y-109851036D01*
X139612852Y-109829145D01*
X139610271Y-109826025D01*
X139479803Y-109670540D01*
X139461028Y-109652154D01*
X139442503Y-109633499D01*
X139439365Y-109630940D01*
X139281181Y-109503757D01*
X139259206Y-109489377D01*
X139237396Y-109474666D01*
X139233826Y-109472769D01*
X139233822Y-109472766D01*
X139233818Y-109472764D01*
X139053946Y-109378730D01*
X139029606Y-109368896D01*
X139005347Y-109358698D01*
X139001470Y-109357528D01*
X138806757Y-109300220D01*
X138780973Y-109295302D01*
X138755190Y-109290009D01*
X138751160Y-109289614D01*
X138549022Y-109271219D01*
X138522810Y-109271402D01*
X138496455Y-109271218D01*
X138492425Y-109271614D01*
X138290565Y-109292831D01*
X138264857Y-109298108D01*
X138239000Y-109303041D01*
X138235124Y-109304211D01*
X138041229Y-109364231D01*
X138017019Y-109374408D01*
X137992628Y-109384263D01*
X137989053Y-109386164D01*
X137810508Y-109482703D01*
X137788715Y-109497402D01*
X137766724Y-109511793D01*
X137763586Y-109514352D01*
X137607194Y-109643731D01*
X137588689Y-109662365D01*
X137569892Y-109680772D01*
X137567317Y-109683886D01*
X137567312Y-109683891D01*
X137567308Y-109683896D01*
X137439027Y-109841185D01*
X137424488Y-109863069D01*
X137409633Y-109884764D01*
X137407708Y-109888326D01*
X137312417Y-110067540D01*
X137302400Y-110091844D01*
X137292046Y-110116000D01*
X137290849Y-110119868D01*
X137232184Y-110314177D01*
X137227079Y-110339958D01*
X137221614Y-110365669D01*
X137221191Y-110369696D01*
X137201475Y-110570772D01*
X137200098Y-110583885D01*
X137191866Y-111860000D01*
X137121161Y-111860000D01*
X137121161Y-111235000D01*
X137109322Y-111114793D01*
X137074259Y-110999205D01*
X137017319Y-110892679D01*
X136940692Y-110799308D01*
X136847321Y-110722681D01*
X136740795Y-110665741D01*
X136625207Y-110630678D01*
X136505000Y-110618839D01*
X136495000Y-110618839D01*
X136495000Y-109861187D01*
X137325027Y-109031161D01*
X137805000Y-109031161D01*
X137944716Y-109017400D01*
X138079063Y-108976646D01*
X138202878Y-108910466D01*
X138311402Y-108821402D01*
X138400466Y-108712878D01*
X138466646Y-108589063D01*
X138507400Y-108454716D01*
X138521161Y-108315000D01*
X138521161Y-106065000D01*
X138507400Y-105925284D01*
X138493663Y-105880000D01*
X141006337Y-105880000D01*
X140992600Y-105925284D01*
G37*
G04 #@! TD.AperFunction*
D13*
X143412600Y-105925284D02*
X143398839Y-106065000D01*
X143398839Y-108315000D01*
X143412600Y-108454716D01*
X143453354Y-108589063D01*
X143519534Y-108712878D01*
X143608598Y-108821402D01*
X143717122Y-108910466D01*
X143840937Y-108976646D01*
X143975284Y-109017400D01*
X144115000Y-109031161D01*
X144245331Y-109031161D01*
X144251153Y-109050355D01*
X144285046Y-109113764D01*
X144330658Y-109169343D01*
X144344587Y-109180774D01*
X145075000Y-109911188D01*
X145075001Y-110608839D01*
X145065000Y-110608839D01*
X144944793Y-110620678D01*
X144829205Y-110655741D01*
X144722679Y-110712681D01*
X144629308Y-110789308D01*
X144552681Y-110882679D01*
X144495741Y-110989205D01*
X144460678Y-111104793D01*
X144448839Y-111225000D01*
X144448839Y-111860000D01*
X144171161Y-111860000D01*
X144171161Y-111225000D01*
X144159322Y-111104793D01*
X144124259Y-110989205D01*
X144067319Y-110882679D01*
X143990692Y-110789308D01*
X143897321Y-110712681D01*
X143790795Y-110655741D01*
X143675207Y-110620678D01*
X143555000Y-110608839D01*
X143525000Y-110608839D01*
X143525000Y-109757928D01*
X143526766Y-109739999D01*
X143523762Y-109709502D01*
X143519719Y-109668448D01*
X143498848Y-109599645D01*
X143482009Y-109568141D01*
X143464954Y-109536234D01*
X143430772Y-109494584D01*
X143430770Y-109494582D01*
X143419342Y-109480657D01*
X143405418Y-109469230D01*
X142914283Y-108978096D01*
X142919063Y-108976646D01*
X143042878Y-108910466D01*
X143151402Y-108821402D01*
X143240466Y-108712878D01*
X143306646Y-108589063D01*
X143347400Y-108454716D01*
X143361161Y-108315000D01*
X143361161Y-106065000D01*
X143347400Y-105925284D01*
X143333663Y-105880000D01*
X143426337Y-105880000D01*
X143412600Y-105925284D01*
G04 #@! TA.AperFunction,Conductor*
D14*
G36*
X143412600Y-105925284D02*
G01*
X143398839Y-106065000D01*
X143398839Y-108315000D01*
X143412600Y-108454716D01*
X143453354Y-108589063D01*
X143519534Y-108712878D01*
X143608598Y-108821402D01*
X143717122Y-108910466D01*
X143840937Y-108976646D01*
X143975284Y-109017400D01*
X144115000Y-109031161D01*
X144245331Y-109031161D01*
X144251153Y-109050355D01*
X144285046Y-109113764D01*
X144330658Y-109169343D01*
X144344587Y-109180774D01*
X145075000Y-109911188D01*
X145075001Y-110608839D01*
X145065000Y-110608839D01*
X144944793Y-110620678D01*
X144829205Y-110655741D01*
X144722679Y-110712681D01*
X144629308Y-110789308D01*
X144552681Y-110882679D01*
X144495741Y-110989205D01*
X144460678Y-111104793D01*
X144448839Y-111225000D01*
X144448839Y-111860000D01*
X144171161Y-111860000D01*
X144171161Y-111225000D01*
X144159322Y-111104793D01*
X144124259Y-110989205D01*
X144067319Y-110882679D01*
X143990692Y-110789308D01*
X143897321Y-110712681D01*
X143790795Y-110655741D01*
X143675207Y-110620678D01*
X143555000Y-110608839D01*
X143525000Y-110608839D01*
X143525000Y-109757928D01*
X143526766Y-109739999D01*
X143523762Y-109709502D01*
X143519719Y-109668448D01*
X143498848Y-109599645D01*
X143482009Y-109568141D01*
X143464954Y-109536234D01*
X143430772Y-109494584D01*
X143430770Y-109494582D01*
X143419342Y-109480657D01*
X143405418Y-109469230D01*
X142914283Y-108978096D01*
X142919063Y-108976646D01*
X143042878Y-108910466D01*
X143151402Y-108821402D01*
X143240466Y-108712878D01*
X143306646Y-108589063D01*
X143347400Y-108454716D01*
X143361161Y-108315000D01*
X143361161Y-106065000D01*
X143347400Y-105925284D01*
X143333663Y-105880000D01*
X143426337Y-105880000D01*
X143412600Y-105925284D01*
G37*
G04 #@! TD.AperFunction*
D13*
X146500001Y-111860000D02*
X146431161Y-111860000D01*
X146431161Y-111225000D01*
X146419322Y-111104793D01*
X146384259Y-110989205D01*
X146327319Y-110882679D01*
X146250692Y-110789308D01*
X146157321Y-110712681D01*
X146050795Y-110655741D01*
X145935207Y-110620678D01*
X145815000Y-110608839D01*
X145805000Y-110608839D01*
X145805000Y-109777929D01*
X145806766Y-109760000D01*
X145803327Y-109725082D01*
X145799719Y-109688448D01*
X145782274Y-109630940D01*
X145778848Y-109619644D01*
X145745600Y-109557443D01*
X145744955Y-109556236D01*
X145735399Y-109544592D01*
X145710773Y-109514585D01*
X145710770Y-109514582D01*
X145699342Y-109500657D01*
X145685418Y-109489230D01*
X145211523Y-109015335D01*
X145339063Y-108976646D01*
X145462878Y-108910466D01*
X145571402Y-108821402D01*
X145660466Y-108712878D01*
X145726646Y-108589063D01*
X145767400Y-108454716D01*
X145781161Y-108315000D01*
X145781161Y-106065000D01*
X145767400Y-105925284D01*
X145753663Y-105880000D01*
X146500000Y-105880000D01*
X146500001Y-111860000D01*
G04 #@! TA.AperFunction,Conductor*
D14*
G36*
X146500001Y-111860000D02*
G01*
X146431161Y-111860000D01*
X146431161Y-111225000D01*
X146419322Y-111104793D01*
X146384259Y-110989205D01*
X146327319Y-110882679D01*
X146250692Y-110789308D01*
X146157321Y-110712681D01*
X146050795Y-110655741D01*
X145935207Y-110620678D01*
X145815000Y-110608839D01*
X145805000Y-110608839D01*
X145805000Y-109777929D01*
X145806766Y-109760000D01*
X145803327Y-109725082D01*
X145799719Y-109688448D01*
X145782274Y-109630940D01*
X145778848Y-109619644D01*
X145745600Y-109557443D01*
X145744955Y-109556236D01*
X145735399Y-109544592D01*
X145710773Y-109514585D01*
X145710770Y-109514582D01*
X145699342Y-109500657D01*
X145685418Y-109489230D01*
X145211523Y-109015335D01*
X145339063Y-108976646D01*
X145462878Y-108910466D01*
X145571402Y-108821402D01*
X145660466Y-108712878D01*
X145726646Y-108589063D01*
X145767400Y-108454716D01*
X145781161Y-108315000D01*
X145781161Y-106065000D01*
X145767400Y-105925284D01*
X145753663Y-105880000D01*
X146500000Y-105880000D01*
X146500001Y-111860000D01*
G37*
G04 #@! TD.AperFunction*
D13*
X131312600Y-105925284D02*
X131298839Y-106065000D01*
X131298839Y-108315000D01*
X131312600Y-108454716D01*
X131353354Y-108589063D01*
X131419534Y-108712878D01*
X131508598Y-108821402D01*
X131617122Y-108910466D01*
X131731963Y-108971849D01*
X131384588Y-109319225D01*
X131370657Y-109330658D01*
X131325045Y-109386237D01*
X131291152Y-109449646D01*
X131270281Y-109518449D01*
X131266441Y-109557442D01*
X131263234Y-109590000D01*
X131265000Y-109607929D01*
X131265001Y-110608839D01*
X131265000Y-110608839D01*
X131144793Y-110620678D01*
X131029205Y-110655741D01*
X130922679Y-110712681D01*
X130829308Y-110789308D01*
X130752681Y-110882679D01*
X130695741Y-110989205D01*
X130660678Y-111104793D01*
X130648839Y-111225000D01*
X130648839Y-111860000D01*
X130580000Y-111860000D01*
X130580000Y-105880000D01*
X131326337Y-105880000D01*
X131312600Y-105925284D01*
G04 #@! TA.AperFunction,Conductor*
D14*
G36*
X131312600Y-105925284D02*
G01*
X131298839Y-106065000D01*
X131298839Y-108315000D01*
X131312600Y-108454716D01*
X131353354Y-108589063D01*
X131419534Y-108712878D01*
X131508598Y-108821402D01*
X131617122Y-108910466D01*
X131731963Y-108971849D01*
X131384588Y-109319225D01*
X131370657Y-109330658D01*
X131325045Y-109386237D01*
X131291152Y-109449646D01*
X131270281Y-109518449D01*
X131266441Y-109557442D01*
X131263234Y-109590000D01*
X131265000Y-109607929D01*
X131265001Y-110608839D01*
X131265000Y-110608839D01*
X131144793Y-110620678D01*
X131029205Y-110655741D01*
X130922679Y-110712681D01*
X130829308Y-110789308D01*
X130752681Y-110882679D01*
X130695741Y-110989205D01*
X130660678Y-111104793D01*
X130648839Y-111225000D01*
X130648839Y-111860000D01*
X130580000Y-111860000D01*
X130580000Y-105880000D01*
X131326337Y-105880000D01*
X131312600Y-105925284D01*
G37*
G04 #@! TD.AperFunction*
D13*
X133732600Y-105925284D02*
X133718839Y-106065000D01*
X133718839Y-108315000D01*
X133732600Y-108454716D01*
X133773354Y-108589063D01*
X133839534Y-108712878D01*
X133928598Y-108821402D01*
X134037122Y-108910466D01*
X134041178Y-108912634D01*
X133614588Y-109339225D01*
X133600657Y-109350658D01*
X133555045Y-109406237D01*
X133521152Y-109469646D01*
X133500281Y-109538449D01*
X133495204Y-109590000D01*
X133493234Y-109610000D01*
X133495000Y-109627929D01*
X133495001Y-110610316D01*
X133389793Y-110620678D01*
X133274205Y-110655741D01*
X133167679Y-110712681D01*
X133074308Y-110789308D01*
X132997681Y-110882679D01*
X132940741Y-110989205D01*
X132905678Y-111104793D01*
X132893839Y-111225000D01*
X132893839Y-111860000D01*
X132631161Y-111860000D01*
X132631161Y-111225000D01*
X132619322Y-111104793D01*
X132584259Y-110989205D01*
X132527319Y-110882679D01*
X132450692Y-110789308D01*
X132357321Y-110712681D01*
X132250795Y-110655741D01*
X132135207Y-110620678D01*
X132015000Y-110608839D01*
X131995000Y-110608839D01*
X131995000Y-109741187D01*
X132705027Y-109031161D01*
X132965000Y-109031161D01*
X133104716Y-109017400D01*
X133239063Y-108976646D01*
X133362878Y-108910466D01*
X133471402Y-108821402D01*
X133560466Y-108712878D01*
X133626646Y-108589063D01*
X133667400Y-108454716D01*
X133681161Y-108315000D01*
X133681161Y-106065000D01*
X133667400Y-105925284D01*
X133653663Y-105880000D01*
X133746337Y-105880000D01*
X133732600Y-105925284D01*
G04 #@! TA.AperFunction,Conductor*
D14*
G36*
X133732600Y-105925284D02*
G01*
X133718839Y-106065000D01*
X133718839Y-108315000D01*
X133732600Y-108454716D01*
X133773354Y-108589063D01*
X133839534Y-108712878D01*
X133928598Y-108821402D01*
X134037122Y-108910466D01*
X134041178Y-108912634D01*
X133614588Y-109339225D01*
X133600657Y-109350658D01*
X133555045Y-109406237D01*
X133521152Y-109469646D01*
X133500281Y-109538449D01*
X133495204Y-109590000D01*
X133493234Y-109610000D01*
X133495000Y-109627929D01*
X133495001Y-110610316D01*
X133389793Y-110620678D01*
X133274205Y-110655741D01*
X133167679Y-110712681D01*
X133074308Y-110789308D01*
X132997681Y-110882679D01*
X132940741Y-110989205D01*
X132905678Y-111104793D01*
X132893839Y-111225000D01*
X132893839Y-111860000D01*
X132631161Y-111860000D01*
X132631161Y-111225000D01*
X132619322Y-111104793D01*
X132584259Y-110989205D01*
X132527319Y-110882679D01*
X132450692Y-110789308D01*
X132357321Y-110712681D01*
X132250795Y-110655741D01*
X132135207Y-110620678D01*
X132015000Y-110608839D01*
X131995000Y-110608839D01*
X131995000Y-109741187D01*
X132705027Y-109031161D01*
X132965000Y-109031161D01*
X133104716Y-109017400D01*
X133239063Y-108976646D01*
X133362878Y-108910466D01*
X133471402Y-108821402D01*
X133560466Y-108712878D01*
X133626646Y-108589063D01*
X133667400Y-108454716D01*
X133681161Y-108315000D01*
X133681161Y-106065000D01*
X133667400Y-105925284D01*
X133653663Y-105880000D01*
X133746337Y-105880000D01*
X133732600Y-105925284D01*
G37*
G04 #@! TD.AperFunction*
D13*
X136152600Y-105925284D02*
X136138839Y-106065000D01*
X136138839Y-108315000D01*
X136152600Y-108454716D01*
X136193354Y-108589063D01*
X136259534Y-108712878D01*
X136348598Y-108821402D01*
X136433079Y-108890734D01*
X135884588Y-109439225D01*
X135870657Y-109450658D01*
X135825045Y-109506237D01*
X135791152Y-109569646D01*
X135770281Y-109638449D01*
X135765357Y-109688447D01*
X135763234Y-109710000D01*
X135765000Y-109727929D01*
X135765001Y-110618839D01*
X135755000Y-110618839D01*
X135634793Y-110630678D01*
X135519205Y-110665741D01*
X135412679Y-110722681D01*
X135319308Y-110799308D01*
X135242681Y-110892679D01*
X135185741Y-110999205D01*
X135150678Y-111114793D01*
X135138839Y-111235000D01*
X135138839Y-111860000D01*
X134876161Y-111860000D01*
X134876161Y-111225000D01*
X134864322Y-111104793D01*
X134829259Y-110989205D01*
X134772319Y-110882679D01*
X134695692Y-110789308D01*
X134602321Y-110712681D01*
X134495795Y-110655741D01*
X134380207Y-110620678D01*
X134260000Y-110608839D01*
X134225000Y-110608839D01*
X134225000Y-109761187D01*
X134955027Y-109031161D01*
X135385000Y-109031161D01*
X135524716Y-109017400D01*
X135659063Y-108976646D01*
X135782878Y-108910466D01*
X135891402Y-108821402D01*
X135980466Y-108712878D01*
X136046646Y-108589063D01*
X136087400Y-108454716D01*
X136101161Y-108315000D01*
X136101161Y-106065000D01*
X136087400Y-105925284D01*
X136073663Y-105880000D01*
X136166337Y-105880000D01*
X136152600Y-105925284D01*
G04 #@! TA.AperFunction,Conductor*
D14*
G36*
X136152600Y-105925284D02*
G01*
X136138839Y-106065000D01*
X136138839Y-108315000D01*
X136152600Y-108454716D01*
X136193354Y-108589063D01*
X136259534Y-108712878D01*
X136348598Y-108821402D01*
X136433079Y-108890734D01*
X135884588Y-109439225D01*
X135870657Y-109450658D01*
X135825045Y-109506237D01*
X135791152Y-109569646D01*
X135770281Y-109638449D01*
X135765357Y-109688447D01*
X135763234Y-109710000D01*
X135765000Y-109727929D01*
X135765001Y-110618839D01*
X135755000Y-110618839D01*
X135634793Y-110630678D01*
X135519205Y-110665741D01*
X135412679Y-110722681D01*
X135319308Y-110799308D01*
X135242681Y-110892679D01*
X135185741Y-110999205D01*
X135150678Y-111114793D01*
X135138839Y-111235000D01*
X135138839Y-111860000D01*
X134876161Y-111860000D01*
X134876161Y-111225000D01*
X134864322Y-111104793D01*
X134829259Y-110989205D01*
X134772319Y-110882679D01*
X134695692Y-110789308D01*
X134602321Y-110712681D01*
X134495795Y-110655741D01*
X134380207Y-110620678D01*
X134260000Y-110608839D01*
X134225000Y-110608839D01*
X134225000Y-109761187D01*
X134955027Y-109031161D01*
X135385000Y-109031161D01*
X135524716Y-109017400D01*
X135659063Y-108976646D01*
X135782878Y-108910466D01*
X135891402Y-108821402D01*
X135980466Y-108712878D01*
X136046646Y-108589063D01*
X136087400Y-108454716D01*
X136101161Y-108315000D01*
X136101161Y-106065000D01*
X136087400Y-105925284D01*
X136073663Y-105880000D01*
X136166337Y-105880000D01*
X136152600Y-105925284D01*
G37*
G04 #@! TD.AperFunction*
M02*
