G04 #@! TF.GenerationSoftware,KiCad,Pcbnew,(5.1.10-1-10_14)*
G04 #@! TF.CreationDate,2021-10-23T21:57:51-04:00*
G04 #@! TF.ProjectId,WiiComp_Sub,57696943-6f6d-4705-9f53-75622e6b6963,1*
G04 #@! TF.SameCoordinates,Original*
G04 #@! TF.FileFunction,Soldermask,Top*
G04 #@! TF.FilePolarity,Negative*
%FSLAX46Y46*%
G04 Gerber Fmt 4.6, Leading zero omitted, Abs format (unit mm)*
G04 Created by KiCad (PCBNEW (5.1.10-1-10_14)) date 2021-10-23 21:57:51*
%MOMM*%
%LPD*%
G01*
G04 APERTURE LIST*
%ADD10C,0.501600*%
G04 APERTURE END LIST*
D10*
X145440000Y-111170000D03*
X143180000Y-111170000D03*
X140920000Y-111170000D03*
X136130000Y-111170000D03*
X133885000Y-111160000D03*
G36*
G01*
X144639200Y-112500400D02*
X144639200Y-111199600D01*
G75*
G02*
X145039600Y-110799200I400400J0D01*
G01*
X145840400Y-110799200D01*
G75*
G02*
X146240800Y-111199600I0J-400400D01*
G01*
X146240800Y-112500400D01*
G75*
G02*
X145840400Y-112900800I-400400J0D01*
G01*
X145039600Y-112900800D01*
G75*
G02*
X144639200Y-112500400I0J400400D01*
G01*
G37*
G36*
G01*
X142379200Y-112500400D02*
X142379200Y-111199600D01*
G75*
G02*
X142779600Y-110799200I400400J0D01*
G01*
X143580400Y-110799200D01*
G75*
G02*
X143980800Y-111199600I0J-400400D01*
G01*
X143980800Y-112500400D01*
G75*
G02*
X143580400Y-112900800I-400400J0D01*
G01*
X142779600Y-112900800D01*
G75*
G02*
X142379200Y-112500400I0J400400D01*
G01*
G37*
G36*
G01*
X140119200Y-112500400D02*
X140119200Y-111199600D01*
G75*
G02*
X140519600Y-110799200I400400J0D01*
G01*
X141320400Y-110799200D01*
G75*
G02*
X141720800Y-111199600I0J-400400D01*
G01*
X141720800Y-112500400D01*
G75*
G02*
X141320400Y-112900800I-400400J0D01*
G01*
X140519600Y-112900800D01*
G75*
G02*
X140119200Y-112500400I0J400400D01*
G01*
G37*
G36*
G01*
X135329200Y-112510400D02*
X135329200Y-111209600D01*
G75*
G02*
X135729600Y-110809200I400400J0D01*
G01*
X136530400Y-110809200D01*
G75*
G02*
X136930800Y-111209600I0J-400400D01*
G01*
X136930800Y-112510400D01*
G75*
G02*
X136530400Y-112910800I-400400J0D01*
G01*
X135729600Y-112910800D01*
G75*
G02*
X135329200Y-112510400I0J400400D01*
G01*
G37*
G36*
G01*
X133084200Y-112500400D02*
X133084200Y-111199600D01*
G75*
G02*
X133484600Y-110799200I400400J0D01*
G01*
X134285400Y-110799200D01*
G75*
G02*
X134685800Y-111199600I0J-400400D01*
G01*
X134685800Y-112500400D01*
G75*
G02*
X134285400Y-112900800I-400400J0D01*
G01*
X133484600Y-112900800D01*
G75*
G02*
X133084200Y-112500400I0J400400D01*
G01*
G37*
X131640000Y-111160000D03*
G36*
G01*
X130839200Y-112500400D02*
X130839200Y-111199600D01*
G75*
G02*
X131239600Y-110799200I400400J0D01*
G01*
X132040400Y-110799200D01*
G75*
G02*
X132440800Y-111199600I0J-400400D01*
G01*
X132440800Y-112500400D01*
G75*
G02*
X132040400Y-112900800I-400400J0D01*
G01*
X131239600Y-112900800D01*
G75*
G02*
X130839200Y-112500400I0J400400D01*
G01*
G37*
M02*
