G04 #@! TF.GenerationSoftware,KiCad,Pcbnew,(5.1.8-0-10_14)*
G04 #@! TF.CreationDate,2021-09-22T21:25:59-04:00*
G04 #@! TF.ProjectId,WiiComp_Sub,57696943-6f6d-4705-9f53-75622e6b6963,1*
G04 #@! TF.SameCoordinates,Original*
G04 #@! TF.FileFunction,Copper,L1,Top*
G04 #@! TF.FilePolarity,Positive*
%FSLAX46Y46*%
G04 Gerber Fmt 4.6, Leading zero omitted, Abs format (unit mm)*
G04 Created by KiCad (PCBNEW (5.1.8-0-10_14)) date 2021-09-22 21:25:59*
%MOMM*%
%LPD*%
G01*
G04 APERTURE LIST*
G04 #@! TA.AperFunction,ComponentPad*
%ADD10C,0.400000*%
G04 #@! TD*
G04 #@! TA.AperFunction,ViaPad*
%ADD11C,0.700000*%
G04 #@! TD*
G04 #@! TA.AperFunction,Conductor*
%ADD12C,0.200000*%
G04 #@! TD*
G04 #@! TA.AperFunction,Conductor*
%ADD13C,0.152400*%
G04 #@! TD*
G04 APERTURE END LIST*
D10*
X145440000Y-111170000D03*
X143180000Y-111170000D03*
X140920000Y-111170000D03*
X136130000Y-111170000D03*
X133885000Y-111160000D03*
G04 #@! TA.AperFunction,ComponentPad*
G36*
G01*
X144690000Y-112475000D02*
X144690000Y-111225000D01*
G75*
G02*
X145065000Y-110850000I375000J0D01*
G01*
X145815000Y-110850000D01*
G75*
G02*
X146190000Y-111225000I0J-375000D01*
G01*
X146190000Y-112475000D01*
G75*
G02*
X145815000Y-112850000I-375000J0D01*
G01*
X145065000Y-112850000D01*
G75*
G02*
X144690000Y-112475000I0J375000D01*
G01*
G37*
G04 #@! TD.AperFunction*
G04 #@! TA.AperFunction,ComponentPad*
G36*
G01*
X142430000Y-112475000D02*
X142430000Y-111225000D01*
G75*
G02*
X142805000Y-110850000I375000J0D01*
G01*
X143555000Y-110850000D01*
G75*
G02*
X143930000Y-111225000I0J-375000D01*
G01*
X143930000Y-112475000D01*
G75*
G02*
X143555000Y-112850000I-375000J0D01*
G01*
X142805000Y-112850000D01*
G75*
G02*
X142430000Y-112475000I0J375000D01*
G01*
G37*
G04 #@! TD.AperFunction*
G04 #@! TA.AperFunction,ComponentPad*
G36*
G01*
X140170000Y-112475000D02*
X140170000Y-111225000D01*
G75*
G02*
X140545000Y-110850000I375000J0D01*
G01*
X141295000Y-110850000D01*
G75*
G02*
X141670000Y-111225000I0J-375000D01*
G01*
X141670000Y-112475000D01*
G75*
G02*
X141295000Y-112850000I-375000J0D01*
G01*
X140545000Y-112850000D01*
G75*
G02*
X140170000Y-112475000I0J375000D01*
G01*
G37*
G04 #@! TD.AperFunction*
G04 #@! TA.AperFunction,ComponentPad*
G36*
G01*
X135380000Y-112485000D02*
X135380000Y-111235000D01*
G75*
G02*
X135755000Y-110860000I375000J0D01*
G01*
X136505000Y-110860000D01*
G75*
G02*
X136880000Y-111235000I0J-375000D01*
G01*
X136880000Y-112485000D01*
G75*
G02*
X136505000Y-112860000I-375000J0D01*
G01*
X135755000Y-112860000D01*
G75*
G02*
X135380000Y-112485000I0J375000D01*
G01*
G37*
G04 #@! TD.AperFunction*
G04 #@! TA.AperFunction,ComponentPad*
G36*
G01*
X133135000Y-112475000D02*
X133135000Y-111225000D01*
G75*
G02*
X133510000Y-110850000I375000J0D01*
G01*
X134260000Y-110850000D01*
G75*
G02*
X134635000Y-111225000I0J-375000D01*
G01*
X134635000Y-112475000D01*
G75*
G02*
X134260000Y-112850000I-375000J0D01*
G01*
X133510000Y-112850000D01*
G75*
G02*
X133135000Y-112475000I0J375000D01*
G01*
G37*
G04 #@! TD.AperFunction*
X131640000Y-111160000D03*
G04 #@! TA.AperFunction,ComponentPad*
G36*
G01*
X130890000Y-112475000D02*
X130890000Y-111225000D01*
G75*
G02*
X131265000Y-110850000I375000J0D01*
G01*
X132015000Y-110850000D01*
G75*
G02*
X132390000Y-111225000I0J-375000D01*
G01*
X132390000Y-112475000D01*
G75*
G02*
X132015000Y-112850000I-375000J0D01*
G01*
X131265000Y-112850000D01*
G75*
G02*
X130890000Y-112475000I0J375000D01*
G01*
G37*
G04 #@! TD.AperFunction*
D11*
X140930000Y-110010000D03*
X144340000Y-110010000D03*
X135010000Y-110010000D03*
X132770000Y-110010000D03*
X146090000Y-109080000D03*
X131000000Y-108960000D03*
D12*
X146490001Y-111210277D02*
X146478453Y-111093031D01*
X146439959Y-110966133D01*
X146377448Y-110849184D01*
X146293323Y-110746677D01*
X146190816Y-110662552D01*
X146073867Y-110600041D01*
X145946969Y-110561547D01*
X145815000Y-110548549D01*
X145065000Y-110548549D01*
X144933031Y-110561547D01*
X144806133Y-110600041D01*
X144689184Y-110662552D01*
X144586677Y-110746677D01*
X144502552Y-110849184D01*
X144440041Y-110966133D01*
X144401547Y-111093031D01*
X144388549Y-111225000D01*
X144388549Y-111800000D01*
X144231451Y-111800000D01*
X144231451Y-111225000D01*
X144218453Y-111093031D01*
X144179959Y-110966133D01*
X144117448Y-110849184D01*
X144033323Y-110746677D01*
X143930816Y-110662552D01*
X143813867Y-110600041D01*
X143686969Y-110561547D01*
X143555000Y-110548549D01*
X142805000Y-110548549D01*
X142673031Y-110561547D01*
X142546133Y-110600041D01*
X142429184Y-110662552D01*
X142326677Y-110746677D01*
X142242552Y-110849184D01*
X142180041Y-110966133D01*
X142141547Y-111093031D01*
X142128549Y-111225000D01*
X142128549Y-111800000D01*
X139870000Y-111800000D01*
X139870000Y-110582811D01*
X139868233Y-110564871D01*
X139868233Y-110552024D01*
X139867722Y-110547163D01*
X139846185Y-110355154D01*
X139839594Y-110324144D01*
X139833428Y-110293006D01*
X139831983Y-110288337D01*
X139773561Y-110104168D01*
X139761063Y-110075009D01*
X139748975Y-110045682D01*
X139746651Y-110041383D01*
X139653569Y-109872069D01*
X139635661Y-109845915D01*
X139618094Y-109819474D01*
X139614978Y-109815708D01*
X139490783Y-109667697D01*
X139468135Y-109645519D01*
X139445766Y-109622993D01*
X139441979Y-109619904D01*
X139291400Y-109498835D01*
X139264845Y-109481458D01*
X139238556Y-109463726D01*
X139234246Y-109461435D01*
X139234242Y-109461432D01*
X139234238Y-109461430D01*
X139063014Y-109371917D01*
X139033652Y-109360054D01*
X139004358Y-109347740D01*
X138999680Y-109346328D01*
X138814327Y-109291776D01*
X138783226Y-109285844D01*
X138752094Y-109279453D01*
X138747230Y-109278977D01*
X138554811Y-109261465D01*
X138523161Y-109261686D01*
X138491367Y-109261464D01*
X138486503Y-109261941D01*
X138294347Y-109282138D01*
X138263289Y-109288514D01*
X138232116Y-109294460D01*
X138227437Y-109295873D01*
X138042864Y-109353007D01*
X138013648Y-109365288D01*
X137984206Y-109377184D01*
X137979891Y-109379478D01*
X137809930Y-109471376D01*
X137783649Y-109489103D01*
X137757088Y-109506484D01*
X137753301Y-109509573D01*
X137604427Y-109632732D01*
X137582091Y-109655225D01*
X137559410Y-109677436D01*
X137556295Y-109681202D01*
X137434178Y-109830932D01*
X137416654Y-109857308D01*
X137398701Y-109883528D01*
X137396376Y-109887827D01*
X137305668Y-110058424D01*
X137293593Y-110087720D01*
X137281082Y-110116911D01*
X137279637Y-110121580D01*
X137223792Y-110306547D01*
X137217636Y-110337639D01*
X137211035Y-110368694D01*
X137210524Y-110373555D01*
X137191670Y-110565847D01*
X137191670Y-110565857D01*
X137190000Y-110582812D01*
X137190001Y-111800000D01*
X137181451Y-111800000D01*
X137181451Y-111235000D01*
X137168453Y-111103031D01*
X137129959Y-110976133D01*
X137067448Y-110859184D01*
X136983323Y-110756677D01*
X136880816Y-110672552D01*
X136763867Y-110610041D01*
X136636969Y-110571547D01*
X136505000Y-110558549D01*
X135755000Y-110558549D01*
X135623031Y-110571547D01*
X135496133Y-110610041D01*
X135379184Y-110672552D01*
X135276677Y-110756677D01*
X135192552Y-110859184D01*
X135130041Y-110976133D01*
X135091547Y-111103031D01*
X135078549Y-111235000D01*
X135078549Y-111800000D01*
X134936451Y-111800000D01*
X134936451Y-111225000D01*
X134923453Y-111093031D01*
X134884959Y-110966133D01*
X134822448Y-110849184D01*
X134738323Y-110746677D01*
X134635816Y-110662552D01*
X134518867Y-110600041D01*
X134391969Y-110561547D01*
X134260000Y-110548549D01*
X133510000Y-110548549D01*
X133378031Y-110561547D01*
X133251133Y-110600041D01*
X133134184Y-110662552D01*
X133031677Y-110746677D01*
X132947552Y-110849184D01*
X132885041Y-110966133D01*
X132846547Y-111093031D01*
X132833549Y-111225000D01*
X132833549Y-111800000D01*
X132691451Y-111800000D01*
X132691451Y-111225000D01*
X132678453Y-111093031D01*
X132639959Y-110966133D01*
X132577448Y-110849184D01*
X132493323Y-110746677D01*
X132390816Y-110662552D01*
X132273867Y-110600041D01*
X132146969Y-110561547D01*
X132015000Y-110548549D01*
X131265000Y-110548549D01*
X131133031Y-110561547D01*
X131006133Y-110600041D01*
X130889184Y-110662552D01*
X130786677Y-110746677D01*
X130702552Y-110849184D01*
X130640041Y-110966133D01*
X130601547Y-111093031D01*
X130590000Y-111210268D01*
X130590000Y-105890000D01*
X146490000Y-105890000D01*
X146490001Y-111210277D01*
G04 #@! TA.AperFunction,Conductor*
D13*
G36*
X146490001Y-111210277D02*
G01*
X146478453Y-111093031D01*
X146439959Y-110966133D01*
X146377448Y-110849184D01*
X146293323Y-110746677D01*
X146190816Y-110662552D01*
X146073867Y-110600041D01*
X145946969Y-110561547D01*
X145815000Y-110548549D01*
X145065000Y-110548549D01*
X144933031Y-110561547D01*
X144806133Y-110600041D01*
X144689184Y-110662552D01*
X144586677Y-110746677D01*
X144502552Y-110849184D01*
X144440041Y-110966133D01*
X144401547Y-111093031D01*
X144388549Y-111225000D01*
X144388549Y-111800000D01*
X144231451Y-111800000D01*
X144231451Y-111225000D01*
X144218453Y-111093031D01*
X144179959Y-110966133D01*
X144117448Y-110849184D01*
X144033323Y-110746677D01*
X143930816Y-110662552D01*
X143813867Y-110600041D01*
X143686969Y-110561547D01*
X143555000Y-110548549D01*
X142805000Y-110548549D01*
X142673031Y-110561547D01*
X142546133Y-110600041D01*
X142429184Y-110662552D01*
X142326677Y-110746677D01*
X142242552Y-110849184D01*
X142180041Y-110966133D01*
X142141547Y-111093031D01*
X142128549Y-111225000D01*
X142128549Y-111800000D01*
X139870000Y-111800000D01*
X139870000Y-110582811D01*
X139868233Y-110564871D01*
X139868233Y-110552024D01*
X139867722Y-110547163D01*
X139846185Y-110355154D01*
X139839594Y-110324144D01*
X139833428Y-110293006D01*
X139831983Y-110288337D01*
X139773561Y-110104168D01*
X139761063Y-110075009D01*
X139748975Y-110045682D01*
X139746651Y-110041383D01*
X139653569Y-109872069D01*
X139635661Y-109845915D01*
X139618094Y-109819474D01*
X139614978Y-109815708D01*
X139490783Y-109667697D01*
X139468135Y-109645519D01*
X139445766Y-109622993D01*
X139441979Y-109619904D01*
X139291400Y-109498835D01*
X139264845Y-109481458D01*
X139238556Y-109463726D01*
X139234246Y-109461435D01*
X139234242Y-109461432D01*
X139234238Y-109461430D01*
X139063014Y-109371917D01*
X139033652Y-109360054D01*
X139004358Y-109347740D01*
X138999680Y-109346328D01*
X138814327Y-109291776D01*
X138783226Y-109285844D01*
X138752094Y-109279453D01*
X138747230Y-109278977D01*
X138554811Y-109261465D01*
X138523161Y-109261686D01*
X138491367Y-109261464D01*
X138486503Y-109261941D01*
X138294347Y-109282138D01*
X138263289Y-109288514D01*
X138232116Y-109294460D01*
X138227437Y-109295873D01*
X138042864Y-109353007D01*
X138013648Y-109365288D01*
X137984206Y-109377184D01*
X137979891Y-109379478D01*
X137809930Y-109471376D01*
X137783649Y-109489103D01*
X137757088Y-109506484D01*
X137753301Y-109509573D01*
X137604427Y-109632732D01*
X137582091Y-109655225D01*
X137559410Y-109677436D01*
X137556295Y-109681202D01*
X137434178Y-109830932D01*
X137416654Y-109857308D01*
X137398701Y-109883528D01*
X137396376Y-109887827D01*
X137305668Y-110058424D01*
X137293593Y-110087720D01*
X137281082Y-110116911D01*
X137279637Y-110121580D01*
X137223792Y-110306547D01*
X137217636Y-110337639D01*
X137211035Y-110368694D01*
X137210524Y-110373555D01*
X137191670Y-110565847D01*
X137191670Y-110565857D01*
X137190000Y-110582812D01*
X137190001Y-111800000D01*
X137181451Y-111800000D01*
X137181451Y-111235000D01*
X137168453Y-111103031D01*
X137129959Y-110976133D01*
X137067448Y-110859184D01*
X136983323Y-110756677D01*
X136880816Y-110672552D01*
X136763867Y-110610041D01*
X136636969Y-110571547D01*
X136505000Y-110558549D01*
X135755000Y-110558549D01*
X135623031Y-110571547D01*
X135496133Y-110610041D01*
X135379184Y-110672552D01*
X135276677Y-110756677D01*
X135192552Y-110859184D01*
X135130041Y-110976133D01*
X135091547Y-111103031D01*
X135078549Y-111235000D01*
X135078549Y-111800000D01*
X134936451Y-111800000D01*
X134936451Y-111225000D01*
X134923453Y-111093031D01*
X134884959Y-110966133D01*
X134822448Y-110849184D01*
X134738323Y-110746677D01*
X134635816Y-110662552D01*
X134518867Y-110600041D01*
X134391969Y-110561547D01*
X134260000Y-110548549D01*
X133510000Y-110548549D01*
X133378031Y-110561547D01*
X133251133Y-110600041D01*
X133134184Y-110662552D01*
X133031677Y-110746677D01*
X132947552Y-110849184D01*
X132885041Y-110966133D01*
X132846547Y-111093031D01*
X132833549Y-111225000D01*
X132833549Y-111800000D01*
X132691451Y-111800000D01*
X132691451Y-111225000D01*
X132678453Y-111093031D01*
X132639959Y-110966133D01*
X132577448Y-110849184D01*
X132493323Y-110746677D01*
X132390816Y-110662552D01*
X132273867Y-110600041D01*
X132146969Y-110561547D01*
X132015000Y-110548549D01*
X131265000Y-110548549D01*
X131133031Y-110561547D01*
X131006133Y-110600041D01*
X130889184Y-110662552D01*
X130786677Y-110746677D01*
X130702552Y-110849184D01*
X130640041Y-110966133D01*
X130601547Y-111093031D01*
X130590000Y-111210268D01*
X130590000Y-105890000D01*
X146490000Y-105890000D01*
X146490001Y-111210277D01*
G37*
G04 #@! TD.AperFunction*
M02*
