G04 #@! TF.GenerationSoftware,KiCad,Pcbnew,(5.1.10-1-10_14)*
G04 #@! TF.CreationDate,2021-10-23T21:57:51-04:00*
G04 #@! TF.ProjectId,WiiComp_Sub,57696943-6f6d-4705-9f53-75622e6b6963,1*
G04 #@! TF.SameCoordinates,Original*
G04 #@! TF.FileFunction,Legend,Bot*
G04 #@! TF.FilePolarity,Positive*
%FSLAX46Y46*%
G04 Gerber Fmt 4.6, Leading zero omitted, Abs format (unit mm)*
G04 Created by KiCad (PCBNEW (5.1.10-1-10_14)) date 2021-10-23 21:57:51*
%MOMM*%
%LPD*%
G01*
G04 APERTURE LIST*
%ADD10C,0.125000*%
%ADD11C,0.501600*%
G04 APERTURE END LIST*
D10*
X145679702Y-109766190D02*
X145679702Y-109266190D01*
X145393988Y-109766190D01*
X145393988Y-109266190D01*
X144941607Y-109266190D02*
X145036845Y-109266190D01*
X145084464Y-109290000D01*
X145108273Y-109313809D01*
X145155892Y-109385238D01*
X145179702Y-109480476D01*
X145179702Y-109670952D01*
X145155892Y-109718571D01*
X145132083Y-109742380D01*
X145084464Y-109766190D01*
X144989226Y-109766190D01*
X144941607Y-109742380D01*
X144917797Y-109718571D01*
X144893988Y-109670952D01*
X144893988Y-109551904D01*
X144917797Y-109504285D01*
X144941607Y-109480476D01*
X144989226Y-109456666D01*
X145084464Y-109456666D01*
X145132083Y-109480476D01*
X145155892Y-109504285D01*
X145179702Y-109551904D01*
X144465416Y-109432857D02*
X144465416Y-109766190D01*
X144584464Y-109242380D02*
X144703511Y-109599523D01*
X144393988Y-109599523D01*
X144203511Y-109766190D02*
X144203511Y-109266190D01*
X144084464Y-109266190D01*
X144013035Y-109290000D01*
X143965416Y-109337619D01*
X143941607Y-109385238D01*
X143917797Y-109480476D01*
X143917797Y-109551904D01*
X143941607Y-109647142D01*
X143965416Y-109694761D01*
X144013035Y-109742380D01*
X144084464Y-109766190D01*
X144203511Y-109766190D01*
X143727321Y-109313809D02*
X143703511Y-109290000D01*
X143655892Y-109266190D01*
X143536845Y-109266190D01*
X143489226Y-109290000D01*
X143465416Y-109313809D01*
X143441607Y-109361428D01*
X143441607Y-109409047D01*
X143465416Y-109480476D01*
X143751130Y-109766190D01*
X143441607Y-109766190D01*
X143274940Y-109266190D02*
X143155892Y-109766190D01*
X143060654Y-109409047D01*
X142965416Y-109766190D01*
X142846369Y-109266190D01*
X142655892Y-109766190D02*
X142655892Y-109432857D01*
X142655892Y-109266190D02*
X142679702Y-109290000D01*
X142655892Y-109313809D01*
X142632083Y-109290000D01*
X142655892Y-109266190D01*
X142655892Y-109313809D01*
X142417797Y-109766190D02*
X142417797Y-109432857D01*
X142417797Y-109266190D02*
X142441607Y-109290000D01*
X142417797Y-109313809D01*
X142393988Y-109290000D01*
X142417797Y-109266190D01*
X142417797Y-109313809D01*
X141893988Y-109718571D02*
X141917797Y-109742380D01*
X141989226Y-109766190D01*
X142036845Y-109766190D01*
X142108273Y-109742380D01*
X142155892Y-109694761D01*
X142179702Y-109647142D01*
X142203511Y-109551904D01*
X142203511Y-109480476D01*
X142179702Y-109385238D01*
X142155892Y-109337619D01*
X142108273Y-109290000D01*
X142036845Y-109266190D01*
X141989226Y-109266190D01*
X141917797Y-109290000D01*
X141893988Y-109313809D01*
X141608273Y-109766190D02*
X141655892Y-109742380D01*
X141679702Y-109718571D01*
X141703511Y-109670952D01*
X141703511Y-109528095D01*
X141679702Y-109480476D01*
X141655892Y-109456666D01*
X141608273Y-109432857D01*
X141536845Y-109432857D01*
X141489226Y-109456666D01*
X141465416Y-109480476D01*
X141441607Y-109528095D01*
X141441607Y-109670952D01*
X141465416Y-109718571D01*
X141489226Y-109742380D01*
X141536845Y-109766190D01*
X141608273Y-109766190D01*
X141227321Y-109766190D02*
X141227321Y-109432857D01*
X141227321Y-109480476D02*
X141203511Y-109456666D01*
X141155892Y-109432857D01*
X141084464Y-109432857D01*
X141036845Y-109456666D01*
X141013035Y-109504285D01*
X141013035Y-109766190D01*
X141013035Y-109504285D02*
X140989226Y-109456666D01*
X140941607Y-109432857D01*
X140870178Y-109432857D01*
X140822559Y-109456666D01*
X140798750Y-109504285D01*
X140798750Y-109766190D01*
X140560654Y-109432857D02*
X140560654Y-109932857D01*
X140560654Y-109456666D02*
X140513035Y-109432857D01*
X140417797Y-109432857D01*
X140370178Y-109456666D01*
X140346369Y-109480476D01*
X140322559Y-109528095D01*
X140322559Y-109670952D01*
X140346369Y-109718571D01*
X140370178Y-109742380D01*
X140417797Y-109766190D01*
X140513035Y-109766190D01*
X140560654Y-109742380D01*
X135179702Y-109742380D02*
X135108273Y-109766190D01*
X134989226Y-109766190D01*
X134941607Y-109742380D01*
X134917797Y-109718571D01*
X134893988Y-109670952D01*
X134893988Y-109623333D01*
X134917797Y-109575714D01*
X134941607Y-109551904D01*
X134989226Y-109528095D01*
X135084464Y-109504285D01*
X135132083Y-109480476D01*
X135155892Y-109456666D01*
X135179702Y-109409047D01*
X135179702Y-109361428D01*
X135155892Y-109313809D01*
X135132083Y-109290000D01*
X135084464Y-109266190D01*
X134965416Y-109266190D01*
X134893988Y-109290000D01*
X134465416Y-109432857D02*
X134465416Y-109766190D01*
X134679702Y-109432857D02*
X134679702Y-109694761D01*
X134655892Y-109742380D01*
X134608273Y-109766190D01*
X134536845Y-109766190D01*
X134489226Y-109742380D01*
X134465416Y-109718571D01*
X134227321Y-109766190D02*
X134227321Y-109266190D01*
X134227321Y-109456666D02*
X134179702Y-109432857D01*
X134084464Y-109432857D01*
X134036845Y-109456666D01*
X134013035Y-109480476D01*
X133989226Y-109528095D01*
X133989226Y-109670952D01*
X134013035Y-109718571D01*
X134036845Y-109742380D01*
X134084464Y-109766190D01*
X134179702Y-109766190D01*
X134227321Y-109742380D01*
X133393988Y-109766190D02*
X133393988Y-109266190D01*
X133203511Y-109266190D01*
X133155892Y-109290000D01*
X133132083Y-109313809D01*
X133108273Y-109361428D01*
X133108273Y-109432857D01*
X133132083Y-109480476D01*
X133155892Y-109504285D01*
X133203511Y-109528095D01*
X133393988Y-109528095D01*
X132608273Y-109718571D02*
X132632083Y-109742380D01*
X132703511Y-109766190D01*
X132751130Y-109766190D01*
X132822559Y-109742380D01*
X132870178Y-109694761D01*
X132893988Y-109647142D01*
X132917797Y-109551904D01*
X132917797Y-109480476D01*
X132893988Y-109385238D01*
X132870178Y-109337619D01*
X132822559Y-109290000D01*
X132751130Y-109266190D01*
X132703511Y-109266190D01*
X132632083Y-109290000D01*
X132608273Y-109313809D01*
X132227321Y-109504285D02*
X132155892Y-109528095D01*
X132132083Y-109551904D01*
X132108273Y-109599523D01*
X132108273Y-109670952D01*
X132132083Y-109718571D01*
X132155892Y-109742380D01*
X132203511Y-109766190D01*
X132393988Y-109766190D01*
X132393988Y-109266190D01*
X132227321Y-109266190D01*
X132179702Y-109290000D01*
X132155892Y-109313809D01*
X132132083Y-109361428D01*
X132132083Y-109409047D01*
X132155892Y-109456666D01*
X132179702Y-109480476D01*
X132227321Y-109504285D01*
X132393988Y-109504285D01*
%LPC*%
D11*
X145440000Y-111170000D03*
X143180000Y-111170000D03*
X140920000Y-111170000D03*
X136130000Y-111170000D03*
X133885000Y-111160000D03*
G36*
G01*
X144639200Y-112500400D02*
X144639200Y-111199600D01*
G75*
G02*
X145039600Y-110799200I400400J0D01*
G01*
X145840400Y-110799200D01*
G75*
G02*
X146240800Y-111199600I0J-400400D01*
G01*
X146240800Y-112500400D01*
G75*
G02*
X145840400Y-112900800I-400400J0D01*
G01*
X145039600Y-112900800D01*
G75*
G02*
X144639200Y-112500400I0J400400D01*
G01*
G37*
G36*
G01*
X142379200Y-112500400D02*
X142379200Y-111199600D01*
G75*
G02*
X142779600Y-110799200I400400J0D01*
G01*
X143580400Y-110799200D01*
G75*
G02*
X143980800Y-111199600I0J-400400D01*
G01*
X143980800Y-112500400D01*
G75*
G02*
X143580400Y-112900800I-400400J0D01*
G01*
X142779600Y-112900800D01*
G75*
G02*
X142379200Y-112500400I0J400400D01*
G01*
G37*
G36*
G01*
X140119200Y-112500400D02*
X140119200Y-111199600D01*
G75*
G02*
X140519600Y-110799200I400400J0D01*
G01*
X141320400Y-110799200D01*
G75*
G02*
X141720800Y-111199600I0J-400400D01*
G01*
X141720800Y-112500400D01*
G75*
G02*
X141320400Y-112900800I-400400J0D01*
G01*
X140519600Y-112900800D01*
G75*
G02*
X140119200Y-112500400I0J400400D01*
G01*
G37*
G36*
G01*
X135329200Y-112510400D02*
X135329200Y-111209600D01*
G75*
G02*
X135729600Y-110809200I400400J0D01*
G01*
X136530400Y-110809200D01*
G75*
G02*
X136930800Y-111209600I0J-400400D01*
G01*
X136930800Y-112510400D01*
G75*
G02*
X136530400Y-112910800I-400400J0D01*
G01*
X135729600Y-112910800D01*
G75*
G02*
X135329200Y-112510400I0J400400D01*
G01*
G37*
G36*
G01*
X133084200Y-112500400D02*
X133084200Y-111199600D01*
G75*
G02*
X133484600Y-110799200I400400J0D01*
G01*
X134285400Y-110799200D01*
G75*
G02*
X134685800Y-111199600I0J-400400D01*
G01*
X134685800Y-112500400D01*
G75*
G02*
X134285400Y-112900800I-400400J0D01*
G01*
X133484600Y-112900800D01*
G75*
G02*
X133084200Y-112500400I0J400400D01*
G01*
G37*
G36*
G01*
X143589200Y-108340400D02*
X143589200Y-106039600D01*
G75*
G02*
X144089600Y-105539200I500400J0D01*
G01*
X145090400Y-105539200D01*
G75*
G02*
X145590800Y-106039600I0J-500400D01*
G01*
X145590800Y-108340400D01*
G75*
G02*
X145090400Y-108840800I-500400J0D01*
G01*
X144089600Y-108840800D01*
G75*
G02*
X143589200Y-108340400I0J500400D01*
G01*
G37*
G36*
G01*
X141169200Y-108340400D02*
X141169200Y-106039600D01*
G75*
G02*
X141669600Y-105539200I500400J0D01*
G01*
X142670400Y-105539200D01*
G75*
G02*
X143170800Y-106039600I0J-500400D01*
G01*
X143170800Y-108340400D01*
G75*
G02*
X142670400Y-108840800I-500400J0D01*
G01*
X141669600Y-108840800D01*
G75*
G02*
X141169200Y-108340400I0J500400D01*
G01*
G37*
G36*
G01*
X138749200Y-108340400D02*
X138749200Y-106039600D01*
G75*
G02*
X139249600Y-105539200I500400J0D01*
G01*
X140250400Y-105539200D01*
G75*
G02*
X140750800Y-106039600I0J-500400D01*
G01*
X140750800Y-108340400D01*
G75*
G02*
X140250400Y-108840800I-500400J0D01*
G01*
X139249600Y-108840800D01*
G75*
G02*
X138749200Y-108340400I0J500400D01*
G01*
G37*
G36*
G01*
X136329200Y-108340400D02*
X136329200Y-106039600D01*
G75*
G02*
X136829600Y-105539200I500400J0D01*
G01*
X137830400Y-105539200D01*
G75*
G02*
X138330800Y-106039600I0J-500400D01*
G01*
X138330800Y-108340400D01*
G75*
G02*
X137830400Y-108840800I-500400J0D01*
G01*
X136829600Y-108840800D01*
G75*
G02*
X136329200Y-108340400I0J500400D01*
G01*
G37*
G36*
G01*
X133909200Y-108340400D02*
X133909200Y-106039600D01*
G75*
G02*
X134409600Y-105539200I500400J0D01*
G01*
X135410400Y-105539200D01*
G75*
G02*
X135910800Y-106039600I0J-500400D01*
G01*
X135910800Y-108340400D01*
G75*
G02*
X135410400Y-108840800I-500400J0D01*
G01*
X134409600Y-108840800D01*
G75*
G02*
X133909200Y-108340400I0J500400D01*
G01*
G37*
X131640000Y-111160000D03*
G36*
G01*
X130839200Y-112500400D02*
X130839200Y-111199600D01*
G75*
G02*
X131239600Y-110799200I400400J0D01*
G01*
X132040400Y-110799200D01*
G75*
G02*
X132440800Y-111199600I0J-400400D01*
G01*
X132440800Y-112500400D01*
G75*
G02*
X132040400Y-112900800I-400400J0D01*
G01*
X131239600Y-112900800D01*
G75*
G02*
X130839200Y-112500400I0J400400D01*
G01*
G37*
G36*
G01*
X131489200Y-108340400D02*
X131489200Y-106039600D01*
G75*
G02*
X131989600Y-105539200I500400J0D01*
G01*
X132990400Y-105539200D01*
G75*
G02*
X133490800Y-106039600I0J-500400D01*
G01*
X133490800Y-108340400D01*
G75*
G02*
X132990400Y-108840800I-500400J0D01*
G01*
X131989600Y-108840800D01*
G75*
G02*
X131489200Y-108340400I0J500400D01*
G01*
G37*
M02*
