G04 #@! TF.GenerationSoftware,KiCad,Pcbnew,(5.1.8-0-10_14)*
G04 #@! TF.CreationDate,2021-09-22T21:19:34-04:00*
G04 #@! TF.ProjectId,WiiComp,57696943-6f6d-4702-9e6b-696361645f70,1*
G04 #@! TF.SameCoordinates,Original*
G04 #@! TF.FileFunction,Soldermask,Top*
G04 #@! TF.FilePolarity,Negative*
%FSLAX46Y46*%
G04 Gerber Fmt 4.6, Leading zero omitted, Abs format (unit mm)*
G04 Created by KiCad (PCBNEW (5.1.8-0-10_14)) date 2021-09-22 21:19:34*
%MOMM*%
%LPD*%
G01*
G04 APERTURE LIST*
%ADD10C,0.100000*%
%ADD11C,0.152400*%
G04 APERTURE END LIST*
D10*
G36*
X140660000Y-80960000D02*
G01*
X142390000Y-80960000D01*
X142390000Y-82360000D01*
X140660000Y-82360000D01*
X140660000Y-80960000D01*
G37*
X140660000Y-80960000D02*
X142390000Y-80960000D01*
X142390000Y-82360000D01*
X140660000Y-82360000D01*
X140660000Y-80960000D01*
G36*
X139710000Y-82360000D02*
G01*
X138080000Y-82360000D01*
X138080000Y-80960000D01*
X139710000Y-80960000D01*
X139710000Y-82360000D01*
G37*
X139710000Y-82360000D02*
X138080000Y-82360000D01*
X138080000Y-80960000D01*
X139710000Y-80960000D01*
X139710000Y-82360000D01*
G36*
X138390000Y-81960000D02*
G01*
X138139290Y-81960000D01*
X138139290Y-81359564D01*
X138390000Y-81359564D01*
X138390000Y-81960000D01*
G37*
X138390000Y-81960000D02*
X138139290Y-81960000D01*
X138139290Y-81359564D01*
X138390000Y-81359564D01*
X138390000Y-81960000D01*
G36*
G01*
X149244200Y-78140400D02*
X149244200Y-75839600D01*
G75*
G02*
X149744600Y-75339200I500400J0D01*
G01*
X150745400Y-75339200D01*
G75*
G02*
X151245800Y-75839600I0J-500400D01*
G01*
X151245800Y-78140400D01*
G75*
G02*
X150745400Y-78640800I-500400J0D01*
G01*
X149744600Y-78640800D01*
G75*
G02*
X149244200Y-78140400I0J500400D01*
G01*
G37*
G36*
G01*
X146824200Y-78140400D02*
X146824200Y-75839600D01*
G75*
G02*
X147324600Y-75339200I500400J0D01*
G01*
X148325400Y-75339200D01*
G75*
G02*
X148825800Y-75839600I0J-500400D01*
G01*
X148825800Y-78140400D01*
G75*
G02*
X148325400Y-78640800I-500400J0D01*
G01*
X147324600Y-78640800D01*
G75*
G02*
X146824200Y-78140400I0J500400D01*
G01*
G37*
G36*
G01*
X144404200Y-78140400D02*
X144404200Y-75839600D01*
G75*
G02*
X144904600Y-75339200I500400J0D01*
G01*
X145905400Y-75339200D01*
G75*
G02*
X146405800Y-75839600I0J-500400D01*
G01*
X146405800Y-78140400D01*
G75*
G02*
X145905400Y-78640800I-500400J0D01*
G01*
X144904600Y-78640800D01*
G75*
G02*
X144404200Y-78140400I0J500400D01*
G01*
G37*
G36*
G01*
X141984200Y-78140400D02*
X141984200Y-75839600D01*
G75*
G02*
X142484600Y-75339200I500400J0D01*
G01*
X143485400Y-75339200D01*
G75*
G02*
X143985800Y-75839600I0J-500400D01*
G01*
X143985800Y-78140400D01*
G75*
G02*
X143485400Y-78640800I-500400J0D01*
G01*
X142484600Y-78640800D01*
G75*
G02*
X141984200Y-78140400I0J500400D01*
G01*
G37*
G36*
G01*
X139564200Y-78140400D02*
X139564200Y-75839600D01*
G75*
G02*
X140064600Y-75339200I500400J0D01*
G01*
X141065400Y-75339200D01*
G75*
G02*
X141565800Y-75839600I0J-500400D01*
G01*
X141565800Y-78140400D01*
G75*
G02*
X141065400Y-78640800I-500400J0D01*
G01*
X140064600Y-78640800D01*
G75*
G02*
X139564200Y-78140400I0J500400D01*
G01*
G37*
G36*
G01*
X137144200Y-78140400D02*
X137144200Y-75839600D01*
G75*
G02*
X137644600Y-75339200I500400J0D01*
G01*
X138645400Y-75339200D01*
G75*
G02*
X139145800Y-75839600I0J-500400D01*
G01*
X139145800Y-78140400D01*
G75*
G02*
X138645400Y-78640800I-500400J0D01*
G01*
X137644600Y-78640800D01*
G75*
G02*
X137144200Y-78140400I0J500400D01*
G01*
G37*
G36*
G01*
X136389200Y-90510400D02*
X136389200Y-84209600D01*
G75*
G02*
X136789600Y-83809200I400400J0D01*
G01*
X137590400Y-83809200D01*
G75*
G02*
X137990800Y-84209600I0J-400400D01*
G01*
X137990800Y-90510400D01*
G75*
G02*
X137590400Y-90910800I-400400J0D01*
G01*
X136789600Y-90910800D01*
G75*
G02*
X136389200Y-90510400I0J400400D01*
G01*
G37*
G36*
G01*
X138389200Y-90510400D02*
X138389200Y-84209600D01*
G75*
G02*
X138789600Y-83809200I400400J0D01*
G01*
X139590400Y-83809200D01*
G75*
G02*
X139990800Y-84209600I0J-400400D01*
G01*
X139990800Y-90510400D01*
G75*
G02*
X139590400Y-90910800I-400400J0D01*
G01*
X138789600Y-90910800D01*
G75*
G02*
X138389200Y-90510400I0J400400D01*
G01*
G37*
G36*
G01*
X140389200Y-90510400D02*
X140389200Y-84209600D01*
G75*
G02*
X140789600Y-83809200I400400J0D01*
G01*
X141590400Y-83809200D01*
G75*
G02*
X141990800Y-84209600I0J-400400D01*
G01*
X141990800Y-90510400D01*
G75*
G02*
X141590400Y-90910800I-400400J0D01*
G01*
X140789600Y-90910800D01*
G75*
G02*
X140389200Y-90510400I0J400400D01*
G01*
G37*
G36*
G01*
X142389200Y-90510400D02*
X142389200Y-84209600D01*
G75*
G02*
X142789600Y-83809200I400400J0D01*
G01*
X143590400Y-83809200D01*
G75*
G02*
X143990800Y-84209600I0J-400400D01*
G01*
X143990800Y-90510400D01*
G75*
G02*
X143590400Y-90910800I-400400J0D01*
G01*
X142789600Y-90910800D01*
G75*
G02*
X142389200Y-90510400I0J400400D01*
G01*
G37*
G36*
G01*
X144389200Y-90510400D02*
X144389200Y-84209600D01*
G75*
G02*
X144789600Y-83809200I400400J0D01*
G01*
X145590400Y-83809200D01*
G75*
G02*
X145990800Y-84209600I0J-400400D01*
G01*
X145990800Y-90510400D01*
G75*
G02*
X145590400Y-90910800I-400400J0D01*
G01*
X144789600Y-90910800D01*
G75*
G02*
X144389200Y-90510400I0J400400D01*
G01*
G37*
G36*
G01*
X146389200Y-90510400D02*
X146389200Y-84209600D01*
G75*
G02*
X146789600Y-83809200I400400J0D01*
G01*
X147590400Y-83809200D01*
G75*
G02*
X147990800Y-84209600I0J-400400D01*
G01*
X147990800Y-90510400D01*
G75*
G02*
X147590400Y-90910800I-400400J0D01*
G01*
X146789600Y-90910800D01*
G75*
G02*
X146389200Y-90510400I0J400400D01*
G01*
G37*
G36*
G01*
X148389200Y-90510400D02*
X148389200Y-84209600D01*
G75*
G02*
X148789600Y-83809200I400400J0D01*
G01*
X149590400Y-83809200D01*
G75*
G02*
X149990800Y-84209600I0J-400400D01*
G01*
X149990800Y-90510400D01*
G75*
G02*
X149590400Y-90910800I-400400J0D01*
G01*
X148789600Y-90910800D01*
G75*
G02*
X148389200Y-90510400I0J400400D01*
G01*
G37*
G36*
G01*
X150389200Y-90510400D02*
X150389200Y-84209600D01*
G75*
G02*
X150789600Y-83809200I400400J0D01*
G01*
X151590400Y-83809200D01*
G75*
G02*
X151990800Y-84209600I0J-400400D01*
G01*
X151990800Y-90510400D01*
G75*
G02*
X151590400Y-90910800I-400400J0D01*
G01*
X150789600Y-90910800D01*
G75*
G02*
X150389200Y-90510400I0J400400D01*
G01*
G37*
D11*
G36*
X142230089Y-82459824D02*
G01*
X142220560Y-82456933D01*
X142211777Y-82452239D01*
X142204079Y-82445921D01*
X142197761Y-82438223D01*
X142193067Y-82429440D01*
X142190176Y-82419911D01*
X142189200Y-82410000D01*
X142189200Y-80910000D01*
X142190176Y-80900089D01*
X142193067Y-80890560D01*
X142197761Y-80881777D01*
X142204079Y-80874079D01*
X142211777Y-80867761D01*
X142220560Y-80863067D01*
X142230089Y-80860176D01*
X142240000Y-80859200D01*
X142790000Y-80859200D01*
X142796113Y-80859802D01*
X142814534Y-80859802D01*
X142819514Y-80860047D01*
X142868345Y-80864857D01*
X142873275Y-80865588D01*
X142921400Y-80875160D01*
X142926237Y-80876372D01*
X142973192Y-80890616D01*
X142977885Y-80892295D01*
X143023218Y-80911072D01*
X143027726Y-80913204D01*
X143070999Y-80936335D01*
X143075273Y-80938897D01*
X143116072Y-80966157D01*
X143120077Y-80969127D01*
X143158006Y-81000255D01*
X143161700Y-81003603D01*
X143196397Y-81038300D01*
X143199745Y-81041994D01*
X143230873Y-81079923D01*
X143233843Y-81083928D01*
X143261103Y-81124727D01*
X143263665Y-81129001D01*
X143286796Y-81172274D01*
X143288928Y-81176782D01*
X143307705Y-81222115D01*
X143309384Y-81226808D01*
X143323628Y-81273763D01*
X143324840Y-81278600D01*
X143334412Y-81326725D01*
X143335143Y-81331655D01*
X143339953Y-81380486D01*
X143340198Y-81385466D01*
X143340198Y-81403887D01*
X143340800Y-81410000D01*
X143340800Y-81910000D01*
X143340198Y-81916113D01*
X143340198Y-81934534D01*
X143339953Y-81939514D01*
X143335143Y-81988345D01*
X143334412Y-81993275D01*
X143324840Y-82041400D01*
X143323628Y-82046237D01*
X143309384Y-82093192D01*
X143307705Y-82097885D01*
X143288928Y-82143218D01*
X143286796Y-82147726D01*
X143263665Y-82190999D01*
X143261103Y-82195273D01*
X143233843Y-82236072D01*
X143230873Y-82240077D01*
X143199745Y-82278006D01*
X143196397Y-82281700D01*
X143161700Y-82316397D01*
X143158006Y-82319745D01*
X143120077Y-82350873D01*
X143116072Y-82353843D01*
X143075273Y-82381103D01*
X143070999Y-82383665D01*
X143027726Y-82406796D01*
X143023218Y-82408928D01*
X142977885Y-82427705D01*
X142973192Y-82429384D01*
X142926237Y-82443628D01*
X142921400Y-82444840D01*
X142873275Y-82454412D01*
X142868345Y-82455143D01*
X142819514Y-82459953D01*
X142814534Y-82460198D01*
X142796113Y-82460198D01*
X142790000Y-82460800D01*
X142240000Y-82460800D01*
X142230089Y-82459824D01*
G37*
G36*
X140183887Y-82460198D02*
G01*
X140165466Y-82460198D01*
X140160486Y-82459953D01*
X140111655Y-82455143D01*
X140106725Y-82454412D01*
X140058600Y-82444840D01*
X140053763Y-82443628D01*
X140006808Y-82429384D01*
X140002115Y-82427705D01*
X139956782Y-82408928D01*
X139952274Y-82406796D01*
X139909001Y-82383665D01*
X139904727Y-82381103D01*
X139863928Y-82353843D01*
X139859923Y-82350873D01*
X139821994Y-82319745D01*
X139818300Y-82316397D01*
X139783603Y-82281700D01*
X139780255Y-82278006D01*
X139749127Y-82240077D01*
X139746157Y-82236072D01*
X139718897Y-82195273D01*
X139716335Y-82190999D01*
X139693204Y-82147726D01*
X139691072Y-82143218D01*
X139672295Y-82097885D01*
X139670616Y-82093192D01*
X139656372Y-82046237D01*
X139655160Y-82041400D01*
X139645588Y-81993275D01*
X139644857Y-81988345D01*
X139640047Y-81939514D01*
X139639802Y-81934534D01*
X139639802Y-81916113D01*
X139639200Y-81910000D01*
X139639200Y-81410000D01*
X139639802Y-81403887D01*
X139639802Y-81385466D01*
X139640047Y-81380486D01*
X139644857Y-81331655D01*
X139645588Y-81326725D01*
X139655160Y-81278600D01*
X139656372Y-81273763D01*
X139670616Y-81226808D01*
X139672295Y-81222115D01*
X139691072Y-81176782D01*
X139693204Y-81172274D01*
X139716335Y-81129001D01*
X139718897Y-81124727D01*
X139746157Y-81083928D01*
X139749127Y-81079923D01*
X139780255Y-81041994D01*
X139783603Y-81038300D01*
X139818300Y-81003603D01*
X139821994Y-81000255D01*
X139859923Y-80969127D01*
X139863928Y-80966157D01*
X139904727Y-80938897D01*
X139909001Y-80936335D01*
X139952274Y-80913204D01*
X139956782Y-80911072D01*
X140002115Y-80892295D01*
X140006808Y-80890616D01*
X140053763Y-80876372D01*
X140058600Y-80875160D01*
X140106725Y-80865588D01*
X140111655Y-80864857D01*
X140160486Y-80860047D01*
X140165466Y-80859802D01*
X140183887Y-80859802D01*
X140190000Y-80859200D01*
X140740000Y-80859200D01*
X140749911Y-80860176D01*
X140759440Y-80863067D01*
X140768223Y-80867761D01*
X140775921Y-80874079D01*
X140782239Y-80881777D01*
X140786933Y-80890560D01*
X140789824Y-80900089D01*
X140790800Y-80910000D01*
X140790800Y-82410000D01*
X140789824Y-82419911D01*
X140786933Y-82429440D01*
X140782239Y-82438223D01*
X140775921Y-82445921D01*
X140768223Y-82452239D01*
X140759440Y-82456933D01*
X140749911Y-82459824D01*
X140740000Y-82460800D01*
X140190000Y-82460800D01*
X140183887Y-82460198D01*
G37*
G36*
G01*
X142040800Y-80910000D02*
X142040800Y-82410000D01*
G75*
G02*
X141990000Y-82460800I-50800J0D01*
G01*
X140990000Y-82460800D01*
G75*
G02*
X140939200Y-82410000I0J50800D01*
G01*
X140939200Y-80910000D01*
G75*
G02*
X140990000Y-80859200I50800J0D01*
G01*
X141990000Y-80859200D01*
G75*
G02*
X142040800Y-80910000I0J-50800D01*
G01*
G37*
G36*
X140196113Y-80859802D02*
G01*
X140214534Y-80859802D01*
X140219514Y-80860047D01*
X140268345Y-80864857D01*
X140273275Y-80865588D01*
X140321400Y-80875160D01*
X140326237Y-80876372D01*
X140373192Y-80890616D01*
X140377885Y-80892295D01*
X140423218Y-80911072D01*
X140427726Y-80913204D01*
X140470999Y-80936335D01*
X140475273Y-80938897D01*
X140516072Y-80966157D01*
X140520077Y-80969127D01*
X140558006Y-81000255D01*
X140561700Y-81003603D01*
X140596397Y-81038300D01*
X140599745Y-81041994D01*
X140630873Y-81079923D01*
X140633843Y-81083928D01*
X140661103Y-81124727D01*
X140663665Y-81129001D01*
X140686796Y-81172274D01*
X140688928Y-81176782D01*
X140707705Y-81222115D01*
X140709384Y-81226808D01*
X140723628Y-81273763D01*
X140724840Y-81278600D01*
X140734412Y-81326725D01*
X140735143Y-81331655D01*
X140739953Y-81380486D01*
X140740198Y-81385466D01*
X140740198Y-81403887D01*
X140740800Y-81410000D01*
X140740800Y-81910000D01*
X140740198Y-81916113D01*
X140740198Y-81934534D01*
X140739953Y-81939514D01*
X140735143Y-81988345D01*
X140734412Y-81993275D01*
X140724840Y-82041400D01*
X140723628Y-82046237D01*
X140709384Y-82093192D01*
X140707705Y-82097885D01*
X140688928Y-82143218D01*
X140686796Y-82147726D01*
X140663665Y-82190999D01*
X140661103Y-82195273D01*
X140633843Y-82236072D01*
X140630873Y-82240077D01*
X140599745Y-82278006D01*
X140596397Y-82281700D01*
X140561700Y-82316397D01*
X140558006Y-82319745D01*
X140520077Y-82350873D01*
X140516072Y-82353843D01*
X140475273Y-82381103D01*
X140470999Y-82383665D01*
X140427726Y-82406796D01*
X140423218Y-82408928D01*
X140377885Y-82427705D01*
X140373192Y-82429384D01*
X140326237Y-82443628D01*
X140321400Y-82444840D01*
X140273275Y-82454412D01*
X140268345Y-82455143D01*
X140219514Y-82459953D01*
X140214534Y-82460198D01*
X140196113Y-82460198D01*
X140190000Y-82460800D01*
X139640000Y-82460800D01*
X139630089Y-82459824D01*
X139620560Y-82456933D01*
X139611777Y-82452239D01*
X139604079Y-82445921D01*
X139597761Y-82438223D01*
X139593067Y-82429440D01*
X139590176Y-82419911D01*
X139589200Y-82410000D01*
X139589200Y-80910000D01*
X139590176Y-80900089D01*
X139593067Y-80890560D01*
X139597761Y-80881777D01*
X139604079Y-80874079D01*
X139611777Y-80867761D01*
X139620560Y-80863067D01*
X139630089Y-80860176D01*
X139640000Y-80859200D01*
X140190000Y-80859200D01*
X140196113Y-80859802D01*
G37*
G36*
G01*
X138339200Y-82410000D02*
X138339200Y-80910000D01*
G75*
G02*
X138390000Y-80859200I50800J0D01*
G01*
X139390000Y-80859200D01*
G75*
G02*
X139440800Y-80910000I0J-50800D01*
G01*
X139440800Y-82410000D01*
G75*
G02*
X139390000Y-82460800I-50800J0D01*
G01*
X138390000Y-82460800D01*
G75*
G02*
X138339200Y-82410000I0J50800D01*
G01*
G37*
G36*
X138149911Y-80860176D02*
G01*
X138159440Y-80863067D01*
X138168223Y-80867761D01*
X138175921Y-80874079D01*
X138182239Y-80881777D01*
X138186933Y-80890560D01*
X138189824Y-80900089D01*
X138190800Y-80910000D01*
X138190800Y-82410000D01*
X138189824Y-82419911D01*
X138186933Y-82429440D01*
X138182239Y-82438223D01*
X138175921Y-82445921D01*
X138168223Y-82452239D01*
X138159440Y-82456933D01*
X138149911Y-82459824D01*
X138140000Y-82460800D01*
X137590000Y-82460800D01*
X137583887Y-82460198D01*
X137565466Y-82460198D01*
X137560486Y-82459953D01*
X137511655Y-82455143D01*
X137506725Y-82454412D01*
X137458600Y-82444840D01*
X137453763Y-82443628D01*
X137406808Y-82429384D01*
X137402115Y-82427705D01*
X137356782Y-82408928D01*
X137352274Y-82406796D01*
X137309001Y-82383665D01*
X137304727Y-82381103D01*
X137263928Y-82353843D01*
X137259923Y-82350873D01*
X137221994Y-82319745D01*
X137218300Y-82316397D01*
X137183603Y-82281700D01*
X137180255Y-82278006D01*
X137149127Y-82240077D01*
X137146157Y-82236072D01*
X137118897Y-82195273D01*
X137116335Y-82190999D01*
X137093204Y-82147726D01*
X137091072Y-82143218D01*
X137072295Y-82097885D01*
X137070616Y-82093192D01*
X137056372Y-82046237D01*
X137055160Y-82041400D01*
X137045588Y-81993275D01*
X137044857Y-81988345D01*
X137040047Y-81939514D01*
X137039802Y-81934534D01*
X137039802Y-81916113D01*
X137039200Y-81910000D01*
X137039200Y-81410000D01*
X137039802Y-81403887D01*
X137039802Y-81385466D01*
X137040047Y-81380486D01*
X137044857Y-81331655D01*
X137045588Y-81326725D01*
X137055160Y-81278600D01*
X137056372Y-81273763D01*
X137070616Y-81226808D01*
X137072295Y-81222115D01*
X137091072Y-81176782D01*
X137093204Y-81172274D01*
X137116335Y-81129001D01*
X137118897Y-81124727D01*
X137146157Y-81083928D01*
X137149127Y-81079923D01*
X137180255Y-81041994D01*
X137183603Y-81038300D01*
X137218300Y-81003603D01*
X137221994Y-81000255D01*
X137259923Y-80969127D01*
X137263928Y-80966157D01*
X137304727Y-80938897D01*
X137309001Y-80936335D01*
X137352274Y-80913204D01*
X137356782Y-80911072D01*
X137402115Y-80892295D01*
X137406808Y-80890616D01*
X137453763Y-80876372D01*
X137458600Y-80875160D01*
X137506725Y-80865588D01*
X137511655Y-80864857D01*
X137560486Y-80860047D01*
X137565466Y-80859802D01*
X137583887Y-80859802D01*
X137590000Y-80859200D01*
X138140000Y-80859200D01*
X138149911Y-80860176D01*
G37*
M02*
