G04 #@! TF.GenerationSoftware,KiCad,Pcbnew,(5.1.8-0-10_14)*
G04 #@! TF.CreationDate,2021-09-22T21:19:34-04:00*
G04 #@! TF.ProjectId,WiiComp,57696943-6f6d-4702-9e6b-696361645f70,1*
G04 #@! TF.SameCoordinates,Original*
G04 #@! TF.FileFunction,Copper,L2,Bot*
G04 #@! TF.FilePolarity,Positive*
%FSLAX46Y46*%
G04 Gerber Fmt 4.6, Leading zero omitted, Abs format (unit mm)*
G04 Created by KiCad (PCBNEW (5.1.8-0-10_14)) date 2021-09-22 21:19:34*
%MOMM*%
%LPD*%
G01*
G04 APERTURE LIST*
G04 #@! TA.AperFunction,ViaPad*
%ADD10C,0.700000*%
G04 #@! TD*
G04 #@! TA.AperFunction,Conductor*
%ADD11C,0.250000*%
G04 #@! TD*
G04 #@! TA.AperFunction,Conductor*
%ADD12C,0.200000*%
G04 #@! TD*
G04 #@! TA.AperFunction,Conductor*
%ADD13C,0.152400*%
G04 #@! TD*
G04 #@! TA.AperFunction,Conductor*
%ADD14C,0.025400*%
G04 #@! TD*
G04 APERTURE END LIST*
G04 #@! TA.AperFunction,ConnectorPad*
G36*
G01*
X150345000Y-82275000D02*
X150345000Y-81525000D01*
G75*
G02*
X150720000Y-81150000I375000J0D01*
G01*
X151470000Y-81150000D01*
G75*
G02*
X151845000Y-81525000I0J-375000D01*
G01*
X151845000Y-82275000D01*
G75*
G02*
X151470000Y-82650000I-375000J0D01*
G01*
X150720000Y-82650000D01*
G75*
G02*
X150345000Y-82275000I0J375000D01*
G01*
G37*
G04 #@! TD.AperFunction*
G04 #@! TA.AperFunction,ConnectorPad*
G36*
G01*
X148085000Y-82275000D02*
X148085000Y-81525000D01*
G75*
G02*
X148460000Y-81150000I375000J0D01*
G01*
X149210000Y-81150000D01*
G75*
G02*
X149585000Y-81525000I0J-375000D01*
G01*
X149585000Y-82275000D01*
G75*
G02*
X149210000Y-82650000I-375000J0D01*
G01*
X148460000Y-82650000D01*
G75*
G02*
X148085000Y-82275000I0J375000D01*
G01*
G37*
G04 #@! TD.AperFunction*
G04 #@! TA.AperFunction,ConnectorPad*
G36*
G01*
X145825000Y-82275000D02*
X145825000Y-81525000D01*
G75*
G02*
X146200000Y-81150000I375000J0D01*
G01*
X146950000Y-81150000D01*
G75*
G02*
X147325000Y-81525000I0J-375000D01*
G01*
X147325000Y-82275000D01*
G75*
G02*
X146950000Y-82650000I-375000J0D01*
G01*
X146200000Y-82650000D01*
G75*
G02*
X145825000Y-82275000I0J375000D01*
G01*
G37*
G04 #@! TD.AperFunction*
G04 #@! TA.AperFunction,ConnectorPad*
G36*
G01*
X141035000Y-82275000D02*
X141035000Y-81525000D01*
G75*
G02*
X141410000Y-81150000I375000J0D01*
G01*
X142160000Y-81150000D01*
G75*
G02*
X142535000Y-81525000I0J-375000D01*
G01*
X142535000Y-82275000D01*
G75*
G02*
X142160000Y-82650000I-375000J0D01*
G01*
X141410000Y-82650000D01*
G75*
G02*
X141035000Y-82275000I0J375000D01*
G01*
G37*
G04 #@! TD.AperFunction*
G04 #@! TA.AperFunction,ConnectorPad*
G36*
G01*
X138790000Y-82275000D02*
X138790000Y-81525000D01*
G75*
G02*
X139165000Y-81150000I375000J0D01*
G01*
X139915000Y-81150000D01*
G75*
G02*
X140290000Y-81525000I0J-375000D01*
G01*
X140290000Y-82275000D01*
G75*
G02*
X139915000Y-82650000I-375000J0D01*
G01*
X139165000Y-82650000D01*
G75*
G02*
X138790000Y-82275000I0J375000D01*
G01*
G37*
G04 #@! TD.AperFunction*
G04 #@! TA.AperFunction,ConnectorPad*
G36*
G01*
X136545000Y-82275000D02*
X136545000Y-81525000D01*
G75*
G02*
X136920000Y-81150000I375000J0D01*
G01*
X137670000Y-81150000D01*
G75*
G02*
X138045000Y-81525000I0J-375000D01*
G01*
X138045000Y-82275000D01*
G75*
G02*
X137670000Y-82650000I-375000J0D01*
G01*
X136920000Y-82650000D01*
G75*
G02*
X136545000Y-82275000I0J375000D01*
G01*
G37*
G04 #@! TD.AperFunction*
G04 #@! TA.AperFunction,SMDPad,CuDef*
G36*
G01*
X136440000Y-90485000D02*
X136440000Y-84235000D01*
G75*
G02*
X136815000Y-83860000I375000J0D01*
G01*
X137565000Y-83860000D01*
G75*
G02*
X137940000Y-84235000I0J-375000D01*
G01*
X137940000Y-90485000D01*
G75*
G02*
X137565000Y-90860000I-375000J0D01*
G01*
X136815000Y-90860000D01*
G75*
G02*
X136440000Y-90485000I0J375000D01*
G01*
G37*
G04 #@! TD.AperFunction*
G04 #@! TA.AperFunction,SMDPad,CuDef*
G36*
G01*
X138440000Y-90485000D02*
X138440000Y-84235000D01*
G75*
G02*
X138815000Y-83860000I375000J0D01*
G01*
X139565000Y-83860000D01*
G75*
G02*
X139940000Y-84235000I0J-375000D01*
G01*
X139940000Y-90485000D01*
G75*
G02*
X139565000Y-90860000I-375000J0D01*
G01*
X138815000Y-90860000D01*
G75*
G02*
X138440000Y-90485000I0J375000D01*
G01*
G37*
G04 #@! TD.AperFunction*
G04 #@! TA.AperFunction,SMDPad,CuDef*
G36*
G01*
X140440000Y-90485000D02*
X140440000Y-84235000D01*
G75*
G02*
X140815000Y-83860000I375000J0D01*
G01*
X141565000Y-83860000D01*
G75*
G02*
X141940000Y-84235000I0J-375000D01*
G01*
X141940000Y-90485000D01*
G75*
G02*
X141565000Y-90860000I-375000J0D01*
G01*
X140815000Y-90860000D01*
G75*
G02*
X140440000Y-90485000I0J375000D01*
G01*
G37*
G04 #@! TD.AperFunction*
G04 #@! TA.AperFunction,SMDPad,CuDef*
G36*
G01*
X142440000Y-90485000D02*
X142440000Y-84235000D01*
G75*
G02*
X142815000Y-83860000I375000J0D01*
G01*
X143565000Y-83860000D01*
G75*
G02*
X143940000Y-84235000I0J-375000D01*
G01*
X143940000Y-90485000D01*
G75*
G02*
X143565000Y-90860000I-375000J0D01*
G01*
X142815000Y-90860000D01*
G75*
G02*
X142440000Y-90485000I0J375000D01*
G01*
G37*
G04 #@! TD.AperFunction*
G04 #@! TA.AperFunction,SMDPad,CuDef*
G36*
G01*
X144440000Y-90485000D02*
X144440000Y-84235000D01*
G75*
G02*
X144815000Y-83860000I375000J0D01*
G01*
X145565000Y-83860000D01*
G75*
G02*
X145940000Y-84235000I0J-375000D01*
G01*
X145940000Y-90485000D01*
G75*
G02*
X145565000Y-90860000I-375000J0D01*
G01*
X144815000Y-90860000D01*
G75*
G02*
X144440000Y-90485000I0J375000D01*
G01*
G37*
G04 #@! TD.AperFunction*
G04 #@! TA.AperFunction,SMDPad,CuDef*
G36*
G01*
X146440000Y-90485000D02*
X146440000Y-84235000D01*
G75*
G02*
X146815000Y-83860000I375000J0D01*
G01*
X147565000Y-83860000D01*
G75*
G02*
X147940000Y-84235000I0J-375000D01*
G01*
X147940000Y-90485000D01*
G75*
G02*
X147565000Y-90860000I-375000J0D01*
G01*
X146815000Y-90860000D01*
G75*
G02*
X146440000Y-90485000I0J375000D01*
G01*
G37*
G04 #@! TD.AperFunction*
G04 #@! TA.AperFunction,SMDPad,CuDef*
G36*
G01*
X148440000Y-90485000D02*
X148440000Y-84235000D01*
G75*
G02*
X148815000Y-83860000I375000J0D01*
G01*
X149565000Y-83860000D01*
G75*
G02*
X149940000Y-84235000I0J-375000D01*
G01*
X149940000Y-90485000D01*
G75*
G02*
X149565000Y-90860000I-375000J0D01*
G01*
X148815000Y-90860000D01*
G75*
G02*
X148440000Y-90485000I0J375000D01*
G01*
G37*
G04 #@! TD.AperFunction*
G04 #@! TA.AperFunction,SMDPad,CuDef*
G36*
G01*
X150440000Y-90485000D02*
X150440000Y-84235000D01*
G75*
G02*
X150815000Y-83860000I375000J0D01*
G01*
X151565000Y-83860000D01*
G75*
G02*
X151940000Y-84235000I0J-375000D01*
G01*
X151940000Y-90485000D01*
G75*
G02*
X151565000Y-90860000I-375000J0D01*
G01*
X150815000Y-90860000D01*
G75*
G02*
X150440000Y-90485000I0J375000D01*
G01*
G37*
G04 #@! TD.AperFunction*
D10*
X146070000Y-79500000D03*
X139320000Y-79300000D03*
X149960000Y-83200000D03*
X138260000Y-83250000D03*
X136630000Y-78690000D03*
X149250000Y-80020000D03*
X147300000Y-79999998D03*
X140560000Y-76350000D03*
X138540000Y-80170000D03*
X147830000Y-76350000D03*
X141810000Y-80159998D03*
X142980000Y-76340000D03*
X140200000Y-80160008D03*
D11*
X137190000Y-83250000D02*
X137190000Y-87010000D01*
X137280000Y-83160000D02*
X137190000Y-83250000D01*
X137280000Y-81900000D02*
X137280000Y-83160000D01*
X141190000Y-87220000D02*
X141190000Y-83590000D01*
X147190000Y-87360000D02*
X147190000Y-83660000D01*
X148820000Y-81900000D02*
X148820000Y-80450000D01*
X148820000Y-80450000D02*
X149250000Y-80020000D01*
X148409998Y-78890000D02*
X147300000Y-79999998D01*
X150060000Y-78890000D02*
X148409998Y-78890000D01*
X151095000Y-79925000D02*
X150060000Y-78890000D01*
X151095000Y-81900000D02*
X151095000Y-79925000D01*
X139540000Y-83080000D02*
X139160000Y-83460000D01*
X139160000Y-83460000D02*
X139160000Y-87320000D01*
X139540000Y-81900000D02*
X139540000Y-83080000D01*
X138540000Y-78520000D02*
X138540000Y-80170000D01*
X140560000Y-76500000D02*
X138540000Y-78520000D01*
X140560000Y-76270000D02*
X140560000Y-76500000D01*
X145350000Y-76270000D02*
X141810000Y-79810000D01*
X141810000Y-79810000D02*
X141810000Y-80159998D01*
X147830000Y-76270000D02*
X145350000Y-76270000D01*
X140200000Y-79200000D02*
X140200000Y-80160008D01*
X142980000Y-76420000D02*
X140200000Y-79200000D01*
X142980000Y-76340000D02*
X142980000Y-76420000D01*
D12*
X140370402Y-75724979D02*
X140252110Y-75773978D01*
X140145649Y-75845112D01*
X140055112Y-75935649D01*
X139983978Y-76042110D01*
X139934979Y-76160402D01*
X139910000Y-76285981D01*
X139910000Y-76348323D01*
X139909340Y-76396223D01*
X139909313Y-76401140D01*
X139909451Y-76453821D01*
X139909105Y-76494700D01*
X139907666Y-76520983D01*
X139905803Y-76534224D01*
X139904436Y-76539377D01*
X139902443Y-76544119D01*
X139895730Y-76555458D01*
X139879142Y-76577138D01*
X139845321Y-76613638D01*
X138254243Y-78204717D01*
X138238026Y-78218026D01*
X138184916Y-78282741D01*
X138145452Y-78356574D01*
X138121150Y-78436687D01*
X138115000Y-78499127D01*
X138115000Y-78499133D01*
X138112945Y-78520000D01*
X138115000Y-78540867D01*
X138115001Y-79475236D01*
X138113029Y-79537418D01*
X138108594Y-79578117D01*
X138102987Y-79605510D01*
X138096635Y-79625684D01*
X138088038Y-79645804D01*
X138074358Y-79671999D01*
X138053452Y-79708045D01*
X138026910Y-79752867D01*
X138023871Y-79758118D01*
X137994639Y-79809840D01*
X137988956Y-79820382D01*
X137979306Y-79839170D01*
X137963978Y-79862110D01*
X137914979Y-79980402D01*
X137890000Y-80105981D01*
X137890000Y-80234019D01*
X137914979Y-80359598D01*
X137963978Y-80477890D01*
X138035112Y-80584351D01*
X138125649Y-80674888D01*
X138232110Y-80746022D01*
X138350402Y-80795021D01*
X138475981Y-80820000D01*
X138604019Y-80820000D01*
X138729598Y-80795021D01*
X138847890Y-80746022D01*
X138954351Y-80674888D01*
X139044888Y-80584351D01*
X139116022Y-80477890D01*
X139165021Y-80359598D01*
X139190000Y-80234019D01*
X139190000Y-80105981D01*
X139165021Y-79980402D01*
X139116022Y-79862110D01*
X139100691Y-79839166D01*
X139091041Y-79820378D01*
X139085360Y-79809840D01*
X139056128Y-79758118D01*
X139053089Y-79752867D01*
X139026547Y-79708045D01*
X139005641Y-79671999D01*
X138991961Y-79645804D01*
X138983364Y-79625684D01*
X138977012Y-79605510D01*
X138971405Y-79578117D01*
X138966970Y-79537418D01*
X138965000Y-79475259D01*
X138965000Y-78696040D01*
X140447841Y-77213200D01*
X140503557Y-77160125D01*
X140547518Y-77122696D01*
X140584750Y-77094794D01*
X140619017Y-77072286D01*
X140655117Y-77051137D01*
X140697210Y-77028109D01*
X140744679Y-77002237D01*
X140751041Y-76998669D01*
X140801720Y-76969427D01*
X140812503Y-76962899D01*
X140867922Y-76927739D01*
X140880357Y-76919407D01*
X140924780Y-76888010D01*
X140974351Y-76854888D01*
X141064888Y-76764351D01*
X141136022Y-76657890D01*
X141185021Y-76539598D01*
X141210000Y-76414019D01*
X141210000Y-76285981D01*
X141185021Y-76160402D01*
X141136022Y-76042110D01*
X141064888Y-75935649D01*
X140974351Y-75845112D01*
X140867890Y-75773978D01*
X140749598Y-75724979D01*
X140624019Y-75700000D01*
X142865707Y-75700000D01*
X142790402Y-75714979D01*
X142672110Y-75763978D01*
X142565649Y-75835112D01*
X142475112Y-75925649D01*
X142403978Y-76032110D01*
X142354979Y-76150402D01*
X142330000Y-76275981D01*
X142330000Y-76290355D01*
X142328876Y-76297610D01*
X142327741Y-76305656D01*
X142320503Y-76362513D01*
X142320399Y-76363338D01*
X142314544Y-76410369D01*
X142309393Y-76443593D01*
X142304766Y-76464181D01*
X142300523Y-76476913D01*
X142294847Y-76488923D01*
X142283643Y-76506731D01*
X142262068Y-76534142D01*
X142223317Y-76575643D01*
X139914243Y-78884717D01*
X139898026Y-78898026D01*
X139844916Y-78962741D01*
X139805452Y-79036574D01*
X139798358Y-79059960D01*
X139782737Y-79111457D01*
X139781150Y-79116687D01*
X139775000Y-79179127D01*
X139775000Y-79179133D01*
X139772945Y-79200000D01*
X139775000Y-79220867D01*
X139775000Y-79465253D01*
X139773029Y-79527426D01*
X139768594Y-79568125D01*
X139762987Y-79595518D01*
X139756635Y-79615692D01*
X139748038Y-79635812D01*
X139734358Y-79662007D01*
X139713452Y-79698053D01*
X139686910Y-79742875D01*
X139683871Y-79748126D01*
X139654639Y-79799848D01*
X139648956Y-79810390D01*
X139639306Y-79829178D01*
X139623978Y-79852118D01*
X139574979Y-79970410D01*
X139550000Y-80095989D01*
X139550000Y-80224027D01*
X139574979Y-80349606D01*
X139623978Y-80467898D01*
X139695112Y-80574359D01*
X139785649Y-80664896D01*
X139892110Y-80736030D01*
X140010402Y-80785029D01*
X140135981Y-80810008D01*
X140264019Y-80810008D01*
X140389598Y-80785029D01*
X140507890Y-80736030D01*
X140614351Y-80664896D01*
X140704888Y-80574359D01*
X140776022Y-80467898D01*
X140825021Y-80349606D01*
X140850000Y-80224027D01*
X140850000Y-80095989D01*
X140825021Y-79970410D01*
X140776022Y-79852118D01*
X140760691Y-79829174D01*
X140751041Y-79810386D01*
X140745360Y-79799848D01*
X140716128Y-79748126D01*
X140713089Y-79742875D01*
X140686547Y-79698053D01*
X140665641Y-79662007D01*
X140651961Y-79635812D01*
X140643364Y-79615692D01*
X140637012Y-79595518D01*
X140631405Y-79568125D01*
X140626970Y-79527426D01*
X140625000Y-79465267D01*
X140625000Y-79376040D01*
X142825102Y-77175939D01*
X142876746Y-77127026D01*
X142915857Y-77094495D01*
X142947331Y-77072114D01*
X142975071Y-77055575D01*
X143004403Y-77040887D01*
X143040582Y-77025090D01*
X143086017Y-77006467D01*
X143088109Y-77005600D01*
X143140337Y-76983731D01*
X143148857Y-76980007D01*
X143206426Y-76953776D01*
X143218490Y-76947951D01*
X143251462Y-76931111D01*
X143287890Y-76916022D01*
X143394351Y-76844888D01*
X143484888Y-76754351D01*
X143556022Y-76647890D01*
X143605021Y-76529598D01*
X143630000Y-76404019D01*
X143630000Y-76275981D01*
X143605021Y-76150402D01*
X143556022Y-76032110D01*
X143484888Y-75925649D01*
X143394351Y-75835112D01*
X143287890Y-75763978D01*
X143169598Y-75714979D01*
X143094293Y-75700000D01*
X147765981Y-75700000D01*
X147640402Y-75724979D01*
X147625071Y-75731329D01*
X147609299Y-75735269D01*
X147595357Y-75739111D01*
X147533885Y-75757655D01*
X147523262Y-75761076D01*
X147469001Y-75779673D01*
X147464400Y-75781292D01*
X147416125Y-75798719D01*
X147375040Y-75812984D01*
X147339724Y-75823624D01*
X147304548Y-75831839D01*
X147263081Y-75838408D01*
X147209595Y-75843080D01*
X147136073Y-75845000D01*
X145370866Y-75845000D01*
X145349999Y-75842945D01*
X145329132Y-75845000D01*
X145329126Y-75845000D01*
X145275098Y-75850321D01*
X145266685Y-75851150D01*
X145242383Y-75858522D01*
X145186573Y-75875452D01*
X145112740Y-75914916D01*
X145048026Y-75968026D01*
X145034721Y-75984238D01*
X141524243Y-79494716D01*
X141508026Y-79508026D01*
X141454916Y-79572741D01*
X141431672Y-79616227D01*
X141396379Y-79653543D01*
X141349520Y-79701239D01*
X141305112Y-79745647D01*
X141233978Y-79852108D01*
X141184979Y-79970400D01*
X141160000Y-80095979D01*
X141160000Y-80224017D01*
X141184979Y-80349596D01*
X141233978Y-80467888D01*
X141305112Y-80574349D01*
X141395649Y-80664886D01*
X141502110Y-80736020D01*
X141620402Y-80785019D01*
X141745981Y-80809998D01*
X141874019Y-80809998D01*
X141999598Y-80785019D01*
X142117890Y-80736020D01*
X142224351Y-80664886D01*
X142314888Y-80574349D01*
X142386022Y-80467888D01*
X142435021Y-80349596D01*
X142451247Y-80268018D01*
X142849960Y-80268018D01*
X142849960Y-80531982D01*
X142901457Y-80790875D01*
X143002472Y-81034747D01*
X143149123Y-81254226D01*
X143335774Y-81440877D01*
X143555253Y-81587528D01*
X143799125Y-81688543D01*
X144058018Y-81740040D01*
X144321982Y-81740040D01*
X144580875Y-81688543D01*
X144824747Y-81587528D01*
X144918326Y-81525000D01*
X147783549Y-81525000D01*
X147783549Y-82275000D01*
X147796547Y-82406969D01*
X147835041Y-82533867D01*
X147897552Y-82650816D01*
X147981677Y-82753323D01*
X148084184Y-82837448D01*
X148201133Y-82899959D01*
X148328031Y-82938453D01*
X148460000Y-82951451D01*
X149210000Y-82951451D01*
X149341969Y-82938453D01*
X149468867Y-82899959D01*
X149585816Y-82837448D01*
X149688323Y-82753323D01*
X149772448Y-82650816D01*
X149834959Y-82533867D01*
X149873453Y-82406969D01*
X149886451Y-82275000D01*
X149886451Y-81525000D01*
X149873453Y-81393031D01*
X149834959Y-81266133D01*
X149772448Y-81149184D01*
X149688323Y-81046677D01*
X149585816Y-80962552D01*
X149468867Y-80900041D01*
X149341969Y-80861547D01*
X149245000Y-80851996D01*
X149245000Y-80673848D01*
X149269337Y-80672320D01*
X149289777Y-80670332D01*
X149292293Y-80670000D01*
X149314019Y-80670000D01*
X149439598Y-80645021D01*
X149557890Y-80596022D01*
X149664351Y-80524888D01*
X149754888Y-80434351D01*
X149826022Y-80327890D01*
X149875021Y-80209598D01*
X149900000Y-80084019D01*
X149900000Y-79955981D01*
X149875021Y-79830402D01*
X149826022Y-79712110D01*
X149754888Y-79605649D01*
X149664351Y-79515112D01*
X149557890Y-79443978D01*
X149439598Y-79394979D01*
X149314019Y-79370000D01*
X149185981Y-79370000D01*
X149060402Y-79394979D01*
X148942110Y-79443978D01*
X148835649Y-79515112D01*
X148745112Y-79605649D01*
X148673978Y-79712110D01*
X148624979Y-79830402D01*
X148600000Y-79955981D01*
X148600000Y-80006705D01*
X148598045Y-80028696D01*
X148596329Y-80032124D01*
X148584699Y-80049266D01*
X148559910Y-80081419D01*
X148557054Y-80085185D01*
X148526714Y-80125848D01*
X148512113Y-80147293D01*
X148492072Y-80179652D01*
X148464917Y-80212740D01*
X148451921Y-80237055D01*
X148425453Y-80286573D01*
X148401150Y-80366686D01*
X148392945Y-80450000D01*
X148395001Y-80470876D01*
X148395001Y-80854951D01*
X148328031Y-80861547D01*
X148201133Y-80900041D01*
X148084184Y-80962552D01*
X147981677Y-81046677D01*
X147897552Y-81149184D01*
X147835041Y-81266133D01*
X147796547Y-81393031D01*
X147783549Y-81525000D01*
X144918326Y-81525000D01*
X145044226Y-81440877D01*
X145230877Y-81254226D01*
X145377528Y-81034747D01*
X145478543Y-80790875D01*
X145530040Y-80531982D01*
X145530040Y-80268018D01*
X145478543Y-80009125D01*
X145448245Y-79935979D01*
X146650000Y-79935979D01*
X146650000Y-80064017D01*
X146674979Y-80189596D01*
X146723978Y-80307888D01*
X146795112Y-80414349D01*
X146885649Y-80504886D01*
X146992110Y-80576020D01*
X147110402Y-80625019D01*
X147235981Y-80649998D01*
X147364019Y-80649998D01*
X147489598Y-80625019D01*
X147607890Y-80576020D01*
X147714351Y-80504886D01*
X147804888Y-80414349D01*
X147876022Y-80307888D01*
X147925021Y-80189596D01*
X147930408Y-80162513D01*
X147936864Y-80142420D01*
X147940298Y-80130954D01*
X147956201Y-80073711D01*
X147957767Y-80067843D01*
X147970696Y-80017364D01*
X147981391Y-79977133D01*
X147990246Y-79948922D01*
X147998398Y-79928607D01*
X148008169Y-79909855D01*
X148023571Y-79886524D01*
X148049210Y-79854616D01*
X148091778Y-79809261D01*
X148586039Y-79315000D01*
X149883960Y-79315000D01*
X150670001Y-80101042D01*
X150670001Y-80853474D01*
X150588031Y-80861547D01*
X150461133Y-80900041D01*
X150344184Y-80962552D01*
X150241677Y-81046677D01*
X150157552Y-81149184D01*
X150095041Y-81266133D01*
X150056547Y-81393031D01*
X150043549Y-81525000D01*
X150043549Y-82275000D01*
X150056547Y-82406969D01*
X150095041Y-82533867D01*
X150157552Y-82650816D01*
X150241677Y-82753323D01*
X150344184Y-82837448D01*
X150461133Y-82899959D01*
X150588031Y-82938453D01*
X150720000Y-82951451D01*
X151470000Y-82951451D01*
X151601969Y-82938453D01*
X151728867Y-82899959D01*
X151845816Y-82837448D01*
X151948323Y-82753323D01*
X152032448Y-82650816D01*
X152094959Y-82533867D01*
X152133453Y-82406969D01*
X152146451Y-82275000D01*
X152146451Y-81525000D01*
X152133453Y-81393031D01*
X152094959Y-81266133D01*
X152032448Y-81149184D01*
X151948323Y-81046677D01*
X151845816Y-80962552D01*
X151728867Y-80900041D01*
X151601969Y-80861547D01*
X151520000Y-80853474D01*
X151520000Y-79945866D01*
X151522055Y-79924999D01*
X151520000Y-79904132D01*
X151520000Y-79904126D01*
X151513850Y-79841686D01*
X151512299Y-79836571D01*
X151504390Y-79810501D01*
X151489548Y-79761573D01*
X151450084Y-79687740D01*
X151396974Y-79623026D01*
X151380762Y-79609721D01*
X150375283Y-78604243D01*
X150361974Y-78588026D01*
X150297260Y-78534916D01*
X150223427Y-78495452D01*
X150143314Y-78471150D01*
X150080874Y-78465000D01*
X150080867Y-78465000D01*
X150060000Y-78462945D01*
X150039133Y-78465000D01*
X148430864Y-78465000D01*
X148409997Y-78462945D01*
X148389130Y-78465000D01*
X148389124Y-78465000D01*
X148335096Y-78470321D01*
X148326683Y-78471150D01*
X148302381Y-78478522D01*
X148246571Y-78495452D01*
X148172738Y-78534916D01*
X148108024Y-78588026D01*
X148094719Y-78604238D01*
X147490742Y-79208216D01*
X147445382Y-79250787D01*
X147413473Y-79276426D01*
X147390142Y-79291828D01*
X147371390Y-79301599D01*
X147351075Y-79309751D01*
X147322864Y-79318606D01*
X147282633Y-79329301D01*
X147232154Y-79342230D01*
X147226286Y-79343796D01*
X147169043Y-79359699D01*
X147157571Y-79363134D01*
X147137470Y-79369593D01*
X147110402Y-79374977D01*
X146992110Y-79423976D01*
X146885649Y-79495110D01*
X146795112Y-79585647D01*
X146723978Y-79692108D01*
X146674979Y-79810400D01*
X146650000Y-79935979D01*
X145448245Y-79935979D01*
X145377528Y-79765253D01*
X145230877Y-79545774D01*
X145044226Y-79359123D01*
X144824747Y-79212472D01*
X144580875Y-79111457D01*
X144321982Y-79059960D01*
X144058018Y-79059960D01*
X143799125Y-79111457D01*
X143555253Y-79212472D01*
X143335774Y-79359123D01*
X143149123Y-79545774D01*
X143002472Y-79765253D01*
X142901457Y-80009125D01*
X142849960Y-80268018D01*
X142451247Y-80268018D01*
X142460000Y-80224017D01*
X142460000Y-80095979D01*
X142435021Y-79970400D01*
X142386022Y-79852108D01*
X142380927Y-79844483D01*
X142379638Y-79841402D01*
X145526041Y-76695000D01*
X147134562Y-76695000D01*
X147187596Y-76696920D01*
X147218213Y-76700785D01*
X147234620Y-76704760D01*
X147243054Y-76707994D01*
X147251199Y-76712396D01*
X147265323Y-76722169D01*
X147288622Y-76741055D01*
X147322077Y-76770317D01*
X147363457Y-76806760D01*
X147368592Y-76811181D01*
X147389706Y-76828945D01*
X147415649Y-76854888D01*
X147522110Y-76926022D01*
X147640402Y-76975021D01*
X147765981Y-77000000D01*
X147894019Y-77000000D01*
X148019598Y-76975021D01*
X148137890Y-76926022D01*
X148244351Y-76854888D01*
X148334888Y-76764351D01*
X148406022Y-76657890D01*
X148455021Y-76539598D01*
X148480000Y-76414019D01*
X148480000Y-76285981D01*
X148455021Y-76160402D01*
X148406022Y-76042110D01*
X148334888Y-75935649D01*
X148244351Y-75845112D01*
X148137890Y-75773978D01*
X148019598Y-75724979D01*
X147894019Y-75700000D01*
X152150000Y-75700000D01*
X152150001Y-83901377D01*
X152127448Y-83859184D01*
X152043323Y-83756677D01*
X151940816Y-83672552D01*
X151823867Y-83610041D01*
X151696969Y-83571547D01*
X151565000Y-83558549D01*
X150815000Y-83558549D01*
X150683031Y-83571547D01*
X150556133Y-83610041D01*
X150439184Y-83672552D01*
X150336677Y-83756677D01*
X150252552Y-83859184D01*
X150190041Y-83976133D01*
X150190000Y-83976268D01*
X150189959Y-83976133D01*
X150127448Y-83859184D01*
X150043323Y-83756677D01*
X149940816Y-83672552D01*
X149823867Y-83610041D01*
X149696969Y-83571547D01*
X149565000Y-83558549D01*
X148815000Y-83558549D01*
X148683031Y-83571547D01*
X148556133Y-83610041D01*
X148439184Y-83672552D01*
X148336677Y-83756677D01*
X148252552Y-83859184D01*
X148190041Y-83976133D01*
X148176734Y-84020000D01*
X146203266Y-84020000D01*
X146189959Y-83976133D01*
X146127448Y-83859184D01*
X146043323Y-83756677D01*
X145940816Y-83672552D01*
X145823867Y-83610041D01*
X145696969Y-83571547D01*
X145565000Y-83558549D01*
X144815000Y-83558549D01*
X144683031Y-83571547D01*
X144556133Y-83610041D01*
X144439184Y-83672552D01*
X144336677Y-83756677D01*
X144252552Y-83859184D01*
X144190041Y-83976133D01*
X144190000Y-83976268D01*
X144189959Y-83976133D01*
X144127448Y-83859184D01*
X144043323Y-83756677D01*
X143940816Y-83672552D01*
X143823867Y-83610041D01*
X143696969Y-83571547D01*
X143565000Y-83558549D01*
X142815000Y-83558549D01*
X142683031Y-83571547D01*
X142556133Y-83610041D01*
X142439184Y-83672552D01*
X142336677Y-83756677D01*
X142252552Y-83859184D01*
X142190041Y-83976133D01*
X142176734Y-84020000D01*
X140203266Y-84020000D01*
X140189959Y-83976133D01*
X140127448Y-83859184D01*
X140043323Y-83756677D01*
X139940816Y-83672552D01*
X139823867Y-83610041D01*
X139696969Y-83571547D01*
X139653750Y-83567290D01*
X139825762Y-83395279D01*
X139841974Y-83381974D01*
X139895084Y-83317260D01*
X139934548Y-83243427D01*
X139958850Y-83163314D01*
X139965000Y-83100874D01*
X139965000Y-83100868D01*
X139967055Y-83080001D01*
X139965000Y-83059134D01*
X139965000Y-82946526D01*
X140046969Y-82938453D01*
X140173867Y-82899959D01*
X140290816Y-82837448D01*
X140393323Y-82753323D01*
X140477448Y-82650816D01*
X140539959Y-82533867D01*
X140578453Y-82406969D01*
X140591451Y-82275000D01*
X140591451Y-81525000D01*
X140733549Y-81525000D01*
X140733549Y-82275000D01*
X140746547Y-82406969D01*
X140785041Y-82533867D01*
X140847552Y-82650816D01*
X140931677Y-82753323D01*
X141034184Y-82837448D01*
X141151133Y-82899959D01*
X141278031Y-82938453D01*
X141410000Y-82951451D01*
X142160000Y-82951451D01*
X142291969Y-82938453D01*
X142418867Y-82899959D01*
X142535816Y-82837448D01*
X142638323Y-82753323D01*
X142722448Y-82650816D01*
X142784959Y-82533867D01*
X142823453Y-82406969D01*
X142836451Y-82275000D01*
X142836451Y-81525000D01*
X142823453Y-81393031D01*
X142784959Y-81266133D01*
X142722448Y-81149184D01*
X142638323Y-81046677D01*
X142535816Y-80962552D01*
X142418867Y-80900041D01*
X142291969Y-80861547D01*
X142160000Y-80848549D01*
X141410000Y-80848549D01*
X141278031Y-80861547D01*
X141151133Y-80900041D01*
X141034184Y-80962552D01*
X140931677Y-81046677D01*
X140847552Y-81149184D01*
X140785041Y-81266133D01*
X140746547Y-81393031D01*
X140733549Y-81525000D01*
X140591451Y-81525000D01*
X140578453Y-81393031D01*
X140539959Y-81266133D01*
X140477448Y-81149184D01*
X140393323Y-81046677D01*
X140290816Y-80962552D01*
X140173867Y-80900041D01*
X140046969Y-80861547D01*
X139915000Y-80848549D01*
X139165000Y-80848549D01*
X139033031Y-80861547D01*
X138906133Y-80900041D01*
X138789184Y-80962552D01*
X138686677Y-81046677D01*
X138602552Y-81149184D01*
X138540041Y-81266133D01*
X138501547Y-81393031D01*
X138488549Y-81525000D01*
X138488549Y-82275000D01*
X138501547Y-82406969D01*
X138540041Y-82533867D01*
X138602552Y-82650816D01*
X138686677Y-82753323D01*
X138789184Y-82837448D01*
X138906133Y-82899959D01*
X139033031Y-82938453D01*
X139076250Y-82942710D01*
X138874243Y-83144717D01*
X138858026Y-83158026D01*
X138804916Y-83222741D01*
X138765452Y-83296574D01*
X138741150Y-83376687D01*
X138735000Y-83439127D01*
X138735000Y-83439133D01*
X138732945Y-83460000D01*
X138735000Y-83480867D01*
X138735000Y-83566428D01*
X138683031Y-83571547D01*
X138556133Y-83610041D01*
X138439184Y-83672552D01*
X138336677Y-83756677D01*
X138252552Y-83859184D01*
X138190041Y-83976133D01*
X138190000Y-83976268D01*
X138189959Y-83976133D01*
X138127448Y-83859184D01*
X138043323Y-83756677D01*
X137940816Y-83672552D01*
X137823867Y-83610041D01*
X137696969Y-83571547D01*
X137615000Y-83563474D01*
X137615000Y-83421732D01*
X137635084Y-83397260D01*
X137674548Y-83323427D01*
X137696822Y-83250000D01*
X137698850Y-83243315D01*
X137700876Y-83222740D01*
X137705000Y-83180874D01*
X137705000Y-83180868D01*
X137707055Y-83160001D01*
X137705000Y-83139134D01*
X137705000Y-82948004D01*
X137801969Y-82938453D01*
X137928867Y-82899959D01*
X138045816Y-82837448D01*
X138148323Y-82753323D01*
X138232448Y-82650816D01*
X138294959Y-82533867D01*
X138333453Y-82406969D01*
X138346451Y-82275000D01*
X138346451Y-81525000D01*
X138333453Y-81393031D01*
X138294959Y-81266133D01*
X138232448Y-81149184D01*
X138148323Y-81046677D01*
X138045816Y-80962552D01*
X137928867Y-80900041D01*
X137801969Y-80861547D01*
X137670000Y-80848549D01*
X136920000Y-80848549D01*
X136788031Y-80861547D01*
X136661133Y-80900041D01*
X136544184Y-80962552D01*
X136441677Y-81046677D01*
X136357552Y-81149184D01*
X136295041Y-81266133D01*
X136256547Y-81393031D01*
X136243549Y-81525000D01*
X136243549Y-82275000D01*
X136256547Y-82406969D01*
X136295041Y-82533867D01*
X136357552Y-82650816D01*
X136441677Y-82753323D01*
X136544184Y-82837448D01*
X136661133Y-82899959D01*
X136788031Y-82938453D01*
X136855001Y-82945049D01*
X136855001Y-82988267D01*
X136834916Y-83012741D01*
X136795452Y-83086574D01*
X136771150Y-83166687D01*
X136765000Y-83229127D01*
X136765000Y-83229133D01*
X136762945Y-83250000D01*
X136765000Y-83270867D01*
X136765000Y-83563474D01*
X136683031Y-83571547D01*
X136556133Y-83610041D01*
X136439184Y-83672552D01*
X136336677Y-83756677D01*
X136252552Y-83859184D01*
X136240000Y-83882667D01*
X136240000Y-75700000D01*
X140495981Y-75700000D01*
X140370402Y-75724979D01*
G04 #@! TA.AperFunction,Conductor*
D13*
G36*
X140370402Y-75724979D02*
G01*
X140252110Y-75773978D01*
X140145649Y-75845112D01*
X140055112Y-75935649D01*
X139983978Y-76042110D01*
X139934979Y-76160402D01*
X139910000Y-76285981D01*
X139910000Y-76348323D01*
X139909340Y-76396223D01*
X139909313Y-76401140D01*
X139909451Y-76453821D01*
X139909105Y-76494700D01*
X139907666Y-76520983D01*
X139905803Y-76534224D01*
X139904436Y-76539377D01*
X139902443Y-76544119D01*
X139895730Y-76555458D01*
X139879142Y-76577138D01*
X139845321Y-76613638D01*
X138254243Y-78204717D01*
X138238026Y-78218026D01*
X138184916Y-78282741D01*
X138145452Y-78356574D01*
X138121150Y-78436687D01*
X138115000Y-78499127D01*
X138115000Y-78499133D01*
X138112945Y-78520000D01*
X138115000Y-78540867D01*
X138115001Y-79475236D01*
X138113029Y-79537418D01*
X138108594Y-79578117D01*
X138102987Y-79605510D01*
X138096635Y-79625684D01*
X138088038Y-79645804D01*
X138074358Y-79671999D01*
X138053452Y-79708045D01*
X138026910Y-79752867D01*
X138023871Y-79758118D01*
X137994639Y-79809840D01*
X137988956Y-79820382D01*
X137979306Y-79839170D01*
X137963978Y-79862110D01*
X137914979Y-79980402D01*
X137890000Y-80105981D01*
X137890000Y-80234019D01*
X137914979Y-80359598D01*
X137963978Y-80477890D01*
X138035112Y-80584351D01*
X138125649Y-80674888D01*
X138232110Y-80746022D01*
X138350402Y-80795021D01*
X138475981Y-80820000D01*
X138604019Y-80820000D01*
X138729598Y-80795021D01*
X138847890Y-80746022D01*
X138954351Y-80674888D01*
X139044888Y-80584351D01*
X139116022Y-80477890D01*
X139165021Y-80359598D01*
X139190000Y-80234019D01*
X139190000Y-80105981D01*
X139165021Y-79980402D01*
X139116022Y-79862110D01*
X139100691Y-79839166D01*
X139091041Y-79820378D01*
X139085360Y-79809840D01*
X139056128Y-79758118D01*
X139053089Y-79752867D01*
X139026547Y-79708045D01*
X139005641Y-79671999D01*
X138991961Y-79645804D01*
X138983364Y-79625684D01*
X138977012Y-79605510D01*
X138971405Y-79578117D01*
X138966970Y-79537418D01*
X138965000Y-79475259D01*
X138965000Y-78696040D01*
X140447841Y-77213200D01*
X140503557Y-77160125D01*
X140547518Y-77122696D01*
X140584750Y-77094794D01*
X140619017Y-77072286D01*
X140655117Y-77051137D01*
X140697210Y-77028109D01*
X140744679Y-77002237D01*
X140751041Y-76998669D01*
X140801720Y-76969427D01*
X140812503Y-76962899D01*
X140867922Y-76927739D01*
X140880357Y-76919407D01*
X140924780Y-76888010D01*
X140974351Y-76854888D01*
X141064888Y-76764351D01*
X141136022Y-76657890D01*
X141185021Y-76539598D01*
X141210000Y-76414019D01*
X141210000Y-76285981D01*
X141185021Y-76160402D01*
X141136022Y-76042110D01*
X141064888Y-75935649D01*
X140974351Y-75845112D01*
X140867890Y-75773978D01*
X140749598Y-75724979D01*
X140624019Y-75700000D01*
X142865707Y-75700000D01*
X142790402Y-75714979D01*
X142672110Y-75763978D01*
X142565649Y-75835112D01*
X142475112Y-75925649D01*
X142403978Y-76032110D01*
X142354979Y-76150402D01*
X142330000Y-76275981D01*
X142330000Y-76290355D01*
X142328876Y-76297610D01*
X142327741Y-76305656D01*
X142320503Y-76362513D01*
X142320399Y-76363338D01*
X142314544Y-76410369D01*
X142309393Y-76443593D01*
X142304766Y-76464181D01*
X142300523Y-76476913D01*
X142294847Y-76488923D01*
X142283643Y-76506731D01*
X142262068Y-76534142D01*
X142223317Y-76575643D01*
X139914243Y-78884717D01*
X139898026Y-78898026D01*
X139844916Y-78962741D01*
X139805452Y-79036574D01*
X139798358Y-79059960D01*
X139782737Y-79111457D01*
X139781150Y-79116687D01*
X139775000Y-79179127D01*
X139775000Y-79179133D01*
X139772945Y-79200000D01*
X139775000Y-79220867D01*
X139775000Y-79465253D01*
X139773029Y-79527426D01*
X139768594Y-79568125D01*
X139762987Y-79595518D01*
X139756635Y-79615692D01*
X139748038Y-79635812D01*
X139734358Y-79662007D01*
X139713452Y-79698053D01*
X139686910Y-79742875D01*
X139683871Y-79748126D01*
X139654639Y-79799848D01*
X139648956Y-79810390D01*
X139639306Y-79829178D01*
X139623978Y-79852118D01*
X139574979Y-79970410D01*
X139550000Y-80095989D01*
X139550000Y-80224027D01*
X139574979Y-80349606D01*
X139623978Y-80467898D01*
X139695112Y-80574359D01*
X139785649Y-80664896D01*
X139892110Y-80736030D01*
X140010402Y-80785029D01*
X140135981Y-80810008D01*
X140264019Y-80810008D01*
X140389598Y-80785029D01*
X140507890Y-80736030D01*
X140614351Y-80664896D01*
X140704888Y-80574359D01*
X140776022Y-80467898D01*
X140825021Y-80349606D01*
X140850000Y-80224027D01*
X140850000Y-80095989D01*
X140825021Y-79970410D01*
X140776022Y-79852118D01*
X140760691Y-79829174D01*
X140751041Y-79810386D01*
X140745360Y-79799848D01*
X140716128Y-79748126D01*
X140713089Y-79742875D01*
X140686547Y-79698053D01*
X140665641Y-79662007D01*
X140651961Y-79635812D01*
X140643364Y-79615692D01*
X140637012Y-79595518D01*
X140631405Y-79568125D01*
X140626970Y-79527426D01*
X140625000Y-79465267D01*
X140625000Y-79376040D01*
X142825102Y-77175939D01*
X142876746Y-77127026D01*
X142915857Y-77094495D01*
X142947331Y-77072114D01*
X142975071Y-77055575D01*
X143004403Y-77040887D01*
X143040582Y-77025090D01*
X143086017Y-77006467D01*
X143088109Y-77005600D01*
X143140337Y-76983731D01*
X143148857Y-76980007D01*
X143206426Y-76953776D01*
X143218490Y-76947951D01*
X143251462Y-76931111D01*
X143287890Y-76916022D01*
X143394351Y-76844888D01*
X143484888Y-76754351D01*
X143556022Y-76647890D01*
X143605021Y-76529598D01*
X143630000Y-76404019D01*
X143630000Y-76275981D01*
X143605021Y-76150402D01*
X143556022Y-76032110D01*
X143484888Y-75925649D01*
X143394351Y-75835112D01*
X143287890Y-75763978D01*
X143169598Y-75714979D01*
X143094293Y-75700000D01*
X147765981Y-75700000D01*
X147640402Y-75724979D01*
X147625071Y-75731329D01*
X147609299Y-75735269D01*
X147595357Y-75739111D01*
X147533885Y-75757655D01*
X147523262Y-75761076D01*
X147469001Y-75779673D01*
X147464400Y-75781292D01*
X147416125Y-75798719D01*
X147375040Y-75812984D01*
X147339724Y-75823624D01*
X147304548Y-75831839D01*
X147263081Y-75838408D01*
X147209595Y-75843080D01*
X147136073Y-75845000D01*
X145370866Y-75845000D01*
X145349999Y-75842945D01*
X145329132Y-75845000D01*
X145329126Y-75845000D01*
X145275098Y-75850321D01*
X145266685Y-75851150D01*
X145242383Y-75858522D01*
X145186573Y-75875452D01*
X145112740Y-75914916D01*
X145048026Y-75968026D01*
X145034721Y-75984238D01*
X141524243Y-79494716D01*
X141508026Y-79508026D01*
X141454916Y-79572741D01*
X141431672Y-79616227D01*
X141396379Y-79653543D01*
X141349520Y-79701239D01*
X141305112Y-79745647D01*
X141233978Y-79852108D01*
X141184979Y-79970400D01*
X141160000Y-80095979D01*
X141160000Y-80224017D01*
X141184979Y-80349596D01*
X141233978Y-80467888D01*
X141305112Y-80574349D01*
X141395649Y-80664886D01*
X141502110Y-80736020D01*
X141620402Y-80785019D01*
X141745981Y-80809998D01*
X141874019Y-80809998D01*
X141999598Y-80785019D01*
X142117890Y-80736020D01*
X142224351Y-80664886D01*
X142314888Y-80574349D01*
X142386022Y-80467888D01*
X142435021Y-80349596D01*
X142451247Y-80268018D01*
X142849960Y-80268018D01*
X142849960Y-80531982D01*
X142901457Y-80790875D01*
X143002472Y-81034747D01*
X143149123Y-81254226D01*
X143335774Y-81440877D01*
X143555253Y-81587528D01*
X143799125Y-81688543D01*
X144058018Y-81740040D01*
X144321982Y-81740040D01*
X144580875Y-81688543D01*
X144824747Y-81587528D01*
X144918326Y-81525000D01*
X147783549Y-81525000D01*
X147783549Y-82275000D01*
X147796547Y-82406969D01*
X147835041Y-82533867D01*
X147897552Y-82650816D01*
X147981677Y-82753323D01*
X148084184Y-82837448D01*
X148201133Y-82899959D01*
X148328031Y-82938453D01*
X148460000Y-82951451D01*
X149210000Y-82951451D01*
X149341969Y-82938453D01*
X149468867Y-82899959D01*
X149585816Y-82837448D01*
X149688323Y-82753323D01*
X149772448Y-82650816D01*
X149834959Y-82533867D01*
X149873453Y-82406969D01*
X149886451Y-82275000D01*
X149886451Y-81525000D01*
X149873453Y-81393031D01*
X149834959Y-81266133D01*
X149772448Y-81149184D01*
X149688323Y-81046677D01*
X149585816Y-80962552D01*
X149468867Y-80900041D01*
X149341969Y-80861547D01*
X149245000Y-80851996D01*
X149245000Y-80673848D01*
X149269337Y-80672320D01*
X149289777Y-80670332D01*
X149292293Y-80670000D01*
X149314019Y-80670000D01*
X149439598Y-80645021D01*
X149557890Y-80596022D01*
X149664351Y-80524888D01*
X149754888Y-80434351D01*
X149826022Y-80327890D01*
X149875021Y-80209598D01*
X149900000Y-80084019D01*
X149900000Y-79955981D01*
X149875021Y-79830402D01*
X149826022Y-79712110D01*
X149754888Y-79605649D01*
X149664351Y-79515112D01*
X149557890Y-79443978D01*
X149439598Y-79394979D01*
X149314019Y-79370000D01*
X149185981Y-79370000D01*
X149060402Y-79394979D01*
X148942110Y-79443978D01*
X148835649Y-79515112D01*
X148745112Y-79605649D01*
X148673978Y-79712110D01*
X148624979Y-79830402D01*
X148600000Y-79955981D01*
X148600000Y-80006705D01*
X148598045Y-80028696D01*
X148596329Y-80032124D01*
X148584699Y-80049266D01*
X148559910Y-80081419D01*
X148557054Y-80085185D01*
X148526714Y-80125848D01*
X148512113Y-80147293D01*
X148492072Y-80179652D01*
X148464917Y-80212740D01*
X148451921Y-80237055D01*
X148425453Y-80286573D01*
X148401150Y-80366686D01*
X148392945Y-80450000D01*
X148395001Y-80470876D01*
X148395001Y-80854951D01*
X148328031Y-80861547D01*
X148201133Y-80900041D01*
X148084184Y-80962552D01*
X147981677Y-81046677D01*
X147897552Y-81149184D01*
X147835041Y-81266133D01*
X147796547Y-81393031D01*
X147783549Y-81525000D01*
X144918326Y-81525000D01*
X145044226Y-81440877D01*
X145230877Y-81254226D01*
X145377528Y-81034747D01*
X145478543Y-80790875D01*
X145530040Y-80531982D01*
X145530040Y-80268018D01*
X145478543Y-80009125D01*
X145448245Y-79935979D01*
X146650000Y-79935979D01*
X146650000Y-80064017D01*
X146674979Y-80189596D01*
X146723978Y-80307888D01*
X146795112Y-80414349D01*
X146885649Y-80504886D01*
X146992110Y-80576020D01*
X147110402Y-80625019D01*
X147235981Y-80649998D01*
X147364019Y-80649998D01*
X147489598Y-80625019D01*
X147607890Y-80576020D01*
X147714351Y-80504886D01*
X147804888Y-80414349D01*
X147876022Y-80307888D01*
X147925021Y-80189596D01*
X147930408Y-80162513D01*
X147936864Y-80142420D01*
X147940298Y-80130954D01*
X147956201Y-80073711D01*
X147957767Y-80067843D01*
X147970696Y-80017364D01*
X147981391Y-79977133D01*
X147990246Y-79948922D01*
X147998398Y-79928607D01*
X148008169Y-79909855D01*
X148023571Y-79886524D01*
X148049210Y-79854616D01*
X148091778Y-79809261D01*
X148586039Y-79315000D01*
X149883960Y-79315000D01*
X150670001Y-80101042D01*
X150670001Y-80853474D01*
X150588031Y-80861547D01*
X150461133Y-80900041D01*
X150344184Y-80962552D01*
X150241677Y-81046677D01*
X150157552Y-81149184D01*
X150095041Y-81266133D01*
X150056547Y-81393031D01*
X150043549Y-81525000D01*
X150043549Y-82275000D01*
X150056547Y-82406969D01*
X150095041Y-82533867D01*
X150157552Y-82650816D01*
X150241677Y-82753323D01*
X150344184Y-82837448D01*
X150461133Y-82899959D01*
X150588031Y-82938453D01*
X150720000Y-82951451D01*
X151470000Y-82951451D01*
X151601969Y-82938453D01*
X151728867Y-82899959D01*
X151845816Y-82837448D01*
X151948323Y-82753323D01*
X152032448Y-82650816D01*
X152094959Y-82533867D01*
X152133453Y-82406969D01*
X152146451Y-82275000D01*
X152146451Y-81525000D01*
X152133453Y-81393031D01*
X152094959Y-81266133D01*
X152032448Y-81149184D01*
X151948323Y-81046677D01*
X151845816Y-80962552D01*
X151728867Y-80900041D01*
X151601969Y-80861547D01*
X151520000Y-80853474D01*
X151520000Y-79945866D01*
X151522055Y-79924999D01*
X151520000Y-79904132D01*
X151520000Y-79904126D01*
X151513850Y-79841686D01*
X151512299Y-79836571D01*
X151504390Y-79810501D01*
X151489548Y-79761573D01*
X151450084Y-79687740D01*
X151396974Y-79623026D01*
X151380762Y-79609721D01*
X150375283Y-78604243D01*
X150361974Y-78588026D01*
X150297260Y-78534916D01*
X150223427Y-78495452D01*
X150143314Y-78471150D01*
X150080874Y-78465000D01*
X150080867Y-78465000D01*
X150060000Y-78462945D01*
X150039133Y-78465000D01*
X148430864Y-78465000D01*
X148409997Y-78462945D01*
X148389130Y-78465000D01*
X148389124Y-78465000D01*
X148335096Y-78470321D01*
X148326683Y-78471150D01*
X148302381Y-78478522D01*
X148246571Y-78495452D01*
X148172738Y-78534916D01*
X148108024Y-78588026D01*
X148094719Y-78604238D01*
X147490742Y-79208216D01*
X147445382Y-79250787D01*
X147413473Y-79276426D01*
X147390142Y-79291828D01*
X147371390Y-79301599D01*
X147351075Y-79309751D01*
X147322864Y-79318606D01*
X147282633Y-79329301D01*
X147232154Y-79342230D01*
X147226286Y-79343796D01*
X147169043Y-79359699D01*
X147157571Y-79363134D01*
X147137470Y-79369593D01*
X147110402Y-79374977D01*
X146992110Y-79423976D01*
X146885649Y-79495110D01*
X146795112Y-79585647D01*
X146723978Y-79692108D01*
X146674979Y-79810400D01*
X146650000Y-79935979D01*
X145448245Y-79935979D01*
X145377528Y-79765253D01*
X145230877Y-79545774D01*
X145044226Y-79359123D01*
X144824747Y-79212472D01*
X144580875Y-79111457D01*
X144321982Y-79059960D01*
X144058018Y-79059960D01*
X143799125Y-79111457D01*
X143555253Y-79212472D01*
X143335774Y-79359123D01*
X143149123Y-79545774D01*
X143002472Y-79765253D01*
X142901457Y-80009125D01*
X142849960Y-80268018D01*
X142451247Y-80268018D01*
X142460000Y-80224017D01*
X142460000Y-80095979D01*
X142435021Y-79970400D01*
X142386022Y-79852108D01*
X142380927Y-79844483D01*
X142379638Y-79841402D01*
X145526041Y-76695000D01*
X147134562Y-76695000D01*
X147187596Y-76696920D01*
X147218213Y-76700785D01*
X147234620Y-76704760D01*
X147243054Y-76707994D01*
X147251199Y-76712396D01*
X147265323Y-76722169D01*
X147288622Y-76741055D01*
X147322077Y-76770317D01*
X147363457Y-76806760D01*
X147368592Y-76811181D01*
X147389706Y-76828945D01*
X147415649Y-76854888D01*
X147522110Y-76926022D01*
X147640402Y-76975021D01*
X147765981Y-77000000D01*
X147894019Y-77000000D01*
X148019598Y-76975021D01*
X148137890Y-76926022D01*
X148244351Y-76854888D01*
X148334888Y-76764351D01*
X148406022Y-76657890D01*
X148455021Y-76539598D01*
X148480000Y-76414019D01*
X148480000Y-76285981D01*
X148455021Y-76160402D01*
X148406022Y-76042110D01*
X148334888Y-75935649D01*
X148244351Y-75845112D01*
X148137890Y-75773978D01*
X148019598Y-75724979D01*
X147894019Y-75700000D01*
X152150000Y-75700000D01*
X152150001Y-83901377D01*
X152127448Y-83859184D01*
X152043323Y-83756677D01*
X151940816Y-83672552D01*
X151823867Y-83610041D01*
X151696969Y-83571547D01*
X151565000Y-83558549D01*
X150815000Y-83558549D01*
X150683031Y-83571547D01*
X150556133Y-83610041D01*
X150439184Y-83672552D01*
X150336677Y-83756677D01*
X150252552Y-83859184D01*
X150190041Y-83976133D01*
X150190000Y-83976268D01*
X150189959Y-83976133D01*
X150127448Y-83859184D01*
X150043323Y-83756677D01*
X149940816Y-83672552D01*
X149823867Y-83610041D01*
X149696969Y-83571547D01*
X149565000Y-83558549D01*
X148815000Y-83558549D01*
X148683031Y-83571547D01*
X148556133Y-83610041D01*
X148439184Y-83672552D01*
X148336677Y-83756677D01*
X148252552Y-83859184D01*
X148190041Y-83976133D01*
X148176734Y-84020000D01*
X146203266Y-84020000D01*
X146189959Y-83976133D01*
X146127448Y-83859184D01*
X146043323Y-83756677D01*
X145940816Y-83672552D01*
X145823867Y-83610041D01*
X145696969Y-83571547D01*
X145565000Y-83558549D01*
X144815000Y-83558549D01*
X144683031Y-83571547D01*
X144556133Y-83610041D01*
X144439184Y-83672552D01*
X144336677Y-83756677D01*
X144252552Y-83859184D01*
X144190041Y-83976133D01*
X144190000Y-83976268D01*
X144189959Y-83976133D01*
X144127448Y-83859184D01*
X144043323Y-83756677D01*
X143940816Y-83672552D01*
X143823867Y-83610041D01*
X143696969Y-83571547D01*
X143565000Y-83558549D01*
X142815000Y-83558549D01*
X142683031Y-83571547D01*
X142556133Y-83610041D01*
X142439184Y-83672552D01*
X142336677Y-83756677D01*
X142252552Y-83859184D01*
X142190041Y-83976133D01*
X142176734Y-84020000D01*
X140203266Y-84020000D01*
X140189959Y-83976133D01*
X140127448Y-83859184D01*
X140043323Y-83756677D01*
X139940816Y-83672552D01*
X139823867Y-83610041D01*
X139696969Y-83571547D01*
X139653750Y-83567290D01*
X139825762Y-83395279D01*
X139841974Y-83381974D01*
X139895084Y-83317260D01*
X139934548Y-83243427D01*
X139958850Y-83163314D01*
X139965000Y-83100874D01*
X139965000Y-83100868D01*
X139967055Y-83080001D01*
X139965000Y-83059134D01*
X139965000Y-82946526D01*
X140046969Y-82938453D01*
X140173867Y-82899959D01*
X140290816Y-82837448D01*
X140393323Y-82753323D01*
X140477448Y-82650816D01*
X140539959Y-82533867D01*
X140578453Y-82406969D01*
X140591451Y-82275000D01*
X140591451Y-81525000D01*
X140733549Y-81525000D01*
X140733549Y-82275000D01*
X140746547Y-82406969D01*
X140785041Y-82533867D01*
X140847552Y-82650816D01*
X140931677Y-82753323D01*
X141034184Y-82837448D01*
X141151133Y-82899959D01*
X141278031Y-82938453D01*
X141410000Y-82951451D01*
X142160000Y-82951451D01*
X142291969Y-82938453D01*
X142418867Y-82899959D01*
X142535816Y-82837448D01*
X142638323Y-82753323D01*
X142722448Y-82650816D01*
X142784959Y-82533867D01*
X142823453Y-82406969D01*
X142836451Y-82275000D01*
X142836451Y-81525000D01*
X142823453Y-81393031D01*
X142784959Y-81266133D01*
X142722448Y-81149184D01*
X142638323Y-81046677D01*
X142535816Y-80962552D01*
X142418867Y-80900041D01*
X142291969Y-80861547D01*
X142160000Y-80848549D01*
X141410000Y-80848549D01*
X141278031Y-80861547D01*
X141151133Y-80900041D01*
X141034184Y-80962552D01*
X140931677Y-81046677D01*
X140847552Y-81149184D01*
X140785041Y-81266133D01*
X140746547Y-81393031D01*
X140733549Y-81525000D01*
X140591451Y-81525000D01*
X140578453Y-81393031D01*
X140539959Y-81266133D01*
X140477448Y-81149184D01*
X140393323Y-81046677D01*
X140290816Y-80962552D01*
X140173867Y-80900041D01*
X140046969Y-80861547D01*
X139915000Y-80848549D01*
X139165000Y-80848549D01*
X139033031Y-80861547D01*
X138906133Y-80900041D01*
X138789184Y-80962552D01*
X138686677Y-81046677D01*
X138602552Y-81149184D01*
X138540041Y-81266133D01*
X138501547Y-81393031D01*
X138488549Y-81525000D01*
X138488549Y-82275000D01*
X138501547Y-82406969D01*
X138540041Y-82533867D01*
X138602552Y-82650816D01*
X138686677Y-82753323D01*
X138789184Y-82837448D01*
X138906133Y-82899959D01*
X139033031Y-82938453D01*
X139076250Y-82942710D01*
X138874243Y-83144717D01*
X138858026Y-83158026D01*
X138804916Y-83222741D01*
X138765452Y-83296574D01*
X138741150Y-83376687D01*
X138735000Y-83439127D01*
X138735000Y-83439133D01*
X138732945Y-83460000D01*
X138735000Y-83480867D01*
X138735000Y-83566428D01*
X138683031Y-83571547D01*
X138556133Y-83610041D01*
X138439184Y-83672552D01*
X138336677Y-83756677D01*
X138252552Y-83859184D01*
X138190041Y-83976133D01*
X138190000Y-83976268D01*
X138189959Y-83976133D01*
X138127448Y-83859184D01*
X138043323Y-83756677D01*
X137940816Y-83672552D01*
X137823867Y-83610041D01*
X137696969Y-83571547D01*
X137615000Y-83563474D01*
X137615000Y-83421732D01*
X137635084Y-83397260D01*
X137674548Y-83323427D01*
X137696822Y-83250000D01*
X137698850Y-83243315D01*
X137700876Y-83222740D01*
X137705000Y-83180874D01*
X137705000Y-83180868D01*
X137707055Y-83160001D01*
X137705000Y-83139134D01*
X137705000Y-82948004D01*
X137801969Y-82938453D01*
X137928867Y-82899959D01*
X138045816Y-82837448D01*
X138148323Y-82753323D01*
X138232448Y-82650816D01*
X138294959Y-82533867D01*
X138333453Y-82406969D01*
X138346451Y-82275000D01*
X138346451Y-81525000D01*
X138333453Y-81393031D01*
X138294959Y-81266133D01*
X138232448Y-81149184D01*
X138148323Y-81046677D01*
X138045816Y-80962552D01*
X137928867Y-80900041D01*
X137801969Y-80861547D01*
X137670000Y-80848549D01*
X136920000Y-80848549D01*
X136788031Y-80861547D01*
X136661133Y-80900041D01*
X136544184Y-80962552D01*
X136441677Y-81046677D01*
X136357552Y-81149184D01*
X136295041Y-81266133D01*
X136256547Y-81393031D01*
X136243549Y-81525000D01*
X136243549Y-82275000D01*
X136256547Y-82406969D01*
X136295041Y-82533867D01*
X136357552Y-82650816D01*
X136441677Y-82753323D01*
X136544184Y-82837448D01*
X136661133Y-82899959D01*
X136788031Y-82938453D01*
X136855001Y-82945049D01*
X136855001Y-82988267D01*
X136834916Y-83012741D01*
X136795452Y-83086574D01*
X136771150Y-83166687D01*
X136765000Y-83229127D01*
X136765000Y-83229133D01*
X136762945Y-83250000D01*
X136765000Y-83270867D01*
X136765000Y-83563474D01*
X136683031Y-83571547D01*
X136556133Y-83610041D01*
X136439184Y-83672552D01*
X136336677Y-83756677D01*
X136252552Y-83859184D01*
X136240000Y-83882667D01*
X136240000Y-75700000D01*
X140495981Y-75700000D01*
X140370402Y-75724979D01*
G37*
G04 #@! TD.AperFunction*
D14*
X137311005Y-86037036D02*
X137311169Y-86038539D01*
X137335824Y-86183632D01*
X137336246Y-86185365D01*
X137374736Y-86305961D01*
X137375421Y-86307668D01*
X137425621Y-86410583D01*
X137426384Y-86411932D01*
X137486165Y-86503987D01*
X137486724Y-86504780D01*
X137553961Y-86592792D01*
X137554132Y-86593011D01*
X137626584Y-86683661D01*
X137701997Y-86783580D01*
X137778308Y-86899578D01*
X137849415Y-87030968D01*
X137190000Y-87716678D01*
X136530585Y-87030968D01*
X136601691Y-86899578D01*
X136678002Y-86783580D01*
X136753415Y-86683661D01*
X136825867Y-86593011D01*
X136826038Y-86592792D01*
X136893275Y-86504780D01*
X136893834Y-86503987D01*
X136953615Y-86411932D01*
X136954378Y-86410583D01*
X137004578Y-86307668D01*
X137005263Y-86305961D01*
X137043753Y-86185365D01*
X137044175Y-86183632D01*
X137068830Y-86038539D01*
X137068994Y-86037036D01*
X137077090Y-85872700D01*
X137302910Y-85872700D01*
X137311005Y-86037036D01*
G04 #@! TA.AperFunction,Conductor*
D13*
G36*
X137311005Y-86037036D02*
G01*
X137311169Y-86038539D01*
X137335824Y-86183632D01*
X137336246Y-86185365D01*
X137374736Y-86305961D01*
X137375421Y-86307668D01*
X137425621Y-86410583D01*
X137426384Y-86411932D01*
X137486165Y-86503987D01*
X137486724Y-86504780D01*
X137553961Y-86592792D01*
X137554132Y-86593011D01*
X137626584Y-86683661D01*
X137701997Y-86783580D01*
X137778308Y-86899578D01*
X137849415Y-87030968D01*
X137190000Y-87716678D01*
X136530585Y-87030968D01*
X136601691Y-86899578D01*
X136678002Y-86783580D01*
X136753415Y-86683661D01*
X136825867Y-86593011D01*
X136826038Y-86592792D01*
X136893275Y-86504780D01*
X136893834Y-86503987D01*
X136953615Y-86411932D01*
X136954378Y-86410583D01*
X137004578Y-86307668D01*
X137005263Y-86305961D01*
X137043753Y-86185365D01*
X137044175Y-86183632D01*
X137068830Y-86038539D01*
X137068994Y-86037036D01*
X137077090Y-85872700D01*
X137302910Y-85872700D01*
X137311005Y-86037036D01*
G37*
G04 #@! TD.AperFunction*
D14*
X141311005Y-86037036D02*
X141311169Y-86038539D01*
X141335824Y-86183632D01*
X141336246Y-86185365D01*
X141374736Y-86305961D01*
X141375421Y-86307668D01*
X141425621Y-86410583D01*
X141426384Y-86411932D01*
X141486165Y-86503987D01*
X141486724Y-86504780D01*
X141553961Y-86592792D01*
X141554132Y-86593011D01*
X141626584Y-86683661D01*
X141701997Y-86783580D01*
X141778308Y-86899578D01*
X141849415Y-87030968D01*
X141190000Y-87716678D01*
X140530585Y-87030968D01*
X140601691Y-86899578D01*
X140678002Y-86783580D01*
X140753415Y-86683661D01*
X140825867Y-86593011D01*
X140826038Y-86592792D01*
X140893275Y-86504780D01*
X140893834Y-86503987D01*
X140953615Y-86411932D01*
X140954378Y-86410583D01*
X141004578Y-86307668D01*
X141005263Y-86305961D01*
X141043753Y-86185365D01*
X141044175Y-86183632D01*
X141068830Y-86038539D01*
X141068994Y-86037036D01*
X141077090Y-85872700D01*
X141302910Y-85872700D01*
X141311005Y-86037036D01*
G04 #@! TA.AperFunction,Conductor*
D13*
G36*
X141311005Y-86037036D02*
G01*
X141311169Y-86038539D01*
X141335824Y-86183632D01*
X141336246Y-86185365D01*
X141374736Y-86305961D01*
X141375421Y-86307668D01*
X141425621Y-86410583D01*
X141426384Y-86411932D01*
X141486165Y-86503987D01*
X141486724Y-86504780D01*
X141553961Y-86592792D01*
X141554132Y-86593011D01*
X141626584Y-86683661D01*
X141701997Y-86783580D01*
X141778308Y-86899578D01*
X141849415Y-87030968D01*
X141190000Y-87716678D01*
X140530585Y-87030968D01*
X140601691Y-86899578D01*
X140678002Y-86783580D01*
X140753415Y-86683661D01*
X140825867Y-86593011D01*
X140826038Y-86592792D01*
X140893275Y-86504780D01*
X140893834Y-86503987D01*
X140953615Y-86411932D01*
X140954378Y-86410583D01*
X141004578Y-86307668D01*
X141005263Y-86305961D01*
X141043753Y-86185365D01*
X141044175Y-86183632D01*
X141068830Y-86038539D01*
X141068994Y-86037036D01*
X141077090Y-85872700D01*
X141302910Y-85872700D01*
X141311005Y-86037036D01*
G37*
G04 #@! TD.AperFunction*
D14*
X147311053Y-86045761D02*
X147311221Y-86047282D01*
X147335995Y-86191225D01*
X147336427Y-86192978D01*
X147375079Y-86312529D01*
X147375777Y-86314248D01*
X147426149Y-86416199D01*
X147426924Y-86417551D01*
X147486856Y-86508695D01*
X147487418Y-86509483D01*
X147554753Y-86596613D01*
X147554920Y-86596824D01*
X147627392Y-86686600D01*
X147702680Y-86785584D01*
X147778737Y-86900619D01*
X147849409Y-87030973D01*
X147190000Y-87716678D01*
X146530590Y-87030973D01*
X146601262Y-86900619D01*
X146677319Y-86785584D01*
X146752607Y-86686600D01*
X146825079Y-86596824D01*
X146825246Y-86596613D01*
X146892581Y-86509483D01*
X146893143Y-86508695D01*
X146953075Y-86417551D01*
X146953850Y-86416199D01*
X147004222Y-86314248D01*
X147004920Y-86312529D01*
X147043572Y-86192978D01*
X147044004Y-86191225D01*
X147068778Y-86047282D01*
X147068946Y-86045761D01*
X147077082Y-85882700D01*
X147302918Y-85882700D01*
X147311053Y-86045761D01*
G04 #@! TA.AperFunction,Conductor*
D13*
G36*
X147311053Y-86045761D02*
G01*
X147311221Y-86047282D01*
X147335995Y-86191225D01*
X147336427Y-86192978D01*
X147375079Y-86312529D01*
X147375777Y-86314248D01*
X147426149Y-86416199D01*
X147426924Y-86417551D01*
X147486856Y-86508695D01*
X147487418Y-86509483D01*
X147554753Y-86596613D01*
X147554920Y-86596824D01*
X147627392Y-86686600D01*
X147702680Y-86785584D01*
X147778737Y-86900619D01*
X147849409Y-87030973D01*
X147190000Y-87716678D01*
X146530590Y-87030973D01*
X146601262Y-86900619D01*
X146677319Y-86785584D01*
X146752607Y-86686600D01*
X146825079Y-86596824D01*
X146825246Y-86596613D01*
X146892581Y-86509483D01*
X146893143Y-86508695D01*
X146953075Y-86417551D01*
X146953850Y-86416199D01*
X147004222Y-86314248D01*
X147004920Y-86312529D01*
X147043572Y-86192978D01*
X147044004Y-86191225D01*
X147068778Y-86047282D01*
X147068946Y-86045761D01*
X147077082Y-85882700D01*
X147302918Y-85882700D01*
X147311053Y-86045761D01*
G37*
G04 #@! TD.AperFunction*
D14*
X149352351Y-80340742D02*
X149305959Y-80352787D01*
X149249301Y-80360262D01*
X149192323Y-80363841D01*
X149136980Y-80366436D01*
X149136450Y-80366472D01*
X149084800Y-80371066D01*
X149083338Y-80371282D01*
X149037207Y-80380880D01*
X149034555Y-80381745D01*
X148995672Y-80399353D01*
X148993516Y-80400597D01*
X148992130Y-80401747D01*
X148962219Y-80430373D01*
X148960598Y-80432262D01*
X148959421Y-80434332D01*
X148940208Y-80476985D01*
X148939412Y-80479344D01*
X148939168Y-80480766D01*
X148933662Y-80529188D01*
X148708690Y-80529188D01*
X148713324Y-80467560D01*
X148728386Y-80406790D01*
X148750552Y-80356188D01*
X148777666Y-80312408D01*
X148807631Y-80272248D01*
X148837898Y-80232989D01*
X148838349Y-80232366D01*
X148866229Y-80191275D01*
X148867077Y-80189828D01*
X148890037Y-80143955D01*
X148890877Y-80141810D01*
X148906457Y-80088110D01*
X148906910Y-80085696D01*
X148911859Y-80030029D01*
X149360717Y-79912786D01*
X149352351Y-80340742D01*
G04 #@! TA.AperFunction,Conductor*
D13*
G36*
X149352351Y-80340742D02*
G01*
X149305959Y-80352787D01*
X149249301Y-80360262D01*
X149192323Y-80363841D01*
X149136980Y-80366436D01*
X149136450Y-80366472D01*
X149084800Y-80371066D01*
X149083338Y-80371282D01*
X149037207Y-80380880D01*
X149034555Y-80381745D01*
X148995672Y-80399353D01*
X148993516Y-80400597D01*
X148992130Y-80401747D01*
X148962219Y-80430373D01*
X148960598Y-80432262D01*
X148959421Y-80434332D01*
X148940208Y-80476985D01*
X148939412Y-80479344D01*
X148939168Y-80480766D01*
X148933662Y-80529188D01*
X148708690Y-80529188D01*
X148713324Y-80467560D01*
X148728386Y-80406790D01*
X148750552Y-80356188D01*
X148777666Y-80312408D01*
X148807631Y-80272248D01*
X148837898Y-80232989D01*
X148838349Y-80232366D01*
X148866229Y-80191275D01*
X148867077Y-80189828D01*
X148890037Y-80143955D01*
X148890877Y-80141810D01*
X148906457Y-80088110D01*
X148906910Y-80085696D01*
X148911859Y-80030029D01*
X149360717Y-79912786D01*
X149352351Y-80340742D01*
G37*
G04 #@! TD.AperFunction*
D14*
X147858611Y-79600763D02*
X147813311Y-79649029D01*
X147812671Y-79649765D01*
X147771032Y-79701587D01*
X147770333Y-79702545D01*
X147738676Y-79750499D01*
X147738012Y-79751627D01*
X147714233Y-79797261D01*
X147713709Y-79798401D01*
X147695708Y-79843262D01*
X147695378Y-79844188D01*
X147681054Y-79889822D01*
X147680897Y-79890362D01*
X147668148Y-79938319D01*
X147668119Y-79938431D01*
X147654883Y-79990111D01*
X147639071Y-80047025D01*
X147621299Y-80102338D01*
X147189213Y-80110785D01*
X147197660Y-79678699D01*
X147252972Y-79660926D01*
X147309886Y-79645114D01*
X147361566Y-79631878D01*
X147361678Y-79631849D01*
X147409635Y-79619100D01*
X147410175Y-79618943D01*
X147455809Y-79604619D01*
X147456735Y-79604289D01*
X147501596Y-79586288D01*
X147502736Y-79585764D01*
X147548370Y-79561985D01*
X147549498Y-79561321D01*
X147597452Y-79529664D01*
X147598410Y-79528965D01*
X147650232Y-79487326D01*
X147650968Y-79486686D01*
X147699235Y-79441387D01*
X147858611Y-79600763D01*
G04 #@! TA.AperFunction,Conductor*
D13*
G36*
X147858611Y-79600763D02*
G01*
X147813311Y-79649029D01*
X147812671Y-79649765D01*
X147771032Y-79701587D01*
X147770333Y-79702545D01*
X147738676Y-79750499D01*
X147738012Y-79751627D01*
X147714233Y-79797261D01*
X147713709Y-79798401D01*
X147695708Y-79843262D01*
X147695378Y-79844188D01*
X147681054Y-79889822D01*
X147680897Y-79890362D01*
X147668148Y-79938319D01*
X147668119Y-79938431D01*
X147654883Y-79990111D01*
X147639071Y-80047025D01*
X147621299Y-80102338D01*
X147189213Y-80110785D01*
X147197660Y-79678699D01*
X147252972Y-79660926D01*
X147309886Y-79645114D01*
X147361566Y-79631878D01*
X147361678Y-79631849D01*
X147409635Y-79619100D01*
X147410175Y-79618943D01*
X147455809Y-79604619D01*
X147456735Y-79604289D01*
X147501596Y-79586288D01*
X147502736Y-79585764D01*
X147548370Y-79561985D01*
X147549498Y-79561321D01*
X147597452Y-79529664D01*
X147598410Y-79528965D01*
X147650232Y-79487326D01*
X147650968Y-79486686D01*
X147699235Y-79441387D01*
X147858611Y-79600763D01*
G37*
G04 #@! TD.AperFunction*
D14*
X139281012Y-86034692D02*
X139281182Y-86036223D01*
X139305924Y-86179259D01*
X139306366Y-86181037D01*
X139345131Y-86299730D01*
X139345855Y-86301489D01*
X139396623Y-86402523D01*
X139397442Y-86403923D01*
X139458189Y-86493979D01*
X139458806Y-86494817D01*
X139527511Y-86580578D01*
X139527731Y-86580845D01*
X139602282Y-86668884D01*
X139680499Y-86765680D01*
X139760417Y-86877898D01*
X139835740Y-87004871D01*
X139204256Y-87716392D01*
X138517965Y-87057589D01*
X138584636Y-86921838D01*
X138657146Y-86802083D01*
X138729579Y-86699044D01*
X138799804Y-86605728D01*
X138799929Y-86605558D01*
X138865584Y-86515222D01*
X138866086Y-86514477D01*
X138924815Y-86420334D01*
X138925523Y-86419038D01*
X138975090Y-86314139D01*
X138975733Y-86312488D01*
X139013906Y-86189886D01*
X139014307Y-86188199D01*
X139038849Y-86040943D01*
X139039007Y-86039470D01*
X139047099Y-85872700D01*
X139272919Y-85872700D01*
X139281012Y-86034692D01*
G04 #@! TA.AperFunction,Conductor*
D13*
G36*
X139281012Y-86034692D02*
G01*
X139281182Y-86036223D01*
X139305924Y-86179259D01*
X139306366Y-86181037D01*
X139345131Y-86299730D01*
X139345855Y-86301489D01*
X139396623Y-86402523D01*
X139397442Y-86403923D01*
X139458189Y-86493979D01*
X139458806Y-86494817D01*
X139527511Y-86580578D01*
X139527731Y-86580845D01*
X139602282Y-86668884D01*
X139680499Y-86765680D01*
X139760417Y-86877898D01*
X139835740Y-87004871D01*
X139204256Y-87716392D01*
X138517965Y-87057589D01*
X138584636Y-86921838D01*
X138657146Y-86802083D01*
X138729579Y-86699044D01*
X138799804Y-86605728D01*
X138799929Y-86605558D01*
X138865584Y-86515222D01*
X138866086Y-86514477D01*
X138924815Y-86420334D01*
X138925523Y-86419038D01*
X138975090Y-86314139D01*
X138975733Y-86312488D01*
X139013906Y-86189886D01*
X139014307Y-86188199D01*
X139038849Y-86040943D01*
X139039007Y-86039470D01*
X139047099Y-85872700D01*
X139272919Y-85872700D01*
X139281012Y-86034692D01*
G37*
G04 #@! TD.AperFunction*
D14*
X138654793Y-79558861D02*
X138654862Y-79559835D01*
X138662063Y-79625921D01*
X138662246Y-79627092D01*
X138673769Y-79683386D01*
X138674097Y-79684653D01*
X138689551Y-79733735D01*
X138689986Y-79734911D01*
X138708979Y-79779361D01*
X138709401Y-79780250D01*
X138731541Y-79822647D01*
X138731812Y-79823140D01*
X138756708Y-79866065D01*
X138756766Y-79866164D01*
X138783970Y-79912104D01*
X138812999Y-79963467D01*
X138839559Y-80015174D01*
X138540000Y-80326678D01*
X138240441Y-80015174D01*
X138267000Y-79963467D01*
X138296029Y-79912104D01*
X138323233Y-79866164D01*
X138323291Y-79866065D01*
X138348187Y-79823140D01*
X138348458Y-79822647D01*
X138370598Y-79780250D01*
X138371020Y-79779361D01*
X138390013Y-79734911D01*
X138390448Y-79733735D01*
X138405902Y-79684653D01*
X138406230Y-79683386D01*
X138417753Y-79627092D01*
X138417936Y-79625921D01*
X138425137Y-79559835D01*
X138425206Y-79558862D01*
X138427304Y-79492700D01*
X138652696Y-79492700D01*
X138654793Y-79558861D01*
G04 #@! TA.AperFunction,Conductor*
D13*
G36*
X138654793Y-79558861D02*
G01*
X138654862Y-79559835D01*
X138662063Y-79625921D01*
X138662246Y-79627092D01*
X138673769Y-79683386D01*
X138674097Y-79684653D01*
X138689551Y-79733735D01*
X138689986Y-79734911D01*
X138708979Y-79779361D01*
X138709401Y-79780250D01*
X138731541Y-79822647D01*
X138731812Y-79823140D01*
X138756708Y-79866065D01*
X138756766Y-79866164D01*
X138783970Y-79912104D01*
X138812999Y-79963467D01*
X138839559Y-80015174D01*
X138540000Y-80326678D01*
X138240441Y-80015174D01*
X138267000Y-79963467D01*
X138296029Y-79912104D01*
X138323233Y-79866164D01*
X138323291Y-79866065D01*
X138348187Y-79823140D01*
X138348458Y-79822647D01*
X138370598Y-79780250D01*
X138371020Y-79779361D01*
X138390013Y-79734911D01*
X138390448Y-79733735D01*
X138405902Y-79684653D01*
X138406230Y-79683386D01*
X138417753Y-79627092D01*
X138417936Y-79625921D01*
X138425137Y-79559835D01*
X138425206Y-79558862D01*
X138427304Y-79492700D01*
X138652696Y-79492700D01*
X138654793Y-79558861D01*
G37*
G04 #@! TD.AperFunction*
D14*
X140754295Y-76625587D02*
X140700143Y-76663861D01*
X140645197Y-76698720D01*
X140594898Y-76727743D01*
X140547415Y-76753623D01*
X140547398Y-76753632D01*
X140501171Y-76778921D01*
X140500846Y-76779105D01*
X140454329Y-76806357D01*
X140453777Y-76806700D01*
X140405296Y-76838544D01*
X140404652Y-76838996D01*
X140352528Y-76878058D01*
X140351911Y-76878551D01*
X140294470Y-76927458D01*
X140293943Y-76927932D01*
X140238482Y-76980764D01*
X140079116Y-76821398D01*
X140118119Y-76779305D01*
X140118889Y-76778390D01*
X140154900Y-76731325D01*
X140155743Y-76730078D01*
X140181985Y-76685750D01*
X140182764Y-76684201D01*
X140200773Y-76641351D01*
X140201340Y-76639687D01*
X140212650Y-76597060D01*
X140212951Y-76595573D01*
X140219096Y-76551909D01*
X140219201Y-76550833D01*
X140221716Y-76504875D01*
X140221735Y-76504288D01*
X140222154Y-76454780D01*
X140222154Y-76454640D01*
X140222012Y-76400437D01*
X140222719Y-76349135D01*
X140632305Y-76211005D01*
X140754295Y-76625587D01*
G04 #@! TA.AperFunction,Conductor*
D13*
G36*
X140754295Y-76625587D02*
G01*
X140700143Y-76663861D01*
X140645197Y-76698720D01*
X140594898Y-76727743D01*
X140547415Y-76753623D01*
X140547398Y-76753632D01*
X140501171Y-76778921D01*
X140500846Y-76779105D01*
X140454329Y-76806357D01*
X140453777Y-76806700D01*
X140405296Y-76838544D01*
X140404652Y-76838996D01*
X140352528Y-76878058D01*
X140351911Y-76878551D01*
X140294470Y-76927458D01*
X140293943Y-76927932D01*
X140238482Y-76980764D01*
X140079116Y-76821398D01*
X140118119Y-76779305D01*
X140118889Y-76778390D01*
X140154900Y-76731325D01*
X140155743Y-76730078D01*
X140181985Y-76685750D01*
X140182764Y-76684201D01*
X140200773Y-76641351D01*
X140201340Y-76639687D01*
X140212650Y-76597060D01*
X140212951Y-76595573D01*
X140219096Y-76551909D01*
X140219201Y-76550833D01*
X140221716Y-76504875D01*
X140221735Y-76504288D01*
X140222154Y-76454780D01*
X140222154Y-76454640D01*
X140222012Y-76400437D01*
X140222719Y-76349135D01*
X140632305Y-76211005D01*
X140754295Y-76625587D01*
G37*
G04 #@! TD.AperFunction*
D14*
X142135472Y-79644316D02*
X142109164Y-79673729D01*
X142108113Y-79675077D01*
X142083219Y-79711857D01*
X142082191Y-79713683D01*
X142065837Y-79749355D01*
X142065056Y-79751589D01*
X142056360Y-79786635D01*
X142056005Y-79788997D01*
X142054086Y-79823897D01*
X142054147Y-79826018D01*
X142058122Y-79861251D01*
X142058419Y-79862900D01*
X142067408Y-79898947D01*
X142067749Y-79900084D01*
X142080869Y-79937426D01*
X142081135Y-79938119D01*
X142097504Y-79977235D01*
X142097651Y-79977572D01*
X142112762Y-80010936D01*
X141809258Y-80314286D01*
X141578341Y-79914522D01*
X141621454Y-79870638D01*
X141621622Y-79870465D01*
X141663820Y-79825850D01*
X141663979Y-79825678D01*
X141700666Y-79785430D01*
X141700790Y-79785293D01*
X141734136Y-79747621D01*
X141734196Y-79747552D01*
X141766358Y-79710686D01*
X141799454Y-79672895D01*
X141835782Y-79632245D01*
X141877277Y-79587207D01*
X141926400Y-79535671D01*
X141976238Y-79485082D01*
X142135472Y-79644316D01*
G04 #@! TA.AperFunction,Conductor*
D13*
G36*
X142135472Y-79644316D02*
G01*
X142109164Y-79673729D01*
X142108113Y-79675077D01*
X142083219Y-79711857D01*
X142082191Y-79713683D01*
X142065837Y-79749355D01*
X142065056Y-79751589D01*
X142056360Y-79786635D01*
X142056005Y-79788997D01*
X142054086Y-79823897D01*
X142054147Y-79826018D01*
X142058122Y-79861251D01*
X142058419Y-79862900D01*
X142067408Y-79898947D01*
X142067749Y-79900084D01*
X142080869Y-79937426D01*
X142081135Y-79938119D01*
X142097504Y-79977235D01*
X142097651Y-79977572D01*
X142112762Y-80010936D01*
X141809258Y-80314286D01*
X141578341Y-79914522D01*
X141621454Y-79870638D01*
X141621622Y-79870465D01*
X141663820Y-79825850D01*
X141663979Y-79825678D01*
X141700666Y-79785430D01*
X141700790Y-79785293D01*
X141734136Y-79747621D01*
X141734196Y-79747552D01*
X141766358Y-79710686D01*
X141799454Y-79672895D01*
X141835782Y-79632245D01*
X141877277Y-79587207D01*
X141926400Y-79535671D01*
X141976238Y-79485082D01*
X142135472Y-79644316D01*
G37*
G04 #@! TD.AperFunction*
D14*
X147982513Y-76385885D02*
X147610628Y-76606164D01*
X147570033Y-76572010D01*
X147528349Y-76535300D01*
X147528316Y-76535272D01*
X147490249Y-76501975D01*
X147489885Y-76501668D01*
X147453392Y-76472088D01*
X147452622Y-76471511D01*
X147415569Y-76445870D01*
X147414380Y-76445140D01*
X147374633Y-76423661D01*
X147373142Y-76422976D01*
X147328568Y-76405883D01*
X147327012Y-76405398D01*
X147275478Y-76392912D01*
X147274078Y-76392655D01*
X147213448Y-76385001D01*
X147212316Y-76384909D01*
X147152700Y-76382751D01*
X147152700Y-76157373D01*
X147226901Y-76155435D01*
X147227674Y-76155391D01*
X147300757Y-76149008D01*
X147301639Y-76148900D01*
X147364194Y-76138989D01*
X147365095Y-76138812D01*
X147420076Y-76125972D01*
X147420852Y-76125765D01*
X147471218Y-76110591D01*
X147471719Y-76110428D01*
X147520427Y-76093517D01*
X147520574Y-76093465D01*
X147570442Y-76075463D01*
X147624421Y-76056962D01*
X147685386Y-76038571D01*
X147747907Y-76022954D01*
X147982513Y-76385885D01*
G04 #@! TA.AperFunction,Conductor*
D13*
G36*
X147982513Y-76385885D02*
G01*
X147610628Y-76606164D01*
X147570033Y-76572010D01*
X147528349Y-76535300D01*
X147528316Y-76535272D01*
X147490249Y-76501975D01*
X147489885Y-76501668D01*
X147453392Y-76472088D01*
X147452622Y-76471511D01*
X147415569Y-76445870D01*
X147414380Y-76445140D01*
X147374633Y-76423661D01*
X147373142Y-76422976D01*
X147328568Y-76405883D01*
X147327012Y-76405398D01*
X147275478Y-76392912D01*
X147274078Y-76392655D01*
X147213448Y-76385001D01*
X147212316Y-76384909D01*
X147152700Y-76382751D01*
X147152700Y-76157373D01*
X147226901Y-76155435D01*
X147227674Y-76155391D01*
X147300757Y-76149008D01*
X147301639Y-76148900D01*
X147364194Y-76138989D01*
X147365095Y-76138812D01*
X147420076Y-76125972D01*
X147420852Y-76125765D01*
X147471218Y-76110591D01*
X147471719Y-76110428D01*
X147520427Y-76093517D01*
X147520574Y-76093465D01*
X147570442Y-76075463D01*
X147624421Y-76056962D01*
X147685386Y-76038571D01*
X147747907Y-76022954D01*
X147982513Y-76385885D01*
G37*
G04 #@! TD.AperFunction*
D14*
X140314793Y-79548869D02*
X140314862Y-79549843D01*
X140322063Y-79615929D01*
X140322246Y-79617100D01*
X140333769Y-79673394D01*
X140334097Y-79674661D01*
X140349551Y-79723743D01*
X140349986Y-79724919D01*
X140368979Y-79769369D01*
X140369401Y-79770258D01*
X140391541Y-79812655D01*
X140391812Y-79813148D01*
X140416708Y-79856073D01*
X140416766Y-79856172D01*
X140443970Y-79902112D01*
X140472999Y-79953475D01*
X140499559Y-80005182D01*
X140200000Y-80316686D01*
X139900441Y-80005182D01*
X139927000Y-79953475D01*
X139956029Y-79902112D01*
X139983233Y-79856172D01*
X139983291Y-79856073D01*
X140008187Y-79813148D01*
X140008458Y-79812655D01*
X140030598Y-79770258D01*
X140031020Y-79769369D01*
X140050013Y-79724919D01*
X140050448Y-79723743D01*
X140065902Y-79674661D01*
X140066230Y-79673394D01*
X140077753Y-79617100D01*
X140077936Y-79615929D01*
X140085137Y-79549843D01*
X140085206Y-79548870D01*
X140087304Y-79482708D01*
X140312696Y-79482708D01*
X140314793Y-79548869D01*
G04 #@! TA.AperFunction,Conductor*
D13*
G36*
X140314793Y-79548869D02*
G01*
X140314862Y-79549843D01*
X140322063Y-79615929D01*
X140322246Y-79617100D01*
X140333769Y-79673394D01*
X140334097Y-79674661D01*
X140349551Y-79723743D01*
X140349986Y-79724919D01*
X140368979Y-79769369D01*
X140369401Y-79770258D01*
X140391541Y-79812655D01*
X140391812Y-79813148D01*
X140416708Y-79856073D01*
X140416766Y-79856172D01*
X140443970Y-79902112D01*
X140472999Y-79953475D01*
X140499559Y-80005182D01*
X140200000Y-80316686D01*
X139900441Y-80005182D01*
X139927000Y-79953475D01*
X139956029Y-79902112D01*
X139983233Y-79856172D01*
X139983291Y-79856073D01*
X140008187Y-79813148D01*
X140008458Y-79812655D01*
X140030598Y-79770258D01*
X140031020Y-79769369D01*
X140050013Y-79724919D01*
X140050448Y-79723743D01*
X140065902Y-79674661D01*
X140066230Y-79673394D01*
X140077753Y-79617100D01*
X140077936Y-79615929D01*
X140085137Y-79549843D01*
X140085206Y-79548870D01*
X140087304Y-79482708D01*
X140312696Y-79482708D01*
X140314793Y-79548869D01*
G37*
G04 #@! TD.AperFunction*
D14*
X143132762Y-76640612D02*
X143076526Y-76669333D01*
X143019387Y-76695369D01*
X142967335Y-76717164D01*
X142918867Y-76737030D01*
X142918602Y-76737142D01*
X142872046Y-76757471D01*
X142871442Y-76757754D01*
X142825213Y-76780902D01*
X142824395Y-76781350D01*
X142776824Y-76809713D01*
X142775968Y-76810271D01*
X142725382Y-76846242D01*
X142724621Y-76846828D01*
X142669349Y-76892801D01*
X142668737Y-76893344D01*
X142616081Y-76943215D01*
X142456723Y-76783857D01*
X142499263Y-76738299D01*
X142499960Y-76737486D01*
X142539132Y-76687719D01*
X142539903Y-76686627D01*
X142569126Y-76640176D01*
X142569858Y-76638840D01*
X142590927Y-76594263D01*
X142591494Y-76592851D01*
X142606205Y-76548704D01*
X142606547Y-76547474D01*
X142616696Y-76502314D01*
X142616855Y-76501475D01*
X142624238Y-76453859D01*
X142624291Y-76453482D01*
X142630704Y-76401967D01*
X142630703Y-76401967D01*
X142637915Y-76345314D01*
X142646367Y-76290763D01*
X143071493Y-76212813D01*
X143132762Y-76640612D01*
G04 #@! TA.AperFunction,Conductor*
D13*
G36*
X143132762Y-76640612D02*
G01*
X143076526Y-76669333D01*
X143019387Y-76695369D01*
X142967335Y-76717164D01*
X142918867Y-76737030D01*
X142918602Y-76737142D01*
X142872046Y-76757471D01*
X142871442Y-76757754D01*
X142825213Y-76780902D01*
X142824395Y-76781350D01*
X142776824Y-76809713D01*
X142775968Y-76810271D01*
X142725382Y-76846242D01*
X142724621Y-76846828D01*
X142669349Y-76892801D01*
X142668737Y-76893344D01*
X142616081Y-76943215D01*
X142456723Y-76783857D01*
X142499263Y-76738299D01*
X142499960Y-76737486D01*
X142539132Y-76687719D01*
X142539903Y-76686627D01*
X142569126Y-76640176D01*
X142569858Y-76638840D01*
X142590927Y-76594263D01*
X142591494Y-76592851D01*
X142606205Y-76548704D01*
X142606547Y-76547474D01*
X142616696Y-76502314D01*
X142616855Y-76501475D01*
X142624238Y-76453859D01*
X142624291Y-76453482D01*
X142630704Y-76401967D01*
X142630703Y-76401967D01*
X142637915Y-76345314D01*
X142646367Y-76290763D01*
X143071493Y-76212813D01*
X143132762Y-76640612D01*
G37*
G04 #@! TD.AperFunction*
M02*
