G04 #@! TF.GenerationSoftware,KiCad,Pcbnew,(5.1.8-0-10_14)*
G04 #@! TF.CreationDate,2021-09-22T21:19:34-04:00*
G04 #@! TF.ProjectId,WiiComp,57696943-6f6d-4702-9e6b-696361645f70,1*
G04 #@! TF.SameCoordinates,Original*
G04 #@! TF.FileFunction,Legend,Top*
G04 #@! TF.FilePolarity,Positive*
%FSLAX46Y46*%
G04 Gerber Fmt 4.6, Leading zero omitted, Abs format (unit mm)*
G04 Created by KiCad (PCBNEW (5.1.8-0-10_14)) date 2021-09-22 21:19:34*
%MOMM*%
%LPD*%
G01*
G04 APERTURE LIST*
%ADD10C,0.127000*%
%ADD11C,0.125000*%
%ADD12C,0.150000*%
%ADD13C,0.120000*%
%ADD14C,0.100000*%
%ADD15C,0.152400*%
G04 APERTURE END LIST*
D10*
X135940000Y-90970000D02*
X152420000Y-90970000D01*
D11*
X141402380Y-78766190D02*
X141402380Y-79123333D01*
X141378571Y-79194761D01*
X141330952Y-79242380D01*
X141259523Y-79266190D01*
X141211904Y-79266190D01*
X141830952Y-79242380D02*
X141783333Y-79266190D01*
X141688095Y-79266190D01*
X141640476Y-79242380D01*
X141616666Y-79194761D01*
X141616666Y-79004285D01*
X141640476Y-78956666D01*
X141688095Y-78932857D01*
X141783333Y-78932857D01*
X141830952Y-78956666D01*
X141854761Y-79004285D01*
X141854761Y-79051904D01*
X141616666Y-79099523D01*
X141997619Y-78932857D02*
X142188095Y-78932857D01*
X142069047Y-79266190D02*
X142069047Y-78837619D01*
X142092857Y-78790000D01*
X142140476Y-78766190D01*
X142188095Y-78766190D01*
X142283333Y-78932857D02*
X142473809Y-78932857D01*
X142354761Y-79266190D02*
X142354761Y-78837619D01*
X142378571Y-78790000D01*
X142426190Y-78766190D01*
X142473809Y-78766190D01*
X143307142Y-79218571D02*
X143283333Y-79242380D01*
X143211904Y-79266190D01*
X143164285Y-79266190D01*
X143092857Y-79242380D01*
X143045238Y-79194761D01*
X143021428Y-79147142D01*
X142997619Y-79051904D01*
X142997619Y-78980476D01*
X143021428Y-78885238D01*
X143045238Y-78837619D01*
X143092857Y-78790000D01*
X143164285Y-78766190D01*
X143211904Y-78766190D01*
X143283333Y-78790000D01*
X143307142Y-78813809D01*
X143521428Y-79266190D02*
X143521428Y-78766190D01*
X143735714Y-79266190D02*
X143735714Y-79004285D01*
X143711904Y-78956666D01*
X143664285Y-78932857D01*
X143592857Y-78932857D01*
X143545238Y-78956666D01*
X143521428Y-78980476D01*
X144164285Y-79242380D02*
X144116666Y-79266190D01*
X144021428Y-79266190D01*
X143973809Y-79242380D01*
X143950000Y-79194761D01*
X143950000Y-79004285D01*
X143973809Y-78956666D01*
X144021428Y-78932857D01*
X144116666Y-78932857D01*
X144164285Y-78956666D01*
X144188095Y-79004285D01*
X144188095Y-79051904D01*
X143950000Y-79099523D01*
X144402380Y-78932857D02*
X144402380Y-79266190D01*
X144402380Y-78980476D02*
X144426190Y-78956666D01*
X144473809Y-78932857D01*
X144545238Y-78932857D01*
X144592857Y-78956666D01*
X144616666Y-79004285D01*
X144616666Y-79266190D01*
X144878571Y-79242380D02*
X144878571Y-79266190D01*
X144854761Y-79313809D01*
X144830952Y-79337619D01*
X145450000Y-78813809D02*
X145473809Y-78790000D01*
X145521428Y-78766190D01*
X145640476Y-78766190D01*
X145688095Y-78790000D01*
X145711904Y-78813809D01*
X145735714Y-78861428D01*
X145735714Y-78909047D01*
X145711904Y-78980476D01*
X145426190Y-79266190D01*
X145735714Y-79266190D01*
X146045238Y-78766190D02*
X146092857Y-78766190D01*
X146140476Y-78790000D01*
X146164285Y-78813809D01*
X146188095Y-78861428D01*
X146211904Y-78956666D01*
X146211904Y-79075714D01*
X146188095Y-79170952D01*
X146164285Y-79218571D01*
X146140476Y-79242380D01*
X146092857Y-79266190D01*
X146045238Y-79266190D01*
X145997619Y-79242380D01*
X145973809Y-79218571D01*
X145950000Y-79170952D01*
X145926190Y-79075714D01*
X145926190Y-78956666D01*
X145950000Y-78861428D01*
X145973809Y-78813809D01*
X145997619Y-78790000D01*
X146045238Y-78766190D01*
X146402380Y-78813809D02*
X146426190Y-78790000D01*
X146473809Y-78766190D01*
X146592857Y-78766190D01*
X146640476Y-78790000D01*
X146664285Y-78813809D01*
X146688095Y-78861428D01*
X146688095Y-78909047D01*
X146664285Y-78980476D01*
X146378571Y-79266190D01*
X146688095Y-79266190D01*
X147164285Y-79266190D02*
X146878571Y-79266190D01*
X147021428Y-79266190D02*
X147021428Y-78766190D01*
X146973809Y-78837619D01*
X146926190Y-78885238D01*
X146878571Y-78909047D01*
X139509047Y-83336190D02*
X139270952Y-83336190D01*
X139270952Y-82836190D01*
X139890000Y-83002857D02*
X139890000Y-83336190D01*
X139675714Y-83002857D02*
X139675714Y-83264761D01*
X139699523Y-83312380D01*
X139747142Y-83336190D01*
X139818571Y-83336190D01*
X139866190Y-83312380D01*
X139890000Y-83288571D01*
X140128095Y-83336190D02*
X140128095Y-83002857D01*
X140128095Y-83050476D02*
X140151904Y-83026666D01*
X140199523Y-83002857D01*
X140270952Y-83002857D01*
X140318571Y-83026666D01*
X140342380Y-83074285D01*
X140342380Y-83336190D01*
X140342380Y-83074285D02*
X140366190Y-83026666D01*
X140413809Y-83002857D01*
X140485238Y-83002857D01*
X140532857Y-83026666D01*
X140556666Y-83074285D01*
X140556666Y-83336190D01*
X141009047Y-83336190D02*
X141009047Y-83074285D01*
X140985238Y-83026666D01*
X140937619Y-83002857D01*
X140842380Y-83002857D01*
X140794761Y-83026666D01*
X141009047Y-83312380D02*
X140961428Y-83336190D01*
X140842380Y-83336190D01*
X140794761Y-83312380D01*
X140770952Y-83264761D01*
X140770952Y-83217142D01*
X140794761Y-83169523D01*
X140842380Y-83145714D01*
X140961428Y-83145714D01*
X141009047Y-83121904D01*
X142720476Y-83298571D02*
X142696666Y-83322380D01*
X142625238Y-83346190D01*
X142577619Y-83346190D01*
X142506190Y-83322380D01*
X142458571Y-83274761D01*
X142434761Y-83227142D01*
X142410952Y-83131904D01*
X142410952Y-83060476D01*
X142434761Y-82965238D01*
X142458571Y-82917619D01*
X142506190Y-82870000D01*
X142577619Y-82846190D01*
X142625238Y-82846190D01*
X142696666Y-82870000D01*
X142720476Y-82893809D01*
X142910952Y-83322380D02*
X142982380Y-83346190D01*
X143101428Y-83346190D01*
X143149047Y-83322380D01*
X143172857Y-83298571D01*
X143196666Y-83250952D01*
X143196666Y-83203333D01*
X143172857Y-83155714D01*
X143149047Y-83131904D01*
X143101428Y-83108095D01*
X143006190Y-83084285D01*
X142958571Y-83060476D01*
X142934761Y-83036666D01*
X142910952Y-82989047D01*
X142910952Y-82941428D01*
X142934761Y-82893809D01*
X142958571Y-82870000D01*
X143006190Y-82846190D01*
X143125238Y-82846190D01*
X143196666Y-82870000D01*
X143506190Y-83108095D02*
X143506190Y-83346190D01*
X143339523Y-82846190D02*
X143506190Y-83108095D01*
X143672857Y-82846190D01*
X143839523Y-83346190D02*
X143839523Y-82846190D01*
X144125238Y-83346190D01*
X144125238Y-82846190D01*
X144649047Y-83298571D02*
X144625238Y-83322380D01*
X144553809Y-83346190D01*
X144506190Y-83346190D01*
X144434761Y-83322380D01*
X144387142Y-83274761D01*
X144363333Y-83227142D01*
X144339523Y-83131904D01*
X144339523Y-83060476D01*
X144363333Y-82965238D01*
X144387142Y-82917619D01*
X144434761Y-82870000D01*
X144506190Y-82846190D01*
X144553809Y-82846190D01*
X144625238Y-82870000D01*
X144649047Y-82893809D01*
X136492380Y-80448571D02*
X136468571Y-80472380D01*
X136397142Y-80496190D01*
X136349523Y-80496190D01*
X136278095Y-80472380D01*
X136230476Y-80424761D01*
X136206666Y-80377142D01*
X136182857Y-80281904D01*
X136182857Y-80210476D01*
X136206666Y-80115238D01*
X136230476Y-80067619D01*
X136278095Y-80020000D01*
X136349523Y-79996190D01*
X136397142Y-79996190D01*
X136468571Y-80020000D01*
X136492380Y-80043809D01*
X136635238Y-79996190D02*
X136801904Y-80496190D01*
X136968571Y-79996190D01*
X137301904Y-80234285D02*
X137373333Y-80258095D01*
X137397142Y-80281904D01*
X137420952Y-80329523D01*
X137420952Y-80400952D01*
X137397142Y-80448571D01*
X137373333Y-80472380D01*
X137325714Y-80496190D01*
X137135238Y-80496190D01*
X137135238Y-79996190D01*
X137301904Y-79996190D01*
X137349523Y-80020000D01*
X137373333Y-80043809D01*
X137397142Y-80091428D01*
X137397142Y-80139047D01*
X137373333Y-80186666D01*
X137349523Y-80210476D01*
X137301904Y-80234285D01*
X137135238Y-80234285D01*
X137611428Y-80472380D02*
X137682857Y-80496190D01*
X137801904Y-80496190D01*
X137849523Y-80472380D01*
X137873333Y-80448571D01*
X137897142Y-80400952D01*
X137897142Y-80353333D01*
X137873333Y-80305714D01*
X137849523Y-80281904D01*
X137801904Y-80258095D01*
X137706666Y-80234285D01*
X137659047Y-80210476D01*
X137635238Y-80186666D01*
X137611428Y-80139047D01*
X137611428Y-80091428D01*
X137635238Y-80043809D01*
X137659047Y-80020000D01*
X137706666Y-79996190D01*
X137825714Y-79996190D01*
X137897142Y-80020000D01*
D12*
X150007142Y-79299285D02*
X150435714Y-79299285D01*
X150221428Y-80049285D02*
X150221428Y-79299285D01*
X150792857Y-80049285D02*
X150721428Y-80013571D01*
X150685714Y-79977857D01*
X150650000Y-79906428D01*
X150650000Y-79692142D01*
X150685714Y-79620714D01*
X150721428Y-79585000D01*
X150792857Y-79549285D01*
X150900000Y-79549285D01*
X150971428Y-79585000D01*
X151007142Y-79620714D01*
X151042857Y-79692142D01*
X151042857Y-79906428D01*
X151007142Y-79977857D01*
X150971428Y-80013571D01*
X150900000Y-80049285D01*
X150792857Y-80049285D01*
X151364285Y-79549285D02*
X151364285Y-80299285D01*
X151364285Y-79585000D02*
X151435714Y-79549285D01*
X151578571Y-79549285D01*
X151650000Y-79585000D01*
X151685714Y-79620714D01*
X151721428Y-79692142D01*
X151721428Y-79906428D01*
X151685714Y-79977857D01*
X151650000Y-80013571D01*
X151578571Y-80049285D01*
X151435714Y-80049285D01*
X151364285Y-80013571D01*
X144220000Y-82379285D02*
X144220000Y-81629285D01*
X144648571Y-82379285D01*
X144648571Y-81629285D01*
X145327142Y-81629285D02*
X145184285Y-81629285D01*
X145112857Y-81665000D01*
X145077142Y-81700714D01*
X145005714Y-81807857D01*
X144970000Y-81950714D01*
X144970000Y-82236428D01*
X145005714Y-82307857D01*
X145041428Y-82343571D01*
X145112857Y-82379285D01*
X145255714Y-82379285D01*
X145327142Y-82343571D01*
X145362857Y-82307857D01*
X145398571Y-82236428D01*
X145398571Y-82057857D01*
X145362857Y-81986428D01*
X145327142Y-81950714D01*
X145255714Y-81915000D01*
X145112857Y-81915000D01*
X145041428Y-81950714D01*
X145005714Y-81986428D01*
X144970000Y-82057857D01*
X146041428Y-81879285D02*
X146041428Y-82379285D01*
X145862857Y-81593571D02*
X145684285Y-82129285D01*
X146148571Y-82129285D01*
X146434285Y-82379285D02*
X146434285Y-81629285D01*
X146612857Y-81629285D01*
X146720000Y-81665000D01*
X146791428Y-81736428D01*
X146827142Y-81807857D01*
X146862857Y-81950714D01*
X146862857Y-82057857D01*
X146827142Y-82200714D01*
X146791428Y-82272142D01*
X146720000Y-82343571D01*
X146612857Y-82379285D01*
X146434285Y-82379285D01*
X147148571Y-81700714D02*
X147184285Y-81665000D01*
X147255714Y-81629285D01*
X147434285Y-81629285D01*
X147505714Y-81665000D01*
X147541428Y-81700714D01*
X147577142Y-81772142D01*
X147577142Y-81843571D01*
X147541428Y-81950714D01*
X147112857Y-82379285D01*
X147577142Y-82379285D01*
X147827142Y-81629285D02*
X148005714Y-82379285D01*
X148148571Y-81843571D01*
X148291428Y-82379285D01*
X148470000Y-81629285D01*
X148755714Y-82379285D02*
X148755714Y-81879285D01*
X148755714Y-81629285D02*
X148720000Y-81665000D01*
X148755714Y-81700714D01*
X148791428Y-81665000D01*
X148755714Y-81629285D01*
X148755714Y-81700714D01*
X149112857Y-82379285D02*
X149112857Y-81879285D01*
X149112857Y-81629285D02*
X149077142Y-81665000D01*
X149112857Y-81700714D01*
X149148571Y-81665000D01*
X149112857Y-81629285D01*
X149112857Y-81700714D01*
X149898571Y-82307857D02*
X149862857Y-82343571D01*
X149755714Y-82379285D01*
X149684285Y-82379285D01*
X149577142Y-82343571D01*
X149505714Y-82272142D01*
X149470000Y-82200714D01*
X149434285Y-82057857D01*
X149434285Y-81950714D01*
X149470000Y-81807857D01*
X149505714Y-81736428D01*
X149577142Y-81665000D01*
X149684285Y-81629285D01*
X149755714Y-81629285D01*
X149862857Y-81665000D01*
X149898571Y-81700714D01*
X150327142Y-82379285D02*
X150255714Y-82343571D01*
X150220000Y-82307857D01*
X150184285Y-82236428D01*
X150184285Y-82022142D01*
X150220000Y-81950714D01*
X150255714Y-81915000D01*
X150327142Y-81879285D01*
X150434285Y-81879285D01*
X150505714Y-81915000D01*
X150541428Y-81950714D01*
X150577142Y-82022142D01*
X150577142Y-82236428D01*
X150541428Y-82307857D01*
X150505714Y-82343571D01*
X150434285Y-82379285D01*
X150327142Y-82379285D01*
X150898571Y-82379285D02*
X150898571Y-81879285D01*
X150898571Y-81950714D02*
X150934285Y-81915000D01*
X151005714Y-81879285D01*
X151112857Y-81879285D01*
X151184285Y-81915000D01*
X151220000Y-81986428D01*
X151220000Y-82379285D01*
X151220000Y-81986428D02*
X151255714Y-81915000D01*
X151327142Y-81879285D01*
X151434285Y-81879285D01*
X151505714Y-81915000D01*
X151541428Y-81986428D01*
X151541428Y-82379285D01*
X151898571Y-81879285D02*
X151898571Y-82629285D01*
X151898571Y-81915000D02*
X151970000Y-81879285D01*
X152112857Y-81879285D01*
X152184285Y-81915000D01*
X152220000Y-81950714D01*
X152255714Y-82022142D01*
X152255714Y-82236428D01*
X152220000Y-82307857D01*
X152184285Y-82343571D01*
X152112857Y-82379285D01*
X151970000Y-82379285D01*
X151898571Y-82343571D01*
D13*
X143540000Y-81360000D02*
X143540000Y-81960000D01*
X140090000Y-80660000D02*
X142890000Y-80660000D01*
X142890000Y-82660000D02*
X140090000Y-82660000D01*
X142840000Y-80660000D02*
G75*
G02*
X143540000Y-81360000I0J-700000D01*
G01*
X143540000Y-81960000D02*
G75*
G02*
X142840000Y-82660000I-700000J0D01*
G01*
X137690000Y-82860000D02*
X137990000Y-83160000D01*
X137390000Y-83160000D02*
X137990000Y-83160000D01*
X137690000Y-82860000D02*
X137390000Y-83160000D01*
X136840000Y-81960000D02*
X136840000Y-81360000D01*
X140290000Y-82660000D02*
X137490000Y-82660000D01*
X137490000Y-80660000D02*
X140290000Y-80660000D01*
X137540000Y-82660000D02*
G75*
G02*
X136840000Y-81960000I0J700000D01*
G01*
X136840000Y-81360000D02*
G75*
G02*
X137540000Y-80660000I700000J0D01*
G01*
%LPC*%
D14*
G36*
X140660000Y-80960000D02*
G01*
X142390000Y-80960000D01*
X142390000Y-82360000D01*
X140660000Y-82360000D01*
X140660000Y-80960000D01*
G37*
X140660000Y-80960000D02*
X142390000Y-80960000D01*
X142390000Y-82360000D01*
X140660000Y-82360000D01*
X140660000Y-80960000D01*
G36*
X139710000Y-82360000D02*
G01*
X138080000Y-82360000D01*
X138080000Y-80960000D01*
X139710000Y-80960000D01*
X139710000Y-82360000D01*
G37*
X139710000Y-82360000D02*
X138080000Y-82360000D01*
X138080000Y-80960000D01*
X139710000Y-80960000D01*
X139710000Y-82360000D01*
G36*
X138390000Y-81960000D02*
G01*
X138139290Y-81960000D01*
X138139290Y-81359564D01*
X138390000Y-81359564D01*
X138390000Y-81960000D01*
G37*
X138390000Y-81960000D02*
X138139290Y-81960000D01*
X138139290Y-81359564D01*
X138390000Y-81359564D01*
X138390000Y-81960000D01*
G36*
G01*
X149244200Y-78140400D02*
X149244200Y-75839600D01*
G75*
G02*
X149744600Y-75339200I500400J0D01*
G01*
X150745400Y-75339200D01*
G75*
G02*
X151245800Y-75839600I0J-500400D01*
G01*
X151245800Y-78140400D01*
G75*
G02*
X150745400Y-78640800I-500400J0D01*
G01*
X149744600Y-78640800D01*
G75*
G02*
X149244200Y-78140400I0J500400D01*
G01*
G37*
G36*
G01*
X146824200Y-78140400D02*
X146824200Y-75839600D01*
G75*
G02*
X147324600Y-75339200I500400J0D01*
G01*
X148325400Y-75339200D01*
G75*
G02*
X148825800Y-75839600I0J-500400D01*
G01*
X148825800Y-78140400D01*
G75*
G02*
X148325400Y-78640800I-500400J0D01*
G01*
X147324600Y-78640800D01*
G75*
G02*
X146824200Y-78140400I0J500400D01*
G01*
G37*
G36*
G01*
X144404200Y-78140400D02*
X144404200Y-75839600D01*
G75*
G02*
X144904600Y-75339200I500400J0D01*
G01*
X145905400Y-75339200D01*
G75*
G02*
X146405800Y-75839600I0J-500400D01*
G01*
X146405800Y-78140400D01*
G75*
G02*
X145905400Y-78640800I-500400J0D01*
G01*
X144904600Y-78640800D01*
G75*
G02*
X144404200Y-78140400I0J500400D01*
G01*
G37*
G36*
G01*
X141984200Y-78140400D02*
X141984200Y-75839600D01*
G75*
G02*
X142484600Y-75339200I500400J0D01*
G01*
X143485400Y-75339200D01*
G75*
G02*
X143985800Y-75839600I0J-500400D01*
G01*
X143985800Y-78140400D01*
G75*
G02*
X143485400Y-78640800I-500400J0D01*
G01*
X142484600Y-78640800D01*
G75*
G02*
X141984200Y-78140400I0J500400D01*
G01*
G37*
G36*
G01*
X139564200Y-78140400D02*
X139564200Y-75839600D01*
G75*
G02*
X140064600Y-75339200I500400J0D01*
G01*
X141065400Y-75339200D01*
G75*
G02*
X141565800Y-75839600I0J-500400D01*
G01*
X141565800Y-78140400D01*
G75*
G02*
X141065400Y-78640800I-500400J0D01*
G01*
X140064600Y-78640800D01*
G75*
G02*
X139564200Y-78140400I0J500400D01*
G01*
G37*
G36*
G01*
X137144200Y-78140400D02*
X137144200Y-75839600D01*
G75*
G02*
X137644600Y-75339200I500400J0D01*
G01*
X138645400Y-75339200D01*
G75*
G02*
X139145800Y-75839600I0J-500400D01*
G01*
X139145800Y-78140400D01*
G75*
G02*
X138645400Y-78640800I-500400J0D01*
G01*
X137644600Y-78640800D01*
G75*
G02*
X137144200Y-78140400I0J500400D01*
G01*
G37*
G36*
G01*
X136389200Y-90510400D02*
X136389200Y-84209600D01*
G75*
G02*
X136789600Y-83809200I400400J0D01*
G01*
X137590400Y-83809200D01*
G75*
G02*
X137990800Y-84209600I0J-400400D01*
G01*
X137990800Y-90510400D01*
G75*
G02*
X137590400Y-90910800I-400400J0D01*
G01*
X136789600Y-90910800D01*
G75*
G02*
X136389200Y-90510400I0J400400D01*
G01*
G37*
G36*
G01*
X138389200Y-90510400D02*
X138389200Y-84209600D01*
G75*
G02*
X138789600Y-83809200I400400J0D01*
G01*
X139590400Y-83809200D01*
G75*
G02*
X139990800Y-84209600I0J-400400D01*
G01*
X139990800Y-90510400D01*
G75*
G02*
X139590400Y-90910800I-400400J0D01*
G01*
X138789600Y-90910800D01*
G75*
G02*
X138389200Y-90510400I0J400400D01*
G01*
G37*
G36*
G01*
X140389200Y-90510400D02*
X140389200Y-84209600D01*
G75*
G02*
X140789600Y-83809200I400400J0D01*
G01*
X141590400Y-83809200D01*
G75*
G02*
X141990800Y-84209600I0J-400400D01*
G01*
X141990800Y-90510400D01*
G75*
G02*
X141590400Y-90910800I-400400J0D01*
G01*
X140789600Y-90910800D01*
G75*
G02*
X140389200Y-90510400I0J400400D01*
G01*
G37*
G36*
G01*
X142389200Y-90510400D02*
X142389200Y-84209600D01*
G75*
G02*
X142789600Y-83809200I400400J0D01*
G01*
X143590400Y-83809200D01*
G75*
G02*
X143990800Y-84209600I0J-400400D01*
G01*
X143990800Y-90510400D01*
G75*
G02*
X143590400Y-90910800I-400400J0D01*
G01*
X142789600Y-90910800D01*
G75*
G02*
X142389200Y-90510400I0J400400D01*
G01*
G37*
G36*
G01*
X144389200Y-90510400D02*
X144389200Y-84209600D01*
G75*
G02*
X144789600Y-83809200I400400J0D01*
G01*
X145590400Y-83809200D01*
G75*
G02*
X145990800Y-84209600I0J-400400D01*
G01*
X145990800Y-90510400D01*
G75*
G02*
X145590400Y-90910800I-400400J0D01*
G01*
X144789600Y-90910800D01*
G75*
G02*
X144389200Y-90510400I0J400400D01*
G01*
G37*
G36*
G01*
X146389200Y-90510400D02*
X146389200Y-84209600D01*
G75*
G02*
X146789600Y-83809200I400400J0D01*
G01*
X147590400Y-83809200D01*
G75*
G02*
X147990800Y-84209600I0J-400400D01*
G01*
X147990800Y-90510400D01*
G75*
G02*
X147590400Y-90910800I-400400J0D01*
G01*
X146789600Y-90910800D01*
G75*
G02*
X146389200Y-90510400I0J400400D01*
G01*
G37*
G36*
G01*
X148389200Y-90510400D02*
X148389200Y-84209600D01*
G75*
G02*
X148789600Y-83809200I400400J0D01*
G01*
X149590400Y-83809200D01*
G75*
G02*
X149990800Y-84209600I0J-400400D01*
G01*
X149990800Y-90510400D01*
G75*
G02*
X149590400Y-90910800I-400400J0D01*
G01*
X148789600Y-90910800D01*
G75*
G02*
X148389200Y-90510400I0J400400D01*
G01*
G37*
G36*
G01*
X150389200Y-90510400D02*
X150389200Y-84209600D01*
G75*
G02*
X150789600Y-83809200I400400J0D01*
G01*
X151590400Y-83809200D01*
G75*
G02*
X151990800Y-84209600I0J-400400D01*
G01*
X151990800Y-90510400D01*
G75*
G02*
X151590400Y-90910800I-400400J0D01*
G01*
X150789600Y-90910800D01*
G75*
G02*
X150389200Y-90510400I0J400400D01*
G01*
G37*
D15*
G36*
X142230089Y-82459824D02*
G01*
X142220560Y-82456933D01*
X142211777Y-82452239D01*
X142204079Y-82445921D01*
X142197761Y-82438223D01*
X142193067Y-82429440D01*
X142190176Y-82419911D01*
X142189200Y-82410000D01*
X142189200Y-80910000D01*
X142190176Y-80900089D01*
X142193067Y-80890560D01*
X142197761Y-80881777D01*
X142204079Y-80874079D01*
X142211777Y-80867761D01*
X142220560Y-80863067D01*
X142230089Y-80860176D01*
X142240000Y-80859200D01*
X142790000Y-80859200D01*
X142796113Y-80859802D01*
X142814534Y-80859802D01*
X142819514Y-80860047D01*
X142868345Y-80864857D01*
X142873275Y-80865588D01*
X142921400Y-80875160D01*
X142926237Y-80876372D01*
X142973192Y-80890616D01*
X142977885Y-80892295D01*
X143023218Y-80911072D01*
X143027726Y-80913204D01*
X143070999Y-80936335D01*
X143075273Y-80938897D01*
X143116072Y-80966157D01*
X143120077Y-80969127D01*
X143158006Y-81000255D01*
X143161700Y-81003603D01*
X143196397Y-81038300D01*
X143199745Y-81041994D01*
X143230873Y-81079923D01*
X143233843Y-81083928D01*
X143261103Y-81124727D01*
X143263665Y-81129001D01*
X143286796Y-81172274D01*
X143288928Y-81176782D01*
X143307705Y-81222115D01*
X143309384Y-81226808D01*
X143323628Y-81273763D01*
X143324840Y-81278600D01*
X143334412Y-81326725D01*
X143335143Y-81331655D01*
X143339953Y-81380486D01*
X143340198Y-81385466D01*
X143340198Y-81403887D01*
X143340800Y-81410000D01*
X143340800Y-81910000D01*
X143340198Y-81916113D01*
X143340198Y-81934534D01*
X143339953Y-81939514D01*
X143335143Y-81988345D01*
X143334412Y-81993275D01*
X143324840Y-82041400D01*
X143323628Y-82046237D01*
X143309384Y-82093192D01*
X143307705Y-82097885D01*
X143288928Y-82143218D01*
X143286796Y-82147726D01*
X143263665Y-82190999D01*
X143261103Y-82195273D01*
X143233843Y-82236072D01*
X143230873Y-82240077D01*
X143199745Y-82278006D01*
X143196397Y-82281700D01*
X143161700Y-82316397D01*
X143158006Y-82319745D01*
X143120077Y-82350873D01*
X143116072Y-82353843D01*
X143075273Y-82381103D01*
X143070999Y-82383665D01*
X143027726Y-82406796D01*
X143023218Y-82408928D01*
X142977885Y-82427705D01*
X142973192Y-82429384D01*
X142926237Y-82443628D01*
X142921400Y-82444840D01*
X142873275Y-82454412D01*
X142868345Y-82455143D01*
X142819514Y-82459953D01*
X142814534Y-82460198D01*
X142796113Y-82460198D01*
X142790000Y-82460800D01*
X142240000Y-82460800D01*
X142230089Y-82459824D01*
G37*
G36*
X140183887Y-82460198D02*
G01*
X140165466Y-82460198D01*
X140160486Y-82459953D01*
X140111655Y-82455143D01*
X140106725Y-82454412D01*
X140058600Y-82444840D01*
X140053763Y-82443628D01*
X140006808Y-82429384D01*
X140002115Y-82427705D01*
X139956782Y-82408928D01*
X139952274Y-82406796D01*
X139909001Y-82383665D01*
X139904727Y-82381103D01*
X139863928Y-82353843D01*
X139859923Y-82350873D01*
X139821994Y-82319745D01*
X139818300Y-82316397D01*
X139783603Y-82281700D01*
X139780255Y-82278006D01*
X139749127Y-82240077D01*
X139746157Y-82236072D01*
X139718897Y-82195273D01*
X139716335Y-82190999D01*
X139693204Y-82147726D01*
X139691072Y-82143218D01*
X139672295Y-82097885D01*
X139670616Y-82093192D01*
X139656372Y-82046237D01*
X139655160Y-82041400D01*
X139645588Y-81993275D01*
X139644857Y-81988345D01*
X139640047Y-81939514D01*
X139639802Y-81934534D01*
X139639802Y-81916113D01*
X139639200Y-81910000D01*
X139639200Y-81410000D01*
X139639802Y-81403887D01*
X139639802Y-81385466D01*
X139640047Y-81380486D01*
X139644857Y-81331655D01*
X139645588Y-81326725D01*
X139655160Y-81278600D01*
X139656372Y-81273763D01*
X139670616Y-81226808D01*
X139672295Y-81222115D01*
X139691072Y-81176782D01*
X139693204Y-81172274D01*
X139716335Y-81129001D01*
X139718897Y-81124727D01*
X139746157Y-81083928D01*
X139749127Y-81079923D01*
X139780255Y-81041994D01*
X139783603Y-81038300D01*
X139818300Y-81003603D01*
X139821994Y-81000255D01*
X139859923Y-80969127D01*
X139863928Y-80966157D01*
X139904727Y-80938897D01*
X139909001Y-80936335D01*
X139952274Y-80913204D01*
X139956782Y-80911072D01*
X140002115Y-80892295D01*
X140006808Y-80890616D01*
X140053763Y-80876372D01*
X140058600Y-80875160D01*
X140106725Y-80865588D01*
X140111655Y-80864857D01*
X140160486Y-80860047D01*
X140165466Y-80859802D01*
X140183887Y-80859802D01*
X140190000Y-80859200D01*
X140740000Y-80859200D01*
X140749911Y-80860176D01*
X140759440Y-80863067D01*
X140768223Y-80867761D01*
X140775921Y-80874079D01*
X140782239Y-80881777D01*
X140786933Y-80890560D01*
X140789824Y-80900089D01*
X140790800Y-80910000D01*
X140790800Y-82410000D01*
X140789824Y-82419911D01*
X140786933Y-82429440D01*
X140782239Y-82438223D01*
X140775921Y-82445921D01*
X140768223Y-82452239D01*
X140759440Y-82456933D01*
X140749911Y-82459824D01*
X140740000Y-82460800D01*
X140190000Y-82460800D01*
X140183887Y-82460198D01*
G37*
G36*
G01*
X142040800Y-80910000D02*
X142040800Y-82410000D01*
G75*
G02*
X141990000Y-82460800I-50800J0D01*
G01*
X140990000Y-82460800D01*
G75*
G02*
X140939200Y-82410000I0J50800D01*
G01*
X140939200Y-80910000D01*
G75*
G02*
X140990000Y-80859200I50800J0D01*
G01*
X141990000Y-80859200D01*
G75*
G02*
X142040800Y-80910000I0J-50800D01*
G01*
G37*
G36*
X140196113Y-80859802D02*
G01*
X140214534Y-80859802D01*
X140219514Y-80860047D01*
X140268345Y-80864857D01*
X140273275Y-80865588D01*
X140321400Y-80875160D01*
X140326237Y-80876372D01*
X140373192Y-80890616D01*
X140377885Y-80892295D01*
X140423218Y-80911072D01*
X140427726Y-80913204D01*
X140470999Y-80936335D01*
X140475273Y-80938897D01*
X140516072Y-80966157D01*
X140520077Y-80969127D01*
X140558006Y-81000255D01*
X140561700Y-81003603D01*
X140596397Y-81038300D01*
X140599745Y-81041994D01*
X140630873Y-81079923D01*
X140633843Y-81083928D01*
X140661103Y-81124727D01*
X140663665Y-81129001D01*
X140686796Y-81172274D01*
X140688928Y-81176782D01*
X140707705Y-81222115D01*
X140709384Y-81226808D01*
X140723628Y-81273763D01*
X140724840Y-81278600D01*
X140734412Y-81326725D01*
X140735143Y-81331655D01*
X140739953Y-81380486D01*
X140740198Y-81385466D01*
X140740198Y-81403887D01*
X140740800Y-81410000D01*
X140740800Y-81910000D01*
X140740198Y-81916113D01*
X140740198Y-81934534D01*
X140739953Y-81939514D01*
X140735143Y-81988345D01*
X140734412Y-81993275D01*
X140724840Y-82041400D01*
X140723628Y-82046237D01*
X140709384Y-82093192D01*
X140707705Y-82097885D01*
X140688928Y-82143218D01*
X140686796Y-82147726D01*
X140663665Y-82190999D01*
X140661103Y-82195273D01*
X140633843Y-82236072D01*
X140630873Y-82240077D01*
X140599745Y-82278006D01*
X140596397Y-82281700D01*
X140561700Y-82316397D01*
X140558006Y-82319745D01*
X140520077Y-82350873D01*
X140516072Y-82353843D01*
X140475273Y-82381103D01*
X140470999Y-82383665D01*
X140427726Y-82406796D01*
X140423218Y-82408928D01*
X140377885Y-82427705D01*
X140373192Y-82429384D01*
X140326237Y-82443628D01*
X140321400Y-82444840D01*
X140273275Y-82454412D01*
X140268345Y-82455143D01*
X140219514Y-82459953D01*
X140214534Y-82460198D01*
X140196113Y-82460198D01*
X140190000Y-82460800D01*
X139640000Y-82460800D01*
X139630089Y-82459824D01*
X139620560Y-82456933D01*
X139611777Y-82452239D01*
X139604079Y-82445921D01*
X139597761Y-82438223D01*
X139593067Y-82429440D01*
X139590176Y-82419911D01*
X139589200Y-82410000D01*
X139589200Y-80910000D01*
X139590176Y-80900089D01*
X139593067Y-80890560D01*
X139597761Y-80881777D01*
X139604079Y-80874079D01*
X139611777Y-80867761D01*
X139620560Y-80863067D01*
X139630089Y-80860176D01*
X139640000Y-80859200D01*
X140190000Y-80859200D01*
X140196113Y-80859802D01*
G37*
G36*
G01*
X138339200Y-82410000D02*
X138339200Y-80910000D01*
G75*
G02*
X138390000Y-80859200I50800J0D01*
G01*
X139390000Y-80859200D01*
G75*
G02*
X139440800Y-80910000I0J-50800D01*
G01*
X139440800Y-82410000D01*
G75*
G02*
X139390000Y-82460800I-50800J0D01*
G01*
X138390000Y-82460800D01*
G75*
G02*
X138339200Y-82410000I0J50800D01*
G01*
G37*
G36*
X138149911Y-80860176D02*
G01*
X138159440Y-80863067D01*
X138168223Y-80867761D01*
X138175921Y-80874079D01*
X138182239Y-80881777D01*
X138186933Y-80890560D01*
X138189824Y-80900089D01*
X138190800Y-80910000D01*
X138190800Y-82410000D01*
X138189824Y-82419911D01*
X138186933Y-82429440D01*
X138182239Y-82438223D01*
X138175921Y-82445921D01*
X138168223Y-82452239D01*
X138159440Y-82456933D01*
X138149911Y-82459824D01*
X138140000Y-82460800D01*
X137590000Y-82460800D01*
X137583887Y-82460198D01*
X137565466Y-82460198D01*
X137560486Y-82459953D01*
X137511655Y-82455143D01*
X137506725Y-82454412D01*
X137458600Y-82444840D01*
X137453763Y-82443628D01*
X137406808Y-82429384D01*
X137402115Y-82427705D01*
X137356782Y-82408928D01*
X137352274Y-82406796D01*
X137309001Y-82383665D01*
X137304727Y-82381103D01*
X137263928Y-82353843D01*
X137259923Y-82350873D01*
X137221994Y-82319745D01*
X137218300Y-82316397D01*
X137183603Y-82281700D01*
X137180255Y-82278006D01*
X137149127Y-82240077D01*
X137146157Y-82236072D01*
X137118897Y-82195273D01*
X137116335Y-82190999D01*
X137093204Y-82147726D01*
X137091072Y-82143218D01*
X137072295Y-82097885D01*
X137070616Y-82093192D01*
X137056372Y-82046237D01*
X137055160Y-82041400D01*
X137045588Y-81993275D01*
X137044857Y-81988345D01*
X137040047Y-81939514D01*
X137039802Y-81934534D01*
X137039802Y-81916113D01*
X137039200Y-81910000D01*
X137039200Y-81410000D01*
X137039802Y-81403887D01*
X137039802Y-81385466D01*
X137040047Y-81380486D01*
X137044857Y-81331655D01*
X137045588Y-81326725D01*
X137055160Y-81278600D01*
X137056372Y-81273763D01*
X137070616Y-81226808D01*
X137072295Y-81222115D01*
X137091072Y-81176782D01*
X137093204Y-81172274D01*
X137116335Y-81129001D01*
X137118897Y-81124727D01*
X137146157Y-81083928D01*
X137149127Y-81079923D01*
X137180255Y-81041994D01*
X137183603Y-81038300D01*
X137218300Y-81003603D01*
X137221994Y-81000255D01*
X137259923Y-80969127D01*
X137263928Y-80966157D01*
X137304727Y-80938897D01*
X137309001Y-80936335D01*
X137352274Y-80913204D01*
X137356782Y-80911072D01*
X137402115Y-80892295D01*
X137406808Y-80890616D01*
X137453763Y-80876372D01*
X137458600Y-80875160D01*
X137506725Y-80865588D01*
X137511655Y-80864857D01*
X137560486Y-80860047D01*
X137565466Y-80859802D01*
X137583887Y-80859802D01*
X137590000Y-80859200D01*
X138140000Y-80859200D01*
X138149911Y-80860176D01*
G37*
M02*
