G04 #@! TF.GenerationSoftware,KiCad,Pcbnew,(5.1.10-1-10_14)*
G04 #@! TF.CreationDate,2021-10-23T21:51:13-04:00*
G04 #@! TF.ProjectId,WiiComp,57696943-6f6d-4702-9e6b-696361645f70,1*
G04 #@! TF.SameCoordinates,Original*
G04 #@! TF.FileFunction,Copper,L2,Bot*
G04 #@! TF.FilePolarity,Positive*
%FSLAX46Y46*%
G04 Gerber Fmt 4.6, Leading zero omitted, Abs format (unit mm)*
G04 Created by KiCad (PCBNEW (5.1.10-1-10_14)) date 2021-10-23 21:51:13*
%MOMM*%
%LPD*%
G01*
G04 APERTURE LIST*
G04 #@! TA.AperFunction,ViaPad*
%ADD10C,0.700000*%
G04 #@! TD*
G04 #@! TA.AperFunction,Conductor*
%ADD11C,0.250000*%
G04 #@! TD*
G04 #@! TA.AperFunction,Conductor*
%ADD12C,0.160000*%
G04 #@! TD*
G04 #@! TA.AperFunction,Conductor*
%ADD13C,0.152400*%
G04 #@! TD*
G04 #@! TA.AperFunction,Conductor*
%ADD14C,0.025400*%
G04 #@! TD*
G04 APERTURE END LIST*
G04 #@! TA.AperFunction,ConnectorPad*
G36*
G01*
X150345000Y-82275000D02*
X150345000Y-81525000D01*
G75*
G02*
X150720000Y-81150000I375000J0D01*
G01*
X151470000Y-81150000D01*
G75*
G02*
X151845000Y-81525000I0J-375000D01*
G01*
X151845000Y-82275000D01*
G75*
G02*
X151470000Y-82650000I-375000J0D01*
G01*
X150720000Y-82650000D01*
G75*
G02*
X150345000Y-82275000I0J375000D01*
G01*
G37*
G04 #@! TD.AperFunction*
G04 #@! TA.AperFunction,ConnectorPad*
G36*
G01*
X148085000Y-82275000D02*
X148085000Y-81525000D01*
G75*
G02*
X148460000Y-81150000I375000J0D01*
G01*
X149210000Y-81150000D01*
G75*
G02*
X149585000Y-81525000I0J-375000D01*
G01*
X149585000Y-82275000D01*
G75*
G02*
X149210000Y-82650000I-375000J0D01*
G01*
X148460000Y-82650000D01*
G75*
G02*
X148085000Y-82275000I0J375000D01*
G01*
G37*
G04 #@! TD.AperFunction*
G04 #@! TA.AperFunction,ConnectorPad*
G36*
G01*
X145825000Y-82275000D02*
X145825000Y-81525000D01*
G75*
G02*
X146200000Y-81150000I375000J0D01*
G01*
X146950000Y-81150000D01*
G75*
G02*
X147325000Y-81525000I0J-375000D01*
G01*
X147325000Y-82275000D01*
G75*
G02*
X146950000Y-82650000I-375000J0D01*
G01*
X146200000Y-82650000D01*
G75*
G02*
X145825000Y-82275000I0J375000D01*
G01*
G37*
G04 #@! TD.AperFunction*
G04 #@! TA.AperFunction,ConnectorPad*
G36*
G01*
X141035000Y-82275000D02*
X141035000Y-81525000D01*
G75*
G02*
X141410000Y-81150000I375000J0D01*
G01*
X142160000Y-81150000D01*
G75*
G02*
X142535000Y-81525000I0J-375000D01*
G01*
X142535000Y-82275000D01*
G75*
G02*
X142160000Y-82650000I-375000J0D01*
G01*
X141410000Y-82650000D01*
G75*
G02*
X141035000Y-82275000I0J375000D01*
G01*
G37*
G04 #@! TD.AperFunction*
G04 #@! TA.AperFunction,ConnectorPad*
G36*
G01*
X138790000Y-82275000D02*
X138790000Y-81525000D01*
G75*
G02*
X139165000Y-81150000I375000J0D01*
G01*
X139915000Y-81150000D01*
G75*
G02*
X140290000Y-81525000I0J-375000D01*
G01*
X140290000Y-82275000D01*
G75*
G02*
X139915000Y-82650000I-375000J0D01*
G01*
X139165000Y-82650000D01*
G75*
G02*
X138790000Y-82275000I0J375000D01*
G01*
G37*
G04 #@! TD.AperFunction*
G04 #@! TA.AperFunction,ConnectorPad*
G36*
G01*
X136545000Y-82275000D02*
X136545000Y-81525000D01*
G75*
G02*
X136920000Y-81150000I375000J0D01*
G01*
X137670000Y-81150000D01*
G75*
G02*
X138045000Y-81525000I0J-375000D01*
G01*
X138045000Y-82275000D01*
G75*
G02*
X137670000Y-82650000I-375000J0D01*
G01*
X136920000Y-82650000D01*
G75*
G02*
X136545000Y-82275000I0J375000D01*
G01*
G37*
G04 #@! TD.AperFunction*
G04 #@! TA.AperFunction,SMDPad,CuDef*
G36*
G01*
X136440000Y-90485000D02*
X136440000Y-84235000D01*
G75*
G02*
X136815000Y-83860000I375000J0D01*
G01*
X137565000Y-83860000D01*
G75*
G02*
X137940000Y-84235000I0J-375000D01*
G01*
X137940000Y-90485000D01*
G75*
G02*
X137565000Y-90860000I-375000J0D01*
G01*
X136815000Y-90860000D01*
G75*
G02*
X136440000Y-90485000I0J375000D01*
G01*
G37*
G04 #@! TD.AperFunction*
G04 #@! TA.AperFunction,SMDPad,CuDef*
G36*
G01*
X138440000Y-90485000D02*
X138440000Y-84235000D01*
G75*
G02*
X138815000Y-83860000I375000J0D01*
G01*
X139565000Y-83860000D01*
G75*
G02*
X139940000Y-84235000I0J-375000D01*
G01*
X139940000Y-90485000D01*
G75*
G02*
X139565000Y-90860000I-375000J0D01*
G01*
X138815000Y-90860000D01*
G75*
G02*
X138440000Y-90485000I0J375000D01*
G01*
G37*
G04 #@! TD.AperFunction*
G04 #@! TA.AperFunction,SMDPad,CuDef*
G36*
G01*
X140440000Y-90485000D02*
X140440000Y-84235000D01*
G75*
G02*
X140815000Y-83860000I375000J0D01*
G01*
X141565000Y-83860000D01*
G75*
G02*
X141940000Y-84235000I0J-375000D01*
G01*
X141940000Y-90485000D01*
G75*
G02*
X141565000Y-90860000I-375000J0D01*
G01*
X140815000Y-90860000D01*
G75*
G02*
X140440000Y-90485000I0J375000D01*
G01*
G37*
G04 #@! TD.AperFunction*
G04 #@! TA.AperFunction,SMDPad,CuDef*
G36*
G01*
X142440000Y-90485000D02*
X142440000Y-84235000D01*
G75*
G02*
X142815000Y-83860000I375000J0D01*
G01*
X143565000Y-83860000D01*
G75*
G02*
X143940000Y-84235000I0J-375000D01*
G01*
X143940000Y-90485000D01*
G75*
G02*
X143565000Y-90860000I-375000J0D01*
G01*
X142815000Y-90860000D01*
G75*
G02*
X142440000Y-90485000I0J375000D01*
G01*
G37*
G04 #@! TD.AperFunction*
G04 #@! TA.AperFunction,SMDPad,CuDef*
G36*
G01*
X144440000Y-90485000D02*
X144440000Y-84235000D01*
G75*
G02*
X144815000Y-83860000I375000J0D01*
G01*
X145565000Y-83860000D01*
G75*
G02*
X145940000Y-84235000I0J-375000D01*
G01*
X145940000Y-90485000D01*
G75*
G02*
X145565000Y-90860000I-375000J0D01*
G01*
X144815000Y-90860000D01*
G75*
G02*
X144440000Y-90485000I0J375000D01*
G01*
G37*
G04 #@! TD.AperFunction*
G04 #@! TA.AperFunction,SMDPad,CuDef*
G36*
G01*
X146440000Y-90485000D02*
X146440000Y-84235000D01*
G75*
G02*
X146815000Y-83860000I375000J0D01*
G01*
X147565000Y-83860000D01*
G75*
G02*
X147940000Y-84235000I0J-375000D01*
G01*
X147940000Y-90485000D01*
G75*
G02*
X147565000Y-90860000I-375000J0D01*
G01*
X146815000Y-90860000D01*
G75*
G02*
X146440000Y-90485000I0J375000D01*
G01*
G37*
G04 #@! TD.AperFunction*
G04 #@! TA.AperFunction,SMDPad,CuDef*
G36*
G01*
X148440000Y-90485000D02*
X148440000Y-84235000D01*
G75*
G02*
X148815000Y-83860000I375000J0D01*
G01*
X149565000Y-83860000D01*
G75*
G02*
X149940000Y-84235000I0J-375000D01*
G01*
X149940000Y-90485000D01*
G75*
G02*
X149565000Y-90860000I-375000J0D01*
G01*
X148815000Y-90860000D01*
G75*
G02*
X148440000Y-90485000I0J375000D01*
G01*
G37*
G04 #@! TD.AperFunction*
G04 #@! TA.AperFunction,SMDPad,CuDef*
G36*
G01*
X150440000Y-90485000D02*
X150440000Y-84235000D01*
G75*
G02*
X150815000Y-83860000I375000J0D01*
G01*
X151565000Y-83860000D01*
G75*
G02*
X151940000Y-84235000I0J-375000D01*
G01*
X151940000Y-90485000D01*
G75*
G02*
X151565000Y-90860000I-375000J0D01*
G01*
X150815000Y-90860000D01*
G75*
G02*
X150440000Y-90485000I0J375000D01*
G01*
G37*
G04 #@! TD.AperFunction*
D10*
X146070000Y-79500000D03*
X139320000Y-79300000D03*
X149960000Y-83200000D03*
X138260000Y-83250000D03*
X136630000Y-78690000D03*
X149250000Y-80020000D03*
X147300000Y-79999998D03*
X140560000Y-76350000D03*
X138540000Y-80170000D03*
X147830000Y-76350000D03*
X141810000Y-80159998D03*
X142980000Y-76340000D03*
X140200000Y-80160008D03*
D11*
X137190000Y-83250000D02*
X137190000Y-87010000D01*
X137280000Y-83160000D02*
X137190000Y-83250000D01*
X137280000Y-81900000D02*
X137280000Y-83160000D01*
X141190000Y-87220000D02*
X141190000Y-83590000D01*
X147190000Y-87360000D02*
X147190000Y-83660000D01*
X148820000Y-81900000D02*
X148820000Y-80450000D01*
X148820000Y-80450000D02*
X149250000Y-80020000D01*
X148409998Y-78890000D02*
X147300000Y-79999998D01*
X150060000Y-78890000D02*
X148409998Y-78890000D01*
X151095000Y-79925000D02*
X150060000Y-78890000D01*
X151095000Y-81900000D02*
X151095000Y-79925000D01*
X139540000Y-83080000D02*
X139160000Y-83460000D01*
X139160000Y-83460000D02*
X139160000Y-87320000D01*
X139540000Y-81900000D02*
X139540000Y-83080000D01*
X138540000Y-78520000D02*
X138540000Y-80170000D01*
X140560000Y-76500000D02*
X138540000Y-78520000D01*
X140560000Y-76270000D02*
X140560000Y-76500000D01*
X145350000Y-76270000D02*
X141810000Y-79810000D01*
X141810000Y-79810000D02*
X141810000Y-80159998D01*
X147830000Y-76270000D02*
X145350000Y-76270000D01*
X140200000Y-79200000D02*
X140200000Y-80160008D01*
X142980000Y-76420000D02*
X140200000Y-79200000D01*
X142980000Y-76340000D02*
X142980000Y-76420000D01*
D12*
X152150001Y-84040000D02*
X152146634Y-84040000D01*
X152134259Y-83999205D01*
X152077319Y-83892679D01*
X152000692Y-83799308D01*
X151907321Y-83722681D01*
X151800795Y-83665741D01*
X151685207Y-83630678D01*
X151565000Y-83618839D01*
X150815000Y-83618839D01*
X150694793Y-83630678D01*
X150579205Y-83665741D01*
X150472679Y-83722681D01*
X150379308Y-83799308D01*
X150302681Y-83892679D01*
X150245741Y-83999205D01*
X150233366Y-84040000D01*
X150146634Y-84040000D01*
X150134259Y-83999205D01*
X150077319Y-83892679D01*
X150000692Y-83799308D01*
X149907321Y-83722681D01*
X149800795Y-83665741D01*
X149685207Y-83630678D01*
X149565000Y-83618839D01*
X148815000Y-83618839D01*
X148694793Y-83630678D01*
X148579205Y-83665741D01*
X148472679Y-83722681D01*
X148379308Y-83799308D01*
X148302681Y-83892679D01*
X148245741Y-83999205D01*
X148233366Y-84040000D01*
X146146634Y-84040000D01*
X146134259Y-83999205D01*
X146077319Y-83892679D01*
X146000692Y-83799308D01*
X145907321Y-83722681D01*
X145800795Y-83665741D01*
X145685207Y-83630678D01*
X145565000Y-83618839D01*
X144815000Y-83618839D01*
X144694793Y-83630678D01*
X144579205Y-83665741D01*
X144472679Y-83722681D01*
X144379308Y-83799308D01*
X144302681Y-83892679D01*
X144245741Y-83999205D01*
X144233366Y-84040000D01*
X144146634Y-84040000D01*
X144134259Y-83999205D01*
X144077319Y-83892679D01*
X144000692Y-83799308D01*
X143907321Y-83722681D01*
X143800795Y-83665741D01*
X143685207Y-83630678D01*
X143565000Y-83618839D01*
X142815000Y-83618839D01*
X142694793Y-83630678D01*
X142579205Y-83665741D01*
X142472679Y-83722681D01*
X142379308Y-83799308D01*
X142302681Y-83892679D01*
X142245741Y-83999205D01*
X142233366Y-84040000D01*
X140146634Y-84040000D01*
X140134259Y-83999205D01*
X140077319Y-83892679D01*
X140000692Y-83799308D01*
X139907321Y-83722681D01*
X139800795Y-83665741D01*
X139685207Y-83630678D01*
X139565000Y-83618839D01*
X139525000Y-83618839D01*
X139525000Y-83611187D01*
X139785408Y-83350779D01*
X139799343Y-83339343D01*
X139844955Y-83283764D01*
X139878848Y-83220355D01*
X139899719Y-83151552D01*
X139905000Y-83097931D01*
X139905000Y-83097930D01*
X139906766Y-83080001D01*
X139905000Y-83062072D01*
X139905000Y-82891161D01*
X139915000Y-82891161D01*
X140035207Y-82879322D01*
X140150795Y-82844259D01*
X140257321Y-82787319D01*
X140350692Y-82710692D01*
X140427319Y-82617321D01*
X140484259Y-82510795D01*
X140519322Y-82395207D01*
X140531161Y-82275000D01*
X140531161Y-81525000D01*
X140793839Y-81525000D01*
X140793839Y-82275000D01*
X140805678Y-82395207D01*
X140840741Y-82510795D01*
X140897681Y-82617321D01*
X140974308Y-82710692D01*
X141067679Y-82787319D01*
X141174205Y-82844259D01*
X141289793Y-82879322D01*
X141410000Y-82891161D01*
X142160000Y-82891161D01*
X142280207Y-82879322D01*
X142395795Y-82844259D01*
X142502321Y-82787319D01*
X142595692Y-82710692D01*
X142672319Y-82617321D01*
X142729259Y-82510795D01*
X142764322Y-82395207D01*
X142776161Y-82275000D01*
X142776161Y-81525000D01*
X142764322Y-81404793D01*
X142729259Y-81289205D01*
X142672319Y-81182679D01*
X142595692Y-81089308D01*
X142502321Y-81012681D01*
X142395795Y-80955741D01*
X142280207Y-80920678D01*
X142160000Y-80908839D01*
X141410000Y-80908839D01*
X141289793Y-80920678D01*
X141174205Y-80955741D01*
X141067679Y-81012681D01*
X140974308Y-81089308D01*
X140897681Y-81182679D01*
X140840741Y-81289205D01*
X140805678Y-81404793D01*
X140793839Y-81525000D01*
X140531161Y-81525000D01*
X140519322Y-81404793D01*
X140484259Y-81289205D01*
X140427319Y-81182679D01*
X140350692Y-81089308D01*
X140257321Y-81012681D01*
X140150795Y-80955741D01*
X140035207Y-80920678D01*
X139915000Y-80908839D01*
X139165000Y-80908839D01*
X139044793Y-80920678D01*
X138929205Y-80955741D01*
X138822679Y-81012681D01*
X138729308Y-81089308D01*
X138652681Y-81182679D01*
X138595741Y-81289205D01*
X138560678Y-81404793D01*
X138548839Y-81525000D01*
X138548839Y-82275000D01*
X138560678Y-82395207D01*
X138595741Y-82510795D01*
X138652681Y-82617321D01*
X138729308Y-82710692D01*
X138822679Y-82787319D01*
X138929205Y-82844259D01*
X139044793Y-82879322D01*
X139165000Y-82891161D01*
X139175001Y-82891161D01*
X139175001Y-82928812D01*
X138914588Y-83189225D01*
X138900657Y-83200658D01*
X138855045Y-83256237D01*
X138821152Y-83319646D01*
X138800281Y-83388449D01*
X138795232Y-83439719D01*
X138793234Y-83460000D01*
X138795000Y-83477929D01*
X138795000Y-83620809D01*
X138694793Y-83630678D01*
X138579205Y-83665741D01*
X138472679Y-83722681D01*
X138379308Y-83799308D01*
X138302681Y-83892679D01*
X138245741Y-83999205D01*
X138233366Y-84040000D01*
X138146634Y-84040000D01*
X138134259Y-83999205D01*
X138077319Y-83892679D01*
X138000692Y-83799308D01*
X137907321Y-83722681D01*
X137800795Y-83665741D01*
X137685207Y-83630678D01*
X137565000Y-83618839D01*
X137555000Y-83618839D01*
X137555000Y-83400265D01*
X137584955Y-83363764D01*
X137618848Y-83300355D01*
X137639719Y-83231552D01*
X137645000Y-83177931D01*
X137645000Y-83177930D01*
X137646766Y-83160001D01*
X137645000Y-83142072D01*
X137645000Y-82891161D01*
X137670000Y-82891161D01*
X137790207Y-82879322D01*
X137905795Y-82844259D01*
X138012321Y-82787319D01*
X138105692Y-82710692D01*
X138182319Y-82617321D01*
X138239259Y-82510795D01*
X138274322Y-82395207D01*
X138286161Y-82275000D01*
X138286161Y-81525000D01*
X138274322Y-81404793D01*
X138239259Y-81289205D01*
X138182319Y-81182679D01*
X138105692Y-81089308D01*
X138012321Y-81012681D01*
X137905795Y-80955741D01*
X137790207Y-80920678D01*
X137670000Y-80908839D01*
X136920000Y-80908839D01*
X136799793Y-80920678D01*
X136684205Y-80955741D01*
X136577679Y-81012681D01*
X136484308Y-81089308D01*
X136407681Y-81182679D01*
X136350741Y-81289205D01*
X136315678Y-81404793D01*
X136303839Y-81525000D01*
X136303839Y-82275000D01*
X136315678Y-82395207D01*
X136350741Y-82510795D01*
X136407681Y-82617321D01*
X136484308Y-82710692D01*
X136577679Y-82787319D01*
X136684205Y-82844259D01*
X136799793Y-82879322D01*
X136915001Y-82890669D01*
X136915001Y-83009735D01*
X136885045Y-83046237D01*
X136851152Y-83109646D01*
X136830281Y-83178449D01*
X136828094Y-83200657D01*
X136823234Y-83250000D01*
X136825000Y-83267929D01*
X136825000Y-83618839D01*
X136815000Y-83618839D01*
X136694793Y-83630678D01*
X136579205Y-83665741D01*
X136472679Y-83722681D01*
X136379308Y-83799308D01*
X136302681Y-83892679D01*
X136245741Y-83999205D01*
X136233366Y-84040000D01*
X136220000Y-84040000D01*
X136220000Y-80111890D01*
X137950000Y-80111890D01*
X137950000Y-80228110D01*
X137972673Y-80342097D01*
X138017149Y-80449470D01*
X138081717Y-80546103D01*
X138163897Y-80628283D01*
X138260530Y-80692851D01*
X138367903Y-80737327D01*
X138481890Y-80760000D01*
X138598110Y-80760000D01*
X138712097Y-80737327D01*
X138819470Y-80692851D01*
X138916103Y-80628283D01*
X138998283Y-80546103D01*
X139062851Y-80449470D01*
X139107327Y-80342097D01*
X139130000Y-80228110D01*
X139130000Y-80111890D01*
X139128013Y-80101898D01*
X139610000Y-80101898D01*
X139610000Y-80218118D01*
X139632673Y-80332105D01*
X139677149Y-80439478D01*
X139741717Y-80536111D01*
X139823897Y-80618291D01*
X139920530Y-80682859D01*
X140027903Y-80727335D01*
X140141890Y-80750008D01*
X140258110Y-80750008D01*
X140372097Y-80727335D01*
X140479470Y-80682859D01*
X140576103Y-80618291D01*
X140658283Y-80536111D01*
X140722851Y-80439478D01*
X140767327Y-80332105D01*
X140790000Y-80218118D01*
X140790000Y-80101898D01*
X140789999Y-80101888D01*
X141220000Y-80101888D01*
X141220000Y-80218108D01*
X141242673Y-80332095D01*
X141287149Y-80439468D01*
X141351717Y-80536101D01*
X141433897Y-80618281D01*
X141530530Y-80682849D01*
X141637903Y-80727325D01*
X141751890Y-80749998D01*
X141868110Y-80749998D01*
X141982097Y-80727325D01*
X142089470Y-80682849D01*
X142186103Y-80618281D01*
X142268283Y-80536101D01*
X142332851Y-80439468D01*
X142377327Y-80332095D01*
X142389716Y-80269810D01*
X142868162Y-80269810D01*
X142868162Y-80530190D01*
X142918959Y-80785566D01*
X143018602Y-81026125D01*
X143163261Y-81242623D01*
X143347377Y-81426739D01*
X143563875Y-81571398D01*
X143804434Y-81671041D01*
X144059810Y-81721838D01*
X144320190Y-81721838D01*
X144575566Y-81671041D01*
X144816125Y-81571398D01*
X144885564Y-81525000D01*
X147843839Y-81525000D01*
X147843839Y-82275000D01*
X147855678Y-82395207D01*
X147890741Y-82510795D01*
X147947681Y-82617321D01*
X148024308Y-82710692D01*
X148117679Y-82787319D01*
X148224205Y-82844259D01*
X148339793Y-82879322D01*
X148460000Y-82891161D01*
X149210000Y-82891161D01*
X149330207Y-82879322D01*
X149445795Y-82844259D01*
X149552321Y-82787319D01*
X149645692Y-82710692D01*
X149722319Y-82617321D01*
X149779259Y-82510795D01*
X149814322Y-82395207D01*
X149826161Y-82275000D01*
X149826161Y-81525000D01*
X149814322Y-81404793D01*
X149779259Y-81289205D01*
X149722319Y-81182679D01*
X149645692Y-81089308D01*
X149552321Y-81012681D01*
X149445795Y-80955741D01*
X149330207Y-80920678D01*
X149210000Y-80908839D01*
X149185000Y-80908839D01*
X149185000Y-80617162D01*
X149204262Y-80616259D01*
X149208063Y-80616050D01*
X149265576Y-80612438D01*
X149281928Y-80610848D01*
X149288355Y-80610000D01*
X149308110Y-80610000D01*
X149422097Y-80587327D01*
X149529470Y-80542851D01*
X149626103Y-80478283D01*
X149708283Y-80396103D01*
X149772851Y-80299470D01*
X149817327Y-80192097D01*
X149840000Y-80078110D01*
X149840000Y-79961890D01*
X149817327Y-79847903D01*
X149772851Y-79740530D01*
X149708283Y-79643897D01*
X149626103Y-79561717D01*
X149529470Y-79497149D01*
X149422097Y-79452673D01*
X149308110Y-79430000D01*
X149191890Y-79430000D01*
X149077903Y-79452673D01*
X148970530Y-79497149D01*
X148873897Y-79561717D01*
X148791717Y-79643897D01*
X148727149Y-79740530D01*
X148682673Y-79847903D01*
X148660000Y-79961890D01*
X148660000Y-80009362D01*
X148657268Y-80040090D01*
X148654277Y-80050401D01*
X148648204Y-80062533D01*
X148633330Y-80084456D01*
X148607428Y-80118053D01*
X148605144Y-80121066D01*
X148574804Y-80161729D01*
X148563123Y-80178884D01*
X148540985Y-80214629D01*
X148528408Y-80229954D01*
X148515046Y-80246236D01*
X148481153Y-80309645D01*
X148460282Y-80378448D01*
X148453234Y-80450000D01*
X148455001Y-80467939D01*
X148455001Y-80909331D01*
X148339793Y-80920678D01*
X148224205Y-80955741D01*
X148117679Y-81012681D01*
X148024308Y-81089308D01*
X147947681Y-81182679D01*
X147890741Y-81289205D01*
X147855678Y-81404793D01*
X147843839Y-81525000D01*
X144885564Y-81525000D01*
X145032623Y-81426739D01*
X145216739Y-81242623D01*
X145361398Y-81026125D01*
X145461041Y-80785566D01*
X145511838Y-80530190D01*
X145511838Y-80269810D01*
X145461041Y-80014434D01*
X145430992Y-79941888D01*
X146710000Y-79941888D01*
X146710000Y-80058108D01*
X146732673Y-80172095D01*
X146777149Y-80279468D01*
X146841717Y-80376101D01*
X146923897Y-80458281D01*
X147020530Y-80522849D01*
X147127903Y-80567325D01*
X147241890Y-80589998D01*
X147358110Y-80589998D01*
X147472097Y-80567325D01*
X147579470Y-80522849D01*
X147676103Y-80458281D01*
X147758283Y-80376101D01*
X147822851Y-80279468D01*
X147867327Y-80172095D01*
X147872233Y-80147431D01*
X147879740Y-80124066D01*
X147882487Y-80114894D01*
X147898390Y-80057651D01*
X147899643Y-80052956D01*
X147912634Y-80002234D01*
X147923752Y-79960414D01*
X147933695Y-79928738D01*
X147943813Y-79903522D01*
X147956391Y-79879383D01*
X147975044Y-79851128D01*
X148003884Y-79815234D01*
X148048684Y-79767501D01*
X148561186Y-79255000D01*
X149908813Y-79255000D01*
X150730001Y-80076189D01*
X150730001Y-80908839D01*
X150720000Y-80908839D01*
X150599793Y-80920678D01*
X150484205Y-80955741D01*
X150377679Y-81012681D01*
X150284308Y-81089308D01*
X150207681Y-81182679D01*
X150150741Y-81289205D01*
X150115678Y-81404793D01*
X150103839Y-81525000D01*
X150103839Y-82275000D01*
X150115678Y-82395207D01*
X150150741Y-82510795D01*
X150207681Y-82617321D01*
X150284308Y-82710692D01*
X150377679Y-82787319D01*
X150484205Y-82844259D01*
X150599793Y-82879322D01*
X150720000Y-82891161D01*
X151470000Y-82891161D01*
X151590207Y-82879322D01*
X151705795Y-82844259D01*
X151812321Y-82787319D01*
X151905692Y-82710692D01*
X151982319Y-82617321D01*
X152039259Y-82510795D01*
X152074322Y-82395207D01*
X152086161Y-82275000D01*
X152086161Y-81525000D01*
X152074322Y-81404793D01*
X152039259Y-81289205D01*
X151982319Y-81182679D01*
X151905692Y-81089308D01*
X151812321Y-81012681D01*
X151705795Y-80955741D01*
X151590207Y-80920678D01*
X151470000Y-80908839D01*
X151460000Y-80908839D01*
X151460000Y-79942928D01*
X151461766Y-79924999D01*
X151460000Y-79907069D01*
X151454719Y-79853448D01*
X151433848Y-79784645D01*
X151399955Y-79721236D01*
X151354343Y-79665657D01*
X151340413Y-79654225D01*
X150330779Y-78644592D01*
X150319343Y-78630657D01*
X150263764Y-78585045D01*
X150200355Y-78551152D01*
X150131552Y-78530281D01*
X150077931Y-78525000D01*
X150077929Y-78525000D01*
X150060000Y-78523234D01*
X150042071Y-78525000D01*
X148427926Y-78525000D01*
X148409997Y-78523234D01*
X148392068Y-78525000D01*
X148392067Y-78525000D01*
X148338446Y-78530281D01*
X148269643Y-78551152D01*
X148206234Y-78585045D01*
X148150655Y-78630657D01*
X148139223Y-78644587D01*
X147532502Y-79251308D01*
X147484763Y-79296112D01*
X147448869Y-79324953D01*
X147420614Y-79343606D01*
X147396475Y-79356184D01*
X147371259Y-79366302D01*
X147339583Y-79376245D01*
X147297763Y-79387363D01*
X147247041Y-79400354D01*
X147242346Y-79401607D01*
X147185103Y-79417510D01*
X147175926Y-79420258D01*
X147152556Y-79427767D01*
X147127903Y-79432671D01*
X147020530Y-79477147D01*
X146923897Y-79541715D01*
X146841717Y-79623895D01*
X146777149Y-79720528D01*
X146732673Y-79827901D01*
X146710000Y-79941888D01*
X145430992Y-79941888D01*
X145361398Y-79773875D01*
X145216739Y-79557377D01*
X145032623Y-79373261D01*
X144816125Y-79228602D01*
X144575566Y-79128959D01*
X144320190Y-79078162D01*
X144059810Y-79078162D01*
X143804434Y-79128959D01*
X143563875Y-79228602D01*
X143347377Y-79373261D01*
X143163261Y-79557377D01*
X143018602Y-79773875D01*
X142918959Y-80014434D01*
X142868162Y-80269810D01*
X142389716Y-80269810D01*
X142400000Y-80218108D01*
X142400000Y-80101888D01*
X142377327Y-79987901D01*
X142332851Y-79880528D01*
X142327816Y-79872992D01*
X142316960Y-79847051D01*
X142310251Y-79827957D01*
X142327373Y-79808814D01*
X145501188Y-76635000D01*
X147135655Y-76635000D01*
X147192451Y-76637056D01*
X147229065Y-76641678D01*
X147252505Y-76647357D01*
X147268154Y-76653358D01*
X147282626Y-76661179D01*
X147301343Y-76674131D01*
X147327266Y-76695143D01*
X147361723Y-76725283D01*
X147403111Y-76761732D01*
X147407220Y-76765269D01*
X147430307Y-76784693D01*
X147453897Y-76808283D01*
X147550530Y-76872851D01*
X147657903Y-76917327D01*
X147771890Y-76940000D01*
X147888110Y-76940000D01*
X148002097Y-76917327D01*
X148109470Y-76872851D01*
X148206103Y-76808283D01*
X148288283Y-76726103D01*
X148352851Y-76629470D01*
X148397327Y-76522097D01*
X148420000Y-76408110D01*
X148420000Y-76291890D01*
X148397327Y-76177903D01*
X148352851Y-76070530D01*
X148288283Y-75973897D01*
X148206103Y-75891717D01*
X148109470Y-75827149D01*
X148002097Y-75782673D01*
X147888110Y-75760000D01*
X147771890Y-75760000D01*
X147657903Y-75782673D01*
X147643920Y-75788465D01*
X147623839Y-75793481D01*
X147612685Y-75796554D01*
X147551213Y-75815098D01*
X147542716Y-75817835D01*
X147488455Y-75836432D01*
X147484774Y-75837727D01*
X147436159Y-75855277D01*
X147393550Y-75870071D01*
X147355208Y-75881622D01*
X147316080Y-75890760D01*
X147270404Y-75897997D01*
X147212976Y-75903012D01*
X147136873Y-75905000D01*
X145367928Y-75905000D01*
X145349999Y-75903234D01*
X145332070Y-75905000D01*
X145332069Y-75905000D01*
X145278448Y-75910281D01*
X145209645Y-75931152D01*
X145146236Y-75965045D01*
X145090657Y-76010657D01*
X145079225Y-76024587D01*
X141564588Y-79539225D01*
X141550657Y-79550658D01*
X141505045Y-79606237D01*
X141480898Y-79651412D01*
X141478698Y-79653826D01*
X141439593Y-79695171D01*
X141392096Y-79743516D01*
X141351717Y-79783895D01*
X141287149Y-79880528D01*
X141242673Y-79987901D01*
X141220000Y-80101888D01*
X140789999Y-80101888D01*
X140767327Y-79987911D01*
X140722851Y-79880538D01*
X140708891Y-79859645D01*
X140697670Y-79837800D01*
X140693125Y-79829370D01*
X140663893Y-79777648D01*
X140661462Y-79773447D01*
X140634803Y-79728428D01*
X140613073Y-79690962D01*
X140597698Y-79661519D01*
X140587025Y-79636540D01*
X140578852Y-79610584D01*
X140572061Y-79577409D01*
X140567075Y-79531646D01*
X140565000Y-79466189D01*
X140565000Y-79351187D01*
X142783256Y-77132931D01*
X142836886Y-77082138D01*
X142879231Y-77046917D01*
X142914536Y-77021812D01*
X142946236Y-77002912D01*
X142978941Y-76986536D01*
X143017245Y-76969810D01*
X143063261Y-76950949D01*
X143064935Y-76950256D01*
X143117163Y-76928387D01*
X143123980Y-76925407D01*
X143181549Y-76899176D01*
X143191199Y-76894516D01*
X143226281Y-76876598D01*
X143259470Y-76862851D01*
X143356103Y-76798283D01*
X143438283Y-76716103D01*
X143502851Y-76619470D01*
X143547327Y-76512097D01*
X143570000Y-76398110D01*
X143570000Y-76281890D01*
X143547327Y-76167903D01*
X143502851Y-76060530D01*
X143438283Y-75963897D01*
X143356103Y-75881717D01*
X143259470Y-75817149D01*
X143152097Y-75772673D01*
X143038110Y-75750000D01*
X142921890Y-75750000D01*
X142807903Y-75772673D01*
X142700530Y-75817149D01*
X142603897Y-75881717D01*
X142521717Y-75963897D01*
X142457149Y-76060530D01*
X142412673Y-76167903D01*
X142390000Y-76281890D01*
X142390000Y-76294978D01*
X142388169Y-76306796D01*
X142387260Y-76313233D01*
X142380022Y-76370090D01*
X142379939Y-76370750D01*
X142373969Y-76418707D01*
X142368377Y-76454773D01*
X142362644Y-76480284D01*
X142356306Y-76499302D01*
X142347555Y-76517817D01*
X142332747Y-76541355D01*
X142307649Y-76573242D01*
X142266466Y-76617346D01*
X139954588Y-78929225D01*
X139940657Y-78940658D01*
X139895045Y-78996237D01*
X139861152Y-79059646D01*
X139840281Y-79128449D01*
X139835000Y-79182069D01*
X139833234Y-79200000D01*
X139835000Y-79217929D01*
X139835000Y-79466208D01*
X139832926Y-79531633D01*
X139827938Y-79577409D01*
X139821147Y-79610584D01*
X139812974Y-79636540D01*
X139802301Y-79661519D01*
X139786926Y-79690962D01*
X139765196Y-79728428D01*
X139738537Y-79773447D01*
X139736106Y-79777648D01*
X139706874Y-79829370D01*
X139702328Y-79837803D01*
X139691109Y-79859645D01*
X139677149Y-79880538D01*
X139632673Y-79987911D01*
X139610000Y-80101898D01*
X139128013Y-80101898D01*
X139107327Y-79997903D01*
X139062851Y-79890530D01*
X139048891Y-79869637D01*
X139037670Y-79847792D01*
X139033125Y-79839362D01*
X139003893Y-79787640D01*
X139001462Y-79783439D01*
X138974803Y-79738420D01*
X138953073Y-79700954D01*
X138937698Y-79671511D01*
X138927025Y-79646532D01*
X138918852Y-79620576D01*
X138912061Y-79587401D01*
X138907075Y-79541638D01*
X138905000Y-79476181D01*
X138905000Y-78671187D01*
X140405929Y-77170259D01*
X140463394Y-77115518D01*
X140510037Y-77075805D01*
X140550240Y-77045677D01*
X140587373Y-77021286D01*
X140625545Y-76998923D01*
X140668678Y-76975327D01*
X140715965Y-76949554D01*
X140721054Y-76946699D01*
X140771733Y-76917457D01*
X140780359Y-76912235D01*
X140835778Y-76877075D01*
X140845727Y-76870410D01*
X140890799Y-76838554D01*
X140936103Y-76808283D01*
X141018283Y-76726103D01*
X141082851Y-76629470D01*
X141127327Y-76522097D01*
X141150000Y-76408110D01*
X141150000Y-76291890D01*
X141127327Y-76177903D01*
X141082851Y-76070530D01*
X141018283Y-75973897D01*
X140936103Y-75891717D01*
X140839470Y-75827149D01*
X140732097Y-75782673D01*
X140618110Y-75760000D01*
X140501890Y-75760000D01*
X140387903Y-75782673D01*
X140280530Y-75827149D01*
X140183897Y-75891717D01*
X140101717Y-75973897D01*
X140037149Y-76070530D01*
X139992673Y-76177903D01*
X139970000Y-76291890D01*
X139970000Y-76348786D01*
X139969335Y-76397049D01*
X139969313Y-76400983D01*
X139969452Y-76453991D01*
X139969091Y-76496605D01*
X139967438Y-76526811D01*
X139964718Y-76546134D01*
X139961361Y-76558790D01*
X139956164Y-76571154D01*
X139945550Y-76589083D01*
X139925069Y-76615851D01*
X139888562Y-76655250D01*
X138294588Y-78249225D01*
X138280657Y-78260658D01*
X138235045Y-78316237D01*
X138201152Y-78379646D01*
X138180281Y-78448449D01*
X138175000Y-78502069D01*
X138173234Y-78520000D01*
X138175000Y-78537929D01*
X138175001Y-79476191D01*
X138172926Y-79541625D01*
X138167938Y-79587401D01*
X138161147Y-79620576D01*
X138152974Y-79646532D01*
X138142301Y-79671511D01*
X138126926Y-79700954D01*
X138105196Y-79738420D01*
X138078537Y-79783439D01*
X138076106Y-79787640D01*
X138046874Y-79839362D01*
X138042328Y-79847795D01*
X138031109Y-79869637D01*
X138017149Y-79890530D01*
X137972673Y-79997903D01*
X137950000Y-80111890D01*
X136220000Y-80111890D01*
X136220000Y-75680000D01*
X152150000Y-75680000D01*
X152150001Y-84040000D01*
G04 #@! TA.AperFunction,Conductor*
D13*
G36*
X152150001Y-84040000D02*
G01*
X152146634Y-84040000D01*
X152134259Y-83999205D01*
X152077319Y-83892679D01*
X152000692Y-83799308D01*
X151907321Y-83722681D01*
X151800795Y-83665741D01*
X151685207Y-83630678D01*
X151565000Y-83618839D01*
X150815000Y-83618839D01*
X150694793Y-83630678D01*
X150579205Y-83665741D01*
X150472679Y-83722681D01*
X150379308Y-83799308D01*
X150302681Y-83892679D01*
X150245741Y-83999205D01*
X150233366Y-84040000D01*
X150146634Y-84040000D01*
X150134259Y-83999205D01*
X150077319Y-83892679D01*
X150000692Y-83799308D01*
X149907321Y-83722681D01*
X149800795Y-83665741D01*
X149685207Y-83630678D01*
X149565000Y-83618839D01*
X148815000Y-83618839D01*
X148694793Y-83630678D01*
X148579205Y-83665741D01*
X148472679Y-83722681D01*
X148379308Y-83799308D01*
X148302681Y-83892679D01*
X148245741Y-83999205D01*
X148233366Y-84040000D01*
X146146634Y-84040000D01*
X146134259Y-83999205D01*
X146077319Y-83892679D01*
X146000692Y-83799308D01*
X145907321Y-83722681D01*
X145800795Y-83665741D01*
X145685207Y-83630678D01*
X145565000Y-83618839D01*
X144815000Y-83618839D01*
X144694793Y-83630678D01*
X144579205Y-83665741D01*
X144472679Y-83722681D01*
X144379308Y-83799308D01*
X144302681Y-83892679D01*
X144245741Y-83999205D01*
X144233366Y-84040000D01*
X144146634Y-84040000D01*
X144134259Y-83999205D01*
X144077319Y-83892679D01*
X144000692Y-83799308D01*
X143907321Y-83722681D01*
X143800795Y-83665741D01*
X143685207Y-83630678D01*
X143565000Y-83618839D01*
X142815000Y-83618839D01*
X142694793Y-83630678D01*
X142579205Y-83665741D01*
X142472679Y-83722681D01*
X142379308Y-83799308D01*
X142302681Y-83892679D01*
X142245741Y-83999205D01*
X142233366Y-84040000D01*
X140146634Y-84040000D01*
X140134259Y-83999205D01*
X140077319Y-83892679D01*
X140000692Y-83799308D01*
X139907321Y-83722681D01*
X139800795Y-83665741D01*
X139685207Y-83630678D01*
X139565000Y-83618839D01*
X139525000Y-83618839D01*
X139525000Y-83611187D01*
X139785408Y-83350779D01*
X139799343Y-83339343D01*
X139844955Y-83283764D01*
X139878848Y-83220355D01*
X139899719Y-83151552D01*
X139905000Y-83097931D01*
X139905000Y-83097930D01*
X139906766Y-83080001D01*
X139905000Y-83062072D01*
X139905000Y-82891161D01*
X139915000Y-82891161D01*
X140035207Y-82879322D01*
X140150795Y-82844259D01*
X140257321Y-82787319D01*
X140350692Y-82710692D01*
X140427319Y-82617321D01*
X140484259Y-82510795D01*
X140519322Y-82395207D01*
X140531161Y-82275000D01*
X140531161Y-81525000D01*
X140793839Y-81525000D01*
X140793839Y-82275000D01*
X140805678Y-82395207D01*
X140840741Y-82510795D01*
X140897681Y-82617321D01*
X140974308Y-82710692D01*
X141067679Y-82787319D01*
X141174205Y-82844259D01*
X141289793Y-82879322D01*
X141410000Y-82891161D01*
X142160000Y-82891161D01*
X142280207Y-82879322D01*
X142395795Y-82844259D01*
X142502321Y-82787319D01*
X142595692Y-82710692D01*
X142672319Y-82617321D01*
X142729259Y-82510795D01*
X142764322Y-82395207D01*
X142776161Y-82275000D01*
X142776161Y-81525000D01*
X142764322Y-81404793D01*
X142729259Y-81289205D01*
X142672319Y-81182679D01*
X142595692Y-81089308D01*
X142502321Y-81012681D01*
X142395795Y-80955741D01*
X142280207Y-80920678D01*
X142160000Y-80908839D01*
X141410000Y-80908839D01*
X141289793Y-80920678D01*
X141174205Y-80955741D01*
X141067679Y-81012681D01*
X140974308Y-81089308D01*
X140897681Y-81182679D01*
X140840741Y-81289205D01*
X140805678Y-81404793D01*
X140793839Y-81525000D01*
X140531161Y-81525000D01*
X140519322Y-81404793D01*
X140484259Y-81289205D01*
X140427319Y-81182679D01*
X140350692Y-81089308D01*
X140257321Y-81012681D01*
X140150795Y-80955741D01*
X140035207Y-80920678D01*
X139915000Y-80908839D01*
X139165000Y-80908839D01*
X139044793Y-80920678D01*
X138929205Y-80955741D01*
X138822679Y-81012681D01*
X138729308Y-81089308D01*
X138652681Y-81182679D01*
X138595741Y-81289205D01*
X138560678Y-81404793D01*
X138548839Y-81525000D01*
X138548839Y-82275000D01*
X138560678Y-82395207D01*
X138595741Y-82510795D01*
X138652681Y-82617321D01*
X138729308Y-82710692D01*
X138822679Y-82787319D01*
X138929205Y-82844259D01*
X139044793Y-82879322D01*
X139165000Y-82891161D01*
X139175001Y-82891161D01*
X139175001Y-82928812D01*
X138914588Y-83189225D01*
X138900657Y-83200658D01*
X138855045Y-83256237D01*
X138821152Y-83319646D01*
X138800281Y-83388449D01*
X138795232Y-83439719D01*
X138793234Y-83460000D01*
X138795000Y-83477929D01*
X138795000Y-83620809D01*
X138694793Y-83630678D01*
X138579205Y-83665741D01*
X138472679Y-83722681D01*
X138379308Y-83799308D01*
X138302681Y-83892679D01*
X138245741Y-83999205D01*
X138233366Y-84040000D01*
X138146634Y-84040000D01*
X138134259Y-83999205D01*
X138077319Y-83892679D01*
X138000692Y-83799308D01*
X137907321Y-83722681D01*
X137800795Y-83665741D01*
X137685207Y-83630678D01*
X137565000Y-83618839D01*
X137555000Y-83618839D01*
X137555000Y-83400265D01*
X137584955Y-83363764D01*
X137618848Y-83300355D01*
X137639719Y-83231552D01*
X137645000Y-83177931D01*
X137645000Y-83177930D01*
X137646766Y-83160001D01*
X137645000Y-83142072D01*
X137645000Y-82891161D01*
X137670000Y-82891161D01*
X137790207Y-82879322D01*
X137905795Y-82844259D01*
X138012321Y-82787319D01*
X138105692Y-82710692D01*
X138182319Y-82617321D01*
X138239259Y-82510795D01*
X138274322Y-82395207D01*
X138286161Y-82275000D01*
X138286161Y-81525000D01*
X138274322Y-81404793D01*
X138239259Y-81289205D01*
X138182319Y-81182679D01*
X138105692Y-81089308D01*
X138012321Y-81012681D01*
X137905795Y-80955741D01*
X137790207Y-80920678D01*
X137670000Y-80908839D01*
X136920000Y-80908839D01*
X136799793Y-80920678D01*
X136684205Y-80955741D01*
X136577679Y-81012681D01*
X136484308Y-81089308D01*
X136407681Y-81182679D01*
X136350741Y-81289205D01*
X136315678Y-81404793D01*
X136303839Y-81525000D01*
X136303839Y-82275000D01*
X136315678Y-82395207D01*
X136350741Y-82510795D01*
X136407681Y-82617321D01*
X136484308Y-82710692D01*
X136577679Y-82787319D01*
X136684205Y-82844259D01*
X136799793Y-82879322D01*
X136915001Y-82890669D01*
X136915001Y-83009735D01*
X136885045Y-83046237D01*
X136851152Y-83109646D01*
X136830281Y-83178449D01*
X136828094Y-83200657D01*
X136823234Y-83250000D01*
X136825000Y-83267929D01*
X136825000Y-83618839D01*
X136815000Y-83618839D01*
X136694793Y-83630678D01*
X136579205Y-83665741D01*
X136472679Y-83722681D01*
X136379308Y-83799308D01*
X136302681Y-83892679D01*
X136245741Y-83999205D01*
X136233366Y-84040000D01*
X136220000Y-84040000D01*
X136220000Y-80111890D01*
X137950000Y-80111890D01*
X137950000Y-80228110D01*
X137972673Y-80342097D01*
X138017149Y-80449470D01*
X138081717Y-80546103D01*
X138163897Y-80628283D01*
X138260530Y-80692851D01*
X138367903Y-80737327D01*
X138481890Y-80760000D01*
X138598110Y-80760000D01*
X138712097Y-80737327D01*
X138819470Y-80692851D01*
X138916103Y-80628283D01*
X138998283Y-80546103D01*
X139062851Y-80449470D01*
X139107327Y-80342097D01*
X139130000Y-80228110D01*
X139130000Y-80111890D01*
X139128013Y-80101898D01*
X139610000Y-80101898D01*
X139610000Y-80218118D01*
X139632673Y-80332105D01*
X139677149Y-80439478D01*
X139741717Y-80536111D01*
X139823897Y-80618291D01*
X139920530Y-80682859D01*
X140027903Y-80727335D01*
X140141890Y-80750008D01*
X140258110Y-80750008D01*
X140372097Y-80727335D01*
X140479470Y-80682859D01*
X140576103Y-80618291D01*
X140658283Y-80536111D01*
X140722851Y-80439478D01*
X140767327Y-80332105D01*
X140790000Y-80218118D01*
X140790000Y-80101898D01*
X140789999Y-80101888D01*
X141220000Y-80101888D01*
X141220000Y-80218108D01*
X141242673Y-80332095D01*
X141287149Y-80439468D01*
X141351717Y-80536101D01*
X141433897Y-80618281D01*
X141530530Y-80682849D01*
X141637903Y-80727325D01*
X141751890Y-80749998D01*
X141868110Y-80749998D01*
X141982097Y-80727325D01*
X142089470Y-80682849D01*
X142186103Y-80618281D01*
X142268283Y-80536101D01*
X142332851Y-80439468D01*
X142377327Y-80332095D01*
X142389716Y-80269810D01*
X142868162Y-80269810D01*
X142868162Y-80530190D01*
X142918959Y-80785566D01*
X143018602Y-81026125D01*
X143163261Y-81242623D01*
X143347377Y-81426739D01*
X143563875Y-81571398D01*
X143804434Y-81671041D01*
X144059810Y-81721838D01*
X144320190Y-81721838D01*
X144575566Y-81671041D01*
X144816125Y-81571398D01*
X144885564Y-81525000D01*
X147843839Y-81525000D01*
X147843839Y-82275000D01*
X147855678Y-82395207D01*
X147890741Y-82510795D01*
X147947681Y-82617321D01*
X148024308Y-82710692D01*
X148117679Y-82787319D01*
X148224205Y-82844259D01*
X148339793Y-82879322D01*
X148460000Y-82891161D01*
X149210000Y-82891161D01*
X149330207Y-82879322D01*
X149445795Y-82844259D01*
X149552321Y-82787319D01*
X149645692Y-82710692D01*
X149722319Y-82617321D01*
X149779259Y-82510795D01*
X149814322Y-82395207D01*
X149826161Y-82275000D01*
X149826161Y-81525000D01*
X149814322Y-81404793D01*
X149779259Y-81289205D01*
X149722319Y-81182679D01*
X149645692Y-81089308D01*
X149552321Y-81012681D01*
X149445795Y-80955741D01*
X149330207Y-80920678D01*
X149210000Y-80908839D01*
X149185000Y-80908839D01*
X149185000Y-80617162D01*
X149204262Y-80616259D01*
X149208063Y-80616050D01*
X149265576Y-80612438D01*
X149281928Y-80610848D01*
X149288355Y-80610000D01*
X149308110Y-80610000D01*
X149422097Y-80587327D01*
X149529470Y-80542851D01*
X149626103Y-80478283D01*
X149708283Y-80396103D01*
X149772851Y-80299470D01*
X149817327Y-80192097D01*
X149840000Y-80078110D01*
X149840000Y-79961890D01*
X149817327Y-79847903D01*
X149772851Y-79740530D01*
X149708283Y-79643897D01*
X149626103Y-79561717D01*
X149529470Y-79497149D01*
X149422097Y-79452673D01*
X149308110Y-79430000D01*
X149191890Y-79430000D01*
X149077903Y-79452673D01*
X148970530Y-79497149D01*
X148873897Y-79561717D01*
X148791717Y-79643897D01*
X148727149Y-79740530D01*
X148682673Y-79847903D01*
X148660000Y-79961890D01*
X148660000Y-80009362D01*
X148657268Y-80040090D01*
X148654277Y-80050401D01*
X148648204Y-80062533D01*
X148633330Y-80084456D01*
X148607428Y-80118053D01*
X148605144Y-80121066D01*
X148574804Y-80161729D01*
X148563123Y-80178884D01*
X148540985Y-80214629D01*
X148528408Y-80229954D01*
X148515046Y-80246236D01*
X148481153Y-80309645D01*
X148460282Y-80378448D01*
X148453234Y-80450000D01*
X148455001Y-80467939D01*
X148455001Y-80909331D01*
X148339793Y-80920678D01*
X148224205Y-80955741D01*
X148117679Y-81012681D01*
X148024308Y-81089308D01*
X147947681Y-81182679D01*
X147890741Y-81289205D01*
X147855678Y-81404793D01*
X147843839Y-81525000D01*
X144885564Y-81525000D01*
X145032623Y-81426739D01*
X145216739Y-81242623D01*
X145361398Y-81026125D01*
X145461041Y-80785566D01*
X145511838Y-80530190D01*
X145511838Y-80269810D01*
X145461041Y-80014434D01*
X145430992Y-79941888D01*
X146710000Y-79941888D01*
X146710000Y-80058108D01*
X146732673Y-80172095D01*
X146777149Y-80279468D01*
X146841717Y-80376101D01*
X146923897Y-80458281D01*
X147020530Y-80522849D01*
X147127903Y-80567325D01*
X147241890Y-80589998D01*
X147358110Y-80589998D01*
X147472097Y-80567325D01*
X147579470Y-80522849D01*
X147676103Y-80458281D01*
X147758283Y-80376101D01*
X147822851Y-80279468D01*
X147867327Y-80172095D01*
X147872233Y-80147431D01*
X147879740Y-80124066D01*
X147882487Y-80114894D01*
X147898390Y-80057651D01*
X147899643Y-80052956D01*
X147912634Y-80002234D01*
X147923752Y-79960414D01*
X147933695Y-79928738D01*
X147943813Y-79903522D01*
X147956391Y-79879383D01*
X147975044Y-79851128D01*
X148003884Y-79815234D01*
X148048684Y-79767501D01*
X148561186Y-79255000D01*
X149908813Y-79255000D01*
X150730001Y-80076189D01*
X150730001Y-80908839D01*
X150720000Y-80908839D01*
X150599793Y-80920678D01*
X150484205Y-80955741D01*
X150377679Y-81012681D01*
X150284308Y-81089308D01*
X150207681Y-81182679D01*
X150150741Y-81289205D01*
X150115678Y-81404793D01*
X150103839Y-81525000D01*
X150103839Y-82275000D01*
X150115678Y-82395207D01*
X150150741Y-82510795D01*
X150207681Y-82617321D01*
X150284308Y-82710692D01*
X150377679Y-82787319D01*
X150484205Y-82844259D01*
X150599793Y-82879322D01*
X150720000Y-82891161D01*
X151470000Y-82891161D01*
X151590207Y-82879322D01*
X151705795Y-82844259D01*
X151812321Y-82787319D01*
X151905692Y-82710692D01*
X151982319Y-82617321D01*
X152039259Y-82510795D01*
X152074322Y-82395207D01*
X152086161Y-82275000D01*
X152086161Y-81525000D01*
X152074322Y-81404793D01*
X152039259Y-81289205D01*
X151982319Y-81182679D01*
X151905692Y-81089308D01*
X151812321Y-81012681D01*
X151705795Y-80955741D01*
X151590207Y-80920678D01*
X151470000Y-80908839D01*
X151460000Y-80908839D01*
X151460000Y-79942928D01*
X151461766Y-79924999D01*
X151460000Y-79907069D01*
X151454719Y-79853448D01*
X151433848Y-79784645D01*
X151399955Y-79721236D01*
X151354343Y-79665657D01*
X151340413Y-79654225D01*
X150330779Y-78644592D01*
X150319343Y-78630657D01*
X150263764Y-78585045D01*
X150200355Y-78551152D01*
X150131552Y-78530281D01*
X150077931Y-78525000D01*
X150077929Y-78525000D01*
X150060000Y-78523234D01*
X150042071Y-78525000D01*
X148427926Y-78525000D01*
X148409997Y-78523234D01*
X148392068Y-78525000D01*
X148392067Y-78525000D01*
X148338446Y-78530281D01*
X148269643Y-78551152D01*
X148206234Y-78585045D01*
X148150655Y-78630657D01*
X148139223Y-78644587D01*
X147532502Y-79251308D01*
X147484763Y-79296112D01*
X147448869Y-79324953D01*
X147420614Y-79343606D01*
X147396475Y-79356184D01*
X147371259Y-79366302D01*
X147339583Y-79376245D01*
X147297763Y-79387363D01*
X147247041Y-79400354D01*
X147242346Y-79401607D01*
X147185103Y-79417510D01*
X147175926Y-79420258D01*
X147152556Y-79427767D01*
X147127903Y-79432671D01*
X147020530Y-79477147D01*
X146923897Y-79541715D01*
X146841717Y-79623895D01*
X146777149Y-79720528D01*
X146732673Y-79827901D01*
X146710000Y-79941888D01*
X145430992Y-79941888D01*
X145361398Y-79773875D01*
X145216739Y-79557377D01*
X145032623Y-79373261D01*
X144816125Y-79228602D01*
X144575566Y-79128959D01*
X144320190Y-79078162D01*
X144059810Y-79078162D01*
X143804434Y-79128959D01*
X143563875Y-79228602D01*
X143347377Y-79373261D01*
X143163261Y-79557377D01*
X143018602Y-79773875D01*
X142918959Y-80014434D01*
X142868162Y-80269810D01*
X142389716Y-80269810D01*
X142400000Y-80218108D01*
X142400000Y-80101888D01*
X142377327Y-79987901D01*
X142332851Y-79880528D01*
X142327816Y-79872992D01*
X142316960Y-79847051D01*
X142310251Y-79827957D01*
X142327373Y-79808814D01*
X145501188Y-76635000D01*
X147135655Y-76635000D01*
X147192451Y-76637056D01*
X147229065Y-76641678D01*
X147252505Y-76647357D01*
X147268154Y-76653358D01*
X147282626Y-76661179D01*
X147301343Y-76674131D01*
X147327266Y-76695143D01*
X147361723Y-76725283D01*
X147403111Y-76761732D01*
X147407220Y-76765269D01*
X147430307Y-76784693D01*
X147453897Y-76808283D01*
X147550530Y-76872851D01*
X147657903Y-76917327D01*
X147771890Y-76940000D01*
X147888110Y-76940000D01*
X148002097Y-76917327D01*
X148109470Y-76872851D01*
X148206103Y-76808283D01*
X148288283Y-76726103D01*
X148352851Y-76629470D01*
X148397327Y-76522097D01*
X148420000Y-76408110D01*
X148420000Y-76291890D01*
X148397327Y-76177903D01*
X148352851Y-76070530D01*
X148288283Y-75973897D01*
X148206103Y-75891717D01*
X148109470Y-75827149D01*
X148002097Y-75782673D01*
X147888110Y-75760000D01*
X147771890Y-75760000D01*
X147657903Y-75782673D01*
X147643920Y-75788465D01*
X147623839Y-75793481D01*
X147612685Y-75796554D01*
X147551213Y-75815098D01*
X147542716Y-75817835D01*
X147488455Y-75836432D01*
X147484774Y-75837727D01*
X147436159Y-75855277D01*
X147393550Y-75870071D01*
X147355208Y-75881622D01*
X147316080Y-75890760D01*
X147270404Y-75897997D01*
X147212976Y-75903012D01*
X147136873Y-75905000D01*
X145367928Y-75905000D01*
X145349999Y-75903234D01*
X145332070Y-75905000D01*
X145332069Y-75905000D01*
X145278448Y-75910281D01*
X145209645Y-75931152D01*
X145146236Y-75965045D01*
X145090657Y-76010657D01*
X145079225Y-76024587D01*
X141564588Y-79539225D01*
X141550657Y-79550658D01*
X141505045Y-79606237D01*
X141480898Y-79651412D01*
X141478698Y-79653826D01*
X141439593Y-79695171D01*
X141392096Y-79743516D01*
X141351717Y-79783895D01*
X141287149Y-79880528D01*
X141242673Y-79987901D01*
X141220000Y-80101888D01*
X140789999Y-80101888D01*
X140767327Y-79987911D01*
X140722851Y-79880538D01*
X140708891Y-79859645D01*
X140697670Y-79837800D01*
X140693125Y-79829370D01*
X140663893Y-79777648D01*
X140661462Y-79773447D01*
X140634803Y-79728428D01*
X140613073Y-79690962D01*
X140597698Y-79661519D01*
X140587025Y-79636540D01*
X140578852Y-79610584D01*
X140572061Y-79577409D01*
X140567075Y-79531646D01*
X140565000Y-79466189D01*
X140565000Y-79351187D01*
X142783256Y-77132931D01*
X142836886Y-77082138D01*
X142879231Y-77046917D01*
X142914536Y-77021812D01*
X142946236Y-77002912D01*
X142978941Y-76986536D01*
X143017245Y-76969810D01*
X143063261Y-76950949D01*
X143064935Y-76950256D01*
X143117163Y-76928387D01*
X143123980Y-76925407D01*
X143181549Y-76899176D01*
X143191199Y-76894516D01*
X143226281Y-76876598D01*
X143259470Y-76862851D01*
X143356103Y-76798283D01*
X143438283Y-76716103D01*
X143502851Y-76619470D01*
X143547327Y-76512097D01*
X143570000Y-76398110D01*
X143570000Y-76281890D01*
X143547327Y-76167903D01*
X143502851Y-76060530D01*
X143438283Y-75963897D01*
X143356103Y-75881717D01*
X143259470Y-75817149D01*
X143152097Y-75772673D01*
X143038110Y-75750000D01*
X142921890Y-75750000D01*
X142807903Y-75772673D01*
X142700530Y-75817149D01*
X142603897Y-75881717D01*
X142521717Y-75963897D01*
X142457149Y-76060530D01*
X142412673Y-76167903D01*
X142390000Y-76281890D01*
X142390000Y-76294978D01*
X142388169Y-76306796D01*
X142387260Y-76313233D01*
X142380022Y-76370090D01*
X142379939Y-76370750D01*
X142373969Y-76418707D01*
X142368377Y-76454773D01*
X142362644Y-76480284D01*
X142356306Y-76499302D01*
X142347555Y-76517817D01*
X142332747Y-76541355D01*
X142307649Y-76573242D01*
X142266466Y-76617346D01*
X139954588Y-78929225D01*
X139940657Y-78940658D01*
X139895045Y-78996237D01*
X139861152Y-79059646D01*
X139840281Y-79128449D01*
X139835000Y-79182069D01*
X139833234Y-79200000D01*
X139835000Y-79217929D01*
X139835000Y-79466208D01*
X139832926Y-79531633D01*
X139827938Y-79577409D01*
X139821147Y-79610584D01*
X139812974Y-79636540D01*
X139802301Y-79661519D01*
X139786926Y-79690962D01*
X139765196Y-79728428D01*
X139738537Y-79773447D01*
X139736106Y-79777648D01*
X139706874Y-79829370D01*
X139702328Y-79837803D01*
X139691109Y-79859645D01*
X139677149Y-79880538D01*
X139632673Y-79987911D01*
X139610000Y-80101898D01*
X139128013Y-80101898D01*
X139107327Y-79997903D01*
X139062851Y-79890530D01*
X139048891Y-79869637D01*
X139037670Y-79847792D01*
X139033125Y-79839362D01*
X139003893Y-79787640D01*
X139001462Y-79783439D01*
X138974803Y-79738420D01*
X138953073Y-79700954D01*
X138937698Y-79671511D01*
X138927025Y-79646532D01*
X138918852Y-79620576D01*
X138912061Y-79587401D01*
X138907075Y-79541638D01*
X138905000Y-79476181D01*
X138905000Y-78671187D01*
X140405929Y-77170259D01*
X140463394Y-77115518D01*
X140510037Y-77075805D01*
X140550240Y-77045677D01*
X140587373Y-77021286D01*
X140625545Y-76998923D01*
X140668678Y-76975327D01*
X140715965Y-76949554D01*
X140721054Y-76946699D01*
X140771733Y-76917457D01*
X140780359Y-76912235D01*
X140835778Y-76877075D01*
X140845727Y-76870410D01*
X140890799Y-76838554D01*
X140936103Y-76808283D01*
X141018283Y-76726103D01*
X141082851Y-76629470D01*
X141127327Y-76522097D01*
X141150000Y-76408110D01*
X141150000Y-76291890D01*
X141127327Y-76177903D01*
X141082851Y-76070530D01*
X141018283Y-75973897D01*
X140936103Y-75891717D01*
X140839470Y-75827149D01*
X140732097Y-75782673D01*
X140618110Y-75760000D01*
X140501890Y-75760000D01*
X140387903Y-75782673D01*
X140280530Y-75827149D01*
X140183897Y-75891717D01*
X140101717Y-75973897D01*
X140037149Y-76070530D01*
X139992673Y-76177903D01*
X139970000Y-76291890D01*
X139970000Y-76348786D01*
X139969335Y-76397049D01*
X139969313Y-76400983D01*
X139969452Y-76453991D01*
X139969091Y-76496605D01*
X139967438Y-76526811D01*
X139964718Y-76546134D01*
X139961361Y-76558790D01*
X139956164Y-76571154D01*
X139945550Y-76589083D01*
X139925069Y-76615851D01*
X139888562Y-76655250D01*
X138294588Y-78249225D01*
X138280657Y-78260658D01*
X138235045Y-78316237D01*
X138201152Y-78379646D01*
X138180281Y-78448449D01*
X138175000Y-78502069D01*
X138173234Y-78520000D01*
X138175000Y-78537929D01*
X138175001Y-79476191D01*
X138172926Y-79541625D01*
X138167938Y-79587401D01*
X138161147Y-79620576D01*
X138152974Y-79646532D01*
X138142301Y-79671511D01*
X138126926Y-79700954D01*
X138105196Y-79738420D01*
X138078537Y-79783439D01*
X138076106Y-79787640D01*
X138046874Y-79839362D01*
X138042328Y-79847795D01*
X138031109Y-79869637D01*
X138017149Y-79890530D01*
X137972673Y-79997903D01*
X137950000Y-80111890D01*
X136220000Y-80111890D01*
X136220000Y-75680000D01*
X152150000Y-75680000D01*
X152150001Y-84040000D01*
G37*
G04 #@! TD.AperFunction*
D14*
X137311005Y-86037036D02*
X137311169Y-86038539D01*
X137335824Y-86183632D01*
X137336246Y-86185365D01*
X137374736Y-86305961D01*
X137375421Y-86307668D01*
X137425621Y-86410583D01*
X137426384Y-86411932D01*
X137486165Y-86503987D01*
X137486724Y-86504780D01*
X137553961Y-86592792D01*
X137554132Y-86593011D01*
X137626584Y-86683661D01*
X137701997Y-86783580D01*
X137778308Y-86899578D01*
X137849415Y-87030968D01*
X137190000Y-87716678D01*
X136530585Y-87030968D01*
X136601691Y-86899578D01*
X136678002Y-86783580D01*
X136753415Y-86683661D01*
X136825867Y-86593011D01*
X136826038Y-86592792D01*
X136893275Y-86504780D01*
X136893834Y-86503987D01*
X136953615Y-86411932D01*
X136954378Y-86410583D01*
X137004578Y-86307668D01*
X137005263Y-86305961D01*
X137043753Y-86185365D01*
X137044175Y-86183632D01*
X137068830Y-86038539D01*
X137068994Y-86037036D01*
X137077090Y-85872700D01*
X137302910Y-85872700D01*
X137311005Y-86037036D01*
G04 #@! TA.AperFunction,Conductor*
D13*
G36*
X137311005Y-86037036D02*
G01*
X137311169Y-86038539D01*
X137335824Y-86183632D01*
X137336246Y-86185365D01*
X137374736Y-86305961D01*
X137375421Y-86307668D01*
X137425621Y-86410583D01*
X137426384Y-86411932D01*
X137486165Y-86503987D01*
X137486724Y-86504780D01*
X137553961Y-86592792D01*
X137554132Y-86593011D01*
X137626584Y-86683661D01*
X137701997Y-86783580D01*
X137778308Y-86899578D01*
X137849415Y-87030968D01*
X137190000Y-87716678D01*
X136530585Y-87030968D01*
X136601691Y-86899578D01*
X136678002Y-86783580D01*
X136753415Y-86683661D01*
X136825867Y-86593011D01*
X136826038Y-86592792D01*
X136893275Y-86504780D01*
X136893834Y-86503987D01*
X136953615Y-86411932D01*
X136954378Y-86410583D01*
X137004578Y-86307668D01*
X137005263Y-86305961D01*
X137043753Y-86185365D01*
X137044175Y-86183632D01*
X137068830Y-86038539D01*
X137068994Y-86037036D01*
X137077090Y-85872700D01*
X137302910Y-85872700D01*
X137311005Y-86037036D01*
G37*
G04 #@! TD.AperFunction*
D14*
X141311005Y-86037036D02*
X141311169Y-86038539D01*
X141335824Y-86183632D01*
X141336246Y-86185365D01*
X141374736Y-86305961D01*
X141375421Y-86307668D01*
X141425621Y-86410583D01*
X141426384Y-86411932D01*
X141486165Y-86503987D01*
X141486724Y-86504780D01*
X141553961Y-86592792D01*
X141554132Y-86593011D01*
X141626584Y-86683661D01*
X141701997Y-86783580D01*
X141778308Y-86899578D01*
X141849415Y-87030968D01*
X141190000Y-87716678D01*
X140530585Y-87030968D01*
X140601691Y-86899578D01*
X140678002Y-86783580D01*
X140753415Y-86683661D01*
X140825867Y-86593011D01*
X140826038Y-86592792D01*
X140893275Y-86504780D01*
X140893834Y-86503987D01*
X140953615Y-86411932D01*
X140954378Y-86410583D01*
X141004578Y-86307668D01*
X141005263Y-86305961D01*
X141043753Y-86185365D01*
X141044175Y-86183632D01*
X141068830Y-86038539D01*
X141068994Y-86037036D01*
X141077090Y-85872700D01*
X141302910Y-85872700D01*
X141311005Y-86037036D01*
G04 #@! TA.AperFunction,Conductor*
D13*
G36*
X141311005Y-86037036D02*
G01*
X141311169Y-86038539D01*
X141335824Y-86183632D01*
X141336246Y-86185365D01*
X141374736Y-86305961D01*
X141375421Y-86307668D01*
X141425621Y-86410583D01*
X141426384Y-86411932D01*
X141486165Y-86503987D01*
X141486724Y-86504780D01*
X141553961Y-86592792D01*
X141554132Y-86593011D01*
X141626584Y-86683661D01*
X141701997Y-86783580D01*
X141778308Y-86899578D01*
X141849415Y-87030968D01*
X141190000Y-87716678D01*
X140530585Y-87030968D01*
X140601691Y-86899578D01*
X140678002Y-86783580D01*
X140753415Y-86683661D01*
X140825867Y-86593011D01*
X140826038Y-86592792D01*
X140893275Y-86504780D01*
X140893834Y-86503987D01*
X140953615Y-86411932D01*
X140954378Y-86410583D01*
X141004578Y-86307668D01*
X141005263Y-86305961D01*
X141043753Y-86185365D01*
X141044175Y-86183632D01*
X141068830Y-86038539D01*
X141068994Y-86037036D01*
X141077090Y-85872700D01*
X141302910Y-85872700D01*
X141311005Y-86037036D01*
G37*
G04 #@! TD.AperFunction*
D14*
X147311053Y-86045761D02*
X147311221Y-86047282D01*
X147335995Y-86191225D01*
X147336427Y-86192978D01*
X147375079Y-86312529D01*
X147375777Y-86314248D01*
X147426149Y-86416199D01*
X147426924Y-86417551D01*
X147486856Y-86508695D01*
X147487418Y-86509483D01*
X147554753Y-86596613D01*
X147554920Y-86596824D01*
X147627392Y-86686600D01*
X147702680Y-86785584D01*
X147778737Y-86900619D01*
X147849409Y-87030973D01*
X147190000Y-87716678D01*
X146530590Y-87030973D01*
X146601262Y-86900619D01*
X146677319Y-86785584D01*
X146752607Y-86686600D01*
X146825079Y-86596824D01*
X146825246Y-86596613D01*
X146892581Y-86509483D01*
X146893143Y-86508695D01*
X146953075Y-86417551D01*
X146953850Y-86416199D01*
X147004222Y-86314248D01*
X147004920Y-86312529D01*
X147043572Y-86192978D01*
X147044004Y-86191225D01*
X147068778Y-86047282D01*
X147068946Y-86045761D01*
X147077082Y-85882700D01*
X147302918Y-85882700D01*
X147311053Y-86045761D01*
G04 #@! TA.AperFunction,Conductor*
D13*
G36*
X147311053Y-86045761D02*
G01*
X147311221Y-86047282D01*
X147335995Y-86191225D01*
X147336427Y-86192978D01*
X147375079Y-86312529D01*
X147375777Y-86314248D01*
X147426149Y-86416199D01*
X147426924Y-86417551D01*
X147486856Y-86508695D01*
X147487418Y-86509483D01*
X147554753Y-86596613D01*
X147554920Y-86596824D01*
X147627392Y-86686600D01*
X147702680Y-86785584D01*
X147778737Y-86900619D01*
X147849409Y-87030973D01*
X147190000Y-87716678D01*
X146530590Y-87030973D01*
X146601262Y-86900619D01*
X146677319Y-86785584D01*
X146752607Y-86686600D01*
X146825079Y-86596824D01*
X146825246Y-86596613D01*
X146892581Y-86509483D01*
X146893143Y-86508695D01*
X146953075Y-86417551D01*
X146953850Y-86416199D01*
X147004222Y-86314248D01*
X147004920Y-86312529D01*
X147043572Y-86192978D01*
X147044004Y-86191225D01*
X147068778Y-86047282D01*
X147068946Y-86045761D01*
X147077082Y-85882700D01*
X147302918Y-85882700D01*
X147311053Y-86045761D01*
G37*
G04 #@! TD.AperFunction*
D14*
X149352351Y-80340742D02*
X149305959Y-80352787D01*
X149249301Y-80360262D01*
X149192323Y-80363841D01*
X149136980Y-80366436D01*
X149136450Y-80366472D01*
X149084800Y-80371066D01*
X149083338Y-80371282D01*
X149037207Y-80380880D01*
X149034555Y-80381745D01*
X148995672Y-80399353D01*
X148993516Y-80400597D01*
X148992130Y-80401747D01*
X148962219Y-80430373D01*
X148960598Y-80432262D01*
X148959421Y-80434332D01*
X148940208Y-80476985D01*
X148939412Y-80479344D01*
X148939168Y-80480766D01*
X148933662Y-80529188D01*
X148708690Y-80529188D01*
X148713324Y-80467560D01*
X148728386Y-80406790D01*
X148750552Y-80356188D01*
X148777666Y-80312408D01*
X148807631Y-80272248D01*
X148837898Y-80232989D01*
X148838349Y-80232366D01*
X148866229Y-80191275D01*
X148867077Y-80189828D01*
X148890037Y-80143955D01*
X148890877Y-80141810D01*
X148906457Y-80088110D01*
X148906910Y-80085696D01*
X148911859Y-80030029D01*
X149360717Y-79912786D01*
X149352351Y-80340742D01*
G04 #@! TA.AperFunction,Conductor*
D13*
G36*
X149352351Y-80340742D02*
G01*
X149305959Y-80352787D01*
X149249301Y-80360262D01*
X149192323Y-80363841D01*
X149136980Y-80366436D01*
X149136450Y-80366472D01*
X149084800Y-80371066D01*
X149083338Y-80371282D01*
X149037207Y-80380880D01*
X149034555Y-80381745D01*
X148995672Y-80399353D01*
X148993516Y-80400597D01*
X148992130Y-80401747D01*
X148962219Y-80430373D01*
X148960598Y-80432262D01*
X148959421Y-80434332D01*
X148940208Y-80476985D01*
X148939412Y-80479344D01*
X148939168Y-80480766D01*
X148933662Y-80529188D01*
X148708690Y-80529188D01*
X148713324Y-80467560D01*
X148728386Y-80406790D01*
X148750552Y-80356188D01*
X148777666Y-80312408D01*
X148807631Y-80272248D01*
X148837898Y-80232989D01*
X148838349Y-80232366D01*
X148866229Y-80191275D01*
X148867077Y-80189828D01*
X148890037Y-80143955D01*
X148890877Y-80141810D01*
X148906457Y-80088110D01*
X148906910Y-80085696D01*
X148911859Y-80030029D01*
X149360717Y-79912786D01*
X149352351Y-80340742D01*
G37*
G04 #@! TD.AperFunction*
D14*
X147858611Y-79600763D02*
X147813311Y-79649029D01*
X147812671Y-79649765D01*
X147771032Y-79701587D01*
X147770333Y-79702545D01*
X147738676Y-79750499D01*
X147738012Y-79751627D01*
X147714233Y-79797261D01*
X147713709Y-79798401D01*
X147695708Y-79843262D01*
X147695378Y-79844188D01*
X147681054Y-79889822D01*
X147680897Y-79890362D01*
X147668148Y-79938319D01*
X147668119Y-79938431D01*
X147654883Y-79990111D01*
X147639071Y-80047025D01*
X147621299Y-80102338D01*
X147189213Y-80110785D01*
X147197660Y-79678699D01*
X147252972Y-79660926D01*
X147309886Y-79645114D01*
X147361566Y-79631878D01*
X147361678Y-79631849D01*
X147409635Y-79619100D01*
X147410175Y-79618943D01*
X147455809Y-79604619D01*
X147456735Y-79604289D01*
X147501596Y-79586288D01*
X147502736Y-79585764D01*
X147548370Y-79561985D01*
X147549498Y-79561321D01*
X147597452Y-79529664D01*
X147598410Y-79528965D01*
X147650232Y-79487326D01*
X147650968Y-79486686D01*
X147699235Y-79441387D01*
X147858611Y-79600763D01*
G04 #@! TA.AperFunction,Conductor*
D13*
G36*
X147858611Y-79600763D02*
G01*
X147813311Y-79649029D01*
X147812671Y-79649765D01*
X147771032Y-79701587D01*
X147770333Y-79702545D01*
X147738676Y-79750499D01*
X147738012Y-79751627D01*
X147714233Y-79797261D01*
X147713709Y-79798401D01*
X147695708Y-79843262D01*
X147695378Y-79844188D01*
X147681054Y-79889822D01*
X147680897Y-79890362D01*
X147668148Y-79938319D01*
X147668119Y-79938431D01*
X147654883Y-79990111D01*
X147639071Y-80047025D01*
X147621299Y-80102338D01*
X147189213Y-80110785D01*
X147197660Y-79678699D01*
X147252972Y-79660926D01*
X147309886Y-79645114D01*
X147361566Y-79631878D01*
X147361678Y-79631849D01*
X147409635Y-79619100D01*
X147410175Y-79618943D01*
X147455809Y-79604619D01*
X147456735Y-79604289D01*
X147501596Y-79586288D01*
X147502736Y-79585764D01*
X147548370Y-79561985D01*
X147549498Y-79561321D01*
X147597452Y-79529664D01*
X147598410Y-79528965D01*
X147650232Y-79487326D01*
X147650968Y-79486686D01*
X147699235Y-79441387D01*
X147858611Y-79600763D01*
G37*
G04 #@! TD.AperFunction*
D14*
X139281012Y-86034692D02*
X139281182Y-86036223D01*
X139305924Y-86179259D01*
X139306366Y-86181037D01*
X139345131Y-86299730D01*
X139345855Y-86301489D01*
X139396623Y-86402523D01*
X139397442Y-86403923D01*
X139458189Y-86493979D01*
X139458806Y-86494817D01*
X139527511Y-86580578D01*
X139527731Y-86580845D01*
X139602282Y-86668884D01*
X139680499Y-86765680D01*
X139760417Y-86877898D01*
X139835740Y-87004871D01*
X139204256Y-87716392D01*
X138517965Y-87057589D01*
X138584636Y-86921838D01*
X138657146Y-86802083D01*
X138729579Y-86699044D01*
X138799804Y-86605728D01*
X138799929Y-86605558D01*
X138865584Y-86515222D01*
X138866086Y-86514477D01*
X138924815Y-86420334D01*
X138925523Y-86419038D01*
X138975090Y-86314139D01*
X138975733Y-86312488D01*
X139013906Y-86189886D01*
X139014307Y-86188199D01*
X139038849Y-86040943D01*
X139039007Y-86039470D01*
X139047099Y-85872700D01*
X139272919Y-85872700D01*
X139281012Y-86034692D01*
G04 #@! TA.AperFunction,Conductor*
D13*
G36*
X139281012Y-86034692D02*
G01*
X139281182Y-86036223D01*
X139305924Y-86179259D01*
X139306366Y-86181037D01*
X139345131Y-86299730D01*
X139345855Y-86301489D01*
X139396623Y-86402523D01*
X139397442Y-86403923D01*
X139458189Y-86493979D01*
X139458806Y-86494817D01*
X139527511Y-86580578D01*
X139527731Y-86580845D01*
X139602282Y-86668884D01*
X139680499Y-86765680D01*
X139760417Y-86877898D01*
X139835740Y-87004871D01*
X139204256Y-87716392D01*
X138517965Y-87057589D01*
X138584636Y-86921838D01*
X138657146Y-86802083D01*
X138729579Y-86699044D01*
X138799804Y-86605728D01*
X138799929Y-86605558D01*
X138865584Y-86515222D01*
X138866086Y-86514477D01*
X138924815Y-86420334D01*
X138925523Y-86419038D01*
X138975090Y-86314139D01*
X138975733Y-86312488D01*
X139013906Y-86189886D01*
X139014307Y-86188199D01*
X139038849Y-86040943D01*
X139039007Y-86039470D01*
X139047099Y-85872700D01*
X139272919Y-85872700D01*
X139281012Y-86034692D01*
G37*
G04 #@! TD.AperFunction*
D14*
X138654793Y-79558861D02*
X138654862Y-79559835D01*
X138662063Y-79625921D01*
X138662246Y-79627092D01*
X138673769Y-79683386D01*
X138674097Y-79684653D01*
X138689551Y-79733735D01*
X138689986Y-79734911D01*
X138708979Y-79779361D01*
X138709401Y-79780250D01*
X138731541Y-79822647D01*
X138731812Y-79823140D01*
X138756708Y-79866065D01*
X138756766Y-79866164D01*
X138783970Y-79912104D01*
X138812999Y-79963467D01*
X138839559Y-80015174D01*
X138540000Y-80326678D01*
X138240441Y-80015174D01*
X138267000Y-79963467D01*
X138296029Y-79912104D01*
X138323233Y-79866164D01*
X138323291Y-79866065D01*
X138348187Y-79823140D01*
X138348458Y-79822647D01*
X138370598Y-79780250D01*
X138371020Y-79779361D01*
X138390013Y-79734911D01*
X138390448Y-79733735D01*
X138405902Y-79684653D01*
X138406230Y-79683386D01*
X138417753Y-79627092D01*
X138417936Y-79625921D01*
X138425137Y-79559835D01*
X138425206Y-79558862D01*
X138427304Y-79492700D01*
X138652696Y-79492700D01*
X138654793Y-79558861D01*
G04 #@! TA.AperFunction,Conductor*
D13*
G36*
X138654793Y-79558861D02*
G01*
X138654862Y-79559835D01*
X138662063Y-79625921D01*
X138662246Y-79627092D01*
X138673769Y-79683386D01*
X138674097Y-79684653D01*
X138689551Y-79733735D01*
X138689986Y-79734911D01*
X138708979Y-79779361D01*
X138709401Y-79780250D01*
X138731541Y-79822647D01*
X138731812Y-79823140D01*
X138756708Y-79866065D01*
X138756766Y-79866164D01*
X138783970Y-79912104D01*
X138812999Y-79963467D01*
X138839559Y-80015174D01*
X138540000Y-80326678D01*
X138240441Y-80015174D01*
X138267000Y-79963467D01*
X138296029Y-79912104D01*
X138323233Y-79866164D01*
X138323291Y-79866065D01*
X138348187Y-79823140D01*
X138348458Y-79822647D01*
X138370598Y-79780250D01*
X138371020Y-79779361D01*
X138390013Y-79734911D01*
X138390448Y-79733735D01*
X138405902Y-79684653D01*
X138406230Y-79683386D01*
X138417753Y-79627092D01*
X138417936Y-79625921D01*
X138425137Y-79559835D01*
X138425206Y-79558862D01*
X138427304Y-79492700D01*
X138652696Y-79492700D01*
X138654793Y-79558861D01*
G37*
G04 #@! TD.AperFunction*
D14*
X140754295Y-76625587D02*
X140700143Y-76663861D01*
X140645197Y-76698720D01*
X140594898Y-76727743D01*
X140547415Y-76753623D01*
X140547398Y-76753632D01*
X140501171Y-76778921D01*
X140500846Y-76779105D01*
X140454329Y-76806357D01*
X140453777Y-76806700D01*
X140405296Y-76838544D01*
X140404652Y-76838996D01*
X140352528Y-76878058D01*
X140351911Y-76878551D01*
X140294470Y-76927458D01*
X140293943Y-76927932D01*
X140238482Y-76980764D01*
X140079116Y-76821398D01*
X140118119Y-76779305D01*
X140118889Y-76778390D01*
X140154900Y-76731325D01*
X140155743Y-76730078D01*
X140181985Y-76685750D01*
X140182764Y-76684201D01*
X140200773Y-76641351D01*
X140201340Y-76639687D01*
X140212650Y-76597060D01*
X140212951Y-76595573D01*
X140219096Y-76551909D01*
X140219201Y-76550833D01*
X140221716Y-76504875D01*
X140221735Y-76504288D01*
X140222154Y-76454780D01*
X140222154Y-76454640D01*
X140222012Y-76400437D01*
X140222719Y-76349135D01*
X140632305Y-76211005D01*
X140754295Y-76625587D01*
G04 #@! TA.AperFunction,Conductor*
D13*
G36*
X140754295Y-76625587D02*
G01*
X140700143Y-76663861D01*
X140645197Y-76698720D01*
X140594898Y-76727743D01*
X140547415Y-76753623D01*
X140547398Y-76753632D01*
X140501171Y-76778921D01*
X140500846Y-76779105D01*
X140454329Y-76806357D01*
X140453777Y-76806700D01*
X140405296Y-76838544D01*
X140404652Y-76838996D01*
X140352528Y-76878058D01*
X140351911Y-76878551D01*
X140294470Y-76927458D01*
X140293943Y-76927932D01*
X140238482Y-76980764D01*
X140079116Y-76821398D01*
X140118119Y-76779305D01*
X140118889Y-76778390D01*
X140154900Y-76731325D01*
X140155743Y-76730078D01*
X140181985Y-76685750D01*
X140182764Y-76684201D01*
X140200773Y-76641351D01*
X140201340Y-76639687D01*
X140212650Y-76597060D01*
X140212951Y-76595573D01*
X140219096Y-76551909D01*
X140219201Y-76550833D01*
X140221716Y-76504875D01*
X140221735Y-76504288D01*
X140222154Y-76454780D01*
X140222154Y-76454640D01*
X140222012Y-76400437D01*
X140222719Y-76349135D01*
X140632305Y-76211005D01*
X140754295Y-76625587D01*
G37*
G04 #@! TD.AperFunction*
D14*
X142135472Y-79644316D02*
X142109164Y-79673729D01*
X142108113Y-79675077D01*
X142083219Y-79711857D01*
X142082191Y-79713683D01*
X142065837Y-79749355D01*
X142065056Y-79751589D01*
X142056360Y-79786635D01*
X142056005Y-79788997D01*
X142054086Y-79823897D01*
X142054147Y-79826018D01*
X142058122Y-79861251D01*
X142058419Y-79862900D01*
X142067408Y-79898947D01*
X142067749Y-79900084D01*
X142080869Y-79937426D01*
X142081135Y-79938119D01*
X142097504Y-79977235D01*
X142097651Y-79977572D01*
X142112762Y-80010936D01*
X141809258Y-80314286D01*
X141578341Y-79914522D01*
X141621454Y-79870638D01*
X141621622Y-79870465D01*
X141663820Y-79825850D01*
X141663979Y-79825678D01*
X141700666Y-79785430D01*
X141700790Y-79785293D01*
X141734136Y-79747621D01*
X141734196Y-79747552D01*
X141766358Y-79710686D01*
X141799454Y-79672895D01*
X141835782Y-79632245D01*
X141877277Y-79587207D01*
X141926400Y-79535671D01*
X141976238Y-79485082D01*
X142135472Y-79644316D01*
G04 #@! TA.AperFunction,Conductor*
D13*
G36*
X142135472Y-79644316D02*
G01*
X142109164Y-79673729D01*
X142108113Y-79675077D01*
X142083219Y-79711857D01*
X142082191Y-79713683D01*
X142065837Y-79749355D01*
X142065056Y-79751589D01*
X142056360Y-79786635D01*
X142056005Y-79788997D01*
X142054086Y-79823897D01*
X142054147Y-79826018D01*
X142058122Y-79861251D01*
X142058419Y-79862900D01*
X142067408Y-79898947D01*
X142067749Y-79900084D01*
X142080869Y-79937426D01*
X142081135Y-79938119D01*
X142097504Y-79977235D01*
X142097651Y-79977572D01*
X142112762Y-80010936D01*
X141809258Y-80314286D01*
X141578341Y-79914522D01*
X141621454Y-79870638D01*
X141621622Y-79870465D01*
X141663820Y-79825850D01*
X141663979Y-79825678D01*
X141700666Y-79785430D01*
X141700790Y-79785293D01*
X141734136Y-79747621D01*
X141734196Y-79747552D01*
X141766358Y-79710686D01*
X141799454Y-79672895D01*
X141835782Y-79632245D01*
X141877277Y-79587207D01*
X141926400Y-79535671D01*
X141976238Y-79485082D01*
X142135472Y-79644316D01*
G37*
G04 #@! TD.AperFunction*
D14*
X147982513Y-76385885D02*
X147610628Y-76606164D01*
X147570033Y-76572010D01*
X147528349Y-76535300D01*
X147528316Y-76535272D01*
X147490249Y-76501975D01*
X147489885Y-76501668D01*
X147453392Y-76472088D01*
X147452622Y-76471511D01*
X147415569Y-76445870D01*
X147414380Y-76445140D01*
X147374633Y-76423661D01*
X147373142Y-76422976D01*
X147328568Y-76405883D01*
X147327012Y-76405398D01*
X147275478Y-76392912D01*
X147274078Y-76392655D01*
X147213448Y-76385001D01*
X147212316Y-76384909D01*
X147152700Y-76382751D01*
X147152700Y-76157373D01*
X147226901Y-76155435D01*
X147227674Y-76155391D01*
X147300757Y-76149008D01*
X147301639Y-76148900D01*
X147364194Y-76138989D01*
X147365095Y-76138812D01*
X147420076Y-76125972D01*
X147420852Y-76125765D01*
X147471218Y-76110591D01*
X147471719Y-76110428D01*
X147520427Y-76093517D01*
X147520574Y-76093465D01*
X147570442Y-76075463D01*
X147624421Y-76056962D01*
X147685386Y-76038571D01*
X147747907Y-76022954D01*
X147982513Y-76385885D01*
G04 #@! TA.AperFunction,Conductor*
D13*
G36*
X147982513Y-76385885D02*
G01*
X147610628Y-76606164D01*
X147570033Y-76572010D01*
X147528349Y-76535300D01*
X147528316Y-76535272D01*
X147490249Y-76501975D01*
X147489885Y-76501668D01*
X147453392Y-76472088D01*
X147452622Y-76471511D01*
X147415569Y-76445870D01*
X147414380Y-76445140D01*
X147374633Y-76423661D01*
X147373142Y-76422976D01*
X147328568Y-76405883D01*
X147327012Y-76405398D01*
X147275478Y-76392912D01*
X147274078Y-76392655D01*
X147213448Y-76385001D01*
X147212316Y-76384909D01*
X147152700Y-76382751D01*
X147152700Y-76157373D01*
X147226901Y-76155435D01*
X147227674Y-76155391D01*
X147300757Y-76149008D01*
X147301639Y-76148900D01*
X147364194Y-76138989D01*
X147365095Y-76138812D01*
X147420076Y-76125972D01*
X147420852Y-76125765D01*
X147471218Y-76110591D01*
X147471719Y-76110428D01*
X147520427Y-76093517D01*
X147520574Y-76093465D01*
X147570442Y-76075463D01*
X147624421Y-76056962D01*
X147685386Y-76038571D01*
X147747907Y-76022954D01*
X147982513Y-76385885D01*
G37*
G04 #@! TD.AperFunction*
D14*
X140314793Y-79548869D02*
X140314862Y-79549843D01*
X140322063Y-79615929D01*
X140322246Y-79617100D01*
X140333769Y-79673394D01*
X140334097Y-79674661D01*
X140349551Y-79723743D01*
X140349986Y-79724919D01*
X140368979Y-79769369D01*
X140369401Y-79770258D01*
X140391541Y-79812655D01*
X140391812Y-79813148D01*
X140416708Y-79856073D01*
X140416766Y-79856172D01*
X140443970Y-79902112D01*
X140472999Y-79953475D01*
X140499559Y-80005182D01*
X140200000Y-80316686D01*
X139900441Y-80005182D01*
X139927000Y-79953475D01*
X139956029Y-79902112D01*
X139983233Y-79856172D01*
X139983291Y-79856073D01*
X140008187Y-79813148D01*
X140008458Y-79812655D01*
X140030598Y-79770258D01*
X140031020Y-79769369D01*
X140050013Y-79724919D01*
X140050448Y-79723743D01*
X140065902Y-79674661D01*
X140066230Y-79673394D01*
X140077753Y-79617100D01*
X140077936Y-79615929D01*
X140085137Y-79549843D01*
X140085206Y-79548870D01*
X140087304Y-79482708D01*
X140312696Y-79482708D01*
X140314793Y-79548869D01*
G04 #@! TA.AperFunction,Conductor*
D13*
G36*
X140314793Y-79548869D02*
G01*
X140314862Y-79549843D01*
X140322063Y-79615929D01*
X140322246Y-79617100D01*
X140333769Y-79673394D01*
X140334097Y-79674661D01*
X140349551Y-79723743D01*
X140349986Y-79724919D01*
X140368979Y-79769369D01*
X140369401Y-79770258D01*
X140391541Y-79812655D01*
X140391812Y-79813148D01*
X140416708Y-79856073D01*
X140416766Y-79856172D01*
X140443970Y-79902112D01*
X140472999Y-79953475D01*
X140499559Y-80005182D01*
X140200000Y-80316686D01*
X139900441Y-80005182D01*
X139927000Y-79953475D01*
X139956029Y-79902112D01*
X139983233Y-79856172D01*
X139983291Y-79856073D01*
X140008187Y-79813148D01*
X140008458Y-79812655D01*
X140030598Y-79770258D01*
X140031020Y-79769369D01*
X140050013Y-79724919D01*
X140050448Y-79723743D01*
X140065902Y-79674661D01*
X140066230Y-79673394D01*
X140077753Y-79617100D01*
X140077936Y-79615929D01*
X140085137Y-79549843D01*
X140085206Y-79548870D01*
X140087304Y-79482708D01*
X140312696Y-79482708D01*
X140314793Y-79548869D01*
G37*
G04 #@! TD.AperFunction*
D14*
X143132762Y-76640612D02*
X143076526Y-76669333D01*
X143019387Y-76695369D01*
X142967335Y-76717164D01*
X142918867Y-76737030D01*
X142918602Y-76737142D01*
X142872046Y-76757471D01*
X142871442Y-76757754D01*
X142825213Y-76780902D01*
X142824395Y-76781350D01*
X142776824Y-76809713D01*
X142775968Y-76810271D01*
X142725382Y-76846242D01*
X142724621Y-76846828D01*
X142669349Y-76892801D01*
X142668737Y-76893344D01*
X142616081Y-76943215D01*
X142456723Y-76783857D01*
X142499263Y-76738299D01*
X142499960Y-76737486D01*
X142539132Y-76687719D01*
X142539903Y-76686627D01*
X142569126Y-76640176D01*
X142569858Y-76638840D01*
X142590927Y-76594263D01*
X142591494Y-76592851D01*
X142606205Y-76548704D01*
X142606547Y-76547474D01*
X142616696Y-76502314D01*
X142616855Y-76501475D01*
X142624238Y-76453859D01*
X142624291Y-76453482D01*
X142630704Y-76401967D01*
X142630703Y-76401967D01*
X142637915Y-76345314D01*
X142646367Y-76290763D01*
X143071493Y-76212813D01*
X143132762Y-76640612D01*
G04 #@! TA.AperFunction,Conductor*
D13*
G36*
X143132762Y-76640612D02*
G01*
X143076526Y-76669333D01*
X143019387Y-76695369D01*
X142967335Y-76717164D01*
X142918867Y-76737030D01*
X142918602Y-76737142D01*
X142872046Y-76757471D01*
X142871442Y-76757754D01*
X142825213Y-76780902D01*
X142824395Y-76781350D01*
X142776824Y-76809713D01*
X142775968Y-76810271D01*
X142725382Y-76846242D01*
X142724621Y-76846828D01*
X142669349Y-76892801D01*
X142668737Y-76893344D01*
X142616081Y-76943215D01*
X142456723Y-76783857D01*
X142499263Y-76738299D01*
X142499960Y-76737486D01*
X142539132Y-76687719D01*
X142539903Y-76686627D01*
X142569126Y-76640176D01*
X142569858Y-76638840D01*
X142590927Y-76594263D01*
X142591494Y-76592851D01*
X142606205Y-76548704D01*
X142606547Y-76547474D01*
X142616696Y-76502314D01*
X142616855Y-76501475D01*
X142624238Y-76453859D01*
X142624291Y-76453482D01*
X142630704Y-76401967D01*
X142630703Y-76401967D01*
X142637915Y-76345314D01*
X142646367Y-76290763D01*
X143071493Y-76212813D01*
X143132762Y-76640612D01*
G37*
G04 #@! TD.AperFunction*
M02*
