G04 #@! TF.GenerationSoftware,KiCad,Pcbnew,(5.1.8-0-10_14)*
G04 #@! TF.CreationDate,2021-09-22T21:19:34-04:00*
G04 #@! TF.ProjectId,WiiComp,57696943-6f6d-4702-9e6b-696361645f70,1*
G04 #@! TF.SameCoordinates,Original*
G04 #@! TF.FileFunction,Legend,Bot*
G04 #@! TF.FilePolarity,Positive*
%FSLAX46Y46*%
G04 Gerber Fmt 4.6, Leading zero omitted, Abs format (unit mm)*
G04 Created by KiCad (PCBNEW (5.1.8-0-10_14)) date 2021-09-22 21:19:34*
%MOMM*%
%LPD*%
G01*
G04 APERTURE LIST*
%ADD10C,0.127000*%
G04 APERTURE END LIST*
D10*
X149479571Y-76527714D02*
X149044142Y-76527714D01*
X149261857Y-77289714D02*
X149261857Y-76527714D01*
X148790142Y-77289714D02*
X148790142Y-76527714D01*
X148790142Y-76890571D02*
X148354714Y-76890571D01*
X148354714Y-77289714D02*
X148354714Y-76527714D01*
X147991857Y-77289714D02*
X147991857Y-76527714D01*
X147665285Y-77253428D02*
X147556428Y-77289714D01*
X147375000Y-77289714D01*
X147302428Y-77253428D01*
X147266142Y-77217142D01*
X147229857Y-77144571D01*
X147229857Y-77072000D01*
X147266142Y-76999428D01*
X147302428Y-76963142D01*
X147375000Y-76926857D01*
X147520142Y-76890571D01*
X147592714Y-76854285D01*
X147629000Y-76818000D01*
X147665285Y-76745428D01*
X147665285Y-76672857D01*
X147629000Y-76600285D01*
X147592714Y-76564000D01*
X147520142Y-76527714D01*
X147338714Y-76527714D01*
X147229857Y-76564000D01*
X146431571Y-76527714D02*
X145996142Y-76527714D01*
X146213857Y-77289714D02*
X146213857Y-76527714D01*
X145742142Y-76890571D02*
X145488142Y-76890571D01*
X145379285Y-77289714D02*
X145742142Y-77289714D01*
X145742142Y-76527714D01*
X145379285Y-76527714D01*
X145125285Y-76527714D02*
X144617285Y-77289714D01*
X144617285Y-76527714D02*
X145125285Y-77289714D01*
X144435857Y-76527714D02*
X144000428Y-76527714D01*
X144218142Y-77289714D02*
X144218142Y-76527714D01*
X143202142Y-77253428D02*
X143093285Y-77289714D01*
X142911857Y-77289714D01*
X142839285Y-77253428D01*
X142803000Y-77217142D01*
X142766714Y-77144571D01*
X142766714Y-77072000D01*
X142803000Y-76999428D01*
X142839285Y-76963142D01*
X142911857Y-76926857D01*
X143057000Y-76890571D01*
X143129571Y-76854285D01*
X143165857Y-76818000D01*
X143202142Y-76745428D01*
X143202142Y-76672857D01*
X143165857Y-76600285D01*
X143129571Y-76564000D01*
X143057000Y-76527714D01*
X142875571Y-76527714D01*
X142766714Y-76564000D01*
X142440142Y-77289714D02*
X142440142Y-76527714D01*
X142440142Y-76890571D02*
X142004714Y-76890571D01*
X142004714Y-77289714D02*
X142004714Y-76527714D01*
X141496714Y-76527714D02*
X141351571Y-76527714D01*
X141279000Y-76564000D01*
X141206428Y-76636571D01*
X141170142Y-76781714D01*
X141170142Y-77035714D01*
X141206428Y-77180857D01*
X141279000Y-77253428D01*
X141351571Y-77289714D01*
X141496714Y-77289714D01*
X141569285Y-77253428D01*
X141641857Y-77180857D01*
X141678142Y-77035714D01*
X141678142Y-76781714D01*
X141641857Y-76636571D01*
X141569285Y-76564000D01*
X141496714Y-76527714D01*
X140843571Y-76527714D02*
X140843571Y-77144571D01*
X140807285Y-77217142D01*
X140771000Y-77253428D01*
X140698428Y-77289714D01*
X140553285Y-77289714D01*
X140480714Y-77253428D01*
X140444428Y-77217142D01*
X140408142Y-77144571D01*
X140408142Y-76527714D01*
X139682428Y-77289714D02*
X140045285Y-77289714D01*
X140045285Y-76527714D01*
X139428428Y-77289714D02*
X139428428Y-76527714D01*
X139247000Y-76527714D01*
X139138142Y-76564000D01*
X139065571Y-76636571D01*
X139029285Y-76709142D01*
X138993000Y-76854285D01*
X138993000Y-76963142D01*
X139029285Y-77108285D01*
X139065571Y-77180857D01*
X139138142Y-77253428D01*
X139247000Y-77289714D01*
X139428428Y-77289714D01*
X148499857Y-78559714D02*
X148499857Y-77797714D01*
X148064428Y-78559714D01*
X148064428Y-77797714D01*
X147556428Y-77797714D02*
X147411285Y-77797714D01*
X147338714Y-77834000D01*
X147266142Y-77906571D01*
X147229857Y-78051714D01*
X147229857Y-78305714D01*
X147266142Y-78450857D01*
X147338714Y-78523428D01*
X147411285Y-78559714D01*
X147556428Y-78559714D01*
X147629000Y-78523428D01*
X147701571Y-78450857D01*
X147737857Y-78305714D01*
X147737857Y-78051714D01*
X147701571Y-77906571D01*
X147629000Y-77834000D01*
X147556428Y-77797714D01*
X147012142Y-77797714D02*
X146576714Y-77797714D01*
X146794428Y-78559714D02*
X146794428Y-77797714D01*
X145488142Y-78160571D02*
X145379285Y-78196857D01*
X145343000Y-78233142D01*
X145306714Y-78305714D01*
X145306714Y-78414571D01*
X145343000Y-78487142D01*
X145379285Y-78523428D01*
X145451857Y-78559714D01*
X145742142Y-78559714D01*
X145742142Y-77797714D01*
X145488142Y-77797714D01*
X145415571Y-77834000D01*
X145379285Y-77870285D01*
X145343000Y-77942857D01*
X145343000Y-78015428D01*
X145379285Y-78088000D01*
X145415571Y-78124285D01*
X145488142Y-78160571D01*
X145742142Y-78160571D01*
X144980142Y-78160571D02*
X144726142Y-78160571D01*
X144617285Y-78559714D02*
X144980142Y-78559714D01*
X144980142Y-77797714D01*
X144617285Y-77797714D01*
X143819000Y-77797714D02*
X143565000Y-78559714D01*
X143311000Y-77797714D01*
X143057000Y-78559714D02*
X143057000Y-77797714D01*
X142730428Y-78523428D02*
X142621571Y-78559714D01*
X142440142Y-78559714D01*
X142367571Y-78523428D01*
X142331285Y-78487142D01*
X142295000Y-78414571D01*
X142295000Y-78342000D01*
X142331285Y-78269428D01*
X142367571Y-78233142D01*
X142440142Y-78196857D01*
X142585285Y-78160571D01*
X142657857Y-78124285D01*
X142694142Y-78088000D01*
X142730428Y-78015428D01*
X142730428Y-77942857D01*
X142694142Y-77870285D01*
X142657857Y-77834000D01*
X142585285Y-77797714D01*
X142403857Y-77797714D01*
X142295000Y-77834000D01*
X141968428Y-78559714D02*
X141968428Y-77797714D01*
X141351571Y-78160571D02*
X141242714Y-78196857D01*
X141206428Y-78233142D01*
X141170142Y-78305714D01*
X141170142Y-78414571D01*
X141206428Y-78487142D01*
X141242714Y-78523428D01*
X141315285Y-78559714D01*
X141605571Y-78559714D01*
X141605571Y-77797714D01*
X141351571Y-77797714D01*
X141279000Y-77834000D01*
X141242714Y-77870285D01*
X141206428Y-77942857D01*
X141206428Y-78015428D01*
X141242714Y-78088000D01*
X141279000Y-78124285D01*
X141351571Y-78160571D01*
X141605571Y-78160571D01*
X140480714Y-78559714D02*
X140843571Y-78559714D01*
X140843571Y-77797714D01*
X140226714Y-78160571D02*
X139972714Y-78160571D01*
X139863857Y-78559714D02*
X140226714Y-78559714D01*
X140226714Y-77797714D01*
X139863857Y-77797714D01*
X135940000Y-90970000D02*
X152480000Y-90970000D01*
%LPC*%
G36*
G01*
X150294200Y-82300400D02*
X150294200Y-81499600D01*
G75*
G02*
X150694600Y-81099200I400400J0D01*
G01*
X151495400Y-81099200D01*
G75*
G02*
X151895800Y-81499600I0J-400400D01*
G01*
X151895800Y-82300400D01*
G75*
G02*
X151495400Y-82700800I-400400J0D01*
G01*
X150694600Y-82700800D01*
G75*
G02*
X150294200Y-82300400I0J400400D01*
G01*
G37*
G36*
G01*
X148034200Y-82300400D02*
X148034200Y-81499600D01*
G75*
G02*
X148434600Y-81099200I400400J0D01*
G01*
X149235400Y-81099200D01*
G75*
G02*
X149635800Y-81499600I0J-400400D01*
G01*
X149635800Y-82300400D01*
G75*
G02*
X149235400Y-82700800I-400400J0D01*
G01*
X148434600Y-82700800D01*
G75*
G02*
X148034200Y-82300400I0J400400D01*
G01*
G37*
G36*
G01*
X145774200Y-82300400D02*
X145774200Y-81499600D01*
G75*
G02*
X146174600Y-81099200I400400J0D01*
G01*
X146975400Y-81099200D01*
G75*
G02*
X147375800Y-81499600I0J-400400D01*
G01*
X147375800Y-82300400D01*
G75*
G02*
X146975400Y-82700800I-400400J0D01*
G01*
X146174600Y-82700800D01*
G75*
G02*
X145774200Y-82300400I0J400400D01*
G01*
G37*
G36*
G01*
X140984200Y-82300400D02*
X140984200Y-81499600D01*
G75*
G02*
X141384600Y-81099200I400400J0D01*
G01*
X142185400Y-81099200D01*
G75*
G02*
X142585800Y-81499600I0J-400400D01*
G01*
X142585800Y-82300400D01*
G75*
G02*
X142185400Y-82700800I-400400J0D01*
G01*
X141384600Y-82700800D01*
G75*
G02*
X140984200Y-82300400I0J400400D01*
G01*
G37*
G36*
G01*
X138739200Y-82300400D02*
X138739200Y-81499600D01*
G75*
G02*
X139139600Y-81099200I400400J0D01*
G01*
X139940400Y-81099200D01*
G75*
G02*
X140340800Y-81499600I0J-400400D01*
G01*
X140340800Y-82300400D01*
G75*
G02*
X139940400Y-82700800I-400400J0D01*
G01*
X139139600Y-82700800D01*
G75*
G02*
X138739200Y-82300400I0J400400D01*
G01*
G37*
G36*
G01*
X136494200Y-82300400D02*
X136494200Y-81499600D01*
G75*
G02*
X136894600Y-81099200I400400J0D01*
G01*
X137695400Y-81099200D01*
G75*
G02*
X138095800Y-81499600I0J-400400D01*
G01*
X138095800Y-82300400D01*
G75*
G02*
X137695400Y-82700800I-400400J0D01*
G01*
X136894600Y-82700800D01*
G75*
G02*
X136494200Y-82300400I0J400400D01*
G01*
G37*
G36*
G01*
X136389200Y-90510400D02*
X136389200Y-84209600D01*
G75*
G02*
X136789600Y-83809200I400400J0D01*
G01*
X137590400Y-83809200D01*
G75*
G02*
X137990800Y-84209600I0J-400400D01*
G01*
X137990800Y-90510400D01*
G75*
G02*
X137590400Y-90910800I-400400J0D01*
G01*
X136789600Y-90910800D01*
G75*
G02*
X136389200Y-90510400I0J400400D01*
G01*
G37*
G36*
G01*
X138389200Y-90510400D02*
X138389200Y-84209600D01*
G75*
G02*
X138789600Y-83809200I400400J0D01*
G01*
X139590400Y-83809200D01*
G75*
G02*
X139990800Y-84209600I0J-400400D01*
G01*
X139990800Y-90510400D01*
G75*
G02*
X139590400Y-90910800I-400400J0D01*
G01*
X138789600Y-90910800D01*
G75*
G02*
X138389200Y-90510400I0J400400D01*
G01*
G37*
G36*
G01*
X140389200Y-90510400D02*
X140389200Y-84209600D01*
G75*
G02*
X140789600Y-83809200I400400J0D01*
G01*
X141590400Y-83809200D01*
G75*
G02*
X141990800Y-84209600I0J-400400D01*
G01*
X141990800Y-90510400D01*
G75*
G02*
X141590400Y-90910800I-400400J0D01*
G01*
X140789600Y-90910800D01*
G75*
G02*
X140389200Y-90510400I0J400400D01*
G01*
G37*
G36*
G01*
X142389200Y-90510400D02*
X142389200Y-84209600D01*
G75*
G02*
X142789600Y-83809200I400400J0D01*
G01*
X143590400Y-83809200D01*
G75*
G02*
X143990800Y-84209600I0J-400400D01*
G01*
X143990800Y-90510400D01*
G75*
G02*
X143590400Y-90910800I-400400J0D01*
G01*
X142789600Y-90910800D01*
G75*
G02*
X142389200Y-90510400I0J400400D01*
G01*
G37*
G36*
G01*
X144389200Y-90510400D02*
X144389200Y-84209600D01*
G75*
G02*
X144789600Y-83809200I400400J0D01*
G01*
X145590400Y-83809200D01*
G75*
G02*
X145990800Y-84209600I0J-400400D01*
G01*
X145990800Y-90510400D01*
G75*
G02*
X145590400Y-90910800I-400400J0D01*
G01*
X144789600Y-90910800D01*
G75*
G02*
X144389200Y-90510400I0J400400D01*
G01*
G37*
G36*
G01*
X146389200Y-90510400D02*
X146389200Y-84209600D01*
G75*
G02*
X146789600Y-83809200I400400J0D01*
G01*
X147590400Y-83809200D01*
G75*
G02*
X147990800Y-84209600I0J-400400D01*
G01*
X147990800Y-90510400D01*
G75*
G02*
X147590400Y-90910800I-400400J0D01*
G01*
X146789600Y-90910800D01*
G75*
G02*
X146389200Y-90510400I0J400400D01*
G01*
G37*
G36*
G01*
X148389200Y-90510400D02*
X148389200Y-84209600D01*
G75*
G02*
X148789600Y-83809200I400400J0D01*
G01*
X149590400Y-83809200D01*
G75*
G02*
X149990800Y-84209600I0J-400400D01*
G01*
X149990800Y-90510400D01*
G75*
G02*
X149590400Y-90910800I-400400J0D01*
G01*
X148789600Y-90910800D01*
G75*
G02*
X148389200Y-90510400I0J400400D01*
G01*
G37*
G36*
G01*
X150389200Y-90510400D02*
X150389200Y-84209600D01*
G75*
G02*
X150789600Y-83809200I400400J0D01*
G01*
X151590400Y-83809200D01*
G75*
G02*
X151990800Y-84209600I0J-400400D01*
G01*
X151990800Y-90510400D01*
G75*
G02*
X151590400Y-90910800I-400400J0D01*
G01*
X150789600Y-90910800D01*
G75*
G02*
X150389200Y-90510400I0J400400D01*
G01*
G37*
M02*
