G04 #@! TF.GenerationSoftware,KiCad,Pcbnew,(5.1.8-0-10_14)*
G04 #@! TF.CreationDate,2021-09-22T21:19:34-04:00*
G04 #@! TF.ProjectId,WiiComp,57696943-6f6d-4702-9e6b-696361645f70,1*
G04 #@! TF.SameCoordinates,Original*
G04 #@! TF.FileFunction,Soldermask,Bot*
G04 #@! TF.FilePolarity,Negative*
%FSLAX46Y46*%
G04 Gerber Fmt 4.6, Leading zero omitted, Abs format (unit mm)*
G04 Created by KiCad (PCBNEW (5.1.8-0-10_14)) date 2021-09-22 21:19:34*
%MOMM*%
%LPD*%
G01*
G04 APERTURE LIST*
G04 APERTURE END LIST*
G36*
G01*
X150294200Y-82300400D02*
X150294200Y-81499600D01*
G75*
G02*
X150694600Y-81099200I400400J0D01*
G01*
X151495400Y-81099200D01*
G75*
G02*
X151895800Y-81499600I0J-400400D01*
G01*
X151895800Y-82300400D01*
G75*
G02*
X151495400Y-82700800I-400400J0D01*
G01*
X150694600Y-82700800D01*
G75*
G02*
X150294200Y-82300400I0J400400D01*
G01*
G37*
G36*
G01*
X148034200Y-82300400D02*
X148034200Y-81499600D01*
G75*
G02*
X148434600Y-81099200I400400J0D01*
G01*
X149235400Y-81099200D01*
G75*
G02*
X149635800Y-81499600I0J-400400D01*
G01*
X149635800Y-82300400D01*
G75*
G02*
X149235400Y-82700800I-400400J0D01*
G01*
X148434600Y-82700800D01*
G75*
G02*
X148034200Y-82300400I0J400400D01*
G01*
G37*
G36*
G01*
X145774200Y-82300400D02*
X145774200Y-81499600D01*
G75*
G02*
X146174600Y-81099200I400400J0D01*
G01*
X146975400Y-81099200D01*
G75*
G02*
X147375800Y-81499600I0J-400400D01*
G01*
X147375800Y-82300400D01*
G75*
G02*
X146975400Y-82700800I-400400J0D01*
G01*
X146174600Y-82700800D01*
G75*
G02*
X145774200Y-82300400I0J400400D01*
G01*
G37*
G36*
G01*
X140984200Y-82300400D02*
X140984200Y-81499600D01*
G75*
G02*
X141384600Y-81099200I400400J0D01*
G01*
X142185400Y-81099200D01*
G75*
G02*
X142585800Y-81499600I0J-400400D01*
G01*
X142585800Y-82300400D01*
G75*
G02*
X142185400Y-82700800I-400400J0D01*
G01*
X141384600Y-82700800D01*
G75*
G02*
X140984200Y-82300400I0J400400D01*
G01*
G37*
G36*
G01*
X138739200Y-82300400D02*
X138739200Y-81499600D01*
G75*
G02*
X139139600Y-81099200I400400J0D01*
G01*
X139940400Y-81099200D01*
G75*
G02*
X140340800Y-81499600I0J-400400D01*
G01*
X140340800Y-82300400D01*
G75*
G02*
X139940400Y-82700800I-400400J0D01*
G01*
X139139600Y-82700800D01*
G75*
G02*
X138739200Y-82300400I0J400400D01*
G01*
G37*
G36*
G01*
X136494200Y-82300400D02*
X136494200Y-81499600D01*
G75*
G02*
X136894600Y-81099200I400400J0D01*
G01*
X137695400Y-81099200D01*
G75*
G02*
X138095800Y-81499600I0J-400400D01*
G01*
X138095800Y-82300400D01*
G75*
G02*
X137695400Y-82700800I-400400J0D01*
G01*
X136894600Y-82700800D01*
G75*
G02*
X136494200Y-82300400I0J400400D01*
G01*
G37*
G36*
G01*
X136389200Y-90510400D02*
X136389200Y-84209600D01*
G75*
G02*
X136789600Y-83809200I400400J0D01*
G01*
X137590400Y-83809200D01*
G75*
G02*
X137990800Y-84209600I0J-400400D01*
G01*
X137990800Y-90510400D01*
G75*
G02*
X137590400Y-90910800I-400400J0D01*
G01*
X136789600Y-90910800D01*
G75*
G02*
X136389200Y-90510400I0J400400D01*
G01*
G37*
G36*
G01*
X138389200Y-90510400D02*
X138389200Y-84209600D01*
G75*
G02*
X138789600Y-83809200I400400J0D01*
G01*
X139590400Y-83809200D01*
G75*
G02*
X139990800Y-84209600I0J-400400D01*
G01*
X139990800Y-90510400D01*
G75*
G02*
X139590400Y-90910800I-400400J0D01*
G01*
X138789600Y-90910800D01*
G75*
G02*
X138389200Y-90510400I0J400400D01*
G01*
G37*
G36*
G01*
X140389200Y-90510400D02*
X140389200Y-84209600D01*
G75*
G02*
X140789600Y-83809200I400400J0D01*
G01*
X141590400Y-83809200D01*
G75*
G02*
X141990800Y-84209600I0J-400400D01*
G01*
X141990800Y-90510400D01*
G75*
G02*
X141590400Y-90910800I-400400J0D01*
G01*
X140789600Y-90910800D01*
G75*
G02*
X140389200Y-90510400I0J400400D01*
G01*
G37*
G36*
G01*
X142389200Y-90510400D02*
X142389200Y-84209600D01*
G75*
G02*
X142789600Y-83809200I400400J0D01*
G01*
X143590400Y-83809200D01*
G75*
G02*
X143990800Y-84209600I0J-400400D01*
G01*
X143990800Y-90510400D01*
G75*
G02*
X143590400Y-90910800I-400400J0D01*
G01*
X142789600Y-90910800D01*
G75*
G02*
X142389200Y-90510400I0J400400D01*
G01*
G37*
G36*
G01*
X144389200Y-90510400D02*
X144389200Y-84209600D01*
G75*
G02*
X144789600Y-83809200I400400J0D01*
G01*
X145590400Y-83809200D01*
G75*
G02*
X145990800Y-84209600I0J-400400D01*
G01*
X145990800Y-90510400D01*
G75*
G02*
X145590400Y-90910800I-400400J0D01*
G01*
X144789600Y-90910800D01*
G75*
G02*
X144389200Y-90510400I0J400400D01*
G01*
G37*
G36*
G01*
X146389200Y-90510400D02*
X146389200Y-84209600D01*
G75*
G02*
X146789600Y-83809200I400400J0D01*
G01*
X147590400Y-83809200D01*
G75*
G02*
X147990800Y-84209600I0J-400400D01*
G01*
X147990800Y-90510400D01*
G75*
G02*
X147590400Y-90910800I-400400J0D01*
G01*
X146789600Y-90910800D01*
G75*
G02*
X146389200Y-90510400I0J400400D01*
G01*
G37*
G36*
G01*
X148389200Y-90510400D02*
X148389200Y-84209600D01*
G75*
G02*
X148789600Y-83809200I400400J0D01*
G01*
X149590400Y-83809200D01*
G75*
G02*
X149990800Y-84209600I0J-400400D01*
G01*
X149990800Y-90510400D01*
G75*
G02*
X149590400Y-90910800I-400400J0D01*
G01*
X148789600Y-90910800D01*
G75*
G02*
X148389200Y-90510400I0J400400D01*
G01*
G37*
G36*
G01*
X150389200Y-90510400D02*
X150389200Y-84209600D01*
G75*
G02*
X150789600Y-83809200I400400J0D01*
G01*
X151590400Y-83809200D01*
G75*
G02*
X151990800Y-84209600I0J-400400D01*
G01*
X151990800Y-90510400D01*
G75*
G02*
X151590400Y-90910800I-400400J0D01*
G01*
X150789600Y-90910800D01*
G75*
G02*
X150389200Y-90510400I0J400400D01*
G01*
G37*
M02*
