G04 #@! TF.GenerationSoftware,KiCad,Pcbnew,(5.1.10-1-10_14)*
G04 #@! TF.CreationDate,2021-10-23T21:51:13-04:00*
G04 #@! TF.ProjectId,WiiComp,57696943-6f6d-4702-9e6b-696361645f70,1*
G04 #@! TF.SameCoordinates,Original*
G04 #@! TF.FileFunction,Paste,Top*
G04 #@! TF.FilePolarity,Positive*
%FSLAX46Y46*%
G04 Gerber Fmt 4.6, Leading zero omitted, Abs format (unit mm)*
G04 Created by KiCad (PCBNEW (5.1.10-1-10_14)) date 2021-10-23 21:51:13*
%MOMM*%
%LPD*%
G01*
G04 APERTURE LIST*
G04 APERTURE END LIST*
G36*
G01*
X136440000Y-90485000D02*
X136440000Y-84235000D01*
G75*
G02*
X136815000Y-83860000I375000J0D01*
G01*
X137565000Y-83860000D01*
G75*
G02*
X137940000Y-84235000I0J-375000D01*
G01*
X137940000Y-90485000D01*
G75*
G02*
X137565000Y-90860000I-375000J0D01*
G01*
X136815000Y-90860000D01*
G75*
G02*
X136440000Y-90485000I0J375000D01*
G01*
G37*
G36*
G01*
X138440000Y-90485000D02*
X138440000Y-84235000D01*
G75*
G02*
X138815000Y-83860000I375000J0D01*
G01*
X139565000Y-83860000D01*
G75*
G02*
X139940000Y-84235000I0J-375000D01*
G01*
X139940000Y-90485000D01*
G75*
G02*
X139565000Y-90860000I-375000J0D01*
G01*
X138815000Y-90860000D01*
G75*
G02*
X138440000Y-90485000I0J375000D01*
G01*
G37*
G36*
G01*
X140440000Y-90485000D02*
X140440000Y-84235000D01*
G75*
G02*
X140815000Y-83860000I375000J0D01*
G01*
X141565000Y-83860000D01*
G75*
G02*
X141940000Y-84235000I0J-375000D01*
G01*
X141940000Y-90485000D01*
G75*
G02*
X141565000Y-90860000I-375000J0D01*
G01*
X140815000Y-90860000D01*
G75*
G02*
X140440000Y-90485000I0J375000D01*
G01*
G37*
G36*
G01*
X142440000Y-90485000D02*
X142440000Y-84235000D01*
G75*
G02*
X142815000Y-83860000I375000J0D01*
G01*
X143565000Y-83860000D01*
G75*
G02*
X143940000Y-84235000I0J-375000D01*
G01*
X143940000Y-90485000D01*
G75*
G02*
X143565000Y-90860000I-375000J0D01*
G01*
X142815000Y-90860000D01*
G75*
G02*
X142440000Y-90485000I0J375000D01*
G01*
G37*
G36*
G01*
X144440000Y-90485000D02*
X144440000Y-84235000D01*
G75*
G02*
X144815000Y-83860000I375000J0D01*
G01*
X145565000Y-83860000D01*
G75*
G02*
X145940000Y-84235000I0J-375000D01*
G01*
X145940000Y-90485000D01*
G75*
G02*
X145565000Y-90860000I-375000J0D01*
G01*
X144815000Y-90860000D01*
G75*
G02*
X144440000Y-90485000I0J375000D01*
G01*
G37*
G36*
G01*
X146440000Y-90485000D02*
X146440000Y-84235000D01*
G75*
G02*
X146815000Y-83860000I375000J0D01*
G01*
X147565000Y-83860000D01*
G75*
G02*
X147940000Y-84235000I0J-375000D01*
G01*
X147940000Y-90485000D01*
G75*
G02*
X147565000Y-90860000I-375000J0D01*
G01*
X146815000Y-90860000D01*
G75*
G02*
X146440000Y-90485000I0J375000D01*
G01*
G37*
G36*
G01*
X148440000Y-90485000D02*
X148440000Y-84235000D01*
G75*
G02*
X148815000Y-83860000I375000J0D01*
G01*
X149565000Y-83860000D01*
G75*
G02*
X149940000Y-84235000I0J-375000D01*
G01*
X149940000Y-90485000D01*
G75*
G02*
X149565000Y-90860000I-375000J0D01*
G01*
X148815000Y-90860000D01*
G75*
G02*
X148440000Y-90485000I0J375000D01*
G01*
G37*
G36*
G01*
X150440000Y-90485000D02*
X150440000Y-84235000D01*
G75*
G02*
X150815000Y-83860000I375000J0D01*
G01*
X151565000Y-83860000D01*
G75*
G02*
X151940000Y-84235000I0J-375000D01*
G01*
X151940000Y-90485000D01*
G75*
G02*
X151565000Y-90860000I-375000J0D01*
G01*
X150815000Y-90860000D01*
G75*
G02*
X150440000Y-90485000I0J375000D01*
G01*
G37*
M02*
