G04 #@! TF.GenerationSoftware,KiCad,Pcbnew,(5.1.10-1-10_14)*
G04 #@! TF.CreationDate,2021-10-23T21:51:13-04:00*
G04 #@! TF.ProjectId,WiiComp,57696943-6f6d-4702-9e6b-696361645f70,1*
G04 #@! TF.SameCoordinates,Original*
G04 #@! TF.FileFunction,Copper,L1,Top*
G04 #@! TF.FilePolarity,Positive*
%FSLAX46Y46*%
G04 Gerber Fmt 4.6, Leading zero omitted, Abs format (unit mm)*
G04 Created by KiCad (PCBNEW (5.1.10-1-10_14)) date 2021-10-23 21:51:13*
%MOMM*%
%LPD*%
G01*
G04 APERTURE LIST*
G04 #@! TA.AperFunction,EtchedComponent*
%ADD10C,0.152400*%
G04 #@! TD*
G04 #@! TA.AperFunction,SMDPad,CuDef*
%ADD11C,0.152400*%
G04 #@! TD*
G04 #@! TA.AperFunction,SMDPad,CuDef*
%ADD12R,1.000000X1.500000*%
G04 #@! TD*
G04 #@! TA.AperFunction,ViaPad*
%ADD13C,0.700000*%
G04 #@! TD*
G04 #@! TA.AperFunction,Conductor*
%ADD14C,0.250000*%
G04 #@! TD*
G04 #@! TA.AperFunction,Conductor*
%ADD15C,0.160000*%
G04 #@! TD*
G04 #@! TA.AperFunction,Conductor*
%ADD16C,0.152400*%
G04 #@! TD*
G04 #@! TA.AperFunction,Conductor*
%ADD17C,0.025400*%
G04 #@! TD*
G04 APERTURE END LIST*
D10*
G36*
X137990000Y-81360000D02*
G01*
X138490000Y-81360000D01*
X138490000Y-81960000D01*
X137990000Y-81960000D01*
X137990000Y-81360000D01*
G37*
G04 #@! TA.AperFunction,ConnectorPad*
G36*
G01*
X149295000Y-78115000D02*
X149295000Y-75865000D01*
G75*
G02*
X149770000Y-75390000I475000J0D01*
G01*
X150720000Y-75390000D01*
G75*
G02*
X151195000Y-75865000I0J-475000D01*
G01*
X151195000Y-78115000D01*
G75*
G02*
X150720000Y-78590000I-475000J0D01*
G01*
X149770000Y-78590000D01*
G75*
G02*
X149295000Y-78115000I0J475000D01*
G01*
G37*
G04 #@! TD.AperFunction*
G04 #@! TA.AperFunction,ConnectorPad*
G36*
G01*
X146875000Y-78115000D02*
X146875000Y-75865000D01*
G75*
G02*
X147350000Y-75390000I475000J0D01*
G01*
X148300000Y-75390000D01*
G75*
G02*
X148775000Y-75865000I0J-475000D01*
G01*
X148775000Y-78115000D01*
G75*
G02*
X148300000Y-78590000I-475000J0D01*
G01*
X147350000Y-78590000D01*
G75*
G02*
X146875000Y-78115000I0J475000D01*
G01*
G37*
G04 #@! TD.AperFunction*
G04 #@! TA.AperFunction,ConnectorPad*
G36*
G01*
X144455000Y-78115000D02*
X144455000Y-75865000D01*
G75*
G02*
X144930000Y-75390000I475000J0D01*
G01*
X145880000Y-75390000D01*
G75*
G02*
X146355000Y-75865000I0J-475000D01*
G01*
X146355000Y-78115000D01*
G75*
G02*
X145880000Y-78590000I-475000J0D01*
G01*
X144930000Y-78590000D01*
G75*
G02*
X144455000Y-78115000I0J475000D01*
G01*
G37*
G04 #@! TD.AperFunction*
G04 #@! TA.AperFunction,ConnectorPad*
G36*
G01*
X142035000Y-78115000D02*
X142035000Y-75865000D01*
G75*
G02*
X142510000Y-75390000I475000J0D01*
G01*
X143460000Y-75390000D01*
G75*
G02*
X143935000Y-75865000I0J-475000D01*
G01*
X143935000Y-78115000D01*
G75*
G02*
X143460000Y-78590000I-475000J0D01*
G01*
X142510000Y-78590000D01*
G75*
G02*
X142035000Y-78115000I0J475000D01*
G01*
G37*
G04 #@! TD.AperFunction*
G04 #@! TA.AperFunction,ConnectorPad*
G36*
G01*
X139615000Y-78115000D02*
X139615000Y-75865000D01*
G75*
G02*
X140090000Y-75390000I475000J0D01*
G01*
X141040000Y-75390000D01*
G75*
G02*
X141515000Y-75865000I0J-475000D01*
G01*
X141515000Y-78115000D01*
G75*
G02*
X141040000Y-78590000I-475000J0D01*
G01*
X140090000Y-78590000D01*
G75*
G02*
X139615000Y-78115000I0J475000D01*
G01*
G37*
G04 #@! TD.AperFunction*
G04 #@! TA.AperFunction,ConnectorPad*
G36*
G01*
X137195000Y-78115000D02*
X137195000Y-75865000D01*
G75*
G02*
X137670000Y-75390000I475000J0D01*
G01*
X138620000Y-75390000D01*
G75*
G02*
X139095000Y-75865000I0J-475000D01*
G01*
X139095000Y-78115000D01*
G75*
G02*
X138620000Y-78590000I-475000J0D01*
G01*
X137670000Y-78590000D01*
G75*
G02*
X137195000Y-78115000I0J475000D01*
G01*
G37*
G04 #@! TD.AperFunction*
G04 #@! TA.AperFunction,SMDPad,CuDef*
G36*
G01*
X136440000Y-90485000D02*
X136440000Y-84235000D01*
G75*
G02*
X136815000Y-83860000I375000J0D01*
G01*
X137565000Y-83860000D01*
G75*
G02*
X137940000Y-84235000I0J-375000D01*
G01*
X137940000Y-90485000D01*
G75*
G02*
X137565000Y-90860000I-375000J0D01*
G01*
X136815000Y-90860000D01*
G75*
G02*
X136440000Y-90485000I0J375000D01*
G01*
G37*
G04 #@! TD.AperFunction*
G04 #@! TA.AperFunction,SMDPad,CuDef*
G36*
G01*
X138440000Y-90485000D02*
X138440000Y-84235000D01*
G75*
G02*
X138815000Y-83860000I375000J0D01*
G01*
X139565000Y-83860000D01*
G75*
G02*
X139940000Y-84235000I0J-375000D01*
G01*
X139940000Y-90485000D01*
G75*
G02*
X139565000Y-90860000I-375000J0D01*
G01*
X138815000Y-90860000D01*
G75*
G02*
X138440000Y-90485000I0J375000D01*
G01*
G37*
G04 #@! TD.AperFunction*
G04 #@! TA.AperFunction,SMDPad,CuDef*
G36*
G01*
X140440000Y-90485000D02*
X140440000Y-84235000D01*
G75*
G02*
X140815000Y-83860000I375000J0D01*
G01*
X141565000Y-83860000D01*
G75*
G02*
X141940000Y-84235000I0J-375000D01*
G01*
X141940000Y-90485000D01*
G75*
G02*
X141565000Y-90860000I-375000J0D01*
G01*
X140815000Y-90860000D01*
G75*
G02*
X140440000Y-90485000I0J375000D01*
G01*
G37*
G04 #@! TD.AperFunction*
G04 #@! TA.AperFunction,SMDPad,CuDef*
G36*
G01*
X142440000Y-90485000D02*
X142440000Y-84235000D01*
G75*
G02*
X142815000Y-83860000I375000J0D01*
G01*
X143565000Y-83860000D01*
G75*
G02*
X143940000Y-84235000I0J-375000D01*
G01*
X143940000Y-90485000D01*
G75*
G02*
X143565000Y-90860000I-375000J0D01*
G01*
X142815000Y-90860000D01*
G75*
G02*
X142440000Y-90485000I0J375000D01*
G01*
G37*
G04 #@! TD.AperFunction*
G04 #@! TA.AperFunction,SMDPad,CuDef*
G36*
G01*
X144440000Y-90485000D02*
X144440000Y-84235000D01*
G75*
G02*
X144815000Y-83860000I375000J0D01*
G01*
X145565000Y-83860000D01*
G75*
G02*
X145940000Y-84235000I0J-375000D01*
G01*
X145940000Y-90485000D01*
G75*
G02*
X145565000Y-90860000I-375000J0D01*
G01*
X144815000Y-90860000D01*
G75*
G02*
X144440000Y-90485000I0J375000D01*
G01*
G37*
G04 #@! TD.AperFunction*
G04 #@! TA.AperFunction,SMDPad,CuDef*
G36*
G01*
X146440000Y-90485000D02*
X146440000Y-84235000D01*
G75*
G02*
X146815000Y-83860000I375000J0D01*
G01*
X147565000Y-83860000D01*
G75*
G02*
X147940000Y-84235000I0J-375000D01*
G01*
X147940000Y-90485000D01*
G75*
G02*
X147565000Y-90860000I-375000J0D01*
G01*
X146815000Y-90860000D01*
G75*
G02*
X146440000Y-90485000I0J375000D01*
G01*
G37*
G04 #@! TD.AperFunction*
G04 #@! TA.AperFunction,SMDPad,CuDef*
G36*
G01*
X148440000Y-90485000D02*
X148440000Y-84235000D01*
G75*
G02*
X148815000Y-83860000I375000J0D01*
G01*
X149565000Y-83860000D01*
G75*
G02*
X149940000Y-84235000I0J-375000D01*
G01*
X149940000Y-90485000D01*
G75*
G02*
X149565000Y-90860000I-375000J0D01*
G01*
X148815000Y-90860000D01*
G75*
G02*
X148440000Y-90485000I0J375000D01*
G01*
G37*
G04 #@! TD.AperFunction*
G04 #@! TA.AperFunction,SMDPad,CuDef*
G36*
G01*
X150440000Y-90485000D02*
X150440000Y-84235000D01*
G75*
G02*
X150815000Y-83860000I375000J0D01*
G01*
X151565000Y-83860000D01*
G75*
G02*
X151940000Y-84235000I0J-375000D01*
G01*
X151940000Y-90485000D01*
G75*
G02*
X151565000Y-90860000I-375000J0D01*
G01*
X150815000Y-90860000D01*
G75*
G02*
X150440000Y-90485000I0J375000D01*
G01*
G37*
G04 #@! TD.AperFunction*
G04 #@! TA.AperFunction,SMDPad,CuDef*
D11*
G36*
X142240000Y-80910000D02*
G01*
X142790000Y-80910000D01*
X142790000Y-80910602D01*
X142814534Y-80910602D01*
X142863365Y-80915412D01*
X142911490Y-80924984D01*
X142958445Y-80939228D01*
X143003778Y-80958005D01*
X143047051Y-80981136D01*
X143087850Y-81008396D01*
X143125779Y-81039524D01*
X143160476Y-81074221D01*
X143191604Y-81112150D01*
X143218864Y-81152949D01*
X143241995Y-81196222D01*
X143260772Y-81241555D01*
X143275016Y-81288510D01*
X143284588Y-81336635D01*
X143289398Y-81385466D01*
X143289398Y-81410000D01*
X143290000Y-81410000D01*
X143290000Y-81910000D01*
X143289398Y-81910000D01*
X143289398Y-81934534D01*
X143284588Y-81983365D01*
X143275016Y-82031490D01*
X143260772Y-82078445D01*
X143241995Y-82123778D01*
X143218864Y-82167051D01*
X143191604Y-82207850D01*
X143160476Y-82245779D01*
X143125779Y-82280476D01*
X143087850Y-82311604D01*
X143047051Y-82338864D01*
X143003778Y-82361995D01*
X142958445Y-82380772D01*
X142911490Y-82395016D01*
X142863365Y-82404588D01*
X142814534Y-82409398D01*
X142790000Y-82409398D01*
X142790000Y-82410000D01*
X142240000Y-82410000D01*
X142240000Y-80910000D01*
G37*
G04 #@! TD.AperFunction*
G04 #@! TA.AperFunction,SMDPad,CuDef*
G36*
X140190000Y-82409398D02*
G01*
X140165466Y-82409398D01*
X140116635Y-82404588D01*
X140068510Y-82395016D01*
X140021555Y-82380772D01*
X139976222Y-82361995D01*
X139932949Y-82338864D01*
X139892150Y-82311604D01*
X139854221Y-82280476D01*
X139819524Y-82245779D01*
X139788396Y-82207850D01*
X139761136Y-82167051D01*
X139738005Y-82123778D01*
X139719228Y-82078445D01*
X139704984Y-82031490D01*
X139695412Y-81983365D01*
X139690602Y-81934534D01*
X139690602Y-81910000D01*
X139690000Y-81910000D01*
X139690000Y-81410000D01*
X139690602Y-81410000D01*
X139690602Y-81385466D01*
X139695412Y-81336635D01*
X139704984Y-81288510D01*
X139719228Y-81241555D01*
X139738005Y-81196222D01*
X139761136Y-81152949D01*
X139788396Y-81112150D01*
X139819524Y-81074221D01*
X139854221Y-81039524D01*
X139892150Y-81008396D01*
X139932949Y-80981136D01*
X139976222Y-80958005D01*
X140021555Y-80939228D01*
X140068510Y-80924984D01*
X140116635Y-80915412D01*
X140165466Y-80910602D01*
X140190000Y-80910602D01*
X140190000Y-80910000D01*
X140740000Y-80910000D01*
X140740000Y-82410000D01*
X140190000Y-82410000D01*
X140190000Y-82409398D01*
G37*
G04 #@! TD.AperFunction*
D12*
X141490000Y-81660000D03*
G04 #@! TA.AperFunction,SMDPad,CuDef*
D11*
G36*
X140190000Y-80910602D02*
G01*
X140214534Y-80910602D01*
X140263365Y-80915412D01*
X140311490Y-80924984D01*
X140358445Y-80939228D01*
X140403778Y-80958005D01*
X140447051Y-80981136D01*
X140487850Y-81008396D01*
X140525779Y-81039524D01*
X140560476Y-81074221D01*
X140591604Y-81112150D01*
X140618864Y-81152949D01*
X140641995Y-81196222D01*
X140660772Y-81241555D01*
X140675016Y-81288510D01*
X140684588Y-81336635D01*
X140689398Y-81385466D01*
X140689398Y-81410000D01*
X140690000Y-81410000D01*
X140690000Y-81910000D01*
X140689398Y-81910000D01*
X140689398Y-81934534D01*
X140684588Y-81983365D01*
X140675016Y-82031490D01*
X140660772Y-82078445D01*
X140641995Y-82123778D01*
X140618864Y-82167051D01*
X140591604Y-82207850D01*
X140560476Y-82245779D01*
X140525779Y-82280476D01*
X140487850Y-82311604D01*
X140447051Y-82338864D01*
X140403778Y-82361995D01*
X140358445Y-82380772D01*
X140311490Y-82395016D01*
X140263365Y-82404588D01*
X140214534Y-82409398D01*
X140190000Y-82409398D01*
X140190000Y-82410000D01*
X139640000Y-82410000D01*
X139640000Y-80910000D01*
X140190000Y-80910000D01*
X140190000Y-80910602D01*
G37*
G04 #@! TD.AperFunction*
D12*
X138890000Y-81660000D03*
G04 #@! TA.AperFunction,SMDPad,CuDef*
D11*
G36*
X138140000Y-82410000D02*
G01*
X137590000Y-82410000D01*
X137590000Y-82409398D01*
X137565466Y-82409398D01*
X137516635Y-82404588D01*
X137468510Y-82395016D01*
X137421555Y-82380772D01*
X137376222Y-82361995D01*
X137332949Y-82338864D01*
X137292150Y-82311604D01*
X137254221Y-82280476D01*
X137219524Y-82245779D01*
X137188396Y-82207850D01*
X137161136Y-82167051D01*
X137138005Y-82123778D01*
X137119228Y-82078445D01*
X137104984Y-82031490D01*
X137095412Y-81983365D01*
X137090602Y-81934534D01*
X137090602Y-81910000D01*
X137090000Y-81910000D01*
X137090000Y-81410000D01*
X137090602Y-81410000D01*
X137090602Y-81385466D01*
X137095412Y-81336635D01*
X137104984Y-81288510D01*
X137119228Y-81241555D01*
X137138005Y-81196222D01*
X137161136Y-81152949D01*
X137188396Y-81112150D01*
X137219524Y-81074221D01*
X137254221Y-81039524D01*
X137292150Y-81008396D01*
X137332949Y-80981136D01*
X137376222Y-80958005D01*
X137421555Y-80939228D01*
X137468510Y-80924984D01*
X137516635Y-80915412D01*
X137565466Y-80910602D01*
X137590000Y-80910602D01*
X137590000Y-80910000D01*
X138140000Y-80910000D01*
X138140000Y-82410000D01*
G37*
G04 #@! TD.AperFunction*
D13*
X146070000Y-79500000D03*
X139320000Y-79300000D03*
X149960000Y-83200000D03*
X138260000Y-83250000D03*
X136630000Y-78690000D03*
X149250000Y-80020000D03*
X147300000Y-79999998D03*
X140560000Y-76350000D03*
X138540000Y-80170000D03*
X147830000Y-76350000D03*
X141810000Y-80159998D03*
X142980000Y-76340000D03*
X140200000Y-80160008D03*
D14*
X137140000Y-83950000D02*
X137140000Y-88040000D01*
X136320000Y-83130000D02*
X137140000Y-83950000D01*
X138130000Y-78440000D02*
X136320000Y-80250000D01*
X137140000Y-88040000D02*
X137160000Y-88060000D01*
X136320000Y-80250000D02*
X136320000Y-83130000D01*
X138130000Y-76990000D02*
X138130000Y-78440000D01*
X141190000Y-87360000D02*
X141190000Y-83590000D01*
X145230000Y-88040000D02*
X145230000Y-84040000D01*
X145230000Y-84040000D02*
X149250000Y-80020000D01*
X143200000Y-84099998D02*
X146950001Y-80349997D01*
X143200000Y-87010000D02*
X143200000Y-84099998D01*
X146950001Y-80349997D02*
X147300000Y-79999998D01*
X147180000Y-84150000D02*
X147180000Y-88010000D01*
X151070000Y-77830000D02*
X151070000Y-80260000D01*
X150230000Y-76990000D02*
X151070000Y-77830000D01*
X151070000Y-80260000D02*
X147180000Y-84150000D01*
X138540000Y-80170000D02*
X138020000Y-80170000D01*
X138020000Y-80170000D02*
X137590000Y-80600000D01*
X137590000Y-80600000D02*
X137590000Y-81670000D01*
X139110000Y-81990000D02*
X139110000Y-82920000D01*
X139110000Y-83180000D02*
X139110000Y-87150000D01*
X139110000Y-82920000D02*
X139110000Y-83180000D01*
X141230000Y-82870000D02*
X139570000Y-82870000D01*
X139570000Y-82870000D02*
X139110000Y-83330000D01*
X141440000Y-82660000D02*
X141230000Y-82870000D01*
X141440000Y-81660000D02*
X141440000Y-82660000D01*
X141810000Y-80159998D02*
X142249998Y-80159998D01*
X142249998Y-80159998D02*
X142720000Y-80630000D01*
X142720000Y-80630000D02*
X142720000Y-81660000D01*
X140200000Y-81660000D02*
X140200000Y-80160008D01*
D15*
X139387600Y-75725284D02*
X139373839Y-75865000D01*
X139373839Y-78115000D01*
X139387600Y-78254716D01*
X139428354Y-78389063D01*
X139494534Y-78512878D01*
X139583598Y-78621402D01*
X139692122Y-78710466D01*
X139815937Y-78776646D01*
X139950284Y-78817400D01*
X140090000Y-78831161D01*
X141040000Y-78831161D01*
X141179716Y-78817400D01*
X141314063Y-78776646D01*
X141437878Y-78710466D01*
X141546402Y-78621402D01*
X141635466Y-78512878D01*
X141701646Y-78389063D01*
X141742400Y-78254716D01*
X141756161Y-78115000D01*
X141756161Y-75865000D01*
X141742400Y-75725284D01*
X141728663Y-75680000D01*
X141821337Y-75680000D01*
X141807600Y-75725284D01*
X141793839Y-75865000D01*
X141793839Y-78115000D01*
X141807600Y-78254716D01*
X141848354Y-78389063D01*
X141914534Y-78512878D01*
X142003598Y-78621402D01*
X142112122Y-78710466D01*
X142235937Y-78776646D01*
X142370284Y-78817400D01*
X142510000Y-78831161D01*
X143460000Y-78831161D01*
X143599716Y-78817400D01*
X143734063Y-78776646D01*
X143857878Y-78710466D01*
X143966402Y-78621402D01*
X144055466Y-78512878D01*
X144121646Y-78389063D01*
X144162400Y-78254716D01*
X144176161Y-78115000D01*
X144176161Y-75865000D01*
X144162400Y-75725284D01*
X144148663Y-75680000D01*
X146661337Y-75680000D01*
X146647600Y-75725284D01*
X146633839Y-75865000D01*
X146633839Y-78115000D01*
X146647600Y-78254716D01*
X146688354Y-78389063D01*
X146754534Y-78512878D01*
X146843598Y-78621402D01*
X146952122Y-78710466D01*
X147075937Y-78776646D01*
X147210284Y-78817400D01*
X147350000Y-78831161D01*
X148300000Y-78831161D01*
X148439716Y-78817400D01*
X148574063Y-78776646D01*
X148697878Y-78710466D01*
X148806402Y-78621402D01*
X148895466Y-78512878D01*
X148961646Y-78389063D01*
X149002400Y-78254716D01*
X149016161Y-78115000D01*
X149016161Y-75865000D01*
X149002400Y-75725284D01*
X148988663Y-75680000D01*
X149081337Y-75680000D01*
X149067600Y-75725284D01*
X149053839Y-75865000D01*
X149053839Y-78115000D01*
X149067600Y-78254716D01*
X149108354Y-78389063D01*
X149174534Y-78512878D01*
X149263598Y-78621402D01*
X149372122Y-78710466D01*
X149495937Y-78776646D01*
X149630284Y-78817400D01*
X149770000Y-78831161D01*
X150705000Y-78831161D01*
X150705001Y-80108811D01*
X147194974Y-83618839D01*
X146815000Y-83618839D01*
X146694793Y-83630678D01*
X146579205Y-83665741D01*
X146472679Y-83722681D01*
X146379308Y-83799308D01*
X146302681Y-83892679D01*
X146245741Y-83999205D01*
X146233366Y-84040000D01*
X146146634Y-84040000D01*
X146134259Y-83999205D01*
X146077319Y-83892679D01*
X146000692Y-83799308D01*
X145993105Y-83793082D01*
X149017510Y-80768678D01*
X149065236Y-80723884D01*
X149101130Y-80695044D01*
X149129385Y-80676391D01*
X149153524Y-80663813D01*
X149178740Y-80653695D01*
X149210416Y-80643752D01*
X149252236Y-80632634D01*
X149302958Y-80619643D01*
X149307653Y-80618390D01*
X149364896Y-80602487D01*
X149374068Y-80599740D01*
X149397433Y-80592233D01*
X149422097Y-80587327D01*
X149529470Y-80542851D01*
X149626103Y-80478283D01*
X149708283Y-80396103D01*
X149772851Y-80299470D01*
X149817327Y-80192097D01*
X149840000Y-80078110D01*
X149840000Y-79961890D01*
X149817327Y-79847903D01*
X149772851Y-79740530D01*
X149708283Y-79643897D01*
X149626103Y-79561717D01*
X149529470Y-79497149D01*
X149422097Y-79452673D01*
X149308110Y-79430000D01*
X149191890Y-79430000D01*
X149077903Y-79452673D01*
X148970530Y-79497149D01*
X148873897Y-79561717D01*
X148791717Y-79643897D01*
X148727149Y-79740530D01*
X148682673Y-79847903D01*
X148677769Y-79872556D01*
X148670260Y-79895926D01*
X148667512Y-79905103D01*
X148651609Y-79962346D01*
X148650356Y-79967041D01*
X148637365Y-80017763D01*
X148626247Y-80059583D01*
X148616304Y-80091259D01*
X148606186Y-80116475D01*
X148593608Y-80140614D01*
X148574955Y-80168869D01*
X148546114Y-80204763D01*
X148501317Y-80252495D01*
X145134974Y-83618839D01*
X144815000Y-83618839D01*
X144694793Y-83630678D01*
X144579205Y-83665741D01*
X144472679Y-83722681D01*
X144379308Y-83799308D01*
X144302681Y-83892679D01*
X144245741Y-83999205D01*
X144233366Y-84040000D01*
X144146634Y-84040000D01*
X144134259Y-83999205D01*
X144077319Y-83892679D01*
X144007987Y-83808198D01*
X147060517Y-80755669D01*
X147109505Y-80709587D01*
X147146666Y-80679506D01*
X147176141Y-80659778D01*
X147201324Y-80646378D01*
X147227318Y-80635643D01*
X147259445Y-80625203D01*
X147301435Y-80613642D01*
X147352666Y-80600151D01*
X147356745Y-80599038D01*
X147414826Y-80582644D01*
X147423356Y-80580065D01*
X147447935Y-80572131D01*
X147472097Y-80567325D01*
X147579470Y-80522849D01*
X147676103Y-80458281D01*
X147758283Y-80376101D01*
X147822851Y-80279468D01*
X147867327Y-80172095D01*
X147890000Y-80058108D01*
X147890000Y-79941888D01*
X147867327Y-79827901D01*
X147822851Y-79720528D01*
X147758283Y-79623895D01*
X147676103Y-79541715D01*
X147579470Y-79477147D01*
X147472097Y-79432671D01*
X147358110Y-79409998D01*
X147241890Y-79409998D01*
X147127903Y-79432671D01*
X147020530Y-79477147D01*
X146923897Y-79541715D01*
X146841717Y-79623895D01*
X146777149Y-79720528D01*
X146732673Y-79827901D01*
X146727867Y-79852062D01*
X146719934Y-79876637D01*
X146717353Y-79885171D01*
X146700959Y-79943252D01*
X146699846Y-79947331D01*
X146686355Y-79998562D01*
X146674794Y-80040552D01*
X146664354Y-80072679D01*
X146653619Y-80098673D01*
X146640219Y-80123856D01*
X146620491Y-80153331D01*
X146590409Y-80190492D01*
X146544323Y-80239487D01*
X143164972Y-83618839D01*
X142815000Y-83618839D01*
X142694793Y-83630678D01*
X142579205Y-83665741D01*
X142472679Y-83722681D01*
X142379308Y-83799308D01*
X142302681Y-83892679D01*
X142245741Y-83999205D01*
X142233366Y-84040000D01*
X140146634Y-84040000D01*
X140134259Y-83999205D01*
X140077319Y-83892679D01*
X140000692Y-83799308D01*
X139907321Y-83722681D01*
X139800795Y-83665741D01*
X139685207Y-83630678D01*
X139565000Y-83618839D01*
X139475000Y-83618839D01*
X139475000Y-83481187D01*
X139721188Y-83235000D01*
X141212071Y-83235000D01*
X141230000Y-83236766D01*
X141247929Y-83235000D01*
X141247931Y-83235000D01*
X141301552Y-83229719D01*
X141370355Y-83208848D01*
X141433764Y-83174955D01*
X141489343Y-83129343D01*
X141500779Y-83115408D01*
X141685408Y-82930779D01*
X141699343Y-82919343D01*
X141744955Y-82863764D01*
X141778848Y-82800355D01*
X141799719Y-82731552D01*
X141805000Y-82677931D01*
X141805000Y-82677929D01*
X141806766Y-82660000D01*
X141805895Y-82651161D01*
X141990000Y-82651161D01*
X142037048Y-82646527D01*
X142082288Y-82632804D01*
X142115000Y-82615319D01*
X142147712Y-82632804D01*
X142192952Y-82646527D01*
X142240000Y-82651161D01*
X142790000Y-82651161D01*
X142814448Y-82648753D01*
X142839009Y-82648753D01*
X142886057Y-82644119D01*
X142982190Y-82624997D01*
X143027429Y-82611274D01*
X143117985Y-82573765D01*
X143159680Y-82551479D01*
X143241179Y-82497023D01*
X143277724Y-82467032D01*
X143347032Y-82397724D01*
X143377023Y-82361179D01*
X143431479Y-82279680D01*
X143453765Y-82237985D01*
X143491274Y-82147429D01*
X143504997Y-82102190D01*
X143524119Y-82006057D01*
X143528753Y-81959009D01*
X143528753Y-81934448D01*
X143531161Y-81910000D01*
X143531161Y-81549539D01*
X143563875Y-81571398D01*
X143804434Y-81671041D01*
X144059810Y-81721838D01*
X144320190Y-81721838D01*
X144575566Y-81671041D01*
X144816125Y-81571398D01*
X145032623Y-81426739D01*
X145216739Y-81242623D01*
X145361398Y-81026125D01*
X145461041Y-80785566D01*
X145511838Y-80530190D01*
X145511838Y-80269810D01*
X145461041Y-80014434D01*
X145361398Y-79773875D01*
X145216739Y-79557377D01*
X145032623Y-79373261D01*
X144816125Y-79228602D01*
X144575566Y-79128959D01*
X144320190Y-79078162D01*
X144059810Y-79078162D01*
X143804434Y-79128959D01*
X143563875Y-79228602D01*
X143347377Y-79373261D01*
X143163261Y-79557377D01*
X143018602Y-79773875D01*
X142918959Y-80014434D01*
X142869462Y-80263275D01*
X142520777Y-79914590D01*
X142509341Y-79900655D01*
X142453762Y-79855043D01*
X142390353Y-79821150D01*
X142321550Y-79800279D01*
X142289483Y-79797121D01*
X142263665Y-79776551D01*
X142224166Y-79739778D01*
X142186103Y-79701715D01*
X142089470Y-79637147D01*
X141982097Y-79592671D01*
X141868110Y-79569998D01*
X141751890Y-79569998D01*
X141637903Y-79592671D01*
X141530530Y-79637147D01*
X141433897Y-79701715D01*
X141351717Y-79783895D01*
X141287149Y-79880528D01*
X141242673Y-79987901D01*
X141220000Y-80101888D01*
X141220000Y-80218108D01*
X141242673Y-80332095D01*
X141287149Y-80439468D01*
X141351717Y-80536101D01*
X141433897Y-80618281D01*
X141509563Y-80668839D01*
X140990000Y-80668839D01*
X140942952Y-80673473D01*
X140897712Y-80687196D01*
X140865000Y-80704681D01*
X140832288Y-80687196D01*
X140787048Y-80673473D01*
X140740000Y-80668839D01*
X140593279Y-80668839D01*
X140597698Y-80658496D01*
X140613073Y-80629053D01*
X140634803Y-80591587D01*
X140661462Y-80546568D01*
X140663893Y-80542367D01*
X140693125Y-80490645D01*
X140697669Y-80482216D01*
X140708887Y-80460376D01*
X140722851Y-80439478D01*
X140767327Y-80332105D01*
X140790000Y-80218118D01*
X140790000Y-80101898D01*
X140767327Y-79987911D01*
X140722851Y-79880538D01*
X140658283Y-79783905D01*
X140576103Y-79701725D01*
X140479470Y-79637157D01*
X140372097Y-79592681D01*
X140258110Y-79570008D01*
X140141890Y-79570008D01*
X140027903Y-79592681D01*
X139920530Y-79637157D01*
X139823897Y-79701725D01*
X139741717Y-79783905D01*
X139677149Y-79880538D01*
X139632673Y-79987911D01*
X139610000Y-80101898D01*
X139610000Y-80218118D01*
X139632673Y-80332105D01*
X139677149Y-80439478D01*
X139691108Y-80460369D01*
X139702328Y-80482213D01*
X139706874Y-80490645D01*
X139736106Y-80542367D01*
X139738537Y-80546568D01*
X139765196Y-80591587D01*
X139786926Y-80629053D01*
X139802301Y-80658496D01*
X139806720Y-80668839D01*
X139640000Y-80668839D01*
X139592952Y-80673473D01*
X139547712Y-80687196D01*
X139515000Y-80704681D01*
X139482288Y-80687196D01*
X139437048Y-80673473D01*
X139390000Y-80668839D01*
X138855407Y-80668839D01*
X138916103Y-80628283D01*
X138998283Y-80546103D01*
X139062851Y-80449470D01*
X139107327Y-80342097D01*
X139130000Y-80228110D01*
X139130000Y-80111890D01*
X139107327Y-79997903D01*
X139062851Y-79890530D01*
X138998283Y-79793897D01*
X138916103Y-79711717D01*
X138819470Y-79647149D01*
X138712097Y-79602673D01*
X138598110Y-79580000D01*
X138481890Y-79580000D01*
X138367903Y-79602673D01*
X138260530Y-79647149D01*
X138163897Y-79711717D01*
X138127950Y-79747664D01*
X138095901Y-79776041D01*
X138074347Y-79790580D01*
X138052333Y-79801706D01*
X138043907Y-79805000D01*
X138037929Y-79805000D01*
X138020000Y-79803234D01*
X138002071Y-79805000D01*
X138002069Y-79805000D01*
X137948448Y-79810281D01*
X137879645Y-79831152D01*
X137816236Y-79865045D01*
X137760657Y-79910657D01*
X137749225Y-79924587D01*
X137344588Y-80329225D01*
X137330657Y-80340658D01*
X137285045Y-80396237D01*
X137251152Y-80459646D01*
X137230281Y-80528449D01*
X137225000Y-80582069D01*
X137223234Y-80600000D01*
X137225000Y-80617929D01*
X137225000Y-80766019D01*
X137220320Y-80768521D01*
X137138821Y-80822977D01*
X137102276Y-80852968D01*
X137032968Y-80922276D01*
X137002977Y-80958821D01*
X136948521Y-81040320D01*
X136926235Y-81082015D01*
X136888726Y-81172571D01*
X136875003Y-81217810D01*
X136855881Y-81313943D01*
X136851247Y-81360991D01*
X136851247Y-81385552D01*
X136848839Y-81410000D01*
X136848839Y-81910000D01*
X136851247Y-81934448D01*
X136851247Y-81959009D01*
X136855881Y-82006057D01*
X136875003Y-82102190D01*
X136888726Y-82147429D01*
X136926235Y-82237985D01*
X136948521Y-82279680D01*
X137002977Y-82361179D01*
X137032968Y-82397724D01*
X137102276Y-82467032D01*
X137138821Y-82497023D01*
X137220320Y-82551479D01*
X137262015Y-82573765D01*
X137352571Y-82611274D01*
X137397810Y-82624997D01*
X137493943Y-82644119D01*
X137540991Y-82648753D01*
X137565552Y-82648753D01*
X137590000Y-82651161D01*
X138140000Y-82651161D01*
X138187048Y-82646527D01*
X138232288Y-82632804D01*
X138265000Y-82615319D01*
X138297712Y-82632804D01*
X138342952Y-82646527D01*
X138390000Y-82651161D01*
X138745001Y-82651161D01*
X138745001Y-82902060D01*
X138745000Y-82902070D01*
X138745000Y-83312071D01*
X138743234Y-83330000D01*
X138745000Y-83347929D01*
X138745000Y-83625733D01*
X138694793Y-83630678D01*
X138579205Y-83665741D01*
X138472679Y-83722681D01*
X138379308Y-83799308D01*
X138302681Y-83892679D01*
X138245741Y-83999205D01*
X138233366Y-84040000D01*
X138146634Y-84040000D01*
X138134259Y-83999205D01*
X138077319Y-83892679D01*
X138000692Y-83799308D01*
X137907321Y-83722681D01*
X137800795Y-83665741D01*
X137685207Y-83630678D01*
X137565000Y-83618839D01*
X137325027Y-83618839D01*
X136685000Y-82978813D01*
X136685000Y-80401187D01*
X138255027Y-78831161D01*
X138620000Y-78831161D01*
X138759716Y-78817400D01*
X138894063Y-78776646D01*
X139017878Y-78710466D01*
X139126402Y-78621402D01*
X139215466Y-78512878D01*
X139281646Y-78389063D01*
X139322400Y-78254716D01*
X139336161Y-78115000D01*
X139336161Y-75865000D01*
X139322400Y-75725284D01*
X139308663Y-75680000D01*
X139401337Y-75680000D01*
X139387600Y-75725284D01*
G04 #@! TA.AperFunction,Conductor*
D16*
G36*
X139387600Y-75725284D02*
G01*
X139373839Y-75865000D01*
X139373839Y-78115000D01*
X139387600Y-78254716D01*
X139428354Y-78389063D01*
X139494534Y-78512878D01*
X139583598Y-78621402D01*
X139692122Y-78710466D01*
X139815937Y-78776646D01*
X139950284Y-78817400D01*
X140090000Y-78831161D01*
X141040000Y-78831161D01*
X141179716Y-78817400D01*
X141314063Y-78776646D01*
X141437878Y-78710466D01*
X141546402Y-78621402D01*
X141635466Y-78512878D01*
X141701646Y-78389063D01*
X141742400Y-78254716D01*
X141756161Y-78115000D01*
X141756161Y-75865000D01*
X141742400Y-75725284D01*
X141728663Y-75680000D01*
X141821337Y-75680000D01*
X141807600Y-75725284D01*
X141793839Y-75865000D01*
X141793839Y-78115000D01*
X141807600Y-78254716D01*
X141848354Y-78389063D01*
X141914534Y-78512878D01*
X142003598Y-78621402D01*
X142112122Y-78710466D01*
X142235937Y-78776646D01*
X142370284Y-78817400D01*
X142510000Y-78831161D01*
X143460000Y-78831161D01*
X143599716Y-78817400D01*
X143734063Y-78776646D01*
X143857878Y-78710466D01*
X143966402Y-78621402D01*
X144055466Y-78512878D01*
X144121646Y-78389063D01*
X144162400Y-78254716D01*
X144176161Y-78115000D01*
X144176161Y-75865000D01*
X144162400Y-75725284D01*
X144148663Y-75680000D01*
X146661337Y-75680000D01*
X146647600Y-75725284D01*
X146633839Y-75865000D01*
X146633839Y-78115000D01*
X146647600Y-78254716D01*
X146688354Y-78389063D01*
X146754534Y-78512878D01*
X146843598Y-78621402D01*
X146952122Y-78710466D01*
X147075937Y-78776646D01*
X147210284Y-78817400D01*
X147350000Y-78831161D01*
X148300000Y-78831161D01*
X148439716Y-78817400D01*
X148574063Y-78776646D01*
X148697878Y-78710466D01*
X148806402Y-78621402D01*
X148895466Y-78512878D01*
X148961646Y-78389063D01*
X149002400Y-78254716D01*
X149016161Y-78115000D01*
X149016161Y-75865000D01*
X149002400Y-75725284D01*
X148988663Y-75680000D01*
X149081337Y-75680000D01*
X149067600Y-75725284D01*
X149053839Y-75865000D01*
X149053839Y-78115000D01*
X149067600Y-78254716D01*
X149108354Y-78389063D01*
X149174534Y-78512878D01*
X149263598Y-78621402D01*
X149372122Y-78710466D01*
X149495937Y-78776646D01*
X149630284Y-78817400D01*
X149770000Y-78831161D01*
X150705000Y-78831161D01*
X150705001Y-80108811D01*
X147194974Y-83618839D01*
X146815000Y-83618839D01*
X146694793Y-83630678D01*
X146579205Y-83665741D01*
X146472679Y-83722681D01*
X146379308Y-83799308D01*
X146302681Y-83892679D01*
X146245741Y-83999205D01*
X146233366Y-84040000D01*
X146146634Y-84040000D01*
X146134259Y-83999205D01*
X146077319Y-83892679D01*
X146000692Y-83799308D01*
X145993105Y-83793082D01*
X149017510Y-80768678D01*
X149065236Y-80723884D01*
X149101130Y-80695044D01*
X149129385Y-80676391D01*
X149153524Y-80663813D01*
X149178740Y-80653695D01*
X149210416Y-80643752D01*
X149252236Y-80632634D01*
X149302958Y-80619643D01*
X149307653Y-80618390D01*
X149364896Y-80602487D01*
X149374068Y-80599740D01*
X149397433Y-80592233D01*
X149422097Y-80587327D01*
X149529470Y-80542851D01*
X149626103Y-80478283D01*
X149708283Y-80396103D01*
X149772851Y-80299470D01*
X149817327Y-80192097D01*
X149840000Y-80078110D01*
X149840000Y-79961890D01*
X149817327Y-79847903D01*
X149772851Y-79740530D01*
X149708283Y-79643897D01*
X149626103Y-79561717D01*
X149529470Y-79497149D01*
X149422097Y-79452673D01*
X149308110Y-79430000D01*
X149191890Y-79430000D01*
X149077903Y-79452673D01*
X148970530Y-79497149D01*
X148873897Y-79561717D01*
X148791717Y-79643897D01*
X148727149Y-79740530D01*
X148682673Y-79847903D01*
X148677769Y-79872556D01*
X148670260Y-79895926D01*
X148667512Y-79905103D01*
X148651609Y-79962346D01*
X148650356Y-79967041D01*
X148637365Y-80017763D01*
X148626247Y-80059583D01*
X148616304Y-80091259D01*
X148606186Y-80116475D01*
X148593608Y-80140614D01*
X148574955Y-80168869D01*
X148546114Y-80204763D01*
X148501317Y-80252495D01*
X145134974Y-83618839D01*
X144815000Y-83618839D01*
X144694793Y-83630678D01*
X144579205Y-83665741D01*
X144472679Y-83722681D01*
X144379308Y-83799308D01*
X144302681Y-83892679D01*
X144245741Y-83999205D01*
X144233366Y-84040000D01*
X144146634Y-84040000D01*
X144134259Y-83999205D01*
X144077319Y-83892679D01*
X144007987Y-83808198D01*
X147060517Y-80755669D01*
X147109505Y-80709587D01*
X147146666Y-80679506D01*
X147176141Y-80659778D01*
X147201324Y-80646378D01*
X147227318Y-80635643D01*
X147259445Y-80625203D01*
X147301435Y-80613642D01*
X147352666Y-80600151D01*
X147356745Y-80599038D01*
X147414826Y-80582644D01*
X147423356Y-80580065D01*
X147447935Y-80572131D01*
X147472097Y-80567325D01*
X147579470Y-80522849D01*
X147676103Y-80458281D01*
X147758283Y-80376101D01*
X147822851Y-80279468D01*
X147867327Y-80172095D01*
X147890000Y-80058108D01*
X147890000Y-79941888D01*
X147867327Y-79827901D01*
X147822851Y-79720528D01*
X147758283Y-79623895D01*
X147676103Y-79541715D01*
X147579470Y-79477147D01*
X147472097Y-79432671D01*
X147358110Y-79409998D01*
X147241890Y-79409998D01*
X147127903Y-79432671D01*
X147020530Y-79477147D01*
X146923897Y-79541715D01*
X146841717Y-79623895D01*
X146777149Y-79720528D01*
X146732673Y-79827901D01*
X146727867Y-79852062D01*
X146719934Y-79876637D01*
X146717353Y-79885171D01*
X146700959Y-79943252D01*
X146699846Y-79947331D01*
X146686355Y-79998562D01*
X146674794Y-80040552D01*
X146664354Y-80072679D01*
X146653619Y-80098673D01*
X146640219Y-80123856D01*
X146620491Y-80153331D01*
X146590409Y-80190492D01*
X146544323Y-80239487D01*
X143164972Y-83618839D01*
X142815000Y-83618839D01*
X142694793Y-83630678D01*
X142579205Y-83665741D01*
X142472679Y-83722681D01*
X142379308Y-83799308D01*
X142302681Y-83892679D01*
X142245741Y-83999205D01*
X142233366Y-84040000D01*
X140146634Y-84040000D01*
X140134259Y-83999205D01*
X140077319Y-83892679D01*
X140000692Y-83799308D01*
X139907321Y-83722681D01*
X139800795Y-83665741D01*
X139685207Y-83630678D01*
X139565000Y-83618839D01*
X139475000Y-83618839D01*
X139475000Y-83481187D01*
X139721188Y-83235000D01*
X141212071Y-83235000D01*
X141230000Y-83236766D01*
X141247929Y-83235000D01*
X141247931Y-83235000D01*
X141301552Y-83229719D01*
X141370355Y-83208848D01*
X141433764Y-83174955D01*
X141489343Y-83129343D01*
X141500779Y-83115408D01*
X141685408Y-82930779D01*
X141699343Y-82919343D01*
X141744955Y-82863764D01*
X141778848Y-82800355D01*
X141799719Y-82731552D01*
X141805000Y-82677931D01*
X141805000Y-82677929D01*
X141806766Y-82660000D01*
X141805895Y-82651161D01*
X141990000Y-82651161D01*
X142037048Y-82646527D01*
X142082288Y-82632804D01*
X142115000Y-82615319D01*
X142147712Y-82632804D01*
X142192952Y-82646527D01*
X142240000Y-82651161D01*
X142790000Y-82651161D01*
X142814448Y-82648753D01*
X142839009Y-82648753D01*
X142886057Y-82644119D01*
X142982190Y-82624997D01*
X143027429Y-82611274D01*
X143117985Y-82573765D01*
X143159680Y-82551479D01*
X143241179Y-82497023D01*
X143277724Y-82467032D01*
X143347032Y-82397724D01*
X143377023Y-82361179D01*
X143431479Y-82279680D01*
X143453765Y-82237985D01*
X143491274Y-82147429D01*
X143504997Y-82102190D01*
X143524119Y-82006057D01*
X143528753Y-81959009D01*
X143528753Y-81934448D01*
X143531161Y-81910000D01*
X143531161Y-81549539D01*
X143563875Y-81571398D01*
X143804434Y-81671041D01*
X144059810Y-81721838D01*
X144320190Y-81721838D01*
X144575566Y-81671041D01*
X144816125Y-81571398D01*
X145032623Y-81426739D01*
X145216739Y-81242623D01*
X145361398Y-81026125D01*
X145461041Y-80785566D01*
X145511838Y-80530190D01*
X145511838Y-80269810D01*
X145461041Y-80014434D01*
X145361398Y-79773875D01*
X145216739Y-79557377D01*
X145032623Y-79373261D01*
X144816125Y-79228602D01*
X144575566Y-79128959D01*
X144320190Y-79078162D01*
X144059810Y-79078162D01*
X143804434Y-79128959D01*
X143563875Y-79228602D01*
X143347377Y-79373261D01*
X143163261Y-79557377D01*
X143018602Y-79773875D01*
X142918959Y-80014434D01*
X142869462Y-80263275D01*
X142520777Y-79914590D01*
X142509341Y-79900655D01*
X142453762Y-79855043D01*
X142390353Y-79821150D01*
X142321550Y-79800279D01*
X142289483Y-79797121D01*
X142263665Y-79776551D01*
X142224166Y-79739778D01*
X142186103Y-79701715D01*
X142089470Y-79637147D01*
X141982097Y-79592671D01*
X141868110Y-79569998D01*
X141751890Y-79569998D01*
X141637903Y-79592671D01*
X141530530Y-79637147D01*
X141433897Y-79701715D01*
X141351717Y-79783895D01*
X141287149Y-79880528D01*
X141242673Y-79987901D01*
X141220000Y-80101888D01*
X141220000Y-80218108D01*
X141242673Y-80332095D01*
X141287149Y-80439468D01*
X141351717Y-80536101D01*
X141433897Y-80618281D01*
X141509563Y-80668839D01*
X140990000Y-80668839D01*
X140942952Y-80673473D01*
X140897712Y-80687196D01*
X140865000Y-80704681D01*
X140832288Y-80687196D01*
X140787048Y-80673473D01*
X140740000Y-80668839D01*
X140593279Y-80668839D01*
X140597698Y-80658496D01*
X140613073Y-80629053D01*
X140634803Y-80591587D01*
X140661462Y-80546568D01*
X140663893Y-80542367D01*
X140693125Y-80490645D01*
X140697669Y-80482216D01*
X140708887Y-80460376D01*
X140722851Y-80439478D01*
X140767327Y-80332105D01*
X140790000Y-80218118D01*
X140790000Y-80101898D01*
X140767327Y-79987911D01*
X140722851Y-79880538D01*
X140658283Y-79783905D01*
X140576103Y-79701725D01*
X140479470Y-79637157D01*
X140372097Y-79592681D01*
X140258110Y-79570008D01*
X140141890Y-79570008D01*
X140027903Y-79592681D01*
X139920530Y-79637157D01*
X139823897Y-79701725D01*
X139741717Y-79783905D01*
X139677149Y-79880538D01*
X139632673Y-79987911D01*
X139610000Y-80101898D01*
X139610000Y-80218118D01*
X139632673Y-80332105D01*
X139677149Y-80439478D01*
X139691108Y-80460369D01*
X139702328Y-80482213D01*
X139706874Y-80490645D01*
X139736106Y-80542367D01*
X139738537Y-80546568D01*
X139765196Y-80591587D01*
X139786926Y-80629053D01*
X139802301Y-80658496D01*
X139806720Y-80668839D01*
X139640000Y-80668839D01*
X139592952Y-80673473D01*
X139547712Y-80687196D01*
X139515000Y-80704681D01*
X139482288Y-80687196D01*
X139437048Y-80673473D01*
X139390000Y-80668839D01*
X138855407Y-80668839D01*
X138916103Y-80628283D01*
X138998283Y-80546103D01*
X139062851Y-80449470D01*
X139107327Y-80342097D01*
X139130000Y-80228110D01*
X139130000Y-80111890D01*
X139107327Y-79997903D01*
X139062851Y-79890530D01*
X138998283Y-79793897D01*
X138916103Y-79711717D01*
X138819470Y-79647149D01*
X138712097Y-79602673D01*
X138598110Y-79580000D01*
X138481890Y-79580000D01*
X138367903Y-79602673D01*
X138260530Y-79647149D01*
X138163897Y-79711717D01*
X138127950Y-79747664D01*
X138095901Y-79776041D01*
X138074347Y-79790580D01*
X138052333Y-79801706D01*
X138043907Y-79805000D01*
X138037929Y-79805000D01*
X138020000Y-79803234D01*
X138002071Y-79805000D01*
X138002069Y-79805000D01*
X137948448Y-79810281D01*
X137879645Y-79831152D01*
X137816236Y-79865045D01*
X137760657Y-79910657D01*
X137749225Y-79924587D01*
X137344588Y-80329225D01*
X137330657Y-80340658D01*
X137285045Y-80396237D01*
X137251152Y-80459646D01*
X137230281Y-80528449D01*
X137225000Y-80582069D01*
X137223234Y-80600000D01*
X137225000Y-80617929D01*
X137225000Y-80766019D01*
X137220320Y-80768521D01*
X137138821Y-80822977D01*
X137102276Y-80852968D01*
X137032968Y-80922276D01*
X137002977Y-80958821D01*
X136948521Y-81040320D01*
X136926235Y-81082015D01*
X136888726Y-81172571D01*
X136875003Y-81217810D01*
X136855881Y-81313943D01*
X136851247Y-81360991D01*
X136851247Y-81385552D01*
X136848839Y-81410000D01*
X136848839Y-81910000D01*
X136851247Y-81934448D01*
X136851247Y-81959009D01*
X136855881Y-82006057D01*
X136875003Y-82102190D01*
X136888726Y-82147429D01*
X136926235Y-82237985D01*
X136948521Y-82279680D01*
X137002977Y-82361179D01*
X137032968Y-82397724D01*
X137102276Y-82467032D01*
X137138821Y-82497023D01*
X137220320Y-82551479D01*
X137262015Y-82573765D01*
X137352571Y-82611274D01*
X137397810Y-82624997D01*
X137493943Y-82644119D01*
X137540991Y-82648753D01*
X137565552Y-82648753D01*
X137590000Y-82651161D01*
X138140000Y-82651161D01*
X138187048Y-82646527D01*
X138232288Y-82632804D01*
X138265000Y-82615319D01*
X138297712Y-82632804D01*
X138342952Y-82646527D01*
X138390000Y-82651161D01*
X138745001Y-82651161D01*
X138745001Y-82902060D01*
X138745000Y-82902070D01*
X138745000Y-83312071D01*
X138743234Y-83330000D01*
X138745000Y-83347929D01*
X138745000Y-83625733D01*
X138694793Y-83630678D01*
X138579205Y-83665741D01*
X138472679Y-83722681D01*
X138379308Y-83799308D01*
X138302681Y-83892679D01*
X138245741Y-83999205D01*
X138233366Y-84040000D01*
X138146634Y-84040000D01*
X138134259Y-83999205D01*
X138077319Y-83892679D01*
X138000692Y-83799308D01*
X137907321Y-83722681D01*
X137800795Y-83665741D01*
X137685207Y-83630678D01*
X137565000Y-83618839D01*
X137325027Y-83618839D01*
X136685000Y-82978813D01*
X136685000Y-80401187D01*
X138255027Y-78831161D01*
X138620000Y-78831161D01*
X138759716Y-78817400D01*
X138894063Y-78776646D01*
X139017878Y-78710466D01*
X139126402Y-78621402D01*
X139215466Y-78512878D01*
X139281646Y-78389063D01*
X139322400Y-78254716D01*
X139336161Y-78115000D01*
X139336161Y-75865000D01*
X139322400Y-75725284D01*
X139308663Y-75680000D01*
X139401337Y-75680000D01*
X139387600Y-75725284D01*
G37*
G04 #@! TD.AperFunction*
D15*
X152150001Y-84040000D02*
X152146634Y-84040000D01*
X152134259Y-83999205D01*
X152077319Y-83892679D01*
X152000692Y-83799308D01*
X151907321Y-83722681D01*
X151800795Y-83665741D01*
X151685207Y-83630678D01*
X151565000Y-83618839D01*
X150815000Y-83618839D01*
X150694793Y-83630678D01*
X150579205Y-83665741D01*
X150472679Y-83722681D01*
X150379308Y-83799308D01*
X150302681Y-83892679D01*
X150245741Y-83999205D01*
X150233366Y-84040000D01*
X150146634Y-84040000D01*
X150134259Y-83999205D01*
X150077319Y-83892679D01*
X150000692Y-83799308D01*
X149907321Y-83722681D01*
X149800795Y-83665741D01*
X149685207Y-83630678D01*
X149565000Y-83618839D01*
X148815000Y-83618839D01*
X148694793Y-83630678D01*
X148579205Y-83665741D01*
X148472679Y-83722681D01*
X148379308Y-83799308D01*
X148302681Y-83892679D01*
X148245741Y-83999205D01*
X148233366Y-84040000D01*
X148146634Y-84040000D01*
X148134259Y-83999205D01*
X148077319Y-83892679D01*
X148021511Y-83824676D01*
X151315413Y-80530775D01*
X151329343Y-80519343D01*
X151374955Y-80463764D01*
X151408848Y-80400355D01*
X151429719Y-80331552D01*
X151435000Y-80277931D01*
X151435000Y-80277929D01*
X151436766Y-80260000D01*
X151435000Y-80242071D01*
X151435000Y-78126788D01*
X151436161Y-78115000D01*
X151436161Y-77836141D01*
X151436766Y-77829999D01*
X151436161Y-77823857D01*
X151436161Y-75865000D01*
X151422400Y-75725284D01*
X151408663Y-75680000D01*
X152150000Y-75680000D01*
X152150001Y-84040000D01*
G04 #@! TA.AperFunction,Conductor*
D16*
G36*
X152150001Y-84040000D02*
G01*
X152146634Y-84040000D01*
X152134259Y-83999205D01*
X152077319Y-83892679D01*
X152000692Y-83799308D01*
X151907321Y-83722681D01*
X151800795Y-83665741D01*
X151685207Y-83630678D01*
X151565000Y-83618839D01*
X150815000Y-83618839D01*
X150694793Y-83630678D01*
X150579205Y-83665741D01*
X150472679Y-83722681D01*
X150379308Y-83799308D01*
X150302681Y-83892679D01*
X150245741Y-83999205D01*
X150233366Y-84040000D01*
X150146634Y-84040000D01*
X150134259Y-83999205D01*
X150077319Y-83892679D01*
X150000692Y-83799308D01*
X149907321Y-83722681D01*
X149800795Y-83665741D01*
X149685207Y-83630678D01*
X149565000Y-83618839D01*
X148815000Y-83618839D01*
X148694793Y-83630678D01*
X148579205Y-83665741D01*
X148472679Y-83722681D01*
X148379308Y-83799308D01*
X148302681Y-83892679D01*
X148245741Y-83999205D01*
X148233366Y-84040000D01*
X148146634Y-84040000D01*
X148134259Y-83999205D01*
X148077319Y-83892679D01*
X148021511Y-83824676D01*
X151315413Y-80530775D01*
X151329343Y-80519343D01*
X151374955Y-80463764D01*
X151408848Y-80400355D01*
X151429719Y-80331552D01*
X151435000Y-80277931D01*
X151435000Y-80277929D01*
X151436766Y-80260000D01*
X151435000Y-80242071D01*
X151435000Y-78126788D01*
X151436161Y-78115000D01*
X151436161Y-77836141D01*
X151436766Y-77829999D01*
X151436161Y-77823857D01*
X151436161Y-75865000D01*
X151422400Y-75725284D01*
X151408663Y-75680000D01*
X152150000Y-75680000D01*
X152150001Y-84040000D01*
G37*
G04 #@! TD.AperFunction*
D15*
X136967600Y-75725284D02*
X136953839Y-75865000D01*
X136953839Y-78115000D01*
X136967600Y-78254716D01*
X137008354Y-78389063D01*
X137074534Y-78512878D01*
X137163598Y-78621402D01*
X137272122Y-78710466D01*
X137318537Y-78735275D01*
X136220000Y-79833813D01*
X136220000Y-75680000D01*
X136981337Y-75680000D01*
X136967600Y-75725284D01*
G04 #@! TA.AperFunction,Conductor*
D16*
G36*
X136967600Y-75725284D02*
G01*
X136953839Y-75865000D01*
X136953839Y-78115000D01*
X136967600Y-78254716D01*
X137008354Y-78389063D01*
X137074534Y-78512878D01*
X137163598Y-78621402D01*
X137272122Y-78710466D01*
X137318537Y-78735275D01*
X136220000Y-79833813D01*
X136220000Y-75680000D01*
X136981337Y-75680000D01*
X136967600Y-75725284D01*
G37*
G04 #@! TD.AperFunction*
D17*
X137256047Y-86585946D02*
X137256951Y-86589484D01*
X137267388Y-86614558D01*
X137268566Y-86616752D01*
X137269874Y-86618392D01*
X137286182Y-86635683D01*
X137288059Y-86637318D01*
X137289486Y-86638197D01*
X137310776Y-86649450D01*
X137313352Y-86650470D01*
X137338734Y-86657431D01*
X137340154Y-86657734D01*
X137368740Y-86662150D01*
X137369203Y-86662213D01*
X137399962Y-86665813D01*
X137431638Y-86670285D01*
X137463222Y-86677260D01*
X137485910Y-86685424D01*
X137418518Y-87631495D01*
X136454095Y-87350875D01*
X136468396Y-87248296D01*
X136510378Y-87162876D01*
X136572680Y-87095695D01*
X136649447Y-87039684D01*
X136734099Y-86988201D01*
X136734263Y-86988099D01*
X136819363Y-86934554D01*
X136820523Y-86933731D01*
X136898722Y-86871311D01*
X136900612Y-86869447D01*
X136965013Y-86791064D01*
X136966864Y-86788027D01*
X137010564Y-86686594D01*
X137011506Y-86683112D01*
X137026241Y-86562700D01*
X137253578Y-86562700D01*
X137256047Y-86585946D01*
G04 #@! TA.AperFunction,Conductor*
D16*
G36*
X137256047Y-86585946D02*
G01*
X137256951Y-86589484D01*
X137267388Y-86614558D01*
X137268566Y-86616752D01*
X137269874Y-86618392D01*
X137286182Y-86635683D01*
X137288059Y-86637318D01*
X137289486Y-86638197D01*
X137310776Y-86649450D01*
X137313352Y-86650470D01*
X137338734Y-86657431D01*
X137340154Y-86657734D01*
X137368740Y-86662150D01*
X137369203Y-86662213D01*
X137399962Y-86665813D01*
X137431638Y-86670285D01*
X137463222Y-86677260D01*
X137485910Y-86685424D01*
X137418518Y-87631495D01*
X136454095Y-87350875D01*
X136468396Y-87248296D01*
X136510378Y-87162876D01*
X136572680Y-87095695D01*
X136649447Y-87039684D01*
X136734099Y-86988201D01*
X136734263Y-86988099D01*
X136819363Y-86934554D01*
X136820523Y-86933731D01*
X136898722Y-86871311D01*
X136900612Y-86869447D01*
X136965013Y-86791064D01*
X136966864Y-86788027D01*
X137010564Y-86686594D01*
X137011506Y-86683112D01*
X137026241Y-86562700D01*
X137253578Y-86562700D01*
X137256047Y-86585946D01*
G37*
G04 #@! TD.AperFunction*
D17*
X141311053Y-86045761D02*
X141311221Y-86047282D01*
X141335995Y-86191225D01*
X141336427Y-86192978D01*
X141375079Y-86312529D01*
X141375777Y-86314248D01*
X141426149Y-86416199D01*
X141426924Y-86417551D01*
X141486856Y-86508695D01*
X141487418Y-86509483D01*
X141554753Y-86596613D01*
X141554920Y-86596824D01*
X141627392Y-86686600D01*
X141702680Y-86785584D01*
X141778737Y-86900619D01*
X141849409Y-87030973D01*
X141190000Y-87716678D01*
X140530590Y-87030973D01*
X140601262Y-86900619D01*
X140677319Y-86785584D01*
X140752607Y-86686600D01*
X140825079Y-86596824D01*
X140825246Y-86596613D01*
X140892581Y-86509483D01*
X140893143Y-86508695D01*
X140953075Y-86417551D01*
X140953850Y-86416199D01*
X141004222Y-86314248D01*
X141004920Y-86312529D01*
X141043572Y-86192978D01*
X141044004Y-86191225D01*
X141068778Y-86047282D01*
X141068946Y-86045761D01*
X141077082Y-85882700D01*
X141302918Y-85882700D01*
X141311053Y-86045761D01*
G04 #@! TA.AperFunction,Conductor*
D16*
G36*
X141311053Y-86045761D02*
G01*
X141311221Y-86047282D01*
X141335995Y-86191225D01*
X141336427Y-86192978D01*
X141375079Y-86312529D01*
X141375777Y-86314248D01*
X141426149Y-86416199D01*
X141426924Y-86417551D01*
X141486856Y-86508695D01*
X141487418Y-86509483D01*
X141554753Y-86596613D01*
X141554920Y-86596824D01*
X141627392Y-86686600D01*
X141702680Y-86785584D01*
X141778737Y-86900619D01*
X141849409Y-87030973D01*
X141190000Y-87716678D01*
X140530590Y-87030973D01*
X140601262Y-86900619D01*
X140677319Y-86785584D01*
X140752607Y-86686600D01*
X140825079Y-86596824D01*
X140825246Y-86596613D01*
X140892581Y-86509483D01*
X140893143Y-86508695D01*
X140953075Y-86417551D01*
X140953850Y-86416199D01*
X141004222Y-86314248D01*
X141004920Y-86312529D01*
X141043572Y-86192978D01*
X141044004Y-86191225D01*
X141068778Y-86047282D01*
X141068946Y-86045761D01*
X141077082Y-85882700D01*
X141302918Y-85882700D01*
X141311053Y-86045761D01*
G37*
G04 #@! TD.AperFunction*
D17*
X145358775Y-86683769D02*
X145359743Y-86687297D01*
X145404203Y-86788963D01*
X145406099Y-86792024D01*
X145471619Y-86870334D01*
X145473542Y-86872193D01*
X145553102Y-86934334D01*
X145554274Y-86935148D01*
X145640854Y-86988304D01*
X145641020Y-86988404D01*
X145727133Y-87039484D01*
X145805259Y-87095206D01*
X145868637Y-87162258D01*
X145911333Y-87247801D01*
X145925934Y-87351224D01*
X144991910Y-87655429D01*
X144823939Y-86720951D01*
X144853513Y-86707188D01*
X144892372Y-86696244D01*
X144931805Y-86689489D01*
X144970524Y-86684668D01*
X144970761Y-86684636D01*
X145007167Y-86679405D01*
X145008403Y-86679164D01*
X145040968Y-86671129D01*
X145043448Y-86670236D01*
X145070934Y-86656966D01*
X145073059Y-86655669D01*
X145074343Y-86654558D01*
X145095510Y-86633622D01*
X145097100Y-86631707D01*
X145098210Y-86629693D01*
X145111819Y-86598660D01*
X145112590Y-86596293D01*
X145112811Y-86594954D01*
X145116374Y-86562700D01*
X145343776Y-86562700D01*
X145358775Y-86683769D01*
G04 #@! TA.AperFunction,Conductor*
D16*
G36*
X145358775Y-86683769D02*
G01*
X145359743Y-86687297D01*
X145404203Y-86788963D01*
X145406099Y-86792024D01*
X145471619Y-86870334D01*
X145473542Y-86872193D01*
X145553102Y-86934334D01*
X145554274Y-86935148D01*
X145640854Y-86988304D01*
X145641020Y-86988404D01*
X145727133Y-87039484D01*
X145805259Y-87095206D01*
X145868637Y-87162258D01*
X145911333Y-87247801D01*
X145925934Y-87351224D01*
X144991910Y-87655429D01*
X144823939Y-86720951D01*
X144853513Y-86707188D01*
X144892372Y-86696244D01*
X144931805Y-86689489D01*
X144970524Y-86684668D01*
X144970761Y-86684636D01*
X145007167Y-86679405D01*
X145008403Y-86679164D01*
X145040968Y-86671129D01*
X145043448Y-86670236D01*
X145070934Y-86656966D01*
X145073059Y-86655669D01*
X145074343Y-86654558D01*
X145095510Y-86633622D01*
X145097100Y-86631707D01*
X145098210Y-86629693D01*
X145111819Y-86598660D01*
X145112590Y-86596293D01*
X145112811Y-86594954D01*
X145116374Y-86562700D01*
X145343776Y-86562700D01*
X145358775Y-86683769D01*
G37*
G04 #@! TD.AperFunction*
D17*
X149352340Y-80341299D02*
X149297027Y-80359071D01*
X149240113Y-80374883D01*
X149188433Y-80388119D01*
X149188321Y-80388148D01*
X149140364Y-80400897D01*
X149139824Y-80401054D01*
X149094190Y-80415378D01*
X149093264Y-80415708D01*
X149048403Y-80433709D01*
X149047263Y-80434233D01*
X149001629Y-80458012D01*
X149000501Y-80458676D01*
X148952547Y-80490333D01*
X148951589Y-80491032D01*
X148899767Y-80532671D01*
X148899031Y-80533311D01*
X148850765Y-80578611D01*
X148691389Y-80419235D01*
X148736688Y-80370968D01*
X148737328Y-80370232D01*
X148778967Y-80318410D01*
X148779666Y-80317452D01*
X148811323Y-80269498D01*
X148811987Y-80268370D01*
X148835766Y-80222736D01*
X148836290Y-80221596D01*
X148854291Y-80176735D01*
X148854621Y-80175809D01*
X148868945Y-80130175D01*
X148869102Y-80129635D01*
X148881851Y-80081678D01*
X148881880Y-80081566D01*
X148895116Y-80029886D01*
X148910928Y-79972972D01*
X148928701Y-79917660D01*
X149360787Y-79909213D01*
X149352340Y-80341299D01*
G04 #@! TA.AperFunction,Conductor*
D16*
G36*
X149352340Y-80341299D02*
G01*
X149297027Y-80359071D01*
X149240113Y-80374883D01*
X149188433Y-80388119D01*
X149188321Y-80388148D01*
X149140364Y-80400897D01*
X149139824Y-80401054D01*
X149094190Y-80415378D01*
X149093264Y-80415708D01*
X149048403Y-80433709D01*
X149047263Y-80434233D01*
X149001629Y-80458012D01*
X149000501Y-80458676D01*
X148952547Y-80490333D01*
X148951589Y-80491032D01*
X148899767Y-80532671D01*
X148899031Y-80533311D01*
X148850765Y-80578611D01*
X148691389Y-80419235D01*
X148736688Y-80370968D01*
X148737328Y-80370232D01*
X148778967Y-80318410D01*
X148779666Y-80317452D01*
X148811323Y-80269498D01*
X148811987Y-80268370D01*
X148835766Y-80222736D01*
X148836290Y-80221596D01*
X148854291Y-80176735D01*
X148854621Y-80175809D01*
X148868945Y-80130175D01*
X148869102Y-80129635D01*
X148881851Y-80081678D01*
X148881880Y-80081566D01*
X148895116Y-80029886D01*
X148910928Y-79972972D01*
X148928701Y-79917660D01*
X149360787Y-79909213D01*
X149352340Y-80341299D01*
G37*
G04 #@! TD.AperFunction*
D17*
X143321002Y-86037838D02*
X143321164Y-86039331D01*
X143345784Y-86185134D01*
X143346199Y-86186852D01*
X143384589Y-86308105D01*
X143385260Y-86309793D01*
X143435256Y-86413359D01*
X143436001Y-86414691D01*
X143495442Y-86507432D01*
X143495982Y-86508209D01*
X143562704Y-86596988D01*
X143562859Y-86597191D01*
X143634585Y-86688725D01*
X143709025Y-86789687D01*
X143784086Y-86906934D01*
X143853741Y-87039789D01*
X143185245Y-87716645D01*
X142535030Y-87022204D01*
X142607564Y-86892284D01*
X142685106Y-86777535D01*
X142761461Y-86678673D01*
X142834633Y-86588892D01*
X142834820Y-86588657D01*
X142902558Y-86501404D01*
X142903136Y-86500596D01*
X142963248Y-86409218D01*
X142964030Y-86407851D01*
X143014426Y-86305574D01*
X143015124Y-86303850D01*
X143053710Y-86183900D01*
X143054138Y-86182151D01*
X143078824Y-86037756D01*
X143078990Y-86036244D01*
X143087086Y-85872700D01*
X143312907Y-85872700D01*
X143321002Y-86037838D01*
G04 #@! TA.AperFunction,Conductor*
D16*
G36*
X143321002Y-86037838D02*
G01*
X143321164Y-86039331D01*
X143345784Y-86185134D01*
X143346199Y-86186852D01*
X143384589Y-86308105D01*
X143385260Y-86309793D01*
X143435256Y-86413359D01*
X143436001Y-86414691D01*
X143495442Y-86507432D01*
X143495982Y-86508209D01*
X143562704Y-86596988D01*
X143562859Y-86597191D01*
X143634585Y-86688725D01*
X143709025Y-86789687D01*
X143784086Y-86906934D01*
X143853741Y-87039789D01*
X143185245Y-87716645D01*
X142535030Y-87022204D01*
X142607564Y-86892284D01*
X142685106Y-86777535D01*
X142761461Y-86678673D01*
X142834633Y-86588892D01*
X142834820Y-86588657D01*
X142902558Y-86501404D01*
X142903136Y-86500596D01*
X142963248Y-86409218D01*
X142964030Y-86407851D01*
X143014426Y-86305574D01*
X143015124Y-86303850D01*
X143053710Y-86183900D01*
X143054138Y-86182151D01*
X143078824Y-86037756D01*
X143078990Y-86036244D01*
X143087086Y-85872700D01*
X143312907Y-85872700D01*
X143321002Y-86037838D01*
G37*
G04 #@! TD.AperFunction*
D17*
X147402340Y-80321309D02*
X147345945Y-80339514D01*
X147288212Y-80355809D01*
X147235793Y-80369613D01*
X147235656Y-80369650D01*
X147187102Y-80383019D01*
X147186548Y-80383185D01*
X147140372Y-80398190D01*
X147139450Y-80398530D01*
X147094060Y-80417274D01*
X147092941Y-80417801D01*
X147046749Y-80442382D01*
X147045651Y-80443039D01*
X146997065Y-80475557D01*
X146996138Y-80476240D01*
X146943567Y-80518796D01*
X146942856Y-80519416D01*
X146893684Y-80565671D01*
X146734327Y-80406314D01*
X146780581Y-80357140D01*
X146781201Y-80356430D01*
X146823757Y-80303859D01*
X146824440Y-80302932D01*
X146856958Y-80254346D01*
X146857615Y-80253248D01*
X146882196Y-80207056D01*
X146882723Y-80205937D01*
X146901467Y-80160547D01*
X146901807Y-80159625D01*
X146916812Y-80113449D01*
X146916978Y-80112895D01*
X146930347Y-80064341D01*
X146930384Y-80064204D01*
X146944188Y-80011785D01*
X146960481Y-79954060D01*
X146978689Y-79897658D01*
X147410787Y-79889211D01*
X147402340Y-80321309D01*
G04 #@! TA.AperFunction,Conductor*
D16*
G36*
X147402340Y-80321309D02*
G01*
X147345945Y-80339514D01*
X147288212Y-80355809D01*
X147235793Y-80369613D01*
X147235656Y-80369650D01*
X147187102Y-80383019D01*
X147186548Y-80383185D01*
X147140372Y-80398190D01*
X147139450Y-80398530D01*
X147094060Y-80417274D01*
X147092941Y-80417801D01*
X147046749Y-80442382D01*
X147045651Y-80443039D01*
X146997065Y-80475557D01*
X146996138Y-80476240D01*
X146943567Y-80518796D01*
X146942856Y-80519416D01*
X146893684Y-80565671D01*
X146734327Y-80406314D01*
X146780581Y-80357140D01*
X146781201Y-80356430D01*
X146823757Y-80303859D01*
X146824440Y-80302932D01*
X146856958Y-80254346D01*
X146857615Y-80253248D01*
X146882196Y-80207056D01*
X146882723Y-80205937D01*
X146901467Y-80160547D01*
X146901807Y-80159625D01*
X146916812Y-80113449D01*
X146916978Y-80112895D01*
X146930347Y-80064341D01*
X146930384Y-80064204D01*
X146944188Y-80011785D01*
X146960481Y-79954060D01*
X146978689Y-79897658D01*
X147410787Y-79889211D01*
X147402340Y-80321309D01*
G37*
G04 #@! TD.AperFunction*
D17*
X147302627Y-86609732D02*
X147303155Y-86612165D01*
X147303639Y-86613432D01*
X147332124Y-86677440D01*
X147333354Y-86679604D01*
X147334566Y-86681072D01*
X147377930Y-86726234D01*
X147380735Y-86728433D01*
X147435616Y-86760161D01*
X147437501Y-86761053D01*
X147500535Y-86784760D01*
X147501234Y-86785000D01*
X147568871Y-86806041D01*
X147637262Y-86829647D01*
X147702835Y-86860936D01*
X147762609Y-86905032D01*
X147808543Y-86960815D01*
X147229388Y-87714496D01*
X146498975Y-87106377D01*
X146538846Y-87028798D01*
X146597109Y-86966655D01*
X146666063Y-86920718D01*
X146741631Y-86884797D01*
X146819109Y-86852809D01*
X146819582Y-86852602D01*
X146893736Y-86818392D01*
X146895333Y-86817511D01*
X146961176Y-86774749D01*
X146963630Y-86772670D01*
X147016469Y-86714906D01*
X147017961Y-86712913D01*
X147018707Y-86711484D01*
X147053851Y-86632268D01*
X147054633Y-86629905D01*
X147054853Y-86628620D01*
X147066277Y-86532700D01*
X147293689Y-86532700D01*
X147302627Y-86609732D01*
G04 #@! TA.AperFunction,Conductor*
D16*
G36*
X147302627Y-86609732D02*
G01*
X147303155Y-86612165D01*
X147303639Y-86613432D01*
X147332124Y-86677440D01*
X147333354Y-86679604D01*
X147334566Y-86681072D01*
X147377930Y-86726234D01*
X147380735Y-86728433D01*
X147435616Y-86760161D01*
X147437501Y-86761053D01*
X147500535Y-86784760D01*
X147501234Y-86785000D01*
X147568871Y-86806041D01*
X147637262Y-86829647D01*
X147702835Y-86860936D01*
X147762609Y-86905032D01*
X147808543Y-86960815D01*
X147229388Y-87714496D01*
X146498975Y-87106377D01*
X146538846Y-87028798D01*
X146597109Y-86966655D01*
X146666063Y-86920718D01*
X146741631Y-86884797D01*
X146819109Y-86852809D01*
X146819582Y-86852602D01*
X146893736Y-86818392D01*
X146895333Y-86817511D01*
X146961176Y-86774749D01*
X146963630Y-86772670D01*
X147016469Y-86714906D01*
X147017961Y-86712913D01*
X147018707Y-86711484D01*
X147053851Y-86632268D01*
X147054633Y-86629905D01*
X147054853Y-86628620D01*
X147066277Y-86532700D01*
X147293689Y-86532700D01*
X147302627Y-86609732D01*
G37*
G04 #@! TD.AperFunction*
D17*
X138694103Y-80172477D02*
X138385392Y-80469349D01*
X138348027Y-80448654D01*
X138305565Y-80420463D01*
X138264926Y-80391322D01*
X138264813Y-80391242D01*
X138225624Y-80363784D01*
X138224923Y-80363327D01*
X138186713Y-80340148D01*
X138185181Y-80339355D01*
X138147302Y-80322921D01*
X138144606Y-80322093D01*
X138106413Y-80314874D01*
X138103933Y-80314654D01*
X138102615Y-80314735D01*
X138063459Y-80319199D01*
X138061025Y-80319722D01*
X138059623Y-80320264D01*
X138018857Y-80338879D01*
X138016085Y-80340607D01*
X137981959Y-80368556D01*
X137822767Y-80209364D01*
X137870035Y-80166722D01*
X137922501Y-80129252D01*
X137971664Y-80102151D01*
X138018546Y-80082151D01*
X138064320Y-80066005D01*
X138109386Y-80050711D01*
X138109929Y-80050513D01*
X138154991Y-80032897D01*
X138156096Y-80032404D01*
X138201794Y-80009308D01*
X138203167Y-80008502D01*
X138250287Y-79976718D01*
X138251604Y-79975697D01*
X138294038Y-79938125D01*
X138694103Y-80172477D01*
G04 #@! TA.AperFunction,Conductor*
D16*
G36*
X138694103Y-80172477D02*
G01*
X138385392Y-80469349D01*
X138348027Y-80448654D01*
X138305565Y-80420463D01*
X138264926Y-80391322D01*
X138264813Y-80391242D01*
X138225624Y-80363784D01*
X138224923Y-80363327D01*
X138186713Y-80340148D01*
X138185181Y-80339355D01*
X138147302Y-80322921D01*
X138144606Y-80322093D01*
X138106413Y-80314874D01*
X138103933Y-80314654D01*
X138102615Y-80314735D01*
X138063459Y-80319199D01*
X138061025Y-80319722D01*
X138059623Y-80320264D01*
X138018857Y-80338879D01*
X138016085Y-80340607D01*
X137981959Y-80368556D01*
X137822767Y-80209364D01*
X137870035Y-80166722D01*
X137922501Y-80129252D01*
X137971664Y-80102151D01*
X138018546Y-80082151D01*
X138064320Y-80066005D01*
X138109386Y-80050711D01*
X138109929Y-80050513D01*
X138154991Y-80032897D01*
X138156096Y-80032404D01*
X138201794Y-80009308D01*
X138203167Y-80008502D01*
X138250287Y-79976718D01*
X138251604Y-79975697D01*
X138294038Y-79938125D01*
X138694103Y-80172477D01*
G37*
G04 #@! TD.AperFunction*
D17*
X137703293Y-81233578D02*
X137703318Y-81234167D01*
X137706295Y-81279911D01*
X137706367Y-81280666D01*
X137711336Y-81320307D01*
X137711481Y-81321204D01*
X137718448Y-81356239D01*
X137718678Y-81357198D01*
X137727649Y-81389124D01*
X137727934Y-81390014D01*
X137738915Y-81420325D01*
X137739191Y-81421020D01*
X137752188Y-81451213D01*
X137752385Y-81451648D01*
X137767404Y-81483220D01*
X137767490Y-81483397D01*
X137784522Y-81517814D01*
X137799676Y-81548641D01*
X137590000Y-81766678D01*
X137380325Y-81548642D01*
X137395478Y-81517813D01*
X137395477Y-81517813D01*
X137412509Y-81483397D01*
X137412595Y-81483220D01*
X137427614Y-81451648D01*
X137427811Y-81451213D01*
X137440808Y-81421020D01*
X137441084Y-81420325D01*
X137452065Y-81390014D01*
X137452350Y-81389124D01*
X137461321Y-81357198D01*
X137461551Y-81356239D01*
X137468518Y-81321204D01*
X137468663Y-81320307D01*
X137473632Y-81280666D01*
X137473704Y-81279911D01*
X137476681Y-81234167D01*
X137476706Y-81233578D01*
X137477466Y-81192700D01*
X137702534Y-81192700D01*
X137703293Y-81233578D01*
G04 #@! TA.AperFunction,Conductor*
D16*
G36*
X137703293Y-81233578D02*
G01*
X137703318Y-81234167D01*
X137706295Y-81279911D01*
X137706367Y-81280666D01*
X137711336Y-81320307D01*
X137711481Y-81321204D01*
X137718448Y-81356239D01*
X137718678Y-81357198D01*
X137727649Y-81389124D01*
X137727934Y-81390014D01*
X137738915Y-81420325D01*
X137739191Y-81421020D01*
X137752188Y-81451213D01*
X137752385Y-81451648D01*
X137767404Y-81483220D01*
X137767490Y-81483397D01*
X137784522Y-81517814D01*
X137799676Y-81548641D01*
X137590000Y-81766678D01*
X137380325Y-81548642D01*
X137395478Y-81517813D01*
X137395477Y-81517813D01*
X137412509Y-81483397D01*
X137412595Y-81483220D01*
X137427614Y-81451648D01*
X137427811Y-81451213D01*
X137440808Y-81421020D01*
X137441084Y-81420325D01*
X137452065Y-81390014D01*
X137452350Y-81389124D01*
X137461321Y-81357198D01*
X137461551Y-81356239D01*
X137468518Y-81321204D01*
X137468663Y-81320307D01*
X137473632Y-81280666D01*
X137473704Y-81279911D01*
X137476681Y-81234167D01*
X137476706Y-81233578D01*
X137477466Y-81192700D01*
X137702534Y-81192700D01*
X137703293Y-81233578D01*
G37*
G04 #@! TD.AperFunction*
D17*
X139376961Y-81668731D02*
X139372989Y-81773961D01*
X139361332Y-81870737D01*
X139344154Y-81955261D01*
X139323238Y-82032456D01*
X139300356Y-82107218D01*
X139300330Y-82107304D01*
X139277390Y-82184183D01*
X139277246Y-82184708D01*
X139256165Y-82268282D01*
X139255986Y-82269106D01*
X139238627Y-82364148D01*
X139238491Y-82365093D01*
X139226711Y-82476373D01*
X139226647Y-82477294D01*
X139222710Y-82597300D01*
X138997047Y-82597300D01*
X138992711Y-82515182D01*
X138992516Y-82513534D01*
X138978021Y-82435454D01*
X138977480Y-82433461D01*
X138954083Y-82368631D01*
X138953112Y-82366551D01*
X138921436Y-82312152D01*
X138920182Y-82310371D01*
X138880851Y-82263587D01*
X138879655Y-82262346D01*
X138833292Y-82220358D01*
X138832439Y-82219650D01*
X138779666Y-82179643D01*
X138779260Y-82179348D01*
X138720701Y-82138502D01*
X138657153Y-82094122D01*
X138623139Y-82068722D01*
X138632497Y-82057570D01*
X138632788Y-82057041D01*
X138633175Y-82056573D01*
X138640912Y-82042264D01*
X138648735Y-82028034D01*
X138648918Y-82027456D01*
X138649206Y-82026924D01*
X138654020Y-82011373D01*
X138658926Y-81995906D01*
X138658993Y-81995307D01*
X138659173Y-81994726D01*
X138660879Y-81978498D01*
X138662683Y-81962411D01*
X138662691Y-81961252D01*
X138662696Y-81961206D01*
X138662692Y-81961160D01*
X138662700Y-81960000D01*
X138662700Y-81842267D01*
X138788234Y-81451897D01*
X139376961Y-81668731D01*
G04 #@! TA.AperFunction,Conductor*
D16*
G36*
X139376961Y-81668731D02*
G01*
X139372989Y-81773961D01*
X139361332Y-81870737D01*
X139344154Y-81955261D01*
X139323238Y-82032456D01*
X139300356Y-82107218D01*
X139300330Y-82107304D01*
X139277390Y-82184183D01*
X139277246Y-82184708D01*
X139256165Y-82268282D01*
X139255986Y-82269106D01*
X139238627Y-82364148D01*
X139238491Y-82365093D01*
X139226711Y-82476373D01*
X139226647Y-82477294D01*
X139222710Y-82597300D01*
X138997047Y-82597300D01*
X138992711Y-82515182D01*
X138992516Y-82513534D01*
X138978021Y-82435454D01*
X138977480Y-82433461D01*
X138954083Y-82368631D01*
X138953112Y-82366551D01*
X138921436Y-82312152D01*
X138920182Y-82310371D01*
X138880851Y-82263587D01*
X138879655Y-82262346D01*
X138833292Y-82220358D01*
X138832439Y-82219650D01*
X138779666Y-82179643D01*
X138779260Y-82179348D01*
X138720701Y-82138502D01*
X138657153Y-82094122D01*
X138623139Y-82068722D01*
X138632497Y-82057570D01*
X138632788Y-82057041D01*
X138633175Y-82056573D01*
X138640912Y-82042264D01*
X138648735Y-82028034D01*
X138648918Y-82027456D01*
X138649206Y-82026924D01*
X138654020Y-82011373D01*
X138658926Y-81995906D01*
X138658993Y-81995307D01*
X138659173Y-81994726D01*
X138660879Y-81978498D01*
X138662683Y-81962411D01*
X138662691Y-81961252D01*
X138662696Y-81961206D01*
X138662692Y-81961160D01*
X138662700Y-81960000D01*
X138662700Y-81842267D01*
X138788234Y-81451897D01*
X139376961Y-81668731D01*
G37*
G04 #@! TD.AperFunction*
D17*
X139231013Y-86031023D02*
X139231192Y-86032598D01*
X139256046Y-86172453D01*
X139256519Y-86174300D01*
X139295675Y-86290076D01*
X139296465Y-86291918D01*
X139348070Y-86390057D01*
X139348982Y-86391535D01*
X139411180Y-86478478D01*
X139411895Y-86479387D01*
X139482834Y-86561576D01*
X139483138Y-86561916D01*
X139560900Y-86645726D01*
X139643463Y-86737408D01*
X139728963Y-86843327D01*
X139810807Y-86962868D01*
X139227831Y-87714666D01*
X138499413Y-87102770D01*
X138558226Y-86959938D01*
X138623974Y-86834042D01*
X138691077Y-86725805D01*
X138757259Y-86627985D01*
X138757315Y-86627901D01*
X138820056Y-86533563D01*
X138820466Y-86532904D01*
X138877214Y-86435104D01*
X138877828Y-86433902D01*
X138926168Y-86325494D01*
X138926742Y-86323942D01*
X138964261Y-86197782D01*
X138964627Y-86196178D01*
X138988908Y-86045119D01*
X138989055Y-86043701D01*
X138997116Y-85872700D01*
X139222932Y-85872700D01*
X139231013Y-86031023D01*
G04 #@! TA.AperFunction,Conductor*
D16*
G36*
X139231013Y-86031023D02*
G01*
X139231192Y-86032598D01*
X139256046Y-86172453D01*
X139256519Y-86174300D01*
X139295675Y-86290076D01*
X139296465Y-86291918D01*
X139348070Y-86390057D01*
X139348982Y-86391535D01*
X139411180Y-86478478D01*
X139411895Y-86479387D01*
X139482834Y-86561576D01*
X139483138Y-86561916D01*
X139560900Y-86645726D01*
X139643463Y-86737408D01*
X139728963Y-86843327D01*
X139810807Y-86962868D01*
X139227831Y-87714666D01*
X138499413Y-87102770D01*
X138558226Y-86959938D01*
X138623974Y-86834042D01*
X138691077Y-86725805D01*
X138757259Y-86627985D01*
X138757315Y-86627901D01*
X138820056Y-86533563D01*
X138820466Y-86532904D01*
X138877214Y-86435104D01*
X138877828Y-86433902D01*
X138926168Y-86325494D01*
X138926742Y-86323942D01*
X138964261Y-86197782D01*
X138964627Y-86196178D01*
X138988908Y-86045119D01*
X138989055Y-86043701D01*
X138997116Y-85872700D01*
X139222932Y-85872700D01*
X139231013Y-86031023D01*
G37*
G04 #@! TD.AperFunction*
D17*
X141899894Y-81923103D02*
X141850730Y-81996987D01*
X141798564Y-82065907D01*
X141748979Y-82126631D01*
X141702958Y-82182917D01*
X141702607Y-82183367D01*
X141661197Y-82238932D01*
X141660543Y-82239899D01*
X141624645Y-82298642D01*
X141623892Y-82300072D01*
X141594406Y-82365893D01*
X141593795Y-82367562D01*
X141571619Y-82444358D01*
X141571265Y-82445968D01*
X141557300Y-82537640D01*
X141557167Y-82538995D01*
X141552846Y-82637300D01*
X141327202Y-82637300D01*
X141322920Y-82530388D01*
X141322814Y-82529183D01*
X141309316Y-82430043D01*
X141309049Y-82428659D01*
X141288037Y-82345097D01*
X141287602Y-82343709D01*
X141260288Y-82271342D01*
X141259791Y-82270200D01*
X141227391Y-82204641D01*
X141227018Y-82203941D01*
X141190746Y-82140806D01*
X141190634Y-82140614D01*
X141151765Y-82075622D01*
X141111660Y-82004659D01*
X141071410Y-81923207D01*
X141035435Y-81834871D01*
X141513518Y-81429519D01*
X141899894Y-81923103D01*
G04 #@! TA.AperFunction,Conductor*
D16*
G36*
X141899894Y-81923103D02*
G01*
X141850730Y-81996987D01*
X141798564Y-82065907D01*
X141748979Y-82126631D01*
X141702958Y-82182917D01*
X141702607Y-82183367D01*
X141661197Y-82238932D01*
X141660543Y-82239899D01*
X141624645Y-82298642D01*
X141623892Y-82300072D01*
X141594406Y-82365893D01*
X141593795Y-82367562D01*
X141571619Y-82444358D01*
X141571265Y-82445968D01*
X141557300Y-82537640D01*
X141557167Y-82538995D01*
X141552846Y-82637300D01*
X141327202Y-82637300D01*
X141322920Y-82530388D01*
X141322814Y-82529183D01*
X141309316Y-82430043D01*
X141309049Y-82428659D01*
X141288037Y-82345097D01*
X141287602Y-82343709D01*
X141260288Y-82271342D01*
X141259791Y-82270200D01*
X141227391Y-82204641D01*
X141227018Y-82203941D01*
X141190746Y-82140806D01*
X141190634Y-82140614D01*
X141151765Y-82075622D01*
X141111660Y-82004659D01*
X141071410Y-81923207D01*
X141035435Y-81834871D01*
X141513518Y-81429519D01*
X141899894Y-81923103D01*
G37*
G04 #@! TD.AperFunction*
D17*
X142098235Y-79967798D02*
X142098975Y-79968436D01*
X142144520Y-80004723D01*
X142145279Y-80005282D01*
X142188168Y-80034530D01*
X142188787Y-80034927D01*
X142230225Y-80059800D01*
X142230536Y-80059981D01*
X142271673Y-80083114D01*
X142313561Y-80107083D01*
X142357326Y-80134482D01*
X142404309Y-80168015D01*
X142455860Y-80210428D01*
X142503999Y-80255734D01*
X142344751Y-80414982D01*
X142313804Y-80388732D01*
X142311673Y-80387269D01*
X142273468Y-80366420D01*
X142270561Y-80365272D01*
X142233528Y-80355703D01*
X142230344Y-80355299D01*
X142193990Y-80355320D01*
X142191279Y-80355614D01*
X142155112Y-80363539D01*
X142153240Y-80364104D01*
X142116767Y-80378242D01*
X142115671Y-80378727D01*
X142078400Y-80397390D01*
X142077902Y-80397654D01*
X142039341Y-80419153D01*
X142039308Y-80419170D01*
X141999141Y-80441717D01*
X141964798Y-80459530D01*
X141655897Y-80162475D01*
X142055751Y-79928246D01*
X142098235Y-79967798D01*
G04 #@! TA.AperFunction,Conductor*
D16*
G36*
X142098235Y-79967798D02*
G01*
X142098975Y-79968436D01*
X142144520Y-80004723D01*
X142145279Y-80005282D01*
X142188168Y-80034530D01*
X142188787Y-80034927D01*
X142230225Y-80059800D01*
X142230536Y-80059981D01*
X142271673Y-80083114D01*
X142313561Y-80107083D01*
X142357326Y-80134482D01*
X142404309Y-80168015D01*
X142455860Y-80210428D01*
X142503999Y-80255734D01*
X142344751Y-80414982D01*
X142313804Y-80388732D01*
X142311673Y-80387269D01*
X142273468Y-80366420D01*
X142270561Y-80365272D01*
X142233528Y-80355703D01*
X142230344Y-80355299D01*
X142193990Y-80355320D01*
X142191279Y-80355614D01*
X142155112Y-80363539D01*
X142153240Y-80364104D01*
X142116767Y-80378242D01*
X142115671Y-80378727D01*
X142078400Y-80397390D01*
X142077902Y-80397654D01*
X142039341Y-80419153D01*
X142039308Y-80419170D01*
X141999141Y-80441717D01*
X141964798Y-80459530D01*
X141655897Y-80162475D01*
X142055751Y-79928246D01*
X142098235Y-79967798D01*
G37*
G04 #@! TD.AperFunction*
D17*
X142833438Y-81218793D02*
X142833479Y-81219548D01*
X142836960Y-81261447D01*
X142837082Y-81262439D01*
X142843022Y-81298859D01*
X142843281Y-81300074D01*
X142851794Y-81332135D01*
X142852231Y-81333475D01*
X142863428Y-81362297D01*
X142864018Y-81363594D01*
X142878014Y-81390294D01*
X142878652Y-81391378D01*
X142895559Y-81417078D01*
X142896116Y-81417858D01*
X142916047Y-81443677D01*
X142916436Y-81444157D01*
X142939504Y-81471213D01*
X142939704Y-81471442D01*
X142960154Y-81494297D01*
X142819869Y-81762411D01*
X142557540Y-81611810D01*
X142564716Y-81571001D01*
X142572861Y-81527431D01*
X142580343Y-81488052D01*
X142580361Y-81487953D01*
X142587096Y-81450916D01*
X142587138Y-81450670D01*
X142593049Y-81414089D01*
X142593103Y-81413723D01*
X142598113Y-81375712D01*
X142598162Y-81375285D01*
X142602192Y-81333959D01*
X142602226Y-81333536D01*
X142605201Y-81287009D01*
X142605220Y-81286635D01*
X142607062Y-81233021D01*
X142607068Y-81232713D01*
X142607572Y-81182700D01*
X142832593Y-81182700D01*
X142833438Y-81218793D01*
G04 #@! TA.AperFunction,Conductor*
D16*
G36*
X142833438Y-81218793D02*
G01*
X142833479Y-81219548D01*
X142836960Y-81261447D01*
X142837082Y-81262439D01*
X142843022Y-81298859D01*
X142843281Y-81300074D01*
X142851794Y-81332135D01*
X142852231Y-81333475D01*
X142863428Y-81362297D01*
X142864018Y-81363594D01*
X142878014Y-81390294D01*
X142878652Y-81391378D01*
X142895559Y-81417078D01*
X142896116Y-81417858D01*
X142916047Y-81443677D01*
X142916436Y-81444157D01*
X142939504Y-81471213D01*
X142939704Y-81471442D01*
X142960154Y-81494297D01*
X142819869Y-81762411D01*
X142557540Y-81611810D01*
X142564716Y-81571001D01*
X142572861Y-81527431D01*
X142580343Y-81488052D01*
X142580361Y-81487953D01*
X142587096Y-81450916D01*
X142587138Y-81450670D01*
X142593049Y-81414089D01*
X142593103Y-81413723D01*
X142598113Y-81375712D01*
X142598162Y-81375285D01*
X142602192Y-81333959D01*
X142602226Y-81333536D01*
X142605201Y-81287009D01*
X142605220Y-81286635D01*
X142607062Y-81233021D01*
X142607068Y-81232713D01*
X142607572Y-81182700D01*
X142832593Y-81182700D01*
X142833438Y-81218793D01*
G37*
G04 #@! TD.AperFunction*
D17*
X140499559Y-80314834D02*
X140472999Y-80366540D01*
X140443970Y-80417903D01*
X140416766Y-80463843D01*
X140416708Y-80463942D01*
X140391812Y-80506867D01*
X140391541Y-80507360D01*
X140369401Y-80549757D01*
X140368979Y-80550646D01*
X140349986Y-80595096D01*
X140349551Y-80596272D01*
X140334097Y-80645354D01*
X140333769Y-80646621D01*
X140322246Y-80702915D01*
X140322063Y-80704086D01*
X140314862Y-80770172D01*
X140314793Y-80771146D01*
X140312696Y-80837308D01*
X140087304Y-80837308D01*
X140085206Y-80771145D01*
X140085137Y-80770172D01*
X140077936Y-80704086D01*
X140077753Y-80702915D01*
X140066230Y-80646621D01*
X140065902Y-80645354D01*
X140050448Y-80596272D01*
X140050013Y-80595096D01*
X140031020Y-80550646D01*
X140030598Y-80549757D01*
X140008458Y-80507360D01*
X140008187Y-80506867D01*
X139983291Y-80463942D01*
X139983233Y-80463843D01*
X139956029Y-80417903D01*
X139927000Y-80366540D01*
X139900441Y-80314834D01*
X140200000Y-80003330D01*
X140499559Y-80314834D01*
G04 #@! TA.AperFunction,Conductor*
D16*
G36*
X140499559Y-80314834D02*
G01*
X140472999Y-80366540D01*
X140443970Y-80417903D01*
X140416766Y-80463843D01*
X140416708Y-80463942D01*
X140391812Y-80506867D01*
X140391541Y-80507360D01*
X140369401Y-80549757D01*
X140368979Y-80550646D01*
X140349986Y-80595096D01*
X140349551Y-80596272D01*
X140334097Y-80645354D01*
X140333769Y-80646621D01*
X140322246Y-80702915D01*
X140322063Y-80704086D01*
X140314862Y-80770172D01*
X140314793Y-80771146D01*
X140312696Y-80837308D01*
X140087304Y-80837308D01*
X140085206Y-80771145D01*
X140085137Y-80770172D01*
X140077936Y-80704086D01*
X140077753Y-80702915D01*
X140066230Y-80646621D01*
X140065902Y-80645354D01*
X140050448Y-80596272D01*
X140050013Y-80595096D01*
X140031020Y-80550646D01*
X140030598Y-80549757D01*
X140008458Y-80507360D01*
X140008187Y-80506867D01*
X139983291Y-80463942D01*
X139983233Y-80463843D01*
X139956029Y-80417903D01*
X139927000Y-80366540D01*
X139900441Y-80314834D01*
X140200000Y-80003330D01*
X140499559Y-80314834D01*
G37*
G04 #@! TD.AperFunction*
D17*
X140313216Y-81225971D02*
X140313235Y-81226494D01*
X140315992Y-81274321D01*
X140316049Y-81274995D01*
X140320666Y-81316470D01*
X140320783Y-81317279D01*
X140327282Y-81353984D01*
X140327468Y-81354856D01*
X140335865Y-81388374D01*
X140336100Y-81389194D01*
X140346417Y-81421109D01*
X140346646Y-81421758D01*
X140358901Y-81453653D01*
X140359067Y-81454063D01*
X140373279Y-81487520D01*
X140373353Y-81487692D01*
X140389531Y-81524272D01*
X140404134Y-81557462D01*
X140185560Y-81766585D01*
X139985126Y-81539991D01*
X140001612Y-81509516D01*
X140001633Y-81509477D01*
X140019940Y-81475354D01*
X140020073Y-81475099D01*
X140036030Y-81443667D01*
X140036278Y-81443150D01*
X140049936Y-81412942D01*
X140050256Y-81412167D01*
X140061669Y-81381716D01*
X140061985Y-81380759D01*
X140071205Y-81348597D01*
X140071450Y-81347592D01*
X140078530Y-81312253D01*
X140078679Y-81311331D01*
X140083671Y-81271346D01*
X140083743Y-81270586D01*
X140086700Y-81224489D01*
X140086724Y-81223906D01*
X140087472Y-81182700D01*
X140312507Y-81182700D01*
X140313216Y-81225971D01*
G04 #@! TA.AperFunction,Conductor*
D16*
G36*
X140313216Y-81225971D02*
G01*
X140313235Y-81226494D01*
X140315992Y-81274321D01*
X140316049Y-81274995D01*
X140320666Y-81316470D01*
X140320783Y-81317279D01*
X140327282Y-81353984D01*
X140327468Y-81354856D01*
X140335865Y-81388374D01*
X140336100Y-81389194D01*
X140346417Y-81421109D01*
X140346646Y-81421758D01*
X140358901Y-81453653D01*
X140359067Y-81454063D01*
X140373279Y-81487520D01*
X140373353Y-81487692D01*
X140389531Y-81524272D01*
X140404134Y-81557462D01*
X140185560Y-81766585D01*
X139985126Y-81539991D01*
X140001612Y-81509516D01*
X140001633Y-81509477D01*
X140019940Y-81475354D01*
X140020073Y-81475099D01*
X140036030Y-81443667D01*
X140036278Y-81443150D01*
X140049936Y-81412942D01*
X140050256Y-81412167D01*
X140061669Y-81381716D01*
X140061985Y-81380759D01*
X140071205Y-81348597D01*
X140071450Y-81347592D01*
X140078530Y-81312253D01*
X140078679Y-81311331D01*
X140083671Y-81271346D01*
X140083743Y-81270586D01*
X140086700Y-81224489D01*
X140086724Y-81223906D01*
X140087472Y-81182700D01*
X140312507Y-81182700D01*
X140313216Y-81225971D01*
G37*
G04 #@! TD.AperFunction*
D17*
X140313216Y-81225971D02*
X140313235Y-81226494D01*
X140315992Y-81274321D01*
X140316049Y-81274995D01*
X140320666Y-81316470D01*
X140320783Y-81317279D01*
X140327282Y-81353984D01*
X140327468Y-81354856D01*
X140335865Y-81388374D01*
X140336100Y-81389194D01*
X140346417Y-81421109D01*
X140346646Y-81421758D01*
X140358901Y-81453653D01*
X140359067Y-81454063D01*
X140373279Y-81487520D01*
X140373353Y-81487692D01*
X140389531Y-81524272D01*
X140404134Y-81557462D01*
X140185560Y-81766585D01*
X139985126Y-81539991D01*
X140001612Y-81509516D01*
X140001633Y-81509477D01*
X140019940Y-81475354D01*
X140020073Y-81475099D01*
X140036030Y-81443667D01*
X140036278Y-81443150D01*
X140049936Y-81412942D01*
X140050256Y-81412167D01*
X140061669Y-81381716D01*
X140061985Y-81380759D01*
X140071205Y-81348597D01*
X140071450Y-81347592D01*
X140078530Y-81312253D01*
X140078679Y-81311331D01*
X140083671Y-81271346D01*
X140083743Y-81270586D01*
X140086700Y-81224489D01*
X140086724Y-81223906D01*
X140087472Y-81182700D01*
X140312507Y-81182700D01*
X140313216Y-81225971D01*
G04 #@! TA.AperFunction,Conductor*
D16*
G36*
X140313216Y-81225971D02*
G01*
X140313235Y-81226494D01*
X140315992Y-81274321D01*
X140316049Y-81274995D01*
X140320666Y-81316470D01*
X140320783Y-81317279D01*
X140327282Y-81353984D01*
X140327468Y-81354856D01*
X140335865Y-81388374D01*
X140336100Y-81389194D01*
X140346417Y-81421109D01*
X140346646Y-81421758D01*
X140358901Y-81453653D01*
X140359067Y-81454063D01*
X140373279Y-81487520D01*
X140373353Y-81487692D01*
X140389531Y-81524272D01*
X140404134Y-81557462D01*
X140185560Y-81766585D01*
X139985126Y-81539991D01*
X140001612Y-81509516D01*
X140001633Y-81509477D01*
X140019940Y-81475354D01*
X140020073Y-81475099D01*
X140036030Y-81443667D01*
X140036278Y-81443150D01*
X140049936Y-81412942D01*
X140050256Y-81412167D01*
X140061669Y-81381716D01*
X140061985Y-81380759D01*
X140071205Y-81348597D01*
X140071450Y-81347592D01*
X140078530Y-81312253D01*
X140078679Y-81311331D01*
X140083671Y-81271346D01*
X140083743Y-81270586D01*
X140086700Y-81224489D01*
X140086724Y-81223906D01*
X140087472Y-81182700D01*
X140312507Y-81182700D01*
X140313216Y-81225971D01*
G37*
G04 #@! TD.AperFunction*
M02*
